<?xml version="1.0" encoding="utf-8"?>
<!-- Generator: Adobe Illustrator 26.2.1, SVG Export Plug-In . SVG Version: 6.00 Build 0)  -->
<svg version="1.1" id="Layer_1" xmlns="http://www.w3.org/2000/svg" xmlns:xlink="http://www.w3.org/1999/xlink" x="0px" y="0px"
	 viewBox="0 0 14 14" style="enable-background:new 0 0 14 14;" xml:space="preserve">
<path d="M7,0C3.1,0,0,3.1,0,7s3.1,7,7,7s7-3.1,7-7C14,3.1,10.9,0,7,0z M6.6,3.4C6,3.4,5.4,3.3,4.8,3.2C4.9,3,5,2.7,5.1,2.5
	c0.3-0.7,0.9-1.3,1.5-1.6V3.4z M6.6,4.3v2.3H4c0-0.9,0.2-1.8,0.4-2.6C5.2,4.1,5.9,4.2,6.6,4.3z M6.6,7.4v2.3c-0.7,0-1.4,0.1-2.1,0.3
	C4.2,9.2,4.1,8.3,4,7.4H6.6z M6.6,10.6v2.5c-0.7-0.4-1.2-0.9-1.5-1.6C5,11.3,4.9,11,4.8,10.8C5.4,10.7,6,10.6,6.6,10.6z M7.4,10.6
	c0.6,0,1.2,0.1,1.8,0.3C9.1,11,9,11.3,8.9,11.5c-0.3,0.7-0.9,1.3-1.5,1.6L7.4,10.6z M7.4,9.7V7.4H10c0,0.9-0.2,1.8-0.4,2.6
	C8.8,9.9,8.1,9.8,7.4,9.7z M7.4,6.6V4.3c0.7,0,1.4-0.1,2.1-0.3C9.8,4.8,9.9,5.7,10,6.6H7.4z M7.4,3.4V0.9c0.7,0.4,1.2,0.9,1.5,1.6
	C9,2.7,9.1,3,9.2,3.2C8.6,3.3,8,3.4,7.4,3.4z M9.7,2.1C9.5,1.8,9.2,1.5,9,1.1c0.8,0.3,1.6,0.7,2.2,1.3c-0.4,0.2-0.7,0.4-1.1,0.5
	C9.9,2.7,9.8,2.4,9.7,2.1z M4.3,2.1C4.2,2.4,4.1,2.7,4,2.9C3.6,2.8,3.2,2.6,2.8,2.4c0.6-0.6,1.4-1,2.2-1.3C4.8,1.5,4.5,1.8,4.3,2.1z
	 M3.7,3.7C3.4,4.7,3.2,5.6,3.2,6.6H0.8c0.1-1.3,0.6-2.5,1.4-3.5C2.7,3.3,3.2,3.5,3.7,3.7z M3.2,7.4c0,1,0.2,1.9,0.5,2.9
	c-0.5,0.2-1,0.4-1.5,0.7c-0.8-1-1.3-2.2-1.4-3.5H3.2z M4,11.1c0.1,0.3,0.2,0.5,0.4,0.8c0.2,0.4,0.4,0.7,0.7,1
	c-0.8-0.3-1.6-0.7-2.2-1.3C3.2,11.4,3.6,11.2,4,11.1L4,11.1z M9.7,11.9c0.1-0.3,0.3-0.5,0.4-0.8c0.4,0.1,0.8,0.3,1.1,0.5
	c-0.6,0.6-1.4,1-2.2,1.3C9.2,12.5,9.5,12.2,9.7,11.9L9.7,11.9z M10.3,10.3c0.3-0.9,0.4-1.9,0.5-2.9h2.4c-0.1,1.3-0.6,2.5-1.4,3.5
	C11.3,10.7,10.8,10.5,10.3,10.3L10.3,10.3z M10.8,6.6c0-1-0.2-1.9-0.5-2.9c0.5-0.2,1-0.4,1.4-0.7c0.8,1,1.3,2.2,1.4,3.5H10.8z"/>
</svg>
