<svg xmlns="http://www.w3.org/2000/svg" width="1108" height="554" viewBox="0 0 1108 554">
  <g id="그룹_4019" data-name="그룹 4019" transform="translate(-406 -3373)">
    <rect id="사각형_2735" data-name="사각형 2735" width="234" height="100" rx="20" transform="translate(406 3446)" fill="#4d9dfa"/>
    <g id="그룹_4000" data-name="그룹 4000" transform="translate(-0.3)">
      <path id="패스_20178" data-name="패스 20178" d="M7.37-13a15.988,15.988,0,0,0,.2,2.519,10.545,10.545,0,0,0,.66,2.365,8.386,8.386,0,0,0,1.21,2.057,6.537,6.537,0,0,0,1.848,1.573L9.592-2.376A6.784,6.784,0,0,1,7.359-4.444,10.907,10.907,0,0,1,5.984-7.326a12.77,12.77,0,0,1-1.43,3.157A7.141,7.141,0,0,1,2.266-1.892L.55-4.026A7.3,7.3,0,0,0,2.42-5.731,9.152,9.152,0,0,0,3.663-7.909a11.511,11.511,0,0,0,.682-2.486A16.512,16.512,0,0,0,4.554-13v-.99H1.3v-2.354h9.02v2.354H7.37Zm4.114-5.038H14.19V.968H11.484V-9.108H8.91v-2.354h2.574Zm6.842-.352V1.87h-2.75V-18.392Zm5.852,6.468a2.5,2.5,0,0,0,.759,1.947,2.715,2.715,0,0,0,1.9.693,2.725,2.725,0,0,0,1.892-.693,2.485,2.485,0,0,0,.77-1.947,2.485,2.485,0,0,0-.77-1.947,2.725,2.725,0,0,0-1.892-.693,2.715,2.715,0,0,0-1.9.693A2.5,2.5,0,0,0,24.178-11.924Zm8.14,0A4.983,4.983,0,0,1,31.9-9.867a4.951,4.951,0,0,1-1.166,1.628,5.392,5.392,0,0,1-1.749,1.078,5.924,5.924,0,0,1-2.145.385,5.986,5.986,0,0,1-2.167-.385,5.392,5.392,0,0,1-1.749-1.078,4.951,4.951,0,0,1-1.166-1.628,4.983,4.983,0,0,1-.418-2.057,5.06,5.06,0,0,1,.418-2.068,4.8,4.8,0,0,1,1.166-1.628,5.494,5.494,0,0,1,1.749-1.067,5.986,5.986,0,0,1,2.167-.385,5.924,5.924,0,0,1,2.145.385,5.494,5.494,0,0,1,1.749,1.067A4.8,4.8,0,0,1,31.9-13.992,5.06,5.06,0,0,1,32.318-11.924ZM26.972-.77h10.89V1.54H24.068V-5.148h2.9ZM39.82-12.562v2.376H37.136V-3.63h-2.9V-18.37h2.9v5.808Zm23.408,5.7h-2.9V-18.348h2.9Zm-8.8-8.008H50.292v4.026h4.136ZM57.266-8.58H47.432v-8.58h9.834Zm.7,4.95A2.462,2.462,0,0,0,58.52-2.6a4.6,4.6,0,0,0,1.232.99,8.947,8.947,0,0,0,1.925.8,13.2,13.2,0,0,0,2.629.473l-.924,2.156A12.586,12.586,0,0,1,59.1.781,7.311,7.311,0,0,1,56.43-1.21a7.08,7.08,0,0,1-2.684,2,12.974,12.974,0,0,1-4.334,1.034L48.51-.33a14.069,14.069,0,0,0,2.662-.462,8.559,8.559,0,0,0,1.936-.792,4.6,4.6,0,0,0,1.232-.99,2.449,2.449,0,0,0,.55-1.056H49.28V-5.786h5.676v-1.65H57.9v1.65h5.654V-3.63Zm26.8-9.856h-7.9v1.826h7.9Zm2.882,4.092H73.986v-8.338h2.882v2.068h7.9v-2.068h2.882ZM76.67-.77H87.978V1.54H73.766V-4.026h2.9ZM90-7.986V-5.7h-7.48v3.19h-2.9V-5.7H71.632V-7.986Zm12.474,1.034a7.685,7.685,0,0,1-2.728-1.595,7.745,7.745,0,0,1-1.738-2.365,8.165,8.165,0,0,1-1.837,2.6A7.844,7.844,0,0,1,93.28-6.6L91.762-8.888a7.451,7.451,0,0,0,2.156-1.1A6.451,6.451,0,0,0,95.4-11.539,6.171,6.171,0,0,0,96.25-13.4a7.821,7.821,0,0,0,.264-2.024v-1.914h2.948v2.09a6.66,6.66,0,0,0,.264,1.859,5.941,5.941,0,0,0,.814,1.716,6.085,6.085,0,0,0,1.408,1.441A7.236,7.236,0,0,0,103.994-9.2ZM95.018-5.39h13.816v7.3h-2.9V-3.1H95.018Zm13.816-12.98V-6.314h-2.9v-5.918h-3.7v-2.354h3.7V-18.37Z" transform="translate(487 3505)" fill="#fff"/>
      <path id="패스_20179" data-name="패스 20179" d="M-14.64-9a11.537,11.537,0,0,1,1.6-6.5A5.749,5.749,0,0,1-7.9-17.88,5.749,5.749,0,0,1-2.748-15.5,11.537,11.537,0,0,1-1.152-9a11.636,11.636,0,0,1-1.6,6.552A5.749,5.749,0,0,1-7.9-.072a5.749,5.749,0,0,1-5.148-2.376A11.636,11.636,0,0,1-14.64-9Zm9.456,0a10.352,10.352,0,0,0-.528-3.732A2.112,2.112,0,0,0-7.9-14.04a2.112,2.112,0,0,0-2.184,1.308A10.352,10.352,0,0,0-10.608-9a15.69,15.69,0,0,0,.192,2.7,3.455,3.455,0,0,0,.78,1.728,2.209,2.209,0,0,0,1.74.66,2.209,2.209,0,0,0,1.74-.66A3.455,3.455,0,0,0-5.376-6.3,15.69,15.69,0,0,0-5.184-9Zm5.76-4.7V-17.52H7.224V0H2.952V-13.7ZM12.36.192A2.487,2.487,0,0,1,10.6-.444a2.061,2.061,0,0,1-.684-1.572A2.125,2.125,0,0,1,10.6-3.624a2.461,2.461,0,0,1,1.764-.648,2.428,2.428,0,0,1,1.74.648,2.125,2.125,0,0,1,.684,1.608A2.061,2.061,0,0,1,14.1-.444,2.455,2.455,0,0,1,12.36.192Z" transform="translate(464.3 3505)" fill="#fff"/>
    </g>
    <g id="그룹_3967" data-name="그룹 3967" transform="translate(0 16)">
      <g id="그룹_3966" data-name="그룹 3966">
        <rect id="사각형_2738" data-name="사각형 2738" width="259" height="100" rx="20" transform="translate(1255 3430)" fill="#8546ea"/>
      </g>
    </g>
    <rect id="사각형_2736" data-name="사각형 2736" width="234" height="100" rx="20" transform="translate(657 3446)" fill="#4d7cfa"/>
    <g id="그룹_3971" data-name="그룹 3971" transform="translate(0 39)">
      <rect id="사각형_2737" data-name="사각형 2737" width="329" height="100" rx="20" transform="translate(909 3407)" fill="#7260fa"/>
    </g>
    <text id="본사_개발인력_Pool_활용_약_50명_" data-name="본사 개발인력 Pool 활용 (약 50명)" transform="translate(960 3399)" fill="#1f1f1f" font-size="30" font-family="SpoqaHanSans-Bold, SpoqaHanSans" font-weight="700"><tspan x="-205.014" y="0">본사 개발인력 Pool 활용</tspan><tspan y="0" xml:space="preserve" font-size="24"> (약 50명)</tspan></text>
    <text id="UX팀_OredX_" data-name="UX팀 (OredX)" transform="translate(548 3924)" fill="#753ef0" font-size="20" font-family="SpoqaHanSans-Bold, SpoqaHanSans" font-weight="700"><tspan x="-59.546" y="0">UX팀 </tspan><tspan y="0" font-size="18">(OredX)</tspan></text>
    <text id="Remote_개발팀_Remote_PJT_Team_" data-name="Remote 개발팀 (Remote PJT Team)" transform="translate(1153 3924)" fill="#1f1f1f" font-size="26" font-family="SpoqaHanSans-Bold, SpoqaHanSans" font-weight="700"><tspan x="-179.049" y="0">Remote 개발팀 </tspan><tspan y="0" font-size="18">(Remote PJT Team)</tspan></text>
    <g id="그룹_3955" data-name="그룹 3955" transform="translate(10 39)">
      <g id="타원_317" data-name="타원 317" transform="translate(396 3711)" fill="#fff" stroke="#dedede" stroke-width="1">
        <circle cx="68.5" cy="68.5" r="68.5" stroke="none"/>
        <circle cx="68.5" cy="68.5" r="68" fill="none"/>
      </g>
      <path id="패스_20192" data-name="패스 20192" d="M-16.88-14.8a19.625,19.625,0,0,1-.4,4.03,12.218,12.218,0,0,1-1.37,3.6,12.736,12.736,0,0,1-2.59,3.14A17.3,17.3,0,0,1-25.32-1.4L-26.7-3.48A17.125,17.125,0,0,0-23.66-5.3a11.281,11.281,0,0,0,2.14-2.11,9.063,9.063,0,0,0,1.33-2.44,11.492,11.492,0,0,0,.61-2.85h-6.14v-2.1Zm5.48-1.92V1.7h-2.66V-16.72ZM3.08-13.46H-7.72v-1.88h4.1v-1.5H-.98v1.5H3.08Zm-7.44,3.2a.84.84,0,0,0,.55.77,3.478,3.478,0,0,0,1.51.27A3.353,3.353,0,0,0-.82-9.49a.839.839,0,0,0,.54-.77.814.814,0,0,0-.54-.77,3.588,3.588,0,0,0-1.48-.25,3.722,3.722,0,0,0-1.51.25A.815.815,0,0,0-4.36-10.26ZM3.44-5.3q-1.46.24-2.96.39t-2.96.22q-1.46.07-2.84.09t-2.58.02l-.34-1.98h2.21q1.15,0,2.41-.04v-.98A4.9,4.9,0,0,1-6-8.5a2.16,2.16,0,0,1-.88-1.76,2.037,2.037,0,0,1,.33-1.13,2.791,2.791,0,0,1,.93-.87,4.872,4.872,0,0,1,1.45-.55A8.579,8.579,0,0,1-2.3-13a8.306,8.306,0,0,1,1.85.19,4.883,4.883,0,0,1,1.43.55,2.791,2.791,0,0,1,.93.87,2.037,2.037,0,0,1,.33,1.13A2.168,2.168,0,0,1,1.37-8.5a4.813,4.813,0,0,1-2.35.92v.88Q.1-6.76,1.17-6.85t2.09-.21ZM-5.72-3.5H7V1.74H4.34v-3.2H-5.72ZM7-16.68V-4.22H4.34V-16.68Zm9.82,4.94a8.735,8.735,0,0,0,.28,2.16,8.893,8.893,0,0,0,.83,2.1,8.15,8.15,0,0,0,1.39,1.84A6.706,6.706,0,0,0,21.3-4.28L19.84-2.2a7.143,7.143,0,0,1-2.61-2.01,10.491,10.491,0,0,1-1.69-2.95,11.075,11.075,0,0,1-1.72,3.24,7.424,7.424,0,0,1-2.68,2.18L9.66-3.84a6.434,6.434,0,0,0,1.98-1.39,8.6,8.6,0,0,0,1.41-1.94,9.365,9.365,0,0,0,.85-2.25,10.026,10.026,0,0,0,.28-2.32v-1.02H10.36v-2.18H20.48v2.18H16.82ZM27.16-7.5H24.48V1.72H21.84V-16.7h2.64v7.02h2.68Z" transform="translate(465 3789)" fill="#753ef0"/>
    </g>
    <g id="그룹_3956" data-name="그룹 3956" transform="translate(-13 39)">
      <g id="타원_319" data-name="타원 319" transform="translate(566 3711)" fill="#fff" stroke="#dedede" stroke-width="1">
        <circle cx="68.5" cy="68.5" r="68.5" stroke="none"/>
        <circle cx="68.5" cy="68.5" r="68" fill="none"/>
      </g>
      <path id="패스_20191" data-name="패스 20191" d="M-32.2-4.82q1.2,0,2.21-.03t1.91-.09q.9-.06,1.72-.16t1.66-.26l.24,2.18q-.94.18-1.87.29t-1.97.17q-1.04.06-2.25.08t-2.67.02h-1.62V-15.06h8.9v2.14H-32.2ZM-20.68-16.7V1.78h-2.64V-16.7Zm9.9,4.96a8.735,8.735,0,0,0,.28,2.16,8.893,8.893,0,0,0,.83,2.1A8.15,8.15,0,0,0-8.28-5.64,6.706,6.706,0,0,0-6.3-4.28L-7.76-2.2a7.143,7.143,0,0,1-2.61-2.01,10.491,10.491,0,0,1-1.69-2.95,11.075,11.075,0,0,1-1.72,3.24,7.424,7.424,0,0,1-2.68,2.18l-1.48-2.1a6.434,6.434,0,0,0,1.98-1.39,8.6,8.6,0,0,0,1.41-1.94,9.365,9.365,0,0,0,.85-2.25,10.026,10.026,0,0,0,.28-2.32v-1.02h-3.82v-2.18H-7.12v2.18h-3.66ZM-.44-7.5H-3.12V1.72H-5.76V-16.7h2.64v7.02H-.44Zm16.56-9.22V1.76H13.48V-16.72Zm-9.9,1.3a4.141,4.141,0,0,1,1.93.46,4.477,4.477,0,0,1,1.53,1.31,6.6,6.6,0,0,1,1.01,2.06,9.326,9.326,0,0,1,.37,2.73,9.428,9.428,0,0,1-.37,2.74A6.718,6.718,0,0,1,9.68-4.04,4.437,4.437,0,0,1,8.15-2.72a4.141,4.141,0,0,1-1.93.46,4.141,4.141,0,0,1-1.93-.46A4.437,4.437,0,0,1,2.76-4.04,6.718,6.718,0,0,1,1.75-6.12a9.428,9.428,0,0,1-.37-2.74,9.326,9.326,0,0,1,.37-2.73,6.6,6.6,0,0,1,1.01-2.06,4.477,4.477,0,0,1,1.53-1.31A4.141,4.141,0,0,1,6.22-15.42Zm0,2.38a1.9,1.9,0,0,0-1.66,1.06,6.124,6.124,0,0,0-.64,3.12,6.183,6.183,0,0,0,.64,3.13A1.9,1.9,0,0,0,6.22-4.66,1.9,1.9,0,0,0,7.88-5.73a6.183,6.183,0,0,0,.64-3.13,6.124,6.124,0,0,0-.64-3.12A1.9,1.9,0,0,0,6.22-13.04Zm16.6,8.28q1.74-.04,3.51-.2a36.316,36.316,0,0,0,3.63-.52l.3,2.16a33.427,33.427,0,0,1-4.34.61q-2.1.15-4.16.15H20.2V-14.74h2.62Zm11.9-11.96V1.78H32.08V-8.88H27.12v-2.14h4.96v-5.7Z" transform="translate(635 3789)" fill="#753ef0"/>
    </g>
    <g id="그룹_3959" data-name="그룹 3959" transform="translate(370 39)">
      <g id="타원_319-2" data-name="타원 319" transform="translate(566 3711)" fill="#fff" stroke="#dedede" stroke-width="1">
        <circle cx="68.5" cy="68.5" r="68.5" stroke="none"/>
        <circle cx="68.5" cy="68.5" r="68" fill="none"/>
      </g>
      <path id="패스_20189" data-name="패스 20189" d="M-31.44-4.64q.46-.02.91-.03t.91-.05v-8.26h-1.82Zm4.36-.24q.56-.04,1.11-.09t1.07-.11l.16,1.92q-1.38.24-2.83.38t-2.87.22q-1.42.08-2.77.1t-2.53.02l-.28-2.14H-34v-8.4h-1.52v-2.1h10.16v2.1h-1.72Zm6.6-11.82V1.74h-2.64V-7.88h-2.74v-2.14h2.74V-16.7Zm14.86,3.46H-12.8v1.08h7.18ZM-3-10.22H-15.42v-6.16h2.62v1.22h7.18v-1.22H-3ZM-13-.38H-2.44V1.58H-15.62v-4.8h10.1v-.94H-15.64V-6.1H-2.92v4.68H-13ZM-.9-9.22v2.08H-17.54V-9.22ZM4.54-4.7q1.04,0,2.02-.04t1.92-.11q.94-.07,1.87-.18t1.91-.27l.28,2.14q-1.12.2-2.21.32t-2.19.19q-1.1.07-2.24.1t-2.4.03H1.84V-10.1H7.82v-2.94h-6v-2.1h8.7v7.12H4.54ZM16.18-16.72V1.76H13.54V-16.72Zm10,4.1a12.981,12.981,0,0,0,.26,2.61,10.29,10.29,0,0,0,.79,2.38,7.577,7.577,0,0,0,1.36,1.98,6.312,6.312,0,0,0,1.97,1.39l-1.58,2.1a7.185,7.185,0,0,1-2.53-2.08A10.4,10.4,0,0,1,24.86-7.3a10.892,10.892,0,0,1-1.64,3.17A7.194,7.194,0,0,1,20.64-2L19-4.1a6.643,6.643,0,0,0,2.02-1.44,7.965,7.965,0,0,0,1.41-2.03A10.326,10.326,0,0,0,23.25-10a12.851,12.851,0,0,0,.27-2.62v-2.66h2.66Zm8.54-4.08V1.76h-2.7V-6.38h-3.3V-8.54h3.3v-2.32h-3.3v-2.18h3.3V-16.7Z" transform="translate(635 3789)" fill="#1f1f1f"/>
    </g>
    <g id="그룹_3958" data-name="그룹 3958" transform="translate(126 39)">
      <g id="타원_318" data-name="타원 318" transform="translate(1104 3711)" fill="#fff" stroke="#dedede" stroke-width="1">
        <circle cx="68.5" cy="68.5" r="68.5" stroke="none"/>
        <circle cx="68.5" cy="68.5" r="68" fill="none"/>
      </g>
      <path id="패스_20187" data-name="패스 20187" d="M-40.68-.48H-29.7v2H-43.28V-3.46h10.36v-1h-10.4V-6.44H-30.3v4.86H-40.68Zm12.16-9.14v2.08H-45.1V-9.62h11.72q.06-.4.12-.77t.1-.75l-10.16.44-.28-2.02,10.56-.24q.02-.28.02-.54v-.52H-43.08v-2.04h12.66v1.64q0,1.08-.04,2.24a19.171,19.171,0,0,1-.28,2.56Zm5.14,4.94q1.98-.02,3.7-.14a33.39,33.39,0,0,0,3.52-.44l.24,2.14q-1.04.18-2.05.3t-2.04.19q-1.03.07-2.12.1t-2.29.03h-1.56v-7.6h5.84v-2.94H-26v-2.1h8.46v7.12h-5.84Zm13.74-2.9h-2.64V1.76h-2.64V-16.72h2.64v6.96h2.64ZM6.92-16.72V1.76H4.28V-16.72Zm-9.9,1.3a4.141,4.141,0,0,1,1.93.46A4.477,4.477,0,0,1,.48-13.65a6.6,6.6,0,0,1,1.01,2.06,9.326,9.326,0,0,1,.37,2.73,9.428,9.428,0,0,1-.37,2.74A6.718,6.718,0,0,1,.48-4.04,4.437,4.437,0,0,1-1.05-2.72a4.141,4.141,0,0,1-1.93.46,4.141,4.141,0,0,1-1.93-.46A4.437,4.437,0,0,1-6.44-4.04,6.718,6.718,0,0,1-7.45-6.12a9.428,9.428,0,0,1-.37-2.74,9.326,9.326,0,0,1,.37-2.73,6.6,6.6,0,0,1,1.01-2.06,4.477,4.477,0,0,1,1.53-1.31A4.141,4.141,0,0,1-2.98-15.42Zm0,2.38a1.9,1.9,0,0,0-1.66,1.06,6.124,6.124,0,0,0-.64,3.12,6.183,6.183,0,0,0,.64,3.13A1.9,1.9,0,0,0-2.98-4.66,1.9,1.9,0,0,0-1.32-5.73,6.183,6.183,0,0,0-.68-8.86a6.124,6.124,0,0,0-.64-3.12A1.9,1.9,0,0,0-2.98-13.04Zm15.8,2.18a2.331,2.331,0,0,0,.66,1.77,2.308,2.308,0,0,0,1.66.63,2.37,2.37,0,0,0,1.69-.63,2.312,2.312,0,0,0,.67-1.77,2.378,2.378,0,0,0-.67-1.79,2.329,2.329,0,0,0-1.69-.65,2.269,2.269,0,0,0-1.66.65A2.4,2.4,0,0,0,12.82-10.86Zm7.06,1.12a4.433,4.433,0,0,1-.61,1.46,4.464,4.464,0,0,1-1.05,1.13,4.8,4.8,0,0,1-1.41.73,5.308,5.308,0,0,1-1.67.26,5.094,5.094,0,0,1-1.9-.35,4.746,4.746,0,0,1-1.54-.98,4.488,4.488,0,0,1-1.03-1.49,4.707,4.707,0,0,1-.37-1.88,4.779,4.779,0,0,1,.37-1.89,4.462,4.462,0,0,1,1.03-1.5,4.746,4.746,0,0,1,1.54-.98,5.094,5.094,0,0,1,1.9-.35,5.191,5.191,0,0,1,1.69.27,4.846,4.846,0,0,1,1.42.76,4.553,4.553,0,0,1,1.06,1.17,4.635,4.635,0,0,1,.61,1.52h2.9v-4.82h2.64V-3.24H22.82v-6.5Zm6,9.04V1.4H13.32V-4.54h2.64V-.7ZM43.36-5.12H30.42V-15.36h12.8v2.12H33.1v1.94h9.7v2.04H33.1V-7.2H43.36Zm1.78,2.58V-.4H28.46V-2.54ZM-18.78,9.58a20.494,20.494,0,0,1-.32,3.69,12.76,12.76,0,0,1-1.08,3.31,11.5,11.5,0,0,1-2.05,2.91,14.523,14.523,0,0,1-3.21,2.47l-1.54-1.84A13.5,13.5,0,0,0-24.6,18.4a10.413,10.413,0,0,0,1.68-1.96,8.909,8.909,0,0,0,1.05-2.22,12,12,0,0,0,.49-2.54h-4.66V9.58Zm7.82-2.28V25.72h-2.52V16.36h-1.64v8.58h-2.46V7.78h2.46v6.46h1.64V7.3Zm9.38,4.98H-5.2v1.84h3.62Zm2.6,3.9H-7.8V8.1h2.6v2.2h3.62V8.1h2.6Zm-4.38,7.36H6.68v2.04H-5.98V20.5H3.56V19.38H-6v-2H6.16v5H-3.36ZM8.58,10.86V13H6.16v3.66H3.52V7.3H6.16v3.56Zm8.24,1.4a8.735,8.735,0,0,0,.28,2.16,8.893,8.893,0,0,0,.83,2.1,8.15,8.15,0,0,0,1.39,1.84,6.706,6.706,0,0,0,1.98,1.36L19.84,21.8a7.143,7.143,0,0,1-2.61-2.01,10.491,10.491,0,0,1-1.69-2.95,11.075,11.075,0,0,1-1.72,3.24,7.424,7.424,0,0,1-2.68,2.18l-1.48-2.1a6.434,6.434,0,0,0,1.98-1.39,8.6,8.6,0,0,0,1.41-1.94,9.365,9.365,0,0,0,.85-2.25,10.026,10.026,0,0,0,.28-2.32V11.24H10.36V9.06H20.48v2.18H16.82ZM27.16,16.5H24.48v9.22H21.84V7.3h2.64v7.02h2.68Z" transform="translate(1173 3776)" fill="#1f1f1f"/>
    </g>
    <g id="그룹_3961" data-name="그룹 3961" transform="translate(273 39)">
      <g id="타원_318-2" data-name="타원 318" transform="translate(1104 3711)" fill="#fff" stroke="#dedede" stroke-width="1">
        <circle cx="68.5" cy="68.5" r="68.5" stroke="none"/>
        <circle cx="68.5" cy="68.5" r="68" fill="none"/>
      </g>
      <path id="패스_20186" data-name="패스 20186" d="M-30.39-14.8h3.02l4.3,7.88,1.48,3.2h.1q-.12-1.16-.25-2.54t-.13-2.64v-5.9h2.8V0h-3l-4.28-7.92-1.5-3.18h-.1q.1,1.2.23,2.54t.13,2.62V0h-2.8ZM-12.89.28A3.583,3.583,0,0,1-14.26.03a2.982,2.982,0,0,1-1.04-.7,3.25,3.25,0,0,1-.67-1.05,3.523,3.523,0,0,1-.24-1.32,3.141,3.141,0,0,1,1.53-2.79A11.656,11.656,0,0,1-9.77-7.18a2.466,2.466,0,0,0-.45-1.39,1.7,1.7,0,0,0-1.45-.55,4.163,4.163,0,0,0-1.54.3,10.963,10.963,0,0,0-1.54.76L-15.81-10a11.771,11.771,0,0,1,2.18-1.05,7.244,7.244,0,0,1,2.5-.43,4.024,4.024,0,0,1,3.22,1.25A5.5,5.5,0,0,1-6.83-6.54V0h-2.4l-.22-1.2h-.06A7.621,7.621,0,0,1-11.09-.14,3.97,3.97,0,0,1-12.89.28Zm.96-2.3a2.23,2.23,0,0,0,1.14-.29,5.061,5.061,0,0,0,1.02-.81V-5.38a12.632,12.632,0,0,0-1.72.34,4.25,4.25,0,0,0-1.12.47,1.853,1.853,0,0,0-.61.59,1.346,1.346,0,0,0-.19.7,1.1,1.1,0,0,0,.42.96A1.779,1.779,0,0,0-11.93-2.02ZM.27.28a4.309,4.309,0,0,1-1.7-.3A2.885,2.885,0,0,1-2.57-.87,3.482,3.482,0,0,1-3.21-2.2a6.921,6.921,0,0,1-.2-1.72V-8.88H-4.99v-2.18l1.72-.14.34-3H-.47v3H2.29v2.32H-.47v4.96q0,1.88,1.52,1.88a2.55,2.55,0,0,0,.58-.07,2.8,2.8,0,0,0,.52-.17L2.63-.14A9.519,9.519,0,0,1,1.59.15,6.064,6.064,0,0,1,.27.28ZM4.57-11.2H7.49V0H4.57ZM6.05-13a1.813,1.813,0,0,1-1.26-.45,1.478,1.478,0,0,1-.5-1.15,1.47,1.47,0,0,1,.5-1.16,1.838,1.838,0,0,1,1.26-.44,1.8,1.8,0,0,1,1.25.44,1.484,1.484,0,0,1,.49,1.16,1.492,1.492,0,0,1-.49,1.15A1.776,1.776,0,0,1,6.05-13Zm3.3,1.8h2.96l1.64,5.58q.22.84.45,1.69t.45,1.71h.1q.22-.86.45-1.71t.45-1.69l1.64-5.58h2.82L16.57,0h-3.4ZM27.03.28a5.894,5.894,0,0,1-2.19-.4,5.132,5.132,0,0,1-1.76-1.15A5.328,5.328,0,0,1,21.9-3.11a6.687,6.687,0,0,1-.43-2.47,6.5,6.5,0,0,1,.44-2.45,5.853,5.853,0,0,1,1.17-1.86,5.087,5.087,0,0,1,1.67-1.18,4.805,4.805,0,0,1,1.94-.41,4.817,4.817,0,0,1,2.03.4,4.043,4.043,0,0,1,1.46,1.12,4.921,4.921,0,0,1,.89,1.7,7.282,7.282,0,0,1,.3,2.14,7.165,7.165,0,0,1-.04.77,3.35,3.35,0,0,1-.1.57h-6.9a3.169,3.169,0,0,0,1.01,2.09,3.1,3.1,0,0,0,2.09.71,4.18,4.18,0,0,0,1.31-.2,5.42,5.42,0,0,0,1.21-.58l1,1.8a7.136,7.136,0,0,1-1.85.91A6.624,6.624,0,0,1,27.03.28Zm1.82-7a2.878,2.878,0,0,0-.52-1.81,1.9,1.9,0,0,0-1.6-.67,2.3,2.3,0,0,0-1.58.63,2.9,2.9,0,0,0-.86,1.85ZM-18.78,9.58a20.494,20.494,0,0,1-.32,3.69,12.76,12.76,0,0,1-1.08,3.31,11.5,11.5,0,0,1-2.05,2.91,14.523,14.523,0,0,1-3.21,2.47l-1.54-1.84A13.5,13.5,0,0,0-24.6,18.4a10.413,10.413,0,0,0,1.68-1.96,8.909,8.909,0,0,0,1.05-2.22,12,12,0,0,0,.49-2.54h-4.66V9.58Zm7.82-2.28V25.72h-2.52V16.36h-1.64v8.58h-2.46V7.78h2.46v6.46h1.64V7.3Zm9.38,4.98H-5.2v1.84h3.62Zm2.6,3.9H-7.8V8.1h2.6v2.2h3.62V8.1h2.6Zm-4.38,7.36H6.68v2.04H-5.98V20.5H3.56V19.38H-6v-2H6.16v5H-3.36ZM8.58,10.86V13H6.16v3.66H3.52V7.3H6.16v3.56Zm8.24,1.4a8.735,8.735,0,0,0,.28,2.16,8.893,8.893,0,0,0,.83,2.1,8.15,8.15,0,0,0,1.39,1.84,6.706,6.706,0,0,0,1.98,1.36L19.84,21.8a7.143,7.143,0,0,1-2.61-2.01,10.491,10.491,0,0,1-1.69-2.95,11.075,11.075,0,0,1-1.72,3.24,7.424,7.424,0,0,1-2.68,2.18l-1.48-2.1a6.434,6.434,0,0,0,1.98-1.39,8.6,8.6,0,0,0,1.41-1.94,9.365,9.365,0,0,0,.85-2.25,10.026,10.026,0,0,0,.28-2.32V11.24H10.36V9.06H20.48v2.18H16.82ZM27.16,16.5H24.48v9.22H21.84V7.3h2.64v7.02h2.68Z" transform="translate(1173 3776)" fill="#1f1f1f"/>
    </g>
    <g id="그룹_3960" data-name="그룹 3960" transform="translate(-21 39)">
      <g id="타원_318-3" data-name="타원 318" transform="translate(1104 3711)" fill="#fff" stroke="#dedede" stroke-width="1">
        <circle cx="68.5" cy="68.5" r="68.5" stroke="none"/>
        <circle cx="68.5" cy="68.5" r="68" fill="none"/>
      </g>
      <path id="패스_20188" data-name="패스 20188" d="M-10.62-12.62a12.634,12.634,0,0,0,.26,2.56,9.947,9.947,0,0,0,.79,2.35A7.531,7.531,0,0,0-8.21-5.76,6.124,6.124,0,0,0-6.24-4.4L-7.8-2.3a7.125,7.125,0,0,1-2.53-2.03A10.142,10.142,0,0,1-11.92-7.3a11.093,11.093,0,0,1-1.64,3.16,7.3,7.3,0,0,1-2.6,2.16L-17.8-4.1a6.56,6.56,0,0,0,2.02-1.45,8.137,8.137,0,0,0,1.41-2.04,10.351,10.351,0,0,0,.82-2.42,12.706,12.706,0,0,0,.27-2.61v-2.66h2.66Zm8.54-4.1V1.76H-4.72V-8.82H-8.26v-2.12h3.54v-5.78ZM7.78-8.76H4.16v4.08H7.78Zm8.54-7.96V1.76H13.68V-8.12h-3.3v5.54H1.54V-15.26H4.16v4.44H7.78v-4.44h2.6v5.02h3.3v-6.48Zm-35.1,26.3a20.494,20.494,0,0,1-.32,3.69,12.76,12.76,0,0,1-1.08,3.31,11.5,11.5,0,0,1-2.05,2.91,14.523,14.523,0,0,1-3.21,2.47l-1.54-1.84A13.5,13.5,0,0,0-24.6,18.4a10.413,10.413,0,0,0,1.68-1.96,8.909,8.909,0,0,0,1.05-2.22,12,12,0,0,0,.49-2.54h-4.66V9.58Zm7.82-2.28V25.72h-2.52V16.36h-1.64v8.58h-2.46V7.78h2.46v6.46h1.64V7.3Zm9.38,4.98H-5.2v1.84h3.62Zm2.6,3.9H-7.8V8.1h2.6v2.2h3.62V8.1h2.6Zm-4.38,7.36H6.68v2.04H-5.98V20.5H3.56V19.38H-6v-2H6.16v5H-3.36ZM8.58,10.86V13H6.16v3.66H3.52V7.3H6.16v3.56Zm8.24,1.4a8.735,8.735,0,0,0,.28,2.16,8.893,8.893,0,0,0,.83,2.1,8.15,8.15,0,0,0,1.39,1.84,6.706,6.706,0,0,0,1.98,1.36L19.84,21.8a7.143,7.143,0,0,1-2.61-2.01,10.491,10.491,0,0,1-1.69-2.95,11.075,11.075,0,0,1-1.72,3.24,7.424,7.424,0,0,1-2.68,2.18l-1.48-2.1a6.434,6.434,0,0,0,1.98-1.39,8.6,8.6,0,0,0,1.41-1.94,9.365,9.365,0,0,0,.85-2.25,10.026,10.026,0,0,0,.28-2.32V11.24H10.36V9.06H20.48v2.18H16.82ZM27.16,16.5H24.48v9.22H21.84V7.3h2.64v7.02h2.68Z" transform="translate(1173 3776)" fill="#1f1f1f"/>
    </g>
    <g id="그룹_3957" data-name="그룹 3957" transform="translate(-21 39)">
      <g id="타원_320" data-name="타원 320" transform="translate(810 3711)" fill="#fff" stroke="#dedede" stroke-width="1">
        <circle cx="68.5" cy="68.5" r="68.5" stroke="none"/>
        <circle cx="68.5" cy="68.5" r="68" fill="none"/>
      </g>
      <path id="패스_20190" data-name="패스 20190" d="M-25.76-13h-3.76v5.52h3.76Zm-6.38,0h-2.5v-2.1h14V-13h-2.5v5.52h2.44v2.1H-34.54v-2.1h2.4ZM-19.26-2.56V-.42H-35.94V-2.56Zm18.4.1V-.3H-17.54V-2.46h7V-5.2h-5.08v-6.24H-5.34v-1.98h-10.3v-2.1h12.9v6.14H-13v2.06H-2.32V-5.2H-7.9v2.74Zm11.3-9.7v-4.2H12.9v10.8H10.44v-4.46H8.48v-2.14ZM8.62-5.94A5.881,5.881,0,0,1,6.65-7.16,5.762,5.762,0,0,1,5.4-8.92,6.689,6.689,0,0,1,4.06-6.97a6.034,6.034,0,0,1-2.1,1.35L.62-7.64a5.473,5.473,0,0,0,1.6-.92A5.234,5.234,0,0,0,3.3-9.8a5.063,5.063,0,0,0,.61-1.44,6.326,6.326,0,0,0,.19-1.54v-.5H1.2v-2.1H9.34v2.1H6.66v.5a5.877,5.877,0,0,0,.18,1.45,4.75,4.75,0,0,0,.57,1.34A4.8,4.8,0,0,0,8.42-8.84a5.264,5.264,0,0,0,1.5.86ZM3.88-4.78H16.56V1.74H13.92V-2.7H3.88ZM16.56-16.7V-5.48h-2.5V-16.7ZM34.16-5.12H21.22V-15.36h12.8v2.12H23.9v1.94h9.7v2.04H23.9V-7.2H34.16Zm1.78,2.58V-.4H19.26V-2.54Zm-59.7,21.6h2.36v-7.8h-2.36Zm-2.46-9.88h7.26V21.12h-7.26Zm15.28-1.9V25.7h-2.5V16.44h-1.54v8.44h-2.46V7.58h2.46v6.74h1.54V7.28Zm6.18,11.64q1.82-.04,3.76-.22a39.8,39.8,0,0,0,3.98-.58l.28,2.2A36.13,36.13,0,0,1-1.36,21q-2.26.18-4.38.18H-7.38V9.04h2.62ZM7.04,7.28V25.7H4.4V7.28Zm9.94,4.56a10.746,10.746,0,0,0,.28,2.43,9.526,9.526,0,0,0,.84,2.28,8.21,8.21,0,0,0,1.41,1.94,6.56,6.56,0,0,0,1.99,1.39l-1.52,2.08a7.462,7.462,0,0,1-2.63-2.12,10.508,10.508,0,0,1-1.67-3.1,10.9,10.9,0,0,1-1.66,3.33,7.461,7.461,0,0,1-2.68,2.25L9.78,20.24a6.519,6.519,0,0,0,2.01-1.44,8.388,8.388,0,0,0,1.41-2.02,10.261,10.261,0,0,0,.84-2.39,11.811,11.811,0,0,0,.28-2.55V11.2H10.54V9.06H20.76V11.2H16.98Zm8.54-4.56V25.76H22.88v-9.9H19.64V13.72h3.24V7.28Z" transform="translate(879 3776)" fill="#1f1f1f"/>
    </g>
    <circle id="타원_321" data-name="타원 321" cx="5.5" cy="5.5" r="5.5" transform="translate(518 3556)" fill="#d3d3d3"/>
    <circle id="타원_325" data-name="타원 325" cx="5.5" cy="5.5" r="5.5" transform="translate(469 3729)" fill="#d3d3d3"/>
    <circle id="타원_326" data-name="타원 326" cx="5.5" cy="5.5" r="5.5" transform="translate(616 3729)" fill="#d3d3d3"/>
    <circle id="타원_327" data-name="타원 327" cx="5.5" cy="5.5" r="5.5" transform="translate(852 3729)" fill="#d3d3d3"/>
    <circle id="타원_328" data-name="타원 328" cx="5.5" cy="5.5" r="5.5" transform="translate(999 3729)" fill="#d3d3d3"/>
    <circle id="타원_329" data-name="타원 329" cx="5.5" cy="5.5" r="5.5" transform="translate(1146 3729)" fill="#d3d3d3"/>
    <circle id="타원_330" data-name="타원 330" cx="5.5" cy="5.5" r="5.5" transform="translate(1293 3729)" fill="#d3d3d3"/>
    <circle id="타원_331" data-name="타원 331" cx="5.5" cy="5.5" r="5.5" transform="translate(1440 3729)" fill="#d3d3d3"/>
    <circle id="타원_322" data-name="타원 322" cx="5.5" cy="5.5" r="5.5" transform="translate(769 3556)" fill="#d3d3d3"/>
    <circle id="타원_323" data-name="타원 323" cx="5.5" cy="5.5" r="5.5" transform="translate(1068 3556)" fill="#d3d3d3"/>
    <circle id="타원_324" data-name="타원 324" cx="5.5" cy="5.5" r="5.5" transform="translate(1379 3556)" fill="#d3d3d3"/>
    <line id="선_99" data-name="선 99" x1="300" y2="173" transform="translate(474.5 3561.5)" fill="none" stroke="#d3d3d3" stroke-width="1"/>
    <line id="선_100" data-name="선 100" x2="334" y2="173" transform="translate(523.5 3561.5)" fill="none" stroke="#d3d3d3" stroke-width="1"/>
    <line id="선_101" data-name="선 101" x2="628" y2="173" transform="translate(523.5 3561.5)" fill="none" stroke="#d3d3d3" stroke-width="1"/>
    <line id="선_102" data-name="선 102" x1="49" y2="173" transform="translate(474.5 3561.5)" fill="none" stroke="#d3d3d3" stroke-width="1"/>
    <line id="선_103" data-name="선 103" x1="153" y2="173" transform="translate(621.5 3561.5)" fill="none" stroke="#d3d3d3" stroke-width="1"/>
    <line id="선_104" data-name="선 104" x2="83" y2="173" transform="translate(774.5 3561.5)" fill="none" stroke="#d3d3d3" stroke-width="1"/>
    <line id="선_105" data-name="선 105" x1="216" y2="173" transform="translate(857.5 3561.5)" fill="none" stroke="#d3d3d3" stroke-width="1"/>
    <line id="선_106" data-name="선 106" x1="69" y2="173" transform="translate(1004.5 3561.5)" fill="none" stroke="#d3d3d3" stroke-width="1"/>
    <line id="선_107" data-name="선 107" x2="79" y2="173" transform="translate(1073.5 3561.5)" fill="none" stroke="#d3d3d3" stroke-width="1"/>
    <line id="선_108" data-name="선 108" x2="225" y2="173" transform="translate(1073.5 3561.5)" fill="none" stroke="#d3d3d3" stroke-width="1"/>
    <line id="선_109" data-name="선 109" x2="372" y2="173" transform="translate(1073.5 3561.5)" fill="none" stroke="#d3d3d3" stroke-width="1"/>
    <line id="선_110" data-name="선 110" x1="86" y2="173" transform="translate(1298.5 3561.5)" fill="none" stroke="#d3d3d3" stroke-width="1"/>
    <line id="선_111" data-name="선 111" x1="232" y2="173" transform="translate(1152.5 3561.5)" fill="none" stroke="#d3d3d3" stroke-width="1"/>
    <line id="선_112" data-name="선 112" x1="380" y2="173" transform="translate(1004.5 3561.5)" fill="none" stroke="#d3d3d3" stroke-width="1"/>
    <line id="선_113" data-name="선 113" x1="527" y2="173" transform="translate(857.5 3561.5)" fill="none" stroke="#d3d3d3" stroke-width="1"/>
    <line id="선_114" data-name="선 114" x1="910" y2="173" transform="translate(474.5 3561.5)" fill="none" stroke="#d3d3d3" stroke-width="1"/>
    <g id="그룹_4001" data-name="그룹 4001" transform="translate(243.7)">
      <path id="패스_20181" data-name="패스 20181" d="M8.25.308A7.679,7.679,0,0,1,5.588-.121,4.9,4.9,0,0,1,3.6-1.474,6.107,6.107,0,0,1,2.343-3.85a12.365,12.365,0,0,1-.429-3.476V-16.28H5.17v9.24a9.34,9.34,0,0,0,.209,2.145,3.789,3.789,0,0,0,.605,1.4,2.252,2.252,0,0,0,.968.759,3.442,3.442,0,0,0,1.3.231,3.528,3.528,0,0,0,1.309-.231,2.387,2.387,0,0,0,1-.759,3.686,3.686,0,0,0,.638-1.4,8.891,8.891,0,0,0,.22-2.145v-9.24h3.124v8.954a12.672,12.672,0,0,1-.418,3.476,6.081,6.081,0,0,1-1.232,2.376,4.811,4.811,0,0,1-1.98,1.353A7.679,7.679,0,0,1,8.25.308ZM21.34-8.4,17.05-16.28h3.608l1.628,3.344q.286.572.561,1.188t.649,1.386h.11q.308-.77.561-1.386t.517-1.188l1.54-3.344h3.432l-4.29,8.03L29.942,0H26.334L24.508-3.608q-.308-.638-.6-1.287t-.671-1.4h-.088q-.308.748-.594,1.4t-.594,1.287L20.218,0H16.764ZM36.124-18.81h2.244L32.758,2.9H30.514ZM47.234.308a7.679,7.679,0,0,1-2.662-.429,4.9,4.9,0,0,1-1.991-1.353A6.107,6.107,0,0,1,41.327-3.85,12.365,12.365,0,0,1,40.9-7.326V-16.28h3.256v9.24a9.341,9.341,0,0,0,.209,2.145,3.789,3.789,0,0,0,.605,1.4,2.252,2.252,0,0,0,.968.759,3.442,3.442,0,0,0,1.3.231,3.528,3.528,0,0,0,1.309-.231,2.387,2.387,0,0,0,1-.759,3.686,3.686,0,0,0,.638-1.4A8.891,8.891,0,0,0,50.4-7.04v-9.24h3.124v8.954a12.672,12.672,0,0,1-.418,3.476,6.081,6.081,0,0,1-1.232,2.376A4.811,4.811,0,0,1,49.9-.121,7.679,7.679,0,0,1,47.234.308ZM57.442-16.28H60.7V0H57.442ZM72.754-5.3q1.32,0,2.431-.033t2.1-.1q.99-.066,1.892-.176T81-5.9l.264,2.4q-1.034.2-2.057.319t-2.167.187q-1.144.066-2.475.088t-2.937.022H69.85V-16.566h9.79v2.354H72.754ZM85.426-18.37V1.958h-2.9V-18.37Zm10.89,5.456a9.608,9.608,0,0,0,.308,2.376,9.782,9.782,0,0,0,.913,2.31A8.965,8.965,0,0,0,99.066-6.2a7.377,7.377,0,0,0,2.178,1.5L99.638-2.42a7.857,7.857,0,0,1-2.871-2.211,11.54,11.54,0,0,1-1.859-3.245,12.183,12.183,0,0,1-1.892,3.564,8.167,8.167,0,0,1-2.948,2.4L88.44-4.224a7.078,7.078,0,0,0,2.178-1.529,9.461,9.461,0,0,0,1.551-2.134,10.3,10.3,0,0,0,.935-2.475,11.029,11.029,0,0,0,.308-2.552v-1.122h-4.2v-2.4h11.132v2.4H96.316ZM107.69-8.25h-2.948V1.892h-2.9V-18.37h2.9v7.722h2.948Zm18.26,4.444h-2.926V-18.348h2.926Zm-13.706-8.118A2.44,2.44,0,0,0,113.025-10a2.766,2.766,0,0,0,1.9.693,2.715,2.715,0,0,0,1.9-.693,2.475,2.475,0,0,0,.759-1.925,2.5,2.5,0,0,0-.759-1.947,2.715,2.715,0,0,0-1.9-.693,2.766,2.766,0,0,0-1.9.693A2.467,2.467,0,0,0,112.244-11.924Zm8.184,0a5.005,5.005,0,0,1-.418,2.046,4.8,4.8,0,0,1-1.166,1.628A5.494,5.494,0,0,1,117.1-7.183a5.986,5.986,0,0,1-2.167.385,6.074,6.074,0,0,1-2.178-.385A5.337,5.337,0,0,1,111-8.25a5.011,5.011,0,0,1-1.166-1.628,4.9,4.9,0,0,1-.429-2.046,4.948,4.948,0,0,1,.429-2.068A5.011,5.011,0,0,1,111-15.62a5.337,5.337,0,0,1,1.749-1.067,6.074,6.074,0,0,1,2.178-.385,5.986,5.986,0,0,1,2.167.385,5.494,5.494,0,0,1,1.749,1.067,4.8,4.8,0,0,1,1.166,1.628A5.06,5.06,0,0,1,120.428-11.924ZM126.456-.77V1.54H112.464V-5.236h2.9V-.77Z" transform="translate(487 3505)" fill="#fff"/>
      <path id="패스_20180" data-name="패스 20180" d="M-16.98-9a11.537,11.537,0,0,1,1.6-6.5,5.749,5.749,0,0,1,5.148-2.376A5.749,5.749,0,0,1-5.088-15.5,11.537,11.537,0,0,1-3.492-9a11.636,11.636,0,0,1-1.6,6.552A5.749,5.749,0,0,1-10.236-.072a5.749,5.749,0,0,1-5.148-2.376A11.636,11.636,0,0,1-16.98-9Zm9.456,0a10.352,10.352,0,0,0-.528-3.732,2.112,2.112,0,0,0-2.184-1.308,2.112,2.112,0,0,0-2.184,1.308A10.352,10.352,0,0,0-12.948-9a15.69,15.69,0,0,0,.192,2.7,3.455,3.455,0,0,0,.78,1.728,2.209,2.209,0,0,0,1.74.66,2.209,2.209,0,0,0,1.74-.66A3.455,3.455,0,0,0-7.716-6.3,15.69,15.69,0,0,0-7.524-9Zm6.048,5.712q.816-.648.744-.6Q1.62-5.832,2.976-7.08A15.351,15.351,0,0,0,5.268-9.7,4.727,4.727,0,0,0,6.2-12.36,2.345,2.345,0,0,0,5.748-13.9a1.672,1.672,0,0,0-1.368-.552,1.689,1.689,0,0,0-1.428.684,3.154,3.154,0,0,0-.516,1.932h-3.96A6.8,6.8,0,0,1-.648-15.24a5.088,5.088,0,0,1,2.184-2.016A6.9,6.9,0,0,1,4.548-17.9,5.816,5.816,0,0,1,8.856-16.44a5.185,5.185,0,0,1,1.452,3.816A7.484,7.484,0,0,1,8.556-7.86,25.8,25.8,0,0,1,4.092-3.576h6.48V-.24H-1.476ZM14.7.192a2.487,2.487,0,0,1-1.764-.636,2.061,2.061,0,0,1-.684-1.572,2.125,2.125,0,0,1,.684-1.608A2.461,2.461,0,0,1,14.7-4.272a2.428,2.428,0,0,1,1.74.648,2.125,2.125,0,0,1,.684,1.608A2.061,2.061,0,0,1,16.44-.444,2.455,2.455,0,0,1,14.7.192Z" transform="translate(464.3 3505)" fill="#fff"/>
    </g>
    <g id="그룹_4003" data-name="그룹 4003" transform="translate(520.7)">
      <path id="패스_20182" data-name="패스 20182" d="M5.72-9.218h8.734v-5.368H5.72Zm13.574,6.4V-.462H.946V-2.816h7.7V-6.93H2.882v-9.944h14.41V-6.93H11.55v4.114Zm9.46-6.776h-4.07V-5.1h4.07Zm0-7.172h2.882v13.97H21.8v-13.97h2.882v4.906h4.07ZM40-8.4H37.048v10.3h-2.9v-20.24h2.9v7.524H40Zm18.26.176H55.33V-18.37h2.926ZM44.528-13.156a2.037,2.037,0,0,0,.748,1.694,2.913,2.913,0,0,0,1.87.594,2.823,2.823,0,0,0,1.848-.594,2.064,2.064,0,0,0,.726-1.694,2.071,2.071,0,0,0-.726-1.683,2.789,2.789,0,0,0-1.848-.605,2.878,2.878,0,0,0-1.87.605A2.044,2.044,0,0,0,44.528-13.156Zm8.008,0a4.307,4.307,0,0,1-.407,1.87A4.366,4.366,0,0,1,51-9.812a5.277,5.277,0,0,1-1.716.957,6.51,6.51,0,0,1-2.134.341,6.58,6.58,0,0,1-2.156-.341,5.277,5.277,0,0,1-1.716-.957,4.493,4.493,0,0,1-1.144-1.474,4.212,4.212,0,0,1-.418-1.87,4.143,4.143,0,0,1,.418-1.859,4.528,4.528,0,0,1,1.144-1.463,5.277,5.277,0,0,1,1.716-.957,6.58,6.58,0,0,1,2.156-.341,6.51,6.51,0,0,1,2.134.341A5.277,5.277,0,0,1,51-16.478a4.4,4.4,0,0,1,1.133,1.463A4.236,4.236,0,0,1,52.536-13.156ZM58.762-.594V1.672H44.77v-5.61h10.6V-5.17H44.748V-7.392H58.256V-1.87h-10.6V-.594ZM74.514-13.86a12.546,12.546,0,0,0,.308,2.772,10.58,10.58,0,0,0,.924,2.552,8.407,8.407,0,0,0,1.562,2.123,7.088,7.088,0,0,0,2.244,1.485L77.9-2.574a7.936,7.936,0,0,1-2.937-2.233,11.312,11.312,0,0,1-1.859-3.311A11.787,11.787,0,0,1,71.192-4.51a8.374,8.374,0,0,1-3.058,2.42L66.4-4.488a7.482,7.482,0,0,0,2.31-1.551,8.678,8.678,0,0,0,1.628-2.222,11.107,11.107,0,0,0,.957-2.684,13.447,13.447,0,0,0,.319-2.915v-2.948h2.9Zm8.932-4.532V1.936h-2.9V-18.392ZM103.378-6.4a11.228,11.228,0,0,1-4.543-1.914,9.45,9.45,0,0,1-2.871-3.322A9.59,9.59,0,0,1,93.1-8.305a10.833,10.833,0,0,1-4.532,1.9L87.34-8.822a9.668,9.668,0,0,0,3.036-1A8.884,8.884,0,0,0,92.6-11.484a6.749,6.749,0,0,0,1.364-2.046,5.642,5.642,0,0,0,.462-2.2v-1.452h3.1v1.452a5.693,5.693,0,0,0,.462,2.222,6.749,6.749,0,0,0,1.364,2.046,8.681,8.681,0,0,0,2.222,1.65,9.852,9.852,0,0,0,3.036.99Zm1.87,3.476V-.572H86.9V-2.926Zm12.43-8.25H115.7v-2.332h1.98v-4.554h2.706V-6.424h-2.706ZM116.512-7.5q-.858.154-1.672.242t-1.661.143q-.847.055-1.793.066t-2.068.011h-1.386V-17.16h7.612v2.288h-4.818v1.606h4.114v2.2h-4.114v1.738q.792,0,1.507-.033t1.386-.088q.671-.055,1.32-.132t1.331-.209Zm-2.97,6.886h8.03v-2.6h-8.03Zm-2.86-4.862H124.41V1.65H110.682Zm13.728-12.87V-6.27h-2.75V-18.348Zm16.72,2.486a22.544,22.544,0,0,1-.352,4.059,14.036,14.036,0,0,1-1.188,3.641,12.646,12.646,0,0,1-2.255,3.2A15.975,15.975,0,0,1,133.8-2.244L132.11-4.268a14.848,14.848,0,0,0,2.618-1.892,11.455,11.455,0,0,0,1.848-2.156,9.8,9.8,0,0,0,1.155-2.442,13.194,13.194,0,0,0,.539-2.794h-5.126v-2.31Zm8.6-2.508V1.892H146.96V-8.4h-1.8V1.034H142.45V-17.842h2.706v7.106h1.8V-18.37Zm10.318,5.478h-3.982v2.024h3.982Zm2.86,4.29h-9.7V-17.49h2.86v2.42h3.982v-2.42h2.86Zm-4.818,8.1h11.044V1.738H155.21V-3.85H165.7V-5.082H155.188v-2.2h13.376v5.5H158.092Zm13.134-13.948V-12.1h-2.662v4.026h-2.9v-10.3h2.9v3.916Z" transform="translate(487 3505)" fill="#fff"/>
      <path id="패스_20183" data-name="패스 20183" d="M-17.388-9a11.537,11.537,0,0,1,1.6-6.5,5.749,5.749,0,0,1,5.148-2.376A5.749,5.749,0,0,1-5.5-15.5,11.537,11.537,0,0,1-3.9-9,11.636,11.636,0,0,1-5.5-2.448,5.749,5.749,0,0,1-10.644-.072a5.749,5.749,0,0,1-5.148-2.376A11.636,11.636,0,0,1-17.388-9Zm9.456,0a10.352,10.352,0,0,0-.528-3.732,2.112,2.112,0,0,0-2.184-1.308,2.112,2.112,0,0,0-2.184,1.308A10.352,10.352,0,0,0-13.356-9a15.69,15.69,0,0,0,.192,2.7,3.455,3.455,0,0,0,.78,1.728,2.209,2.209,0,0,0,1.74.66,2.209,2.209,0,0,0,1.74-.66A3.455,3.455,0,0,0-8.124-6.3,15.69,15.69,0,0,0-7.932-9ZM-1.6-12.576a5.271,5.271,0,0,1,1.68-3.96,6.279,6.279,0,0,1,4.3-1.392,7,7,0,0,1,3.084.624,4.52,4.52,0,0,1,1.944,1.7,4.556,4.556,0,0,1,.66,2.424,4.02,4.02,0,0,1-.792,2.58A4.006,4.006,0,0,1,7.428-9.24v.1a4.33,4.33,0,0,1,2.16,1.512A4.4,4.4,0,0,1,10.38-4.92,5.008,5.008,0,0,1,9.7-2.292,4.671,4.671,0,0,1,7.7-.5,6.931,6.931,0,0,1,4.6.144,7,7,0,0,1,0-1.272,5.473,5.473,0,0,1-1.812-5.544H2.172a2.42,2.42,0,0,0,.6,1.668,2.2,2.2,0,0,0,1.68.612A1.913,1.913,0,0,0,5.9-3.8,1.981,1.981,0,0,0,6.42-5.232,1.9,1.9,0,0,0,5.688-6.9a4.136,4.136,0,0,0-2.34-.516H2.58v-3.336h.768a4.063,4.063,0,0,0,1.98-.42,1.566,1.566,0,0,0,.756-1.5,1.817,1.817,0,0,0-.48-1.344,1.784,1.784,0,0,0-1.32-.48,1.636,1.636,0,0,0-1.356.552,2.474,2.474,0,0,0-.516,1.368ZM15.108.192a2.487,2.487,0,0,1-1.764-.636,2.061,2.061,0,0,1-.684-1.572,2.125,2.125,0,0,1,.684-1.608,2.461,2.461,0,0,1,1.764-.648,2.428,2.428,0,0,1,1.74.648,2.125,2.125,0,0,1,.684,1.608,2.061,2.061,0,0,1-.684,1.572A2.455,2.455,0,0,1,15.108.192Z" transform="translate(464.3 3505)" fill="#fff"/>
    </g>
    <g id="그룹_4004" data-name="그룹 4004" transform="translate(842.7)">
      <path id="패스_20184" data-name="패스 20184" d="M4.29-4.906q1.584-.022,2.871-.1a26.653,26.653,0,0,0,2.651-.3l.242,2.31q-.858.132-1.672.22T6.721-2.64q-.847.044-1.782.055t-2.013.011H1.54V-16.148h7.5v2.31H4.29v3.146H8.272v2.244H4.29ZM11.4-18H14.1V.99H11.4V-8.646H9.2V-11h2.2Zm6.952-.4V1.87H15.6V-18.392ZM37.664-6.4a11.228,11.228,0,0,1-4.543-1.914,9.45,9.45,0,0,1-2.871-3.322,9.59,9.59,0,0,1-2.86,3.333,10.833,10.833,0,0,1-4.532,1.9l-1.232-2.42a9.668,9.668,0,0,0,3.036-1,8.884,8.884,0,0,0,2.222-1.661,6.749,6.749,0,0,0,1.364-2.046,5.642,5.642,0,0,0,.462-2.2v-1.452h3.1v1.452a5.693,5.693,0,0,0,.462,2.222,6.749,6.749,0,0,0,1.364,2.046,8.681,8.681,0,0,0,2.222,1.65,9.852,9.852,0,0,0,3.036.99Zm1.87,3.476V-.572H21.186V-2.926ZM57.816-5.632H43.582V-16.9h14.08v2.332H46.53v2.134H57.2v2.244H46.53V-7.92H57.816Zm1.958,2.838V-.44H41.426V-2.794Zm23.694-4.07h-2.9V-18.348h2.9Zm-8.8-8.008H70.532v4.026h4.136ZM77.506-8.58H67.672v-8.58h9.834Zm.7,4.95A2.463,2.463,0,0,0,78.76-2.6a4.6,4.6,0,0,0,1.232.99,8.947,8.947,0,0,0,1.925.8,13.2,13.2,0,0,0,2.629.473l-.924,2.156A12.586,12.586,0,0,1,79.343.781,7.311,7.311,0,0,1,76.67-1.21a7.08,7.08,0,0,1-2.684,2,12.974,12.974,0,0,1-4.334,1.034L68.75-.33a14.069,14.069,0,0,0,2.662-.462,8.559,8.559,0,0,0,1.936-.792,4.6,4.6,0,0,0,1.232-.99,2.449,2.449,0,0,0,.55-1.056H69.52V-5.786H75.2v-1.65h2.948v1.65H83.8V-3.63Zm16.676-8.294a2.5,2.5,0,0,0,.759,1.947,2.715,2.715,0,0,0,1.9.693,2.725,2.725,0,0,0,1.892-.693,2.485,2.485,0,0,0,.77-1.947,2.485,2.485,0,0,0-.77-1.947,2.725,2.725,0,0,0-1.892-.693,2.715,2.715,0,0,0-1.9.693A2.5,2.5,0,0,0,94.886-11.924Zm8.14,0a4.983,4.983,0,0,1-.418,2.057,4.951,4.951,0,0,1-1.166,1.628,5.392,5.392,0,0,1-1.749,1.078,5.924,5.924,0,0,1-2.145.385,5.986,5.986,0,0,1-2.167-.385,5.392,5.392,0,0,1-1.749-1.078,4.951,4.951,0,0,1-1.166-1.628,4.983,4.983,0,0,1-.418-2.057,5.06,5.06,0,0,1,.418-2.068,4.8,4.8,0,0,1,1.166-1.628,5.494,5.494,0,0,1,1.749-1.067,5.986,5.986,0,0,1,2.167-.385,5.924,5.924,0,0,1,2.145.385,5.494,5.494,0,0,1,1.749,1.067,4.8,4.8,0,0,1,1.166,1.628A5.06,5.06,0,0,1,103.026-11.924ZM97.68-.77h10.89V1.54H94.776V-5.148h2.9Zm12.848-11.792v2.376h-2.684V-3.63h-2.9V-18.37h2.9v5.808Zm15.642-.924V-18.37h2.9V-6.314h-2.9v-4.818h-3.036v-2.354Zm-3.234,6.622a7.858,7.858,0,0,1-2.794-1.573,7.722,7.722,0,0,1-1.8-2.365,8.42,8.42,0,0,1-1.859,2.717A7.617,7.617,0,0,1,113.5-6.314L112.024-8.6a7.406,7.406,0,0,0,2.09-1.089,6.877,6.877,0,0,0,1.463-1.5,6.385,6.385,0,0,0,.88-1.76,7.313,7.313,0,0,0,.341-1.881h-3.982V-17.16h10.89v2.332h-3.938a5.88,5.88,0,0,0,.308,1.716,5.79,5.79,0,0,0,.847,1.617,6.443,6.443,0,0,0,1.408,1.375,7.063,7.063,0,0,0,2.013.99Zm-.7,6.578A8.3,8.3,0,0,0,125.246-.7a1.369,1.369,0,0,0,1.012-1.276,1.369,1.369,0,0,0-1.012-1.276,8.3,8.3,0,0,0-3.014-.418q-4.048,0-4.048,1.694T122.232-.286Zm0-5.588a14.455,14.455,0,0,1,2.893.264,7.646,7.646,0,0,1,2.178.759,3.866,3.866,0,0,1,1.375,1.221,2.907,2.907,0,0,1,.484,1.65,2.907,2.907,0,0,1-.484,1.65A3.866,3.866,0,0,1,127.3.891a7.646,7.646,0,0,1-2.178.759,14.455,14.455,0,0,1-2.893.264,14.58,14.58,0,0,1-2.915-.264,7.646,7.646,0,0,1-2.178-.759A3.866,3.866,0,0,1,115.764-.33a2.906,2.906,0,0,1-.484-1.65,2.906,2.906,0,0,1,.484-1.65,3.866,3.866,0,0,1,1.375-1.221,7.646,7.646,0,0,1,2.178-.759A14.58,14.58,0,0,1,122.232-5.874Zm22.22-7.986H132.528v-2.288h4.532v-2.134h2.9v2.134h4.488Zm-8.14,4.62a1.38,1.38,0,0,0,.6,1.21,2.754,2.754,0,0,0,1.6.418,2.754,2.754,0,0,0,1.6-.418,1.38,1.38,0,0,0,.6-1.21,1.38,1.38,0,0,0-.6-1.21,2.754,2.754,0,0,0-1.6-.418,2.754,2.754,0,0,0-1.6.418A1.38,1.38,0,0,0,136.312-9.24Zm3.652,5.258q1.188-.066,2.332-.154T144.54-4.4l.22,2.09q-1.606.308-3.234.484t-3.2.253q-1.573.077-3.058.088t-2.761.011l-.352-2.354h2.332q1.232,0,2.574-.044V-5.588a4.7,4.7,0,0,1-2.541-1.287,3.26,3.26,0,0,1-.957-2.365,3.357,3.357,0,0,1,.363-1.562,3.584,3.584,0,0,1,1.023-1.21,4.878,4.878,0,0,1,1.562-.781,6.847,6.847,0,0,1,2-.275,6.877,6.877,0,0,1,1.991.275,4.862,4.862,0,0,1,1.573.781A3.584,3.584,0,0,1,143.1-10.8a3.357,3.357,0,0,1,.363,1.562,3.26,3.26,0,0,1-.957,2.365,4.7,4.7,0,0,1-2.541,1.287Zm11.044-3.74h-2.53V1.892h-2.9V-18.37h2.9v8.25h2.53Z" transform="translate(487 3505)" fill="#fff"/>
      <path id="패스_20185" data-name="패스 20185" d="M-18.252-9a11.537,11.537,0,0,1,1.6-6.5,5.749,5.749,0,0,1,5.148-2.376A5.749,5.749,0,0,1-6.36-15.5,11.537,11.537,0,0,1-4.764-9a11.636,11.636,0,0,1-1.6,6.552A5.749,5.749,0,0,1-11.508-.072a5.749,5.749,0,0,1-5.148-2.376A11.636,11.636,0,0,1-18.252-9ZM-8.8-9a10.352,10.352,0,0,0-.528-3.732,2.112,2.112,0,0,0-2.184-1.308,2.112,2.112,0,0,0-2.184,1.308A10.352,10.352,0,0,0-14.22-9a15.69,15.69,0,0,0,.192,2.7,3.455,3.455,0,0,0,.78,1.728,2.209,2.209,0,0,0,1.74.66,2.209,2.209,0,0,0,1.74-.66A3.455,3.455,0,0,0-8.988-6.3,15.69,15.69,0,0,0-8.8-9Zm6.288,5.88V-6.432L5.076-17.28H9.66V-6.672h1.968V-3.12H9.66V0h-4.1V-3.12Zm8.352-9.648-4.032,6.1H5.844ZM15.972.192a2.487,2.487,0,0,1-1.764-.636,2.061,2.061,0,0,1-.684-1.572,2.125,2.125,0,0,1,.684-1.608,2.461,2.461,0,0,1,1.764-.648,2.428,2.428,0,0,1,1.74.648A2.125,2.125,0,0,1,18.4-2.016a2.061,2.061,0,0,1-.684,1.572A2.455,2.455,0,0,1,15.972.192Z" transform="translate(464.3 3505)" fill="#fff"/>
    </g>
  </g>
</svg>
