<svg xmlns="http://www.w3.org/2000/svg" width="68.385" height="6.586" viewBox="0 0 68.385 6.586">
    <defs>
        <clipPath id="54jy411a5a">
            <path data-name="사각형 2436" style="fill:none" d="M0 0h68.385v6.586H0z"/>
        </clipPath>
    </defs>
    <g data-name="그룹 3381">
        <g data-name="그룹 3380" style="clip-path:url(#54jy411a5a)">
            <path data-name="패스 10951" d="M2.739.647 0 6.924h.79l1.168-2.748h2.156l1.14 2.748h.83L3.442.647zm.323.937c.126.3.71 1.719.792 1.918H2.229l.833-1.918" transform="translate(0 -.493)" style="fill:#184f83"/>
            <path data-name="패스 10952" d="M34.754.648 32.59 5.63 30.426.648h-1v6.277h.747V1.844l2.23 5.08h.368l2.193-5.074v5.075h.746V.648z" transform="translate(-22.405 -.493)" style="fill:#184f83"/>
            <path data-name="패스 10953" d="M122.891.648v6.276h4.423v-.7h-3.676V4.03h3.34v-.7h-3.34V1.342h3.537V.648z" transform="translate(-93.571 -.493)" style="fill:#184f83"/>
            <path data-name="패스 10954" d="M71 2.83V.837h2.047c1.211 0 1.342.7 1.342 1s-.131 1-1.342 1zm-5.614 3.061a2.439 2.439 0 0 1-2.5-2.6 2.5 2.5 0 1 1 4.991 0 2.438 2.438 0 0 1-2.495 2.6m8.249-2.414a1.573 1.573 0 0 0 1.5-1.632c0-1.122-.759-1.69-2.258-1.69H70.26v2.687H68.6A3.093 3.093 0 0 0 65.386 0a3.126 3.126 0 0 0-3.241 3.292 3.24 3.24 0 0 0 6.473.245h1.642v2.894h.746V3.537h1.85l1.714 2.894h.853l-1.788-2.954" transform="translate(-47.318)" style="fill:#184f83"/>
            <path data-name="패스 10955" d="M176.136 6.431h.418V.155h-.418zM170.68.155v6.276h.418V3.365h3.039V3H171.1V.518h3.267V.155zm-2.2 6.277h.418V.155h-.418zm9.571-3.139a3.125 3.125 0 0 0 3.238 3.293 2.717 2.717 0 0 0 2.226-1.035l.029-.037-.346-.262-.027.036a2.45 2.45 0 0 1-1.882.935 2.753 2.753 0 0 1-2.821-2.931 2.752 2.752 0 0 1 2.818-2.929 2.146 2.146 0 0 1 1.707.8l.029.036.346-.29-.031-.035A2.592 2.592 0 0 0 181.286 0a3.125 3.125 0 0 0-3.238 3.292m-16.788 0a3.124 3.124 0 0 0 3.24 3.294 2.716 2.716 0 0 0 2.226-1.035l.029-.037-.345-.262-.027.036a2.452 2.452 0 0 1-1.883.935 2.753 2.753 0 0 1-2.821-2.931A2.752 2.752 0 0 1 164.5.363a2.149 2.149 0 0 1 1.708.8l.028.036.346-.29-.03-.035A2.593 2.593 0 0 0 164.5 0a3.124 3.124 0 0 0-3.238 3.292m-3.674-2.6.084-.2 1.156 2.832h-2.355l1.114-2.631m-.133-.534-2.74 6.277h.428l1.173-2.755h2.665l1.14 2.755h.475L157.952.155zm-5.7.364h1.331c.691 0 1.5.327 1.5 1.25S153.825 3 153.119 3h-1.463V.518zm-.511-.364v6.272h.417V3.365h1.489c.9 0 1.852-.419 1.852-1.6 0-1.457-1.392-1.614-1.99-1.614z" transform="translate(-115.156)" style="fill:#00173a"/>
        </g>
    </g>
</svg>
