<svg xmlns="http://www.w3.org/2000/svg" width="250" height="80" viewBox="0 0 250 80">
    <defs>
        <clipPath id="lvpaedg79a">
            <path data-name="사각형 2592" style="fill:none" d="M0 0h123.975v76.971H0z"/>
        </clipPath>
    </defs>
    <g data-name="그룹 3831">
        <g data-name="그룹 3830">
            <g data-name="그룹 3725">
                <g data-name="그룹 3724" style="clip-path:url(#lvpaedg79a)" transform="translate(63 2)">
                    <path data-name="패스 19896" d="M85.406.127c.736.988 2.267 3.029 2.3 3.066a3.226 3.226 0 0 0 .372.55c.887 1.821 2.248 3.451 2.847 5.483l.36 1.153a7.663 7.663 0 0 1 .156.83 10.9 10.9 0 0 1-.115 3.842 20.027 20.027 0 0 1-2.923 6.313c-1.09 1.488-3.492 4.356-3.492 4.356-1.411-1.687-2.94-3.322-4.41-4.948-.827-1.522-1.675-3.036-2.42-4.627a17.138 17.138 0 0 1-.947-5.413c-.018-.018.064-.767.094-1.085a7.083 7.083 0 0 1 .637-1.881 4.873 4.873 0 0 1 .7-1.17s.68-.976.884-1.216C81.115 3.3 83.3 1.83 85.211.02c.1-.071.144.071.194.108" transform="translate(-22.84)" style="fill:#ce001c"/>
                    <path data-name="패스 19897" d="M56.319 14.839c.511.217 1.064.29 1.584.487a24.95 24.95 0 0 1 4.236.924 26.522 26.522 0 0 1 2.561 1.162 20.359 20.359 0 0 1 5.257 4.819 16.894 16.894 0 0 1 2.906 6.308c.122.714.355 1.472.414 2.192a29.354 29.354 0 0 1-7.205 1.161 17.79 17.79 0 0 1-5.49-1.922 17.888 17.888 0 0 1-4.245-4.323 20.259 20.259 0 0 1-2.7-8.467c-.051-.406-.088-.777-.088-.777s-.131-1.223-.207-1.836a3.8 3.8 0 0 1 .025-.489s.477.108.833.163c.547.17 1.866.556 2.126.6" transform="translate(-15.792 -4.168)" style="fill:#ce001c"/>
                    <path data-name="패스 19898" d="M107.928 17.943c.08.013 2.458.388 3.829.79.241.041.37.112.587.153 1.214.4 2.428.817 3.634 1.257a9.765 9.765 0 0 1-1.489 4.706c-.034.049-.073.109-.132.185A12.025 12.025 0 0 1 110.9 28.5a23.431 23.431 0 0 1-3.9 2.267c-2.893 1.39-6.327 2.428-9.587 1.9-1.226-.213-2.516-.26-3.735-.524 0 0 .55-2.184.8-3.273a16.657 16.657 0 0 1 .731-2c.928-1.451 1.227-3.074 2.444-4.435a16.236 16.236 0 0 1 5.547-4.185 9.528 9.528 0 0 1 4.734-.307" transform="translate(-27.737 -5.265)" style="fill:#ce001c"/>
                    <path data-name="패스 19899" d="M60.407 51.888a10.729 10.729 0 0 0 3.658-2.9 30.941 30.941 0 0 0 2.975-3.724c.022-.044.857-1.333 1.254-1.839.028-.051.058-.074.091-.126a48.843 48.843 0 0 0-6.177-2.269 24.107 24.107 0 0 0-5.317-1.064 14.992 14.992 0 0 0-4.65.088 24.462 24.462 0 0 0-9.094 4.853l.027.106a42.522 42.522 0 0 0 3.16 4.287 6.041 6.041 0 0 0 .721.8l1.306 1.313c.519.269 1.627.752 1.627.752A10.138 10.138 0 0 0 54.2 53.26a19.227 19.227 0 0 0 6.208-1.372" transform="translate(-12.776 -11.792)" style="fill:#ce001c"/>
                    <path data-name="패스 19900" d="M106.92 39.984a15.745 15.745 0 0 1 2.113.139 20.547 20.547 0 0 1 5.844 1.718c.3.176.608.374.893.567 0 0 .633.536.992.812a15.72 15.72 0 0 1 1.485 1.619c.131.277.531.888.565.952a43.136 43.136 0 0 1 2.038 4.437 1.63 1.63 0 0 1 .112.283 7.651 7.651 0 0 1-1.082.348c-.077.027-1.15.347-1.579.534a59.966 59.966 0 0 1-3.637.727c-.081.015-1.749.267-2.521.315-.045.011-1.435.12-1.7.089a6.591 6.591 0 0 1-1.132.038c-.794.013-2.525-.117-2.595-.145a9.6 9.6 0 0 1-2.1-.45c-.118-.035-1.894-.755-1.962-.778a11.261 11.261 0 0 1-1.076-.616 8.524 8.524 0 0 1-1.3-.848A11.554 11.554 0 0 1 98.45 47.9a36.035 36.035 0 0 1-2.142-3.607 20.192 20.192 0 0 1 5.6-3.18c.78-.334 1.589-.61 2.4-.892a11.634 11.634 0 0 1 2.615-.237" transform="translate(-28.517 -11.833)" style="fill:#ce001c"/>
                    <path data-name="패스 19901" d="M101.309 57.79c1.417 1.855 2.94 3.521 3.336 6.072a19.54 19.54 0 0 1 .332 2.444 22.585 22.585 0 0 1 .224 2.685c.016 1.382-.092 2.777-.092 4.16-.674-.2-1.338-.483-2-.735-.049.025-4.629-1.629-4.629-1.629a28.162 28.162 0 0 1-4.879-2.769 16.4 16.4 0 0 1-2.838-2.585c-.462-.632-.875-1.3-1.323-1.962a4.291 4.291 0 0 1-.45-1.15 10.054 10.054 0 0 1-.362-3.013 9.5 9.5 0 0 1 .039-1.4 30.693 30.693 0 0 1 1.366-6.072l.115-.531c3.877 1.351 8.383 3.306 11.156 6.482" transform="translate(-26.239 -15.192)" style="fill:#ce001c"/>
                    <path data-name="패스 19902" d="M77.937 51.4c-2.764 1.033-5.4 2.279-8.072 3.5-.438.276-.909.619-1.366.876-.791.858-2.551 2.457-2.551 2.457a6.331 6.331 0 0 0-2.1 4.164 22.326 22.326 0 0 0 .283 4.659 39.821 39.821 0 0 0 1.36 4.893c.115.56.282 1.072.389 1.61.158-.029.389-.11.584-.134a51.294 51.294 0 0 0 6.219-2.522 13.183 13.183 0 0 0 4.147-3.3 7.73 7.73 0 0 0 .565-.669 12.049 12.049 0 0 0 2.32-6.874s-.011-.748.023-1.117c-.082-.869-.3-1.769-.4-2.642-.169-.517-.241-1.044-.4-1.563-.261-1.089-.7-2.217-1-3.335" transform="translate(-18.895 -15.221)" style="fill:#ce001c"/>
                    <path data-name="패스 19903" d="M.851 95.052A2.529 2.529 0 0 0 0 97.028c0 1.485 1.251 2.243 2.462 2.972 1.067.646 2.072 1.252 2.072 2.309 0 .688-.629 1.414-1.8 1.414a3.435 3.435 0 0 1-2.407-1.1l-.27-.269v1.613l.065.051a4.5 4.5 0 0 0 2.781.883 2.708 2.708 0 0 0 2.844-2.754 2.856 2.856 0 0 0-.875-2.095 7.757 7.757 0 0 0-1.771-1.222c-.973-.551-1.889-1.067-1.889-2 0-.785.72-1.335 1.751-1.335a3.449 3.449 0 0 1 2.114.788l.256.2v-1.462l-.076-.047a4.1 4.1 0 0 0-2.169-.655 3.344 3.344 0 0 0-2.241.733" transform="translate(0 -27.928)" style="fill:#6d6f72"/>
                    <path data-name="패스 19904" d="M50.867 95.052a2.535 2.535 0 0 0-.852 1.976c0 1.485 1.252 2.241 2.462 2.973 1.067.646 2.074 1.252 2.074 2.309 0 .688-.629 1.414-1.8 1.414a3.44 3.44 0 0 1-2.407-1.1l-.269-.27v1.614l.065.051a4.5 4.5 0 0 0 2.778.883 2.711 2.711 0 0 0 2.848-2.754 2.84 2.84 0 0 0-.878-2.095 7.69 7.69 0 0 0-1.767-1.222c-.973-.551-1.891-1.067-1.891-2 0-.785.722-1.335 1.751-1.335a3.448 3.448 0 0 1 2.113.788l.256.2v-1.463l-.075-.047a4.112 4.112 0 0 0-2.172-.655 3.344 3.344 0 0 0-2.239.733" transform="translate(-14.809 -27.928)" style="fill:#6d6f72"/>
                    <path data-name="패스 19905" d="M18.286 94.543v4.565h-5.511v-4.565h-1.284v10.264h1.284v-4.569h5.511v4.569h1.284V94.543z" transform="translate(-3.402 -27.994)" style="fill:#6d6f72"/>
                    <path data-name="사각형 2591" transform="translate(19.415 66.549)" style="fill:#6d6f72" d="M0 0h1.285v10.264H0z"/>
                    <path data-name="패스 19906" d="M61.643 94.543v10.264h5.762v-1.133h-4.477v-3.429h4.185v-1.133h-4.185v-3.439h4.338v-1.13z" transform="translate(-18.252 -27.994)" style="fill:#6d6f72"/>
                    <path data-name="패스 19907" d="M101.934 94.543v10.264h5.766v-1.133h-4.477v-3.429h4.177v-1.133h-4.183v-3.439h4.34v-1.13z" transform="translate(-30.183 -27.994)" style="fill:#6d6f72"/>
                    <path data-name="패스 19908" d="M120.026 94.543v10.276h1.285v-4.574h4.189v-1.133h-4.188v-3.439h4.34v-1.13z" transform="translate(-35.54 -27.994)" style="fill:#6d6f72"/>
                    <path data-name="패스 19909" d="M91.415 94.458H90.5l-4.142 10.323h1.331l1.188-3.089h4.261l1.287 3.089h1.314zm-2.1 6.1 1.61-4.175 1.744 4.175z" transform="translate(-25.57 -27.969)" style="fill:#6d6f72"/>
                    <path data-name="패스 19910" d="M80.754 96.458v-1.345a7.894 7.894 0 0 0-2.975-.76 5.511 5.511 0 0 0-4.019 1.383 5.308 5.308 0 0 0-1.5 3.871c0 2.865 1.58 5.277 5.074 5.277a6.426 6.426 0 0 0 3.418-.884l.061-.038v-4.9h-3.29v1.083h2.052v3.106a4.444 4.444 0 0 1-2.276.467 4.109 4.109 0 0 1 .365-8.2 6.321 6.321 0 0 1 3.09.94" transform="translate(-21.398 -27.938)" style="fill:#6d6f72"/>
                    <path data-name="패스 19911" d="M41.478 94.543v7.979l-6.232-7.979h-1.229v10.264h1.193V96.6l6.38 8.207h1.08V94.543z" transform="translate(-10.072 -27.994)" style="fill:#6d6f72"/>
                    <path data-name="패스 19912" d="M157.876 99.629c0 2.915-1.5 5.278-5.1 5.278s-5.1-2.363-5.1-5.278 1.507-5.273 5.1-5.273 5.1 2.361 5.1 5.273m-5.1-4.126c-2.65 0-3.762 1.847-3.762 4.126s1.111 4.13 3.762 4.13 3.764-1.851 3.764-4.13-1.111-4.126-3.764-4.126" transform="translate(-43.726 -27.939)" style="fill:#6d6f72"/>
                    <path data-name="패스 19913" d="M141.081 99.629c0 2.915-1.5 5.278-5.1 5.278s-5.1-2.363-5.1-5.278 1.5-5.273 5.1-5.273 5.1 2.361 5.1 5.273m-5.1-4.126c-2.65 0-3.762 1.847-3.762 4.126s1.111 4.13 3.762 4.13 3.765-1.851 3.765-4.13-1.112-4.126-3.765-4.126" transform="translate(-38.753 -27.939)" style="fill:#6d6f72"/>
                    <path data-name="패스 19914" d="M167.741 94.53h-3.251v10.27h3.251c3.477-.07 4.94-2.341 4.94-5.141s-1.463-5.062-4.94-5.132m0 9.154h-1.965v-8.033h1.965c2.533.075 3.6 1.84 3.6 4.014s-1.07 3.949-3.6 4.022" transform="translate(-48.705 -27.99)" style="fill:#6d6f72"/>
                </g>
            </g>
        </g>
        <path data-name="사각형 2646" style="fill:none" d="M0 0h250v80H0z"/>
    </g>
</svg>
