<svg xmlns="http://www.w3.org/2000/svg" width="250" height="80" viewBox="0 0 250 80">
    <defs>
        <clipPath id="zytu8xpgaa">
            <path data-name="사각형 2625" style="fill:none" d="M0 0h110.092v61.816H0z"/>
        </clipPath>
    </defs>
    <g data-name="그룹 3861">
        <path data-name="사각형 2662" style="fill:none" d="M0 0h250v80H0z"/>
        <g data-name="그룹 3860">
            <g data-name="그룹 3787">
                <g data-name="그룹 3786" transform="translate(70 8.999)" style="clip-path:url(#zytu8xpgaa)">
                    <path data-name="패스 20055" d="M3.852 67.878H1.116v8.872h1.507v-3.356H4.08a2.8 2.8 0 0 0 2.743-2.72 2.763 2.763 0 0 0-2.971-2.8m-.1 4.09H2.623v-2.647H3.68c1.021 0 1.583.458 1.583 1.289a1.34 1.34 0 0 1-1.516 1.362" transform="translate(-.248 -15.088)" style="fill:#1a1818"/>
                    <path data-name="패스 20056" d="M16.386 73.111a2.642 2.642 0 0 0 2.054-2.549 2.693 2.693 0 0 0-2.818-2.686H12.69v8.872h1.51v-3.704l3.208 3.705h1.942l-3.163-3.592zM14.2 71.91v-2.594h1.209a1.337 1.337 0 0 1 1.474 1.205 1.355 1.355 0 0 1-1.5 1.388z" transform="translate(-2.821 -15.087)" style="fill:#1a1818"/>
                    <path data-name="패스 20057" d="M28.763 67.686a4.588 4.588 0 0 0 .046 9.175 4.519 4.519 0 0 0 4.549-4.586 4.441 4.441 0 0 0-4.595-4.589m.046 7.688a3.064 3.064 0 0 1-3-3.115 2.9 2.9 0 0 1 2.958-3.1 3.107 3.107 0 0 1 .046 6.21" transform="translate(-5.392 -15.045)" style="fill:#1a1818"/>
                    <path data-name="패스 20058" d="M40.469 76.75h1.5v-3.615h2.864v-1.427h-2.864v-2.391h3.04v-1.439h-4.54z" transform="translate(-8.995 -15.088)" style="fill:#1a1818"/>
                    <path data-name="패스 20059" d="M52.394 73.133h3.523v-1.427h-3.523v-2.392H56v-1.447h-5.107v8.88h5.337v-1.433h-3.836z" transform="translate(-11.312 -15.085)" style="fill:#1a1818"/>
                    <path data-name="패스 20060" d="m65.251 71.613-.265-.131c-1-.489-1.518-.777-1.518-1.485 0-.614.574-.831 1.065-.831a2.361 2.361 0 0 1 1.584.509l.14.1.829-1.233-.132-.093a4.175 4.175 0 0 0-2.407-.763 2.4 2.4 0 0 0-2.631 2.37c0 1.679 1.228 2.284 2.415 2.868l.124.06c.894.466 1.346.807 1.346 1.377 0 .663-.463 1.027-1.3 1.027a2.71 2.71 0 0 1-1.674-.59l-.137-.123-.859 1.174.12.1a3.923 3.923 0 0 0 2.609.911 2.58 2.58 0 0 0 2.8-2.585c0-1.5-1.084-2.162-2.1-2.663" transform="translate(-13.742 -15.045)" style="fill:#1a1818"/>
                    <path data-name="패스 20061" d="m75.991 71.612-.274-.135c-.989-.488-1.506-.776-1.506-1.482 0-.614.575-.831 1.068-.831a2.358 2.358 0 0 1 1.578.509l.14.1.83-1.233-.133-.094a4.12 4.12 0 0 0-2.415-.763 2.4 2.4 0 0 0-2.624 2.37c0 1.665 1.27 2.3 2.391 2.851l.152.077c.786.418 1.341.761 1.341 1.377 0 .663-.459 1.028-1.292 1.028a2.65 2.65 0 0 1-1.664-.589l-.135-.125-.882 1.172.121.1a3.881 3.881 0 0 0 2.607.912 2.575 2.575 0 0 0 2.787-2.586c0-1.5-1.079-2.162-2.089-2.663" transform="translate(-16.129 -15.045)" style="fill:#1a1818"/>
                    <path data-name="사각형 2624" transform="translate(65.384 52.782)" style="fill:#1a1818" d="M0 0h1.5v8.88H0z"/>
                    <path data-name="패스 20062" d="M95.017 67.686a4.588 4.588 0 0 0 .056 9.175 4.566 4.566 0 0 0 4.535-4.586 4.439 4.439 0 0 0-4.591-4.589m.056 7.688a3.067 3.067 0 0 1-3.01-3.115 2.9 2.9 0 0 1 2.954-3.1 3.107 3.107 0 0 1 .056 6.21" transform="translate(-20.118 -15.045)" style="fill:#1a1818"/>
                    <path data-name="패스 20063" d="m112.276 73.791-4.31-5.925h-1.251v8.881h1.5v-6.03l4.356 6.03h1.2v-8.881h-1.5z" transform="translate(-23.72 -15.085)" style="fill:#1a1818"/>
                    <path data-name="패스 20064" d="m123.316 67.867-3.42 8.88h1.613l.887-2.388h2.776l.892 2.388h1.667l-3.445-8.88zm-.39 5.065.139-.372.713-1.92.858 2.292z" transform="translate(-26.649 -15.085)" style="fill:#1a1818"/>
                    <path data-name="패스 20065" d="M135.576 67.867h-1.5v8.88h4.743v-1.432h-3.245z" transform="translate(-29.802 -15.085)" style="fill:#1a1818"/>
                    <path data-name="패스 20066" d="M103.685 10.749c0-5.266-3.252-10.6-9.47-10.6-4.753 0-9.564 3.641-9.564 10.6v24.766c0 5.268 3.252 10.6 9.47 10.6 4.754 0 9.565-3.641 9.565-10.6zM98.7 35.9c0 2.518-1.433 5.227-4.578 5.227-2.231 0-4.487-1.8-4.487-5.227V10.29c0-2.56 1.541-5.152 4.487-5.152 2.279 0 4.578 1.593 4.578 5.152z" transform="translate(-18.815 -.034)" style="fill:#1a1818"/>
                    <path data-name="패스 20067" d="M134.8 41.8a9.333 9.333 0 0 0 1.125-4.63 11.352 11.352 0 0 0-1.12-4.773 20.138 20.138 0 0 0-.711-1.415c-.373-.686-.792-1.4-1.284-2.178l-8.347-13.014-.539-.851c-.33-.531-.7-1.132-1.032-1.733a7.881 7.881 0 0 1-1.062-3.055V9.862a4.642 4.642 0 0 1 1.155-3.427 3.937 3.937 0 0 1 2.836-1.072c2.63 0 3.936 2.112 4.062 4.2v4.892l.013.119h4.925V9.1a8.9 8.9 0 0 0-2.721-6.789A9.354 9.354 0 0 0 125.722 0H125.426a8.868 8.868 0 0 0-1.835.2 8.906 8.906 0 0 0-7.366 8.834c0 .208.009.433.029.7 0 .03.005.059.009.089l.007.052c.213 2.541 1.382 4.844 3.071 7.521l5.614 8.774v-.017l2.728 4.288.1.108.446.712a22.291 22.291 0 0 1 1.519 2.719 6.134 6.134 0 0 1 .593 2.472c0 2.147-1.125 4.443-4.283 4.443a4.229 4.229 0 0 1-4.459-4.372v-4.9h-4.94v5.469c0 5.976 4.915 9.1 9.772 9.1 3.693 0 6.823-1.644 8.371-4.4" transform="translate(-25.834)" style="fill:#1a1818"/>
                    <path data-name="패스 20068" d="M14.6 43.356v1.6h4.94v-32.72l-.009-2.425c-.226-3.81-1.818-6.48-4.039-8.032a8.96 8.96 0 0 0-3.4-1.437 9.756 9.756 0 0 0-1.576-.18c-.112 0-.226-.008-.338-.008a8.828 8.828 0 0 0-4.266 1.1A9.786 9.786 0 0 0 1.08 9.066a14.657 14.657 0 0 0-.09 1.555c0 .046-.005.089-.005.135v3.731h4.986v-4.472c0-.124.009-.242.015-.362v.557a6.72 6.72 0 0 1 .1-1.144 4.237 4.237 0 0 1 8.422 0 6.81 6.81 0 0 1 .092 1.144v.455c0 2.021-.907 3.473-2.472 5.3l-1.168 1.313-.158.177-.488.551-.445.472-3.883 4.27-.79.87a26.588 26.588 0 0 0-3.648 4.834c-.12.217-.257.432-.363.651-.068.137-.138.273-.2.411A11.083 11.083 0 0 0 0 34.176l.009 2.57a7.909 7.909 0 0 0 .975 3.871c.059.106.138.2.2.3.111.18.238.349.363.518a7.852 7.852 0 0 0 1.406 1.453c.174.138.348.275.533.4a10.412 10.412 0 0 0 5.745 1.671h.033a9.433 9.433 0 0 0 5.076-1.433zm-3.4-3.418a6.262 6.262 0 0 1-1.334.145 6.061 6.061 0 0 1-2.352-.471 4.018 4.018 0 0 1-2.539-3.768v-1.482a7.384 7.384 0 0 1 1.012-4.02 14.075 14.075 0 0 1 1.809-2.3l4.604-4.991a21.074 21.074 0 0 0 1.891-2.236l.3-.444v15.168a4.27 4.27 0 0 1-3.4 4.4" transform="translate(0 -.034)" style="fill:#1a1818"/>
                    <path data-name="패스 20069" d="M58.076.153c-3.109 0-5.159.818-6.646 2.654a6.313 6.313 0 0 0-.793 1.2l-.15.313-.149-.313a6.359 6.359 0 0 0-.793-1.2C48.057.971 46.007.153 42.9.153c-5.227 0-8.6 3.784-8.6 9.641v35.167h4.713V9.794a4.31 4.31 0 0 1 4.5-4.684c2.906 0 4.505 1.664 4.505 4.684v35.167h4.944V9.794c0-3.021 1.6-4.684 4.505-4.684a4.309 4.309 0 0 1 4.5 4.684v35.167h4.715V9.794c0-5.856-3.378-9.641-8.6-9.641" transform="translate(-7.623 -.034)" style="fill:#1a1818"/>
                </g>
            </g>
        </g>
    </g>
</svg>
