<svg xmlns="http://www.w3.org/2000/svg" width="250" height="80" viewBox="0 0 250 80">
    <defs>
        <clipPath id="1jbpuyr8oa">
            <path data-name="패스 19890" d="M35.557 26.966a11.954 11.954 0 0 1-1.081-.609 33.526 33.526 0 0 1-2.312-1.662c.24-3.41 1.543-14.32 5.33-10.467A14.868 14.868 0 0 1 41.6 22.9c.128 1.606-.048 3.7-1.409 4.715a2.335 2.335 0 0 1-1.422.451 7.615 7.615 0 0 1-3.217-1.1M35.412.021c-5.87.6-7.769 7.242-7.606 12.59.1 3.461.43 6.849.644 8.8.008 0 .008.006.008.009a59.668 59.668 0 0 1-2.96-3.147C17.3 8.891 10.769 3.345 5.767 4.4 2 5.2.259 9.485.045 13.052c-.027.455-.045.917-.045 1.373v.264C.045 23.3 4.425 31.78 9.862 37.946a36.386 36.386 0 0 0 9.971 8.329c2.057 1.088 4.6 2.054 6.892 1.272 3.249-1.1 4.529-5.357 5.122-8.42a23.569 23.569 0 0 0 .434-8.118 6.118 6.118 0 0 0-.232-1.382l-3.089-1.765s.955 7.821-4.53 10.993S13.281 35.1 12.762 27.581s2.1-9.056 6.117-6.959c2.313 1.21 6.479 4.365 10.954 6.47 0 0 2.126 1.1 3.968 1.915a21.268 21.268 0 0 0 1.201.507.022.022 0 0 0 .015 0c5.078 1.955 13.206 2.93 15-6.161a15.28 15.28 0 0 0 .253-1.908v-2.228C49.637 9.54 41.027 0 35.819 0c-.136 0-.271.009-.407.021" style="fill:none"/>
        </clipPath>
        <clipPath id="7oxtzortuc">
            <path data-name="사각형 2590" style="fill:none" d="M0 0h211.318v48.329H0z"/>
        </clipPath>
        <radialGradient id="uu1wctl2xb" cx=".95" cy="-.226" r="1.507" gradientTransform="scale(.961 1)" gradientUnits="objectBoundingBox">
            <stop offset="0" stop-color="#3c773b"/>
            <stop offset=".182" stop-color="#4a9964"/>
            <stop offset=".291" stop-color="#54af7f"/>
            <stop offset=".331" stop-color="#57ad7c"/>
            <stop offset=".368" stop-color="#62a972"/>
            <stop offset=".404" stop-color="#75a363"/>
            <stop offset=".439" stop-color="#909a4e"/>
            <stop offset=".473" stop-color="#b28e32"/>
            <stop offset=".507" stop-color="#db8010"/>
            <stop offset=".522" stop-color="#f07900"/>
            <stop offset=".535" stop-color="#e17b10"/>
            <stop offset=".592" stop-color="#a18758"/>
            <stop offset=".644" stop-color="#6f9190"/>
            <stop offset=".688" stop-color="#4b98b9"/>
            <stop offset=".723" stop-color="#359cd2"/>
            <stop offset=".744" stop-color="#2d9edc"/>
            <stop offset=".897" stop-color="#00254c"/>
            <stop offset="1" stop-color="#1a1311"/>
        </radialGradient>
    </defs>
    <g data-name="그룹 3823">
        <path data-name="사각형 2642" style="fill:none" d="M0 0h250v80H0z"/>
        <g data-name="그룹 3822">
            <g data-name="그룹 3720">
                <g data-name="그룹 3719" style="clip-path:url(#1jbpuyr8oa)" transform="translate(19 16)">
                    <path data-name="사각형 2589" style="fill:url(#uu1wctl2xb)" d="M0 0h50.275v48.329H0z"/>
                </g>
            </g>
            <g data-name="그룹 3722">
                <g data-name="그룹 3721" style="clip-path:url(#7oxtzortuc)" transform="translate(19 16)">
                    <path data-name="패스 19891" d="M228.136 74.374V48.648h4.2v9.881h2.264v-9.881h4.231V74.7H234.6V62.339h-2.257v12.035zm-8.271-14.491c-1.686 0-2.578 1.356-2.578 3.194 0 1.872.893 3.228 2.578 3.228 1.718 0 2.576-1.356 2.576-3.228 0-1.838-.858-3.194-2.576-3.194m0 10.038c-4.2 0-6.651-3-6.651-6.844 0-3.777 2.421-6.809 6.651-6.809 4.355 0 6.648 3.063 6.648 6.809 0 3.777-2.482 6.844-6.648 6.844m-2.038-18.043a2.735 2.735 0 0 0 .191-2.323l-.35-1 3.914-1.358a11.731 11.731 0 0 1 .541 1.68 4.433 4.433 0 0 1-.479 3h5.505v3.583h-14.571v-3.582z" transform="translate(-148.76 -33.027)" style="fill:#1a1311"/>
                    <path data-name="패스 19892" d="M332.909 69.229a3.315 3.315 0 0 0-3.471 3.454 3.239 3.239 0 0 0 3.471 3.356 3.16 3.16 0 0 0 3.368-3.356 3.236 3.236 0 0 0-3.368-3.454m0 10.36c-4.394 0-8.083-2.679-8.083-6.906 0-4.261 3.689-6.973 8.083-6.973a9.441 9.441 0 0 1 3.625.679 3.387 3.387 0 0 0 .733-2.2V50.507h4.614v3.067h3.947v3.584h-3.947v3.259h3.947V64h-3.947v.033a4.7 4.7 0 0 1-2.421 4.453 6.53 6.53 0 0 1 1.5 4.2c0 4.2-3.689 6.906-8.048 6.906M326.64 53.9a3.609 3.609 0 0 0 0 7.2c2.164 0 3.341-1.581 3.341-3.616a3.282 3.282 0 0 0-3.341-3.584m0 10.812c-4.3 0-7.858-2.355-7.858-7.23 0-4.487 3.624-7.166 7.858-7.166s7.857 2.713 7.857 7.166c0 4.518-3.657 7.23-7.857 7.23" transform="translate(-223.08 -35.208)" style="fill:#1a1311"/>
                    <path data-name="패스 19893" d="M440.609 52.032h4.3v26.05h-4.3zm-14.86 4.94c-2.164 0-2.7 2.485-2.7 5.165 0 2.645.541 5.132 2.7 5.132 2.134 0 2.736-2.487 2.736-5.132 0-2.68-.6-5.165-2.736-5.165m8.718 20.463v-13.3h-1.973c-.538 4.391-2.9 6.841-6.745 6.841-4.456 0-6.841-3.226-6.841-8.842s2.42-8.878 6.841-8.878c3.915 0 6.268 2.552 6.778 7h1.939v-8.224h4.234v25.4z" transform="translate(-293.147 -36.411)" style="fill:#1a1311"/>
                    <path data-name="패스 19894" d="M536.336 59.168h7.8v-7.136h4.611v26.05h-4.611v-15.2h-7.8zM530.2 53.13v13.977c0 .81.092 1.29 1.241 1.29a30.6 30.6 0 0 0 10.245-1.483l.633 3.648a35.372 35.372 0 0 1-12.628 1.55c-2.771-.064-4.17-1-4.17-3.646V53.13z" transform="translate(-367.752 -36.411)" style="fill:#1a1311"/>
                    <path data-name="패스 19895" d="M642.865 52.032h4.582v26.082h-4.582zm-19.633 18.047c5.029-3.681 8.56-8.718 9.513-12.3.159-.487.064-1-.6-1h-8.051V53.13h11.136c2.388 0 2.8 1.582 2.511 3.778a17.681 17.681 0 0 1-2.767 6.747 4.984 4.984 0 0 1 3.216 2.128c1.047 1.451 2.225 3.262 3.371 5.068l-3.119 2.425a53.9 53.9 0 0 0-3.5-5.2 3.733 3.733 0 0 0-2.036-1.614 34.772 34.772 0 0 1-7.379 6.743z" transform="translate(-436.13 -36.411)" style="fill:#1a1311"/>
                </g>
            </g>
        </g>
    </g>
</svg>
