<svg xmlns="http://www.w3.org/2000/svg" width="68" height="14.413" viewBox="0 0 68 14.413">
    <defs>
        <clipPath id="ahkczspjka">
            <path data-name="사각형 2442" style="fill:none" d="M0 0h68v14.413H0z"/>
        </clipPath>
    </defs>
    <g data-name="그룹 3390">
        <g data-name="그룹 3389" style="clip-path:url(#ahkczspjka)">
            <path data-name="패스 10987" d="M10.174 13.189a4.209 4.209 0 0 1-5.935 0l-3.015-3.015a4.208 4.208 0 0 1 0-5.934l3.015-3.016a4.209 4.209 0 0 1 5.935 0l3.015 3.015a4.208 4.208 0 0 1 0 5.934z" style="fill:#e50019"/>
            <path data-name="패스 10988" d="M19.044 41.074a.45.45 0 1 1 .019 0h-.019" transform="translate(-13.626 -29.438)" style="fill:#fff"/>
            <path data-name="패스 10989" d="M21.111 10.547a.809.809 0 0 0-.6.234 2.814 2.814 0 0 0-.505 1.975 8.866 8.866 0 0 0 1.2 4.572 2.013 2.013 0 0 0 .469.447 1.043 1.043 0 0 0 .618.208 1.378 1.378 0 0 0 .242-.023 3.271 3.271 0 0 0 1.653-1.472.4.4 0 1 1 .677.426 3.922 3.922 0 0 1-2.16 1.827h-.018a2.216 2.216 0 0 1-.4.037 1.846 1.846 0 0 1-1.055-.341 2.812 2.812 0 0 1-.659-.623c-1.275-1.637-1.362-4.706-1.368-5.05a3.616 3.616 0 0 1 .742-2.556 1.587 1.587 0 0 1 1.159-.465h.074a1.59 1.59 0 0 1 1.161.465 3.616 3.616 0 0 1 .742 2.556 8.259 8.259 0 0 1-1.053 3.977.4.4 0 1 1-.687-.41 6.932 6.932 0 0 0 .939-3.58 2.813 2.813 0 0 0-.505-1.975.806.806 0 0 0-.6-.234z" transform="translate(-14.071 -7.141)" style="fill:#fff"/>
            <path data-name="패스 10990" d="M97.7 21.638h.881v-5.892H97.7zm-1.411-3.765h-1.1v.527h1.1v1.239a1.738 1.738 0 0 1-.694.131h-1.25a.213.213 0 0 1-.212-.212v-2.936h1.61V16.2H93.22v3.572a.423.423 0 0 0 .422.423H95.6a1.342 1.342 0 0 0 .694-.151v1.6h.882v-5.898h-.882z" transform="translate(-68.295 -11.536)" style="fill:#d60812"/>
            <path data-name="패스 10991" d="M70.909 19.13v-.58h1.937v-.422h-3.651a.212.212 0 0 1-.213-.213v-.37h3.786v-1.427h-4.695v.424h3.784v.577h-3.784v1.008a.422.422 0 0 0 .422.423H70v.58h-2.42v.424h5.759v-.424zm.025.7h-1.021a2.754 2.754 0 0 1-2.084 1.755l.254.376a4.41 4.41 0 0 0 2.341-1.242 4.405 4.405 0 0 0 2.34 1.242l.254-.376a2.757 2.757 0 0 1-2.084-1.755" transform="translate(-49.511 -11.808)" style="fill:#d60812"/>
            <path data-name="패스 10992" d="M117.7 16.144h4.672v1.2a2.311 2.311 0 0 1-.225 1.094h.816v.422h-5.753v-.422h4.1a3.749 3.749 0 0 0 .133-1.068v-.8H117.7zm4.742 3.394v1.423h-3.793v.415c0 .132.048.178.175.178h3.71v.435h-4.354a.46.46 0 0 1-.485-.435v-1.021h3.8v-.56h-3.8v-.435z" transform="translate(-85.871 -11.827)" style="fill:#d60812"/>
            <path data-name="패스 10993" d="M143.915 19.487v1.078h2.339v.46H140.5v-.46h2.456v-1.078h-1.482a.468.468 0 0 1-.484-.453v-1.441h3.822v-.954h-3.822v-.454h4.742v1.867h-3.812v.789c0 .138.056.186.183.186h3.724v.46z" transform="translate(-102.936 -11.857)" style="fill:#d60812"/>
            <path data-name="패스 10994" d="M164.088 18.533c-.367 0-.532-.184-.532-.507v-2.181h.885v.942h1.5v-.942h.865v1.087h1.152v-1.186h.885v2.992h-.885v-1.364h-1.148v1.16zm3.873 1.641V19.5h-3.533v-.44h4.418v1.54h-3.527v.514c0 .1.04.152.16.152h3.474v.434h-3.96a.5.5 0 0 1-.559-.534v-.988zm-3.521-2.227c0 .1.04.151.16.151h1.345v-.876h-1.5z" transform="translate(-119.825 -11.536)" style="fill:#d60812"/>
            <path data-name="패스 10995" d="M189.6 19.477v1.078h2.341v.46h-5.751v-.46h2.458v-1.078h-1.483a.468.468 0 0 1-.485-.453v-1.442h3.82v-.954h-3.822v-.453h4.742v1.867h-3.815v.79c0 .137.056.185.183.185h3.724v.46z" transform="translate(-136.407 -11.85)" style="fill:#d60812"/>
            <path data-name="패스 10996" d="M209.282 15.566h3.624v.439h-1.345v.818a2.859 2.859 0 0 0 1.63 2.6l-.331.331a3.332 3.332 0 0 1-1.736-1.339 3.427 3.427 0 0 1-1.716 1.339l-.331-.331a2.72 2.72 0 0 0 1.53-2.515v-.9h-1.325zm4.478-.23h.894v6.051h-.894z" transform="translate(-153.174 -11.235)" style="fill:#d60812"/>
            <path data-name="패스 10997" d="M238.556 21.03H232.8v-.457h5.754zm-3.455-4.27v-.568h1.026v.568c0 .934 1.2 2 2.3 2.284l-.281.387a4.413 4.413 0 0 1-2.523-1.53 3.74 3.74 0 0 1-2.4 1.536l-.281-.387a2.85 2.85 0 0 0 2.164-2.291" transform="translate(-170.556 -11.863)" style="fill:#d60812"/>
        </g>
    </g>
</svg>
