<svg xmlns="http://www.w3.org/2000/svg" width="250" height="80" viewBox="0 0 250 80">
    <defs>
        <clipPath id="icd6t0gywa">
            <path data-name="사각형 2581" style="fill:none" d="M0 0h121.027v36.945H0z"/>
        </clipPath>
    </defs>
    <g data-name="그룹 3809">
        <g data-name="그룹 3808">
            <g data-name="그룹 3701">
                <g data-name="그룹 3700" transform="translate(64 22)" style="clip-path:url(#icd6t0gywa)">
                    <path data-name="패스 19858" d="M28.958.3h-5.093v3.814h.008A5.092 5.092 0 0 1 28.958 9.2v4.727a1.2 1.2 0 0 1-1.2 1.193h-15.18a1.194 1.194 0 0 1-1.2-1.193V9.2a5.091 5.091 0 0 1 5.085-5.087V.3H0v3.814A5.093 5.093 0 0 1 5.093 9.2v17.976A5.084 5.084 0 0 1 0 32.255v3.821h16.468v-3.821a5.082 5.082 0 0 1-5.085-5.079v-4.727a1.2 1.2 0 0 1 1.2-1.2h15.172a1.2 1.2 0 0 1 1.2 1.2v4.727a5.083 5.083 0 0 1-5.085 5.079h-.008v3.821h16.471v-3.821h-.008a5.082 5.082 0 0 1-5.079-5.079V9.2a5.091 5.091 0 0 1 5.079-5.087h.008V.3H28.958z" transform="translate(0 .278)" style="fill:#db000c"/>
                    <path data-name="패스 19859" d="M64.084 5.766a11.866 11.866 0 0 1 11.09 7.418h3.817V.591H75.18a1.59 1.59 0 0 1-1.592 1.582 1.625 1.625 0 0 1-.531-.1l-.012.008A19.28 19.28 0 0 0 64.186 0a18.3 18.3 0 0 0-18.728 18.479v.094a18.134 18.134 0 0 0 18.626 18.372c.354 0 .7-.015 1.041-.029.243-.012.472-.035.7-.054.077-.006.148-.01.223-.019a18.215 18.215 0 0 0 12.815-7.135l-4.021-4.019a13.389 13.389 0 0 1-10.4 5.489v-.012c-.089 0-.167.012-.258.012-7.095 0-12.139-5.774-12.139-12.7v-.1c0-6.948 4.947-12.609 12.037-12.609" transform="translate(42.036)" style="fill:#db000c"/>
                    <path data-name="패스 19860" d="M42.277.3H23.84v3.819A5.088 5.088 0 0 1 28.929 9.2v17.977a5.085 5.085 0 0 1-5.087 5.079v3.821h18.437c11.24 0 19.012-7.82 19.012-17.888v-.1C61.289 8.012 53.517.3 42.277.3m12.416 17.99c0 7-4.906 12.057-12.416 12.057h-7.054V6.026h7.054c7.51 0 12.416 5.16 12.416 12.159z" transform="translate(22.046 .276)" style="fill:#db000c"/>
                </g>
            </g>
        </g>
        <path data-name="사각형 2634" style="fill:none" d="M0 0h250v80H0z"/>
    </g>
</svg>
