<svg xmlns="http://www.w3.org/2000/svg" width="250" height="80" viewBox="0 0 250 80">
    <defs>
        <clipPath id="9yux6nbvda">
            <path data-name="사각형 2449" style="fill:none" d="M0 0h139.144v65.255H0z"/>
        </clipPath>
    </defs>
    <g data-name="그룹 3811">
        <g data-name="그룹 3810">
            <g data-name="그룹 3399" style="clip-path:url(#9yux6nbvda)" transform="translate(55 7)">
                <path data-name="패스 11022" d="M12.272 94.421c-2.319-1.086-4.224-1.962-4.224-3.735 0-1.354 1.084-2.34 3.225-2.34a11.127 11.127 0 0 1 2.1.214 6.284 6.284 0 0 0 1.026.112c1.87 0 2.926-1.115 3.628-3.232l.291-.865a19.546 19.546 0 0 0-7.34-1.464c-6.339 0-9.686 4.066-9.684 8.285A7.143 7.143 0 0 0 3 96.28a15.372 15.372 0 0 0 5.052 3.459c2.611 1.281 4.968 2.229 4.968 4.129 0 1.685-1.74 2.643-4.069 2.643a12.734 12.734 0 0 1-6.335-2.042L0 109.378a18.1 18.1 0 0 0 9.392 2.405c5.916 0 10.4-3.394 10.4-8.616 0-5.193-4.153-7.117-7.516-8.746" transform="translate(0 -46.528)" style="fill:#ea002c"/>
                <path data-name="패스 11023" d="m65.308 97.576 10.734-13.158h-7.647l-8.56 11.354h-.128V84.418h-6.3v27.873h.375c2.726 0 5.969-1.26 5.969-5.812v-6.4h.128l8.721 11.866h8.02z" transform="translate(-29.897 -47.259)" style="fill:#ea002c"/>
                <path data-name="패스 11024" d="M97.4 16.587c-2.219.418-5.51 2.432-5.5 5.994.008 3.235 2.653 5.195 2.662 9.433a7.5 7.5 0 0 1-3.646 6.527c.767-.068 1.61-.112 2.535-.114a21.063 21.063 0 0 1 3.185.192L106.59 26.4a41.4 41.4 0 0 0-9.19-9.813" transform="translate(-50.897 -9.286)" style="fill:#ea002c"/>
                <path data-name="패스 11025" d="M118.944 62.058c1.255-1.949 1.412-5.058 1.518-8.226.118-2.954.734-5.177 4.687-5.189.874 0 1.71.117 3.219.112a23.3 23.3 0 0 0 11.919-3.327 41.356 41.356 0 0 0-20.514-6.542c-.567 1.6-4.976 13.856-5.309 14.845a16.412 16.412 0 0 1 1.787 2.612 29.08 29.08 0 0 1 2.692 5.715" transform="translate(-64.08 -21.769)" style="fill:#ea002c"/>
                <path data-name="패스 11026" d="M71.878 30.278c-.5 0-.755-.333-.822-.912S68.5 6.012 68.131 2.564c-.054-.5-.18-1.427-.182-1.757A.737.737 0 0 1 68.7 0c1.18 0 7.609 1.5 14.43 6.283-1.965.555-5.522 2.6-5.5 6.831.013 3.747 2.695 5.809 2.71 9.569.021 6.113-7.006 7.592-8.46 7.595" transform="translate(-38.039)" style="fill:#ff7a00"/>
                <path data-name="패스 11027" d="M125.939 73.113a4.325 4.325 0 0 0 .309.689.678.678 0 0 0 .612.386 1.467 1.467 0 0 0 .569-.152c.526-.24 21.313-9.919 24.447-11.365.454-.218 1.316-.6 1.6-.769a.762.762 0 0 0 .428-.662.8.8 0 0 0-.121-.409 25.515 25.515 0 0 0-5.766-5.1 25.669 25.669 0 0 1-13.04 3.77c-1.52 0-1.863-.1-2.9-.1-3.028.01-3.784 1.306-3.9 3.959-.018.5-.026 1.176-.055 1.916-.1 2.373-.377 5.644-2.189 7.833" transform="translate(-70.503 -31.199)" style="fill:#ff7a00"/>
                <path data-name="패스 11028" d="m278.159 100.065 5.5 7.617a2.341 2.341 0 0 0 1.876.971h2.723l-8.327-11.52H277.5a2.349 2.349 0 0 0-1.873.973l-7.622 10.548h3.948z" transform="translate(-150.035 -54.375)" style="fill:#ff7a00"/>
                <path data-name="사각형 2447" transform="translate(116.996 59.765)" style="fill:#ff7a00" d="M0 0h22.148v2.362H0z"/>
                <path data-name="패스 11029" d="M214.967 99.424h10.5v-2.3h-11.406a2.426 2.426 0 0 0-2.419 2.419v10.441a2.421 2.421 0 0 0 2.421 2.421h11.818v-2.3h-10.914z" transform="translate(-118.481 -54.37)" style="fill:#ff7a00"/>
                <path data-name="패스 11030" d="M238.753 102.877h-7.814v2.278h7.814v14.016h.984a2.392 2.392 0 0 0 2.392-2.392V97.122h-3.377z" transform="translate(-129.284 -54.371)" style="fill:#ff7a00"/>
                <path data-name="패스 11031" d="M166.079 132.545h13.963V129.3a2.336 2.336 0 0 0-2.336-2.336h-15.03v2.24h13.958v1.1h-13.958v3.241a2.336 2.336 0 0 0 2.336 2.336h15.611v-2.239h-14.544z" transform="translate(-91.069 -71.079)" style="fill:#ff7a00"/>
                <path data-name="패스 11032" d="M161.462 120.013h3.572v-1.668h6.122v-2.213h-15.827v2.213h6.133z" transform="translate(-86.957 -65.013)" style="fill:#ff7a00"/>
                <path data-name="사각형 2448" transform="translate(85.564 42.751)" style="fill:#ff7a00" d="M0 0h3.407v12.504H0z"/>
                <path data-name="패스 11033" d="m163.909 99.607 3.557 4.371a1.215 1.215 0 0 0 .942.449h2.89l-5.846-7.3h-2.328a1.581 1.581 0 0 0-1.233.592l-5.372 6.7h3.468z" transform="translate(-87.623 -54.375)" style="fill:#ff7a00"/>
            </g>
        </g>
        <path data-name="사각형 2636" style="fill:none" d="M0 0h250v80H0z"/>
    </g>
</svg>
