<svg xmlns="http://www.w3.org/2000/svg" width="38.466" height="17.31" viewBox="0 0 38.466 17.31">
    <defs>
        <clipPath id="ot6gljy0za">
            <path data-name="사각형 2441" style="fill:none" d="M0 0h38.466v17.31H0z"/>
        </clipPath>
    </defs>
    <g data-name="그룹 3388">
        <g data-name="그룹 3387" style="clip-path:url(#ot6gljy0za)">
            <path data-name="패스 10985" d="M22.567 13.87c1.009 0 1.569.143 1.585.819a1.41 1.41 0 0 1-.52 1.015c-.617.476-1.159.526-4.055.526H5.283L8.045 4.7H3.269c-.32 0-.44.092-.535.471L.115 15.978c-.491 2.15.619 4.114 3.094 4.114h6.554c1.661 0 3.883-1.811 4.785-3.488.048-.093.082-.152.117-.23 0 0 .02-.022.024.012l-.727 3.08c-.1.452.131.624.348.624h7.057c5.98 0 8.319-2.849 8.523-6.264.115-1.919-1.1-3.162-4.54-3.162h-2.638c-.937 0-1.9-.309-1.9-1.071s1.046-1.427 2.462-1.427H29.7s.562-2.247.673-2.718c.139-.593-.039-.763-.469-.763h-7.945c-4.611 0-6.68 3.083-6.68 5.283s1.774 3.9 6.351 3.9z" transform="translate(0 -2.783)" style="fill:#003e76"/>
            <path data-name="패스 10986" d="M63.239 0h12.779l-6.572 3.374.345-1.435c.082-.349-.028-.614-.524-.712L63.239 0" transform="translate(-37.552)" style="fill:#d8002d"/>
        </g>
    </g>
</svg>
