<svg xmlns="http://www.w3.org/2000/svg" xmlns:xlink="http://www.w3.org/1999/xlink" width="525" height="300" viewBox="0 0 525 300">
  <defs>
    <clipPath id="clip-path">
      <rect id="사각형_2627" data-name="사각형 2627" width="353.417" height="79.39" fill="none"/>
    </clipPath>
  </defs>
  <g id="그룹_3884" data-name="그룹 3884" transform="translate(-62 -420)">
    <rect id="사각형_2673" data-name="사각형 2673" width="525" height="300" transform="translate(62 420)" fill="none"/>
    <g id="그룹_3864" data-name="그룹 3864" transform="translate(99.654 506.525)">
      <rect id="사각형_2663" data-name="사각형 2663" width="449" height="126" transform="translate(0.346 0.475)" fill="none"/>
      <g id="그룹_3793" data-name="그룹 3793" transform="translate(47.458 17.797)">
        <g id="그룹_3792" data-name="그룹 3792" transform="translate(0 11.662)">
          <g id="그룹_3791" data-name="그룹 3791" transform="translate(0 0)" clip-path="url(#clip-path)">
            <path id="패스_20088" data-name="패스 20088" d="M8.659,70.523H8.453v7.63H0V0H8.453V34.643h.206Q14.9,24.127,26.91,24.126q10.154,0,15.9,7.091t5.749,19q0,13.247-6.445,21.213T24.485,79.393a17.366,17.366,0,0,1-15.827-8.87m-.206-21.29v7.373a15.7,15.7,0,0,0,4.252,11.106,14.119,14.119,0,0,0,10.8,4.563A14.156,14.156,0,0,0,35.546,66.4Q39.9,60.526,39.9,50.058q0-8.816-4.072-13.816a13.477,13.477,0,0,0-11.032-5,14.979,14.979,0,0,0-11.857,5.129A18.836,18.836,0,0,0,8.453,49.233" transform="translate(0 -0.001)" fill="#1898d5"/>
            <path id="패스_20089" data-name="패스 20089" d="M27.114,11.364a5.358,5.358,0,0,1-3.867-1.548,5.224,5.224,0,0,1-1.6-3.918A5.418,5.418,0,0,1,27.114.381a5.47,5.47,0,0,1,3.944,1.573A5.262,5.262,0,0,1,32.68,5.9a5.224,5.224,0,0,1-1.622,3.867,5.41,5.41,0,0,1-3.944,1.6m4.124,66.193H22.782V24.769h8.456Z" transform="translate(34.007 0.597)" fill="#1898d5"/>
            <path id="패스_20090" data-name="패스 20090" d="M42.614,55.438H70.671v7.219H27.315L56.8,17.085H30.253V9.865H70.979Z" transform="translate(42.909 15.496)" fill="#1898d5"/>
            <path id="패스_20091" data-name="패스 20091" d="M124.588,62.7H109.332V22.22L91.307,62.7H78.684L60.371,21.883V62.7H46.457V9.823H69.074L85.692,48.729,102.545,9.823h22.043Z" transform="translate(72.981 15.43)" fill="#1898d5"/>
            <path id="패스_20092" data-name="패스 20092" d="M111.977,64.167q-14.728,0-24-7.391A23.483,23.483,0,0,1,78.7,37.506a25,25,0,0,1,9.425-20.285q9.417-7.744,24.958-7.744,14.677,0,23.74,7.412t9.06,19.547a24.636,24.636,0,0,1-9.394,20.1q-9.394,7.632-24.509,7.63m.671-44.436q-8.129,0-12.911,4.7T94.955,36.879q0,7.855,4.782,12.428t12.528,4.574q7.99,0,12.67-4.448T129.621,37.1q0-8.226-4.54-12.8t-12.433-4.574" transform="translate(123.625 14.888)" fill="#1898d5"/>
            <path id="패스_20093" data-name="패스 20093" d="M106.715,62.7V9.823h24.961q11.477,0,17.644,3.242t6.17,9.147a9.608,9.608,0,0,1-3.756,7.487,21.379,21.379,0,0,1-9.587,4.461v.149q7.319.7,11.69,4.167a10.438,10.438,0,0,1,4.376,8.445q0,7.262-6.741,11.525T133.064,62.7ZM122.161,18.6V31.136h6.787a13.7,13.7,0,0,0,7.535-1.789,5.583,5.583,0,0,0,2.748-4.921q0-5.831-11.286-5.828Zm0,21.39v13.94h8.366q5.36,0,8.394-1.92a5.907,5.907,0,0,0,3.036-5.234,5.559,5.559,0,0,0-2.993-4.977q-2.985-1.809-8.34-1.807Z" transform="translate(167.641 15.43)" fill="#1898d5"/>
            <path id="패스_20094" data-name="패스 20094" d="M137.714,10.345H133.8V21.552h-3.1V10.345h-3.895V7.828h10.908Z" transform="translate(199.201 12.296)" fill="#1898d5"/>
            <path id="패스_20095" data-name="패스 20095" d="M147.021,21.55H143.97V13.341q0-1.33.113-2.939h-.077a14.38,14.38,0,0,1-.429,1.818l-3.216,9.33h-2.525l-3.273-9.235a17.62,17.62,0,0,1-.432-1.913h-.085q.123,2.028.123,3.558V21.55h-2.784V7.829h4.527l2.8,8.132a11.567,11.567,0,0,1,.488,1.962h.057a20.023,20.023,0,0,1,.545-1.98l2.8-8.114h4.412Z" transform="translate(206.395 12.297)" fill="#1898d5"/>
          </g>
        </g>
        <path id="패스_20096" data-name="패스 20096" d="M-.248,13.436H5.4V9.141H8.11V4.252H5.4v-14.6H-.908L-11.348,4.583V9.141h11.1ZM-5.4,4.252.149-4.139V4.252Zm22.827,6.409a3.121,3.121,0,0,0-3.337-3.105,3.085,3.085,0,1,0,0,6.144A3.11,3.11,0,0,0,17.426,10.661ZM20.2,1.048c0,7.136,2.412,12.289,9.283,12.289s9.283-5.153,9.283-12.289c0-7.069-2.412-12.223-9.283-12.223S20.2-6.022,20.2,1.048Zm13.016,0c0,3.832-.4,7-3.733,7s-3.733-3.171-3.733-7c0-3.7.4-6.937,3.733-6.937S33.216-2.652,33.216,1.048Z" transform="translate(279.265 11.175)" fill="#1898d5"/>
      </g>
    </g>
  </g>
</svg>
