<svg xmlns="http://www.w3.org/2000/svg" width="775" height="327.079" viewBox="0 0 775 327.079">
    <defs>
        <clipPath id="n1m0ckyfsa">
            <path data-name="사각형 2513" style="fill:none" d="M0 0h700v327.079H0z"/>
        </clipPath>
    </defs>
    <g data-name="그룹 3518">
        <g data-name="그룹 3517">
            <g data-name="그룹 3516" style="clip-path:url(#n1m0ckyfsa)">
                <path data-name="사각형 2511" transform="rotate(-45 203.238 67.697)" style="stroke-miterlimit:10;stroke-width:4px;stroke:#2250fc;fill:none" d="M0 0h228.286v228.286H0z"/>
                <path data-name="패스 19756" d="M22.321 215.049a10.161 10.161 0 1 1-10.161-10.161 10.161 10.161 0 0 1 10.161 10.161" transform="translate(-.503 -51.509)" style="fill:#fff"/>
                <circle data-name="타원 300" cx="10.161" cy="10.161" r="10.161" transform="rotate(-79.1 103.765 85.941)" style="stroke-miterlimit:10;stroke-width:4px;stroke:#2250fc;fill:none"/>
                <path data-name="사각형 2512" transform="rotate(-45 367.734 -329.43)" style="stroke-miterlimit:10;stroke-width:4px;stroke:#2250fc;fill:none" d="M0 0h228.286v228.286H0z"/>
                <path data-name="패스 19757" d="M457.546 215.049a10.161 10.161 0 1 1-10.161-10.161 10.161 10.161 0 0 1 10.161 10.161" transform="translate(-109.919 -51.509)" style="fill:#2250fc"/>
                <path data-name="패스 19758" d="M457.546 215.049a10.161 10.161 0 1 1-10.161-10.161 10.161 10.161 0 0 1 10.161 10.161z" transform="translate(-109.919 -51.509)" style="stroke:#fff;stroke-miterlimit:10;stroke-width:4px;fill:none"/>
                <path data-name="선 88" transform="translate(443.074 71.253)" style="stroke:#c6c6c6;stroke-linecap:round;stroke-linejoin:round;stroke-width:2px;fill:none" d="M0 0v3.743"/>
                <path data-name="선 89" transform="translate(443.074 82.593)" style="stroke-dasharray:10.148 10.148;stroke:#c6c6c6;stroke-linecap:round;stroke-linejoin:round;stroke-width:2px;fill:none" d="M0 0v163.333"/>
                <path data-name="선 90" transform="translate(443.074 249.725)" style="stroke:#c6c6c6;stroke-linecap:round;stroke-linejoin:round;stroke-width:2px;fill:none" d="M0 0v3.743"/>
                <path data-name="선 91" transform="translate(173.08 12.313)" style="stroke:#c6c6c6;stroke-linecap:round;stroke-linejoin:round;stroke-width:2px;fill:none" d="M0 0v3.743"/>
                <path data-name="선 92" transform="translate(173.08 23.645)" style="stroke-dasharray:10.137 10.137;stroke:#c6c6c6;stroke-linecap:round;stroke-linejoin:round;stroke-width:2px;fill:none" d="M0 0v284.563"/>
                <path data-name="선 93" transform="translate(173.08 312.002)" style="stroke:#c6c6c6;stroke-linecap:round;stroke-linejoin:round;stroke-width:2px;fill:none" d="M0 0v3.743"/>
                <path data-name="선 94" transform="translate(561.068 71.253)" style="stroke:#c6c6c6;stroke-linecap:round;stroke-linejoin:round;stroke-width:2px;fill:none" d="M0 0v3.743"/>
                <path data-name="선 95" transform="translate(561.068 82.593)" style="stroke-dasharray:10.148 10.148;stroke:#c6c6c6;stroke-linecap:round;stroke-linejoin:round;stroke-width:2px;fill:none" d="M0 0v163.333"/>
                <path data-name="선 96" transform="translate(561.068 249.725)" style="stroke:#c6c6c6;stroke-linecap:round;stroke-linejoin:round;stroke-width:2px;fill:none" d="M0 0v3.743"/>
                <path data-name="선 97" transform="translate(679.173 163.54)" style="stroke-miterlimit:10;stroke-width:4px;stroke:#2250fc;fill:none" d="M15.14 0H0"/>
                <path data-name="패스 19759" d="M893.312 214.923a10.535 10.535 0 1 1-10.535-10.535 10.535 10.535 0 0 1 10.535 10.535" transform="translate(-219.283 -51.383)" style="fill:#fff"/>
                <path data-name="패스 19760" d="M893.312 214.923a10.535 10.535 0 1 1-10.535-10.535 10.535 10.535 0 0 1 10.535 10.535z" transform="translate(-219.283 -51.383)" style="stroke-miterlimit:10;stroke-width:4px;stroke:#2250fc;fill:none"/>
                <path data-name="패스 19761" d="M889.764 216.717a5.193 5.193 0 1 1-5.193-5.192 5.193 5.193 0 0 1 5.193 5.192" transform="translate(-221.077 -53.178)" style="fill:#2250fc"/>
                <path data-name="패스 19762" d="m923.575 211.817 8.613 4.974-8.613 4.973z" transform="translate(-232.188 -53.251)" style="fill:#2250fc"/>
                <path data-name="선 98" transform="translate(337.466 104.5)" style="stroke:#5e5e5e;stroke-miterlimit:10;stroke-width:4px;fill:none" d="M0 37.503V0"/>
                <path data-name="패스 19763" d="m456.4 185.781-6.122 10.6-6.12-10.6z" transform="translate(-112.809 -50.7)" style="fill:#5e5e5e"/>
            </g>
        </g>
        <text transform="translate(101 171)" style="font-size:20px;font-family:Poppins-Medium,Poppins;font-weight:500;fill:#1f1f1f"><tspan x="-47.11" y="0">Research</tspan></text>
        <text transform="translate(399 171)" style="font-size:20px;font-family:Poppins-Medium,Poppins;font-weight:500;fill:#1f1f1f"><tspan x="-32.26" y="0">Ideate</tspan></text>
        <text transform="translate(503 171)" style="font-size:20px;font-family:Poppins-Medium,Poppins;font-weight:500;fill:#1f1f1f"><tspan x="-48.76" y="0">Prototype</tspan></text>
        <text transform="translate(607 171)" style="font-size:20px;font-family:Poppins-Medium,Poppins;font-weight:500;fill:#1f1f1f"><tspan x="-20.87" y="0">Test</tspan></text>
        <text transform="translate(740 171)" style="font-size:20px;font-family:Poppins-Medium,Poppins;font-weight:500;fill:#2250fc"><tspan x="-34.31" y="0">Deliver</tspan></text>
        <text transform="translate(242 171)" style="font-size:20px;font-family:Poppins-Medium,Poppins;font-weight:500;fill:#1f1f1f"><tspan x="-39.58" y="0">Analyze</tspan></text>
        <text data-name="UX디자인 개선 목표 도출" transform="translate(337 74)" style="fill:#4c5667;font-size:18px;font-family:SpoqaHanSans-Bold,SpoqaHanSans;font-weight:700"><tspan x="-37.215" y="0">UX디자인</tspan><tspan x="-53.766" y="22">개선 목표 도출</tspan></text>
    </g>
</svg>
