<svg xmlns="http://www.w3.org/2000/svg" xmlns:xlink="http://www.w3.org/1999/xlink" width="1108" height="852.5" viewBox="0 0 1108 852.5">
  <defs>
    <clipPath id="clip-path">
      <rect id="사각형_2519" data-name="사각형 2519" width="7.627" height="11.866" transform="translate(0 0)" fill="none" stroke="#fff" stroke-width="1"/>
    </clipPath>
  </defs>
  <g id="그룹_4018" data-name="그룹 4018" transform="translate(-406 -2078)">
    <rect id="사각형_2514" data-name="사각형 2514" width="1108" height="150" rx="20" transform="translate(406 2078)" fill="#4d9dfa"/>
    <rect id="사각형_2709" data-name="사각형 2709" width="1108" height="225" rx="20" transform="translate(406 2504)" fill="#7260fa"/>
    <rect id="사각형_2719" data-name="사각형 2719" width="1108" height="150" rx="20" transform="translate(406 2780.5)" fill="#8546ea"/>
    <rect id="사각형_2708" data-name="사각형 2708" width="1108" height="172" rx="20" transform="translate(406 2280)" fill="#4d7cfa"/>
    <path id="패스_20160" data-name="패스 20160" d="M-18.3-11.25q0-5.16,1.995-8.13t6.435-2.97q4.44,0,6.435,2.97t1.995,8.13q0,5.22-1.995,8.19T-9.87-.09q-4.44,0-6.435-2.97T-18.3-11.25Zm11.82,0a12.94,12.94,0,0,0-.66-4.665A2.64,2.64,0,0,0-9.87-17.55a2.64,2.64,0,0,0-2.73,1.635,12.94,12.94,0,0,0-.66,4.665,19.613,19.613,0,0,0,.24,3.375,4.319,4.319,0,0,0,.975,2.16A2.762,2.762,0,0,0-9.87-4.89a2.762,2.762,0,0,0,2.175-.825,4.319,4.319,0,0,0,.975-2.16A19.613,19.613,0,0,0-6.48-11.25Zm7.2-5.88V-21.9H9.03V0H3.69V-17.13ZM15.45.24a3.109,3.109,0,0,1-2.2-.8A2.576,2.576,0,0,1,12.39-2.52a2.657,2.657,0,0,1,.855-2.01,3.076,3.076,0,0,1,2.2-.81,3.035,3.035,0,0,1,2.175.81,2.657,2.657,0,0,1,.855,2.01,2.576,2.576,0,0,1-.855,1.965A3.068,3.068,0,0,1,15.45.24Z" transform="translate(449 2130.35)" fill="#fff"/>
    <text id="제안_및_분석" data-name="제안 및 분석" transform="translate(540 2128)" fill="#fff" font-size="24" font-family="SpoqaHanSans-Bold, SpoqaHanSans" font-weight="700"><tspan x="-60.648" y="0">제안 및 분석</tspan></text>
    <text id="클라이언트_서버_개발" data-name="클라이언트 &amp; 서버 개발" transform="translate(479 2554)" fill="#fff" font-size="24" font-family="SpoqaHanSans-Bold, SpoqaHanSans" font-weight="700"><tspan x="0" y="0">클라이언트 &amp; 서버 개발</tspan></text>
    <text id="테스트_및_안정화" data-name="테스트 및 안정화" transform="translate(479 2830.5)" fill="#fff" font-size="24" font-family="SpoqaHanSans-Bold, SpoqaHanSans" font-weight="700"><tspan x="0" y="0">테스트 및 안정화</tspan></text>
    <text id="UX_UI_디자인" data-name="UX/UI 디자인" transform="translate(479 2330)" fill="#fff" font-size="24" font-family="SpoqaHanSans-Bold, SpoqaHanSans" font-weight="700"><tspan x="0" y="0">UX/UI 디자인</tspan></text>
    <path id="패스_20163" data-name="패스 20163" d="M-22.815-11.25q0-5.16,1.995-8.13t6.435-2.97q4.44,0,6.435,2.97t1.995,8.13q0,5.22-1.995,8.19T-14.385-.09q-4.44,0-6.435-2.97T-22.815-11.25Zm11.82,0a12.94,12.94,0,0,0-.66-4.665,2.64,2.64,0,0,0-2.73-1.635,2.64,2.64,0,0,0-2.73,1.635,12.94,12.94,0,0,0-.66,4.665,19.613,19.613,0,0,0,.24,3.375,4.319,4.319,0,0,0,.975,2.16,2.762,2.762,0,0,0,2.175.825,2.762,2.762,0,0,0,2.175-.825,4.319,4.319,0,0,0,.975-2.16A19.613,19.613,0,0,0-10.995-11.25Zm7.86,7.35V-8.04L6.345-21.6h5.73V-8.34h2.46V-3.9h-2.46V0H6.945V-3.9ZM7.305-15.96,2.265-8.34h5.04ZM19.965.24a3.109,3.109,0,0,1-2.2-.8,2.576,2.576,0,0,1-.855-1.965,2.657,2.657,0,0,1,.855-2.01,3.076,3.076,0,0,1,2.2-.81,3.035,3.035,0,0,1,2.175.81,2.657,2.657,0,0,1,.855,2.01A2.576,2.576,0,0,1,22.14-.555,3.068,3.068,0,0,1,19.965.24Z" transform="translate(444.814 2833.35)" fill="#fff"/>
    <path id="패스_20177" data-name="패스 20177" d="M-21.225-11.25q0-5.16,1.995-8.13t6.435-2.97q4.44,0,6.435,2.97t1.995,8.13q0,5.22-1.995,8.19T-12.795-.09q-4.44,0-6.435-2.97T-21.225-11.25Zm11.82,0a12.94,12.94,0,0,0-.66-4.665,2.64,2.64,0,0,0-2.73-1.635,2.64,2.64,0,0,0-2.73,1.635,12.94,12.94,0,0,0-.66,4.665,19.613,19.613,0,0,0,.24,3.375,4.319,4.319,0,0,0,.975,2.16,2.762,2.762,0,0,0,2.175.825,2.762,2.762,0,0,0,2.175-.825,4.319,4.319,0,0,0,.975-2.16A19.613,19.613,0,0,0-9.4-11.25Zm7.56,7.14q1.02-.81.93-.75Q2.025-7.29,3.72-8.85a19.189,19.189,0,0,0,2.865-3.27,5.909,5.909,0,0,0,1.17-3.33,2.931,2.931,0,0,0-.57-1.92,2.09,2.09,0,0,0-1.71-.69A2.111,2.111,0,0,0,3.69-17.2a3.942,3.942,0,0,0-.645,2.415H-1.9A8.5,8.5,0,0,1-.81-19.05a6.36,6.36,0,0,1,2.73-2.52,8.62,8.62,0,0,1,3.765-.81,7.27,7.27,0,0,1,5.385,1.83,6.481,6.481,0,0,1,1.815,4.77A9.355,9.355,0,0,1,10.7-9.825,32.253,32.253,0,0,1,5.115-4.47h8.1V-.3H-1.845ZM18.375.24a3.109,3.109,0,0,1-2.2-.8,2.576,2.576,0,0,1-.855-1.965,2.657,2.657,0,0,1,.855-2.01,3.076,3.076,0,0,1,2.2-.81,3.035,3.035,0,0,1,2.175.81A2.657,2.657,0,0,1,21.4-2.52,2.576,2.576,0,0,1,20.55-.555,3.068,3.068,0,0,1,18.375.24Z" transform="translate(452.225 2332.38)" fill="#fff"/>
    <path id="패스_20162" data-name="패스 20162" d="M-21.735-11.25q0-5.16,1.995-8.13t6.435-2.97q4.44,0,6.435,2.97t1.995,8.13q0,5.22-1.995,8.19T-13.3-.09q-4.44,0-6.435-2.97T-21.735-11.25Zm11.82,0a12.94,12.94,0,0,0-.66-4.665A2.64,2.64,0,0,0-13.3-17.55a2.64,2.64,0,0,0-2.73,1.635,12.94,12.94,0,0,0-.66,4.665,19.612,19.612,0,0,0,.24,3.375,4.319,4.319,0,0,0,.975,2.16A2.762,2.762,0,0,0-13.3-4.89a2.762,2.762,0,0,0,2.175-.825,4.319,4.319,0,0,0,.975-2.16A19.613,19.613,0,0,0-9.915-11.25Zm7.92-4.47a6.589,6.589,0,0,1,2.1-4.95,7.849,7.849,0,0,1,5.37-1.74,8.748,8.748,0,0,1,3.855.78,5.65,5.65,0,0,1,2.43,2.13,5.7,5.7,0,0,1,.825,3.03,5.025,5.025,0,0,1-.99,3.225,5.007,5.007,0,0,1-2.31,1.7v.12a5.412,5.412,0,0,1,2.7,1.89,5.5,5.5,0,0,1,.99,3.39,6.26,6.26,0,0,1-.855,3.285A5.838,5.838,0,0,1,9.63-.63,8.663,8.663,0,0,1,5.745.18,8.746,8.746,0,0,1,0-1.59,6.841,6.841,0,0,1-2.265-6.93h4.98a3.026,3.026,0,0,0,.75,2.085,2.746,2.746,0,0,0,2.1.765A2.391,2.391,0,0,0,7.38-4.755,2.476,2.476,0,0,0,8.025-6.54,2.372,2.372,0,0,0,7.11-8.625,5.17,5.17,0,0,0,4.185-9.27h-.96v-4.17h.96a5.079,5.079,0,0,0,2.475-.525,1.957,1.957,0,0,0,.945-1.875,2.271,2.271,0,0,0-.6-1.68,2.23,2.23,0,0,0-1.65-.6,2.045,2.045,0,0,0-1.7.69,3.092,3.092,0,0,0-.645,1.71ZM18.885.24a3.109,3.109,0,0,1-2.2-.8,2.576,2.576,0,0,1-.855-1.965,2.657,2.657,0,0,1,.855-2.01,3.076,3.076,0,0,1,2.2-.81,3.035,3.035,0,0,1,2.175.81,2.657,2.657,0,0,1,.855,2.01A2.576,2.576,0,0,1,21.06-.555,3.068,3.068,0,0,1,18.885.24Z" transform="translate(445.735 2556.41)" fill="#fff"/>
    <g id="그룹_3948" data-name="그룹 3948" transform="translate(704 2173)">
      <g id="그룹_3519" data-name="그룹 3519" clip-path="url(#clip-path)">
        <path id="패스_19764" data-name="패스 19764" d="M1,10.866,6.24,6.828a1.23,1.23,0,0,0,0-1.791L1,1" fill="none" stroke="#fff" stroke-linecap="round" stroke-linejoin="round" stroke-width="2"/>
      </g>
    </g>
    <g id="그룹_4008" data-name="그룹 4008" transform="translate(704 2599)">
      <g id="그룹_3519-2" data-name="그룹 3519" clip-path="url(#clip-path)">
        <path id="패스_19764-2" data-name="패스 19764" d="M1,10.866,6.24,6.828a1.23,1.23,0,0,0,0-1.791L1,1" fill="none" stroke="#fff" stroke-linecap="round" stroke-linejoin="round" stroke-width="2"/>
      </g>
    </g>
    <g id="그룹_3919" data-name="그룹 3919" transform="translate(632 2386)">
      <g id="그룹_3519-3" data-name="그룹 3519" clip-path="url(#clip-path)">
        <path id="패스_19764-3" data-name="패스 19764" d="M1,10.866,6.24,6.828a1.23,1.23,0,0,0,0-1.791L1,1" fill="none" stroke="#fff" stroke-linecap="round" stroke-linejoin="round" stroke-width="2"/>
      </g>
    </g>
    <g id="그룹_3926" data-name="그룹 3926" transform="translate(814.373 2386)">
      <g id="그룹_3519-4" data-name="그룹 3519" clip-path="url(#clip-path)">
        <path id="패스_19764-4" data-name="패스 19764" d="M1,10.866,6.24,6.828a1.23,1.23,0,0,0,0-1.791L1,1" fill="none" stroke="#fff" stroke-linecap="round" stroke-linejoin="round" stroke-width="2"/>
      </g>
    </g>
    <g id="그룹_3927" data-name="그룹 3927" transform="translate(959.187 2386)">
      <g id="그룹_3519-5" data-name="그룹 3519" clip-path="url(#clip-path)">
        <path id="패스_19764-5" data-name="패스 19764" d="M1,10.866,6.24,6.828a1.23,1.23,0,0,0,0-1.791L1,1" fill="none" stroke="#fff" stroke-linecap="round" stroke-linejoin="round" stroke-width="2"/>
      </g>
    </g>
    <g id="그룹_3928" data-name="그룹 3928" transform="translate(1126 2386)">
      <g id="그룹_3519-6" data-name="그룹 3519" clip-path="url(#clip-path)">
        <path id="패스_19764-6" data-name="패스 19764" d="M1,10.866,6.24,6.828a1.23,1.23,0,0,0,0-1.791L1,1" fill="none" stroke="#fff" stroke-linecap="round" stroke-linejoin="round" stroke-width="2"/>
      </g>
    </g>
    <g id="그룹_3929" data-name="그룹 3929" transform="translate(1295 2386)">
      <g id="그룹_3519-7" data-name="그룹 3519" clip-path="url(#clip-path)">
        <path id="패스_19764-7" data-name="패스 19764" d="M1,10.866,6.24,6.828a1.23,1.23,0,0,0,0-1.791L1,1" fill="none" stroke="#fff" stroke-linecap="round" stroke-linejoin="round" stroke-width="2"/>
      </g>
    </g>
    <g id="그룹_3945" data-name="그룹 3945" transform="translate(957 2173)">
      <g id="그룹_3519-8" data-name="그룹 3519" clip-path="url(#clip-path)">
        <path id="패스_19764-8" data-name="패스 19764" d="M1,10.866,6.24,6.828a1.23,1.23,0,0,0,0-1.791L1,1" fill="none" stroke="#fff" stroke-linecap="round" stroke-linejoin="round" stroke-width="2"/>
      </g>
    </g>
    <g id="그룹_4009" data-name="그룹 4009" transform="translate(957 2599)">
      <g id="그룹_3519-9" data-name="그룹 3519" clip-path="url(#clip-path)">
        <path id="패스_19764-9" data-name="패스 19764" d="M1,10.866,6.24,6.828a1.23,1.23,0,0,0,0-1.791L1,1" fill="none" stroke="#fff" stroke-linecap="round" stroke-linejoin="round" stroke-width="2"/>
      </g>
    </g>
    <g id="그룹_3924" data-name="그룹 3924" transform="translate(970.625 2248.426) rotate(90)">
      <g id="그룹_3925" data-name="그룹 3925" transform="translate(2.39 2.389)">
        <path id="패스_19764-10" data-name="패스 19764" d="M1,17.9l8.974-6.916a2.106,2.106,0,0,0,0-3.067L1,1" transform="translate(-1 -1)" fill="none" stroke="#33acf3" stroke-linecap="round" stroke-linejoin="round" stroke-width="3"/>
      </g>
    </g>
    <g id="그룹_3933" data-name="그룹 3933" transform="translate(970.625 2472.426) rotate(90)">
      <g id="그룹_3925-2" data-name="그룹 3925" transform="translate(2.39 2.389)">
        <path id="패스_19764-11" data-name="패스 19764" d="M1,17.9l8.974-6.916a2.106,2.106,0,0,0,0-3.067L1,1" transform="translate(-1 -1)" fill="none" stroke="#4d7cfa" stroke-linecap="round" stroke-linejoin="round" stroke-width="3"/>
      </g>
    </g>
    <g id="그룹_3943" data-name="그룹 3943" transform="translate(970.625 2748.926) rotate(90)">
      <g id="그룹_3925-3" data-name="그룹 3925" transform="translate(2.39 2.389)">
        <path id="패스_19764-12" data-name="패스 19764" d="M1,17.9l8.974-6.916a2.106,2.106,0,0,0,0-3.067L1,1" transform="translate(-1 -1)" fill="none" stroke="#7260fa" stroke-linecap="round" stroke-linejoin="round" stroke-width="3"/>
      </g>
    </g>
    <g id="그룹_3946" data-name="그룹 3946" transform="translate(1209.813 2173)">
      <g id="그룹_3519-10" data-name="그룹 3519" clip-path="url(#clip-path)">
        <path id="패스_19764-13" data-name="패스 19764" d="M1,10.866,6.24,6.828a1.23,1.23,0,0,0,0-1.791L1,1" fill="none" stroke="#fff" stroke-linecap="round" stroke-linejoin="round" stroke-width="2"/>
      </g>
    </g>
    <g id="그룹_4010" data-name="그룹 4010" transform="translate(1209.813 2599)">
      <g id="그룹_3519-11" data-name="그룹 3519" clip-path="url(#clip-path)">
        <path id="패스_19764-14" data-name="패스 19764" d="M1,10.866,6.24,6.828a1.23,1.23,0,0,0,0-1.791L1,1" fill="none" stroke="#fff" stroke-linecap="round" stroke-linejoin="round" stroke-width="2"/>
      </g>
    </g>
    <g id="그룹_4014" data-name="그룹 4014" transform="translate(0 2008)">
      <g id="그룹_4011" data-name="그룹 4011" transform="translate(704 665.567)">
        <g id="그룹_3519-12" data-name="그룹 3519" clip-path="url(#clip-path)">
          <path id="패스_19764-15" data-name="패스 19764" d="M1,10.866,6.24,6.828a1.23,1.23,0,0,0,0-1.791L1,1" fill="none" stroke="#fff" stroke-linecap="round" stroke-linejoin="round" stroke-width="2"/>
        </g>
      </g>
      <g id="그룹_4012" data-name="그룹 4012" transform="translate(957 665.567)">
        <g id="그룹_3519-13" data-name="그룹 3519" clip-path="url(#clip-path)">
          <path id="패스_19764-16" data-name="패스 19764" d="M1,10.866,6.24,6.828a1.23,1.23,0,0,0,0-1.791L1,1" fill="none" stroke="#fff" stroke-linecap="round" stroke-linejoin="round" stroke-width="2"/>
        </g>
      </g>
      <g id="그룹_4013" data-name="그룹 4013" transform="translate(1209.813 665.567)">
        <g id="그룹_3519-14" data-name="그룹 3519" clip-path="url(#clip-path)">
          <path id="패스_19764-17" data-name="패스 19764" d="M1,10.866,6.24,6.828a1.23,1.23,0,0,0,0-1.791L1,1" fill="none" stroke="#fff" stroke-linecap="round" stroke-linejoin="round" stroke-width="2"/>
        </g>
      </g>
    </g>
    <g id="그룹_3940" data-name="그룹 3940" transform="translate(657 2875.567)">
      <g id="그룹_3519-15" data-name="그룹 3519" clip-path="url(#clip-path)">
        <path id="패스_19764-18" data-name="패스 19764" d="M1,10.866,6.24,6.828a1.23,1.23,0,0,0,0-1.791L1,1" fill="none" stroke="#fff" stroke-linecap="round" stroke-linejoin="round" stroke-width="2"/>
      </g>
    </g>
    <g id="그룹_3941" data-name="그룹 3941" transform="translate(858 2875.567)">
      <g id="그룹_3519-16" data-name="그룹 3519" clip-path="url(#clip-path)">
        <path id="패스_19764-19" data-name="패스 19764" d="M1,10.866,6.24,6.828a1.23,1.23,0,0,0,0-1.791L1,1" fill="none" stroke="#fff" stroke-linecap="round" stroke-linejoin="round" stroke-width="2"/>
      </g>
    </g>
    <g id="그룹_3942" data-name="그룹 3942" transform="translate(1057.44 2875.567)">
      <g id="그룹_3519-17" data-name="그룹 3519" clip-path="url(#clip-path)">
        <path id="패스_19764-20" data-name="패스 19764" d="M1,10.866,6.24,6.828a1.23,1.23,0,0,0,0-1.791L1,1" fill="none" stroke="#fff" stroke-linecap="round" stroke-linejoin="round" stroke-width="2"/>
      </g>
    </g>
    <g id="그룹_3944" data-name="그룹 3944" transform="translate(1257.627 2875.567)">
      <g id="그룹_3519-18" data-name="그룹 3519" clip-path="url(#clip-path)">
        <path id="패스_19764-21" data-name="패스 19764" d="M1,10.866,6.24,6.828a1.23,1.23,0,0,0,0-1.791L1,1" fill="none" stroke="#fff" stroke-linecap="round" stroke-linejoin="round" stroke-width="2"/>
      </g>
    </g>
    <rect id="사각형_2713" data-name="사각형 2713" width="205" height="46" rx="23" transform="translate(479 2582)" fill="#fff" opacity="0.15"/>
    <rect id="사각형_2724" data-name="사각형 2724" width="162.295" height="46" rx="23" transform="translate(479 2858.5)" fill="#fff" opacity="0.15"/>
    <rect id="사각형_2718" data-name="사각형 2718" width="205" height="46" rx="23" transform="translate(479 2656.5)" fill="#fff" opacity="0.15"/>
    <rect id="사각형_2702" data-name="사각형 2702" width="140" height="68" rx="34" transform="translate(479 2358)" fill="#fff" opacity="0.15"/>
    <rect id="사각형_2703" data-name="사각형 2703" width="149" height="68" rx="34" transform="translate(653 2358)" fill="#fff" opacity="0.15"/>
    <rect id="사각형_2705" data-name="사각형 2705" width="133" height="67.86" rx="33.93" transform="translate(979.813 2358)" fill="#fff" opacity="0.15"/>
    <rect id="사각형_2706" data-name="사각형 2706" width="136.187" height="67.86" rx="33.93" transform="translate(1146.627 2358)" fill="#fff" opacity="0.15"/>
    <rect id="사각형_2704" data-name="사각형 2704" width="115" height="68" rx="34" transform="translate(834 2358)" fill="#fff" opacity="0.15"/>
    <rect id="사각형_2707" data-name="사각형 2707" width="128" height="67.86" rx="33.93" transform="translate(1314.627 2358)" fill="#fff" opacity="0.15"/>
    <rect id="사각형_2711" data-name="사각형 2711" width="205" height="46" rx="23" transform="translate(732 2582)" fill="#fff" opacity="0.15"/>
    <rect id="사각형_2725" data-name="사각형 2725" width="162.295" height="46" rx="23" transform="translate(679 2858.5)" fill="#fff" opacity="0.15"/>
    <rect id="사각형_2717" data-name="사각형 2717" width="205" height="46" rx="23" transform="translate(732 2656.5)" fill="#fff" opacity="0.15"/>
    <rect id="사각형_2726" data-name="사각형 2726" width="162.295" height="46" rx="23" transform="translate(879 2858.5)" fill="#fff" opacity="0.15"/>
    <rect id="사각형_2715" data-name="사각형 2715" width="205" height="46" rx="23" transform="translate(984 2656.5)" fill="#fff" opacity="0.15"/>
    <rect id="사각형_2727" data-name="사각형 2727" width="162.295" height="46" rx="23" transform="translate(1080 2858.5)" fill="#fff" opacity="0.15"/>
    <rect id="사각형_2728" data-name="사각형 2728" width="162.295" height="46" rx="23" transform="translate(1280 2858.5)" fill="#fff" opacity="0.15"/>
    <rect id="사각형_2716" data-name="사각형 2716" width="205" height="46" rx="23" transform="translate(1238 2656.5)" fill="#fff" opacity="0.15"/>
    <text id="HTML5_표준_퍼블리싱" data-name="HTML5 표준 퍼블리싱" transform="translate(582 2611)" fill="#fff" font-size="16" font-family="SpoqaHanSans-Regular, SpoqaHanSans"><tspan x="-75.248" y="0">HTML5 표준 퍼블리싱</tspan></text>
    <text id="단위_테스트" data-name="단위 테스트" transform="translate(560 2887.5)" fill="#fff" font-size="16" font-family="SpoqaHanSans-Regular, SpoqaHanSans"><tspan x="-38.592" y="0">단위 테스트</tspan></text>
    <text id="레거시_서버_연동" data-name="레거시 서버 연동" transform="translate(582 2685.5)" fill="#fff" font-size="16" font-family="SpoqaHanSans-Regular, SpoqaHanSans"><tspan x="-55.104" y="0">레거시 서버 연동</tspan></text>
    <text id="사용자_요구사항_분석" data-name="사용자 요구사항
분석" transform="translate(549 2389)" fill="#fff" font-size="16" font-family="SpoqaHanSans-Regular, SpoqaHanSans"><tspan x="-53.312" y="0">사용자 요구사항</tspan><tspan x="-14.72" y="19">분석</tspan></text>
    <text id="시장_경쟁_트랜드_분석" data-name="시장/경쟁/트랜드
분석" transform="translate(726 2389)" fill="#fff" font-size="16" font-family="SpoqaHanSans-Regular, SpoqaHanSans"><tspan x="-57.92" y="0">시장/경쟁/트랜드</tspan><tspan x="-14.72" y="19">분석</tspan></text>
    <text id="UX_컨설팅_전략수립_" data-name="UX 컨설팅
(전략수립)" transform="translate(1045.813 2390)" fill="#fff" font-size="16" font-family="SpoqaHanSans-Regular, SpoqaHanSans"><tspan x="-34.872" y="0">UX 컨설팅</tspan><tspan font-size="14"><tspan x="-30.492" y="17">(전략수립)</tspan></tspan></text>
    <text id="정보구조_화면설계_UI_" data-name="정보구조
화면설계(UI)" transform="translate(1214.627 2388)" fill="#fff" font-size="16" font-family="SpoqaHanSans-Regular, SpoqaHanSans"><tspan x="-29.44" y="0">정보구조</tspan><tspan x="-43.552" y="19">화면설계(UI)</tspan></text>
    <text id="사용자_리서치" data-name="사용자
리서치" transform="translate(892 2389)" fill="#fff" font-size="16" font-family="SpoqaHanSans-Regular, SpoqaHanSans"><tspan x="-22.08" y="0">사용자</tspan><tspan x="-22.08" y="19">리서치</tspan></text>
    <text id="GUI디자인" transform="translate(1378.627 2398)" fill="#fff" font-size="16" font-family="SpoqaHanSans-Regular, SpoqaHanSans"><tspan x="-36.624" y="0">GUI디자인</tspan></text>
    <text id="UI_인터랙션_개발" data-name="UI 인터랙션 개발" transform="translate(835 2611)" fill="#fff" font-size="16" font-family="SpoqaHanSans-Regular, SpoqaHanSans"><tspan x="-56.448" y="0">UI 인터랙션 개발</tspan></text>
    <text id="통합_테스트" data-name="통합 테스트" transform="translate(760 2887.5)" fill="#fff" font-size="16" font-family="SpoqaHanSans-Regular, SpoqaHanSans"><tspan x="-38.592" y="0">통합 테스트</tspan></text>
    <text id="데이터베이스_설계" data-name="데이터베이스 설계" transform="translate(835 2685.5)" fill="#fff" font-size="16" font-family="SpoqaHanSans-Regular, SpoqaHanSans"><tspan x="-60.672" y="0">데이터베이스 설계</tspan></text>
    <rect id="사각형_2714" data-name="사각형 2714" width="205" height="46" rx="23" transform="translate(984 2582)" fill="#fff" opacity="0.15"/>
    <text id="클라이언트_화면개발" data-name="클라이언트 화면개발" transform="translate(1087 2611)" fill="#fff" font-size="16" font-family="SpoqaHanSans-Regular, SpoqaHanSans"><tspan x="-68.032" y="0">클라이언트 화면개발</tspan></text>
    <text id="앱_스토어_등록" data-name="앱 스토어 등록" transform="translate(960 2887.5)" fill="#fff" font-size="16" font-family="SpoqaHanSans-Regular, SpoqaHanSans"><tspan x="-47.744" y="0">앱 스토어 등록</tspan></text>
    <text id="쿼리_설계_및_최적화" data-name="쿼리 설계 및 최적화" transform="translate(1087 2685.5)" fill="#fff" font-size="16" font-family="SpoqaHanSans-Regular, SpoqaHanSans"><tspan x="-64.256" y="0">쿼리 설계 및 최적화</tspan></text>
    <rect id="사각형_2710" data-name="사각형 2710" width="205" height="46" rx="23" transform="translate(1238 2582)" fill="#fff" opacity="0.15"/>
    <text id="Native_요소_개발" data-name="Native 요소 개발" transform="translate(1341 2611)" fill="#fff" font-size="16" font-family="SpoqaHanSans-Regular, SpoqaHanSans"><tspan x="-57.432" y="0">Native 요소 개발</tspan></text>
    <text id="App_런칭" data-name="App 런칭" transform="translate(1161 2887.5)" fill="#fff" font-size="16" font-family="SpoqaHanSans-Regular, SpoqaHanSans"><tspan x="-31.928" y="0">App 런칭</tspan></text>
    <rect id="사각형_2733" data-name="사각형 2733" width="205" height="46" rx="23" transform="translate(479 2156)" fill="#fff" opacity="0.15"/>
    <rect id="사각형_2732" data-name="사각형 2732" width="205" height="46" rx="23" transform="translate(732 2156)" fill="#fff" opacity="0.15"/>
    <rect id="사각형_2731" data-name="사각형 2731" width="205" height="46" rx="23" transform="translate(984 2156)" fill="#fff" opacity="0.15"/>
    <rect id="사각형_2729" data-name="사각형 2729" width="204.899" height="46" rx="23" transform="translate(1238 2156)" fill="#fff" opacity="0.15"/>
    <text id="RFP_분석" data-name="RFP 분석" transform="translate(582 2185)" fill="#fff" font-size="16" font-family="SpoqaHanSans-Regular, SpoqaHanSans"><tspan x="-32.04" y="0">RFP 분석</tspan></text>
    <text id="구축제안" transform="translate(835 2185)" fill="#fff" font-size="16" font-family="SpoqaHanSans-Regular, SpoqaHanSans"><tspan x="-29.44" y="0">구축제안</tspan></text>
    <text id="요구사항_상세분석" data-name="요구사항 상세분석" transform="translate(1087 2185)" fill="#fff" font-size="16" font-family="SpoqaHanSans-Regular, SpoqaHanSans"><tspan x="-60.672" y="0">요구사항 상세분석</tspan></text>
    <text id="프로젝트_계획수립" data-name="프로젝트 계획수립" transform="translate(1340 2185)" fill="#fff" font-size="16" font-family="SpoqaHanSans-Regular, SpoqaHanSans"><tspan x="-60.672" y="0">프로젝트 계획수립</tspan></text>
    <text id="안정화" transform="translate(1361 2887.5)" fill="#fff" font-size="16" font-family="SpoqaHanSans-Regular, SpoqaHanSans"><tspan x="-22.08" y="0">안정화</tspan></text>
    <text id="API_개발_및_연동" data-name="API 개발 및 연동" transform="translate(1341 2685.5)" fill="#fff" font-size="16" font-family="SpoqaHanSans-Regular, SpoqaHanSans"><tspan x="-55.656" y="0">API 개발 및 연동</tspan></text>
  </g>
</svg>
