<svg xmlns="http://www.w3.org/2000/svg" width="34.36" height="35.048" viewBox="0 0 34.36 35.048">
    <defs>
        <clipPath id="apgch6ge0a">
            <path data-name="사각형 2445" style="fill:none" d="M0 0h34.36v35.048H0z"/>
        </clipPath>
    </defs>
    <g data-name="그룹 3396">
        <g data-name="그룹 3395" style="clip-path:url(#apgch6ge0a)">
            <path data-name="패스 11009" d="M47.126 32.331a4.734 4.734 0 0 0-2.87-.8c-2.363 0-4.665 1.5-4.665 4.985a4.512 4.512 0 0 0 4.574 4.893 3.553 3.553 0 0 0 3.895-3.64c0-1.366-.852-2.314-2.566-2.314H45c-.893 0-1.582.418-1.582 1.335a1.27 1.27 0 0 0 1.308 1.234c.477 0 .669.081.669.3 0 .265-.254.438-.872.438-1.147 0-1.927-.785-1.927-2.242a1.957 1.957 0 0 1 1.886-2.212c1 0 1.167.509 1.866.509a1.349 1.349 0 0 0 1.352-1.334 1.389 1.389 0 0 0-.578-1.152" transform="translate(-16.464 -13.115)" style="fill:#d72300"/>
            <path data-name="패스 11010" d="M32.249 33.259v6.351a1.644 1.644 0 0 1-1.649 1.814c-.619 0-1.2-.245-1.735-1.294l-1.41-2.742c-.1-.193-.172-.245-.274-.245-.142 0-.213.1-.213.336l.01 2.223a1.574 1.574 0 1 1-3.134 0V33.35a1.644 1.644 0 0 1 1.654-1.814c.639 0 1.2.244 1.734 1.294l1.41 2.742c.1.193.172.244.273.244.143 0 .213-.1.213-.336l-.01-2.223a1.574 1.574 0 1 1 3.134 0" transform="translate(-9.914 -13.115)" style="fill:#d72300"/>
            <path data-name="패스 11011" d="M3.342 39.62V38c0-.143.061-.245.2-.245.183 0 .234.194.284.286A12.371 12.371 0 0 0 5.3 40.66a2.086 2.086 0 0 0 1.511.765 1.773 1.773 0 0 0 1.734-1.713 2.056 2.056 0 0 0-.679-1.447 18.674 18.674 0 0 1-1.481-1.815.522.522 0 0 1-.1-.275c0-.112.061-.193.183-.306a9.345 9.345 0 0 0 1.369-1.529 2.31 2.31 0 0 0 .416-1.223 1.653 1.653 0 0 0-1.674-1.58 1.707 1.707 0 0 0-1.44.9A18.044 18.044 0 0 1 3.77 34.71c-.1.1-.152.123-.233.123-.132 0-.193-.092-.193-.235V33.34a1.641 1.641 0 0 0-1.653-1.8 1.635 1.635 0 0 0-1.654 1.8v6.28a1.636 1.636 0 0 0 1.654 1.8 1.641 1.641 0 0 0 1.653-1.8" transform="translate(-.015 -13.115)" style="fill:#d72300"/>
            <path data-name="패스 11012" d="M30.753 50.227c.588 0 .852.286.852.785 0 .877-.8 2.1-2.384 3-2.637 1.5-7.161 1.926-13.419 1.926s-10.781-.43-13.418-1.929C.8 53.112 0 51.889 0 51.012c0-.5.264-.785.852-.785z" transform="translate(0 -20.888)" style="fill:#ff8732"/>
            <path data-name="패스 11013" d="M30.753 9.878H.852A.755.755 0 0 1 0 9.022C0 5.76 4.879 0 15.8 0c10.822 0 15.8 5.76 15.8 9.022a.755.755 0 0 1-.852.856" style="fill:#ff8732"/>
            <path data-name="패스 11014" d="M7.77 25.676a2.226 2.226 0 0 1-2.505-2.233v-3.436a1.013 1.013 0 1 1 2.018 0v3.324a.478.478 0 0 0 .487.53.494.494 0 0 0 .507-.53v-3.324a1.008 1.008 0 1 1 2.008 0v3.436a2.235 2.235 0 0 1-2.515 2.233m18.9-1.1a1.008 1.008 0 1 0 2.008 0v-1.011c0-.153.061-.265.223-.265.142 0 .2.123.233.265a4.011 4.011 0 0 0 .5 1.509 1.222 1.222 0 0 0 .994.6.971.971 0 0 0 .984-.938 1.309 1.309 0 0 0-.325-.836 4.548 4.548 0 0 1-.679-1.05.213.213 0 0 1 .071-.255 2.02 2.02 0 0 0 .68-1.57A2.1 2.1 0 0 0 29 18.927h-1.148a1.052 1.052 0 0 0-1.186 1.1zM21 19.365a3.3 3.3 0 0 0-1.917-.5c-1.572 0-3.1 1.04-3.1 3.445a3.059 3.059 0 0 0 3.043 3.375 2.413 2.413 0 0 0 2.6-2.549 1.513 1.513 0 0 0-1.7-1.6h-.324c-.6 0-1.065.286-1.065.928a.867.867 0 0 0 .913.846c.264 0 .416.122.416.305 0 .245-.213.408-.6.408-.791 0-1.278-.612-1.278-1.713 0-1.121.71-1.529 1.258-1.529.669 0 .781.255 1.248.255a.909.909 0 0 0 .9-.918.9.9 0 0 0-.394-.753m7.962 2.579h-.244a.225.225 0 0 1-.254-.234v-.877c0-.133.081-.214.254-.214h.244a.6.6 0 0 1 .649.652.619.619 0 0 1-.649.673m-4.929 1.692a.225.225 0 0 0 .254.235h.984a.879.879 0 1 1 0 1.753h-1.943a1.052 1.052 0 0 1-1.187-1.1v-4.5a1.053 1.053 0 0 1 1.187-1.1h1.938a.879.879 0 1 1 0 1.754h-.984a.225.225 0 0 0-.254.235v.3a.225.225 0 0 0 .254.234h.7a.817.817 0 1 1 0 1.631h-.7a.225.225 0 0 0-.254.235zm-10.8-1.692h-.244a.225.225 0 0 1-.254-.234v-.877c0-.133.081-.214.254-.214h.244a.6.6 0 0 1 .649.652.619.619 0 0 1-.649.673m-12.04 3.68h1.43a2.016 2.016 0 0 0 2.171-2.039 1.669 1.669 0 0 0-.659-1.376c-.05-.041-.1-.082-.1-.122s.02-.072.081-.133a1.612 1.612 0 0 0 .428-1.154c0-1.224-.872-1.876-2.15-1.876H1.187A1.053 1.053 0 0 0 0 20.028v4.5a1.052 1.052 0 0 0 1.187 1.1m.852-4.016a.225.225 0 0 1-.254-.234v-.698a.225.225 0 0 1 .254-.234h.234c.405 0 .527.3.527.581a.513.513 0 0 1-.527.581zm0 1.2h.284a.645.645 0 0 1 0 1.285h-.284a.225.225 0 0 1-.254-.235v-.815a.225.225 0 0 1 .254-.234m13.51 1.087a4.529 4.529 0 0 1-.679-1.05.212.212 0 0 1 .071-.255 2.02 2.02 0 0 0 .679-1.57 2.1 2.1 0 0 0-2.353-2.1h-1.146a1.053 1.053 0 0 0-1.187 1.1v4.547a1.008 1.008 0 1 0 2.008 0v-1.007c0-.153.061-.265.223-.265.143 0 .2.123.234.265a4.194 4.194 0 0 0 .5 1.509 1.222 1.222 0 0 0 .994.6.971.971 0 0 0 .984-.938 1.312 1.312 0 0 0-.325-.836" transform="translate(0 -7.846)" style="fill:#d72300"/>
            <path data-name="패스 11015" d="M19.327 33.462a1.762 1.762 0 1 0-3.509 0V39.5a1.762 1.762 0 1 0 3.509 0z" transform="translate(-6.578 -13.115)" style="fill:#d72300"/>
            <path data-name="패스 11016" d="M55.879 55.288c.15 0 .233-.075.233-.176s-.075-.166-.208-.166H55.7v.342zm-.44.593v-1.044a.136.136 0 0 1 .125-.134h.349a.418.418 0 0 1 .466.393.388.388 0 0 1-.357.4l.275.309a.135.135 0 0 1 .041.084.119.119 0 0 1-.125.126.129.129 0 0 1-.108-.059l-.365-.434h-.04v.359a.13.13 0 0 1-.133.125.128.128 0 0 1-.125-.125m1.38-.526a.956.956 0 1 0-.956.985.95.95 0 0 0 .956-.985m-2.177 0a1.221 1.221 0 1 1 2.443 0 1.222 1.222 0 1 1-2.443 0" transform="translate(-22.723 -22.51)" style="fill:#d72300"/>
        </g>
    </g>
</svg>
