<svg xmlns="http://www.w3.org/2000/svg" width="57.496" height="14.668" viewBox="0 0 57.496 14.668">
    <defs>
        <clipPath id="gy3zyupv7a">
            <path data-name="사각형 2443" style="fill:none" d="M0 0h57.496v14.668H0z"/>
        </clipPath>
    </defs>
    <g data-name="그룹 3392">
        <g data-name="그룹 3391" style="clip-path:url(#gy3zyupv7a)">
            <path data-name="패스 10998" d="m13.426 4.315-3.07-3.068a4.283 4.283 0 0 0-6.042 0L1.246 4.315a4.283 4.283 0 0 0 0 6.04l3.069 3.068a4.286 4.286 0 0 0 6.042 0l3.069-3.068a4.285 4.285 0 0 0 0-6.04m-7.892 7.526h-.02a.446.446 0 1 1 .021 0m5.453-1.895a4 4 0 0 1-2.2 1.86.055.055 0 0 1-.02 0 2.086 2.086 0 0 1-.4.038 1.88 1.88 0 0 1-1.077-.344 2.807 2.807 0 0 1-.67-.633C5.323 9.2 5.236 6.079 5.227 5.727a3.679 3.679 0 0 1 .755-2.6 1.62 1.62 0 0 1 1.18-.474h.078a1.613 1.613 0 0 1 1.18.474 3.684 3.684 0 0 1 .756 2.6A8.414 8.414 0 0 1 8.1 9.775a.408.408 0 0 1-.349.2.412.412 0 0 1-.209-.059.4.4 0 0 1-.139-.558 7.034 7.034 0 0 0 .952-3.643A2.86 2.86 0 0 0 7.848 3.7a.825.825 0 0 0-.61-.238h-.073a.821.821 0 0 0-.608.238 2.867 2.867 0 0 0-.515 2.011 9.028 9.028 0 0 0 1.222 4.653 2.029 2.029 0 0 0 .477.454 1.05 1.05 0 0 0 .628.212 1.445 1.445 0 0 0 .247-.022 3.339 3.339 0 0 0 1.683-1.5.4.4 0 0 1 .343-.191.412.412 0 0 1 .218.063.409.409 0 0 1 .128.561" style="fill:#d9000d"/>
            <path data-name="패스 10999" d="M82.564 23.482a3.476 3.476 0 0 0 .639.528 3.968 3.968 0 0 0 .682.352 2.459 2.459 0 0 0 .528.158l-.254.388a3.387 3.387 0 0 1-.506-.1A4.634 4.634 0 0 1 83 24.57a4.758 4.758 0 0 1-.694-.376 2.985 2.985 0 0 1-.628-.528 3.071 3.071 0 0 1-.624.528 4.616 4.616 0 0 1-.691.376 4.455 4.455 0 0 1-.658.235 3.311 3.311 0 0 1-.512.1l-.256-.388a2.4 2.4 0 0 0 .53-.158 3.81 3.81 0 0 0 .683-.356 3.637 3.637 0 0 0 .639-.53 1.615 1.615 0 0 0 .4-.676h.971a1.647 1.647 0 0 0 .4.682m2.15-1.528v.449h-6.077v-.443h2.586v-.619H79.8a.464.464 0 0 1-.325-.125.422.422 0 0 1-.137-.327v-1.054h3.7v-.617h-3.7v-.444h4.576v1.5h-3.691v.418a.218.218 0 0 0 .038.146.18.18 0 0 0 .135.04H84v.456h-1.878v.619z" transform="translate(-60.747 -14.501)" style="fill:#d9000d"/>
            <path data-name="패스 11000" d="M113.771 18.3h.874v6.177h-.874zm-2.186 3.908c.175 0 .314 0 .419-.014a.493.493 0 0 0 .271-.11V20.7h-1.266v-.456h1.266V18.3h.877v6.176h-.877v-1.92a.792.792 0 0 1-.263.081 2.582 2.582 0 0 1-.43.028h-1.807a.571.571 0 0 1-.434-.174.583.583 0 0 1-.163-.412v-3.526h2.522v.457h-1.633v2.968a.279.279 0 0 0 .045.166.2.2 0 0 0 .17.062z" transform="translate(-84.344 -14.136)" style="fill:#d9000d"/>
            <path data-name="패스 11001" d="M142.161 20.446h1.024v.443h-1.024v3.585h-.9V18.3h.9zm-4.267.623a2.82 2.82 0 0 0 .042.474 1.61 1.61 0 0 0 .139.438.97.97 0 0 0 .253.325.579.579 0 0 0 .383.126.6.6 0 0 0 .393-.126.922.922 0 0 0 .251-.325 1.513 1.513 0 0 0 .128-.438 2.73 2.73 0 0 0 .043-.474 3.036 3.036 0 0 0-.045-.486 1.8 1.8 0 0 0-.133-.463.964.964 0 0 0-.25-.345.578.578 0 0 0-.388-.135.592.592 0 0 0-.39.135.961.961 0 0 0-.248.345 1.746 1.746 0 0 0-.137.463 3.023 3.023 0 0 0-.042.486m-.886-.006a2.182 2.182 0 0 1 .151-.858 1.682 1.682 0 0 1 .461-.632h-.927v-.457h1.51v-.794h.931v.794h1.59v.457h-.93a1.757 1.757 0 0 1 .464.631 2.17 2.17 0 0 1 .156.861 2.3 2.3 0 0 1-.109.71 1.635 1.635 0 0 1-.317.575 1.476 1.476 0 0 1-.529.387 2.058 2.058 0 0 1-1.5 0 1.482 1.482 0 0 1-.535-.387 1.584 1.584 0 0 1-.316-.575 2.388 2.388 0 0 1-.1-.71" transform="translate(-105.599 -14.135)" style="fill:#d9000d"/>
            <path data-name="패스 11002" d="M171.8 18.3h.9v6.245h-.9zm-2.777 3.84a.63.63 0 0 0 .382-.126 1.064 1.064 0 0 0 .29-.346 2.077 2.077 0 0 0 .183-.51 3.009 3.009 0 0 0 .067-.626 3.092 3.092 0 0 0-.067-.635 2.064 2.064 0 0 0-.183-.513 1.033 1.033 0 0 0-.29-.343.639.639 0 0 0-.382-.124.626.626 0 0 0-.382.124 1.083 1.083 0 0 0-.29.343 1.889 1.889 0 0 0-.187.513 2.946 2.946 0 0 0-.065.635 2.866 2.866 0 0 0 .065.626 1.9 1.9 0 0 0 .187.51 1.116 1.116 0 0 0 .29.346.617.617 0 0 0 .382.126m0-3.679a1.811 1.811 0 0 1 .8.165 1.629 1.629 0 0 1 .573.447 1.839 1.839 0 0 1 .341.659 2.865 2.865 0 0 1 .108.8 2.8 2.8 0 0 1-.108.795 1.892 1.892 0 0 1-.341.656 1.59 1.59 0 0 1-.573.449 1.789 1.789 0 0 1-.8.165 1.83 1.83 0 0 1-.8-.165 1.671 1.671 0 0 1-.571-.449 1.931 1.931 0 0 1-.341-.656 2.649 2.649 0 0 1-.114-.795 2.715 2.715 0 0 1 .114-.8 1.875 1.875 0 0 1 .341-.659 1.715 1.715 0 0 1 .571-.447 1.853 1.853 0 0 1 .8-.165" transform="translate(-129.167 -14.136)" style="fill:#d9000d"/>
            <path data-name="패스 11003" d="M202.281 20.26h1.019v.44h-1.022v3.773h-.9V18.3h.9zm-4.081 2.013h1.3v-3.29h-1.46v3.132a.139.139 0 0 0 .158.158m-.488.458a.544.544 0 0 1-.417-.152.585.585 0 0 1-.14-.408v-3.644h3.216v4.2z" transform="translate(-152.306 -14.137)" style="fill:#d9000d"/>
            <path data-name="패스 11004" d="M231.32 19.185v.444h-3.646v.966h3.646v.444h-3.646v.778a.255.255 0 0 0 .051.168.207.207 0 0 0 .169.061h3.522v.445h-4.188a.428.428 0 0 1-.325-.126.438.438 0 0 1-.115-.31v-2.87zm.816 4.834h-6.074v-.443h6.074z" transform="translate(-174.641 -14.821)" style="fill:#d9000d"/>
        </g>
    </g>
</svg>
