<svg xmlns="http://www.w3.org/2000/svg" width="250" height="80" viewBox="0 0 250 80">
    <defs>
        <clipPath id="ntv9i3jqha">
            <path data-name="사각형 2439" style="fill:none" d="M0 0h168.358v53.316H0z"/>
        </clipPath>
    </defs>
    <g data-name="그룹 3813">
        <g data-name="그룹 3812">
            <path data-name="사각형 2437" transform="translate(41 43.531)" style="fill:#004f9f" d="M0 0h168.358v3.732H0z"/>
            <g data-name="그룹 3383">
                <g data-name="그룹 3382" transform="translate(41 13)" style="clip-path:url(#ntv9i3jqha)">
                    <path data-name="패스 10956" d="M119.763 39.378h2.432v9.557h5.205c.243 0 .37-.255.37-.458v-9.1h2.43v9.639c0 1.377-.947 1.91-2.616 1.91h-7.821z" transform="translate(6.531 2.148)" style="fill-rule:evenodd;fill:#004f9f"/>
                    <path data-name="패스 10957" d="M55.53 39.606h8.1a1.273 1.273 0 0 1 1.246 1.294v8.962a1.273 1.273 0 0 1-1.244 1.294h-8.1a1.273 1.273 0 0 1-1.244-1.294V40.9a1.273 1.273 0 0 1 1.244-1.294m1.568 2.521h4.954a.316.316 0 0 1 .3.331V48.3a.316.316 0 0 1-.3.331H57.1a.316.316 0 0 1-.3-.331v-5.841a.316.316 0 0 1 .3-.331" transform="translate(2.96 2.16)" style="fill-rule:evenodd;fill:#004f9f"/>
                    <path data-name="패스 10958" d="M32.793 39.606h8.1a1.273 1.273 0 0 1 1.246 1.294v8.962a1.273 1.273 0 0 1-1.244 1.294h-8.1a1.273 1.273 0 0 1-1.244-1.294V40.9a1.273 1.273 0 0 1 1.244-1.294m1.573 2.521h4.954a.316.316 0 0 1 .3.331V48.3a.316.316 0 0 1-.3.331h-4.955a.316.316 0 0 1-.3-.331v-5.841a.316.316 0 0 1 .3-.331" transform="translate(1.72 2.16)" style="fill-rule:evenodd;fill:#004f9f"/>
                    <path data-name="패스 10959" d="M108.882 39.606h8.1a1.274 1.274 0 0 1 1.244 1.294v8.962a1.273 1.273 0 0 1-1.244 1.294h-8.1a1.273 1.273 0 0 1-1.244-1.294V40.9a1.273 1.273 0 0 1 1.244-1.294m1.573 2.521h4.954a.316.316 0 0 1 .3.331V48.3a.316.316 0 0 1-.3.331h-4.954a.316.316 0 0 1-.3-.331v-5.841a.316.316 0 0 1 .3-.331" transform="translate(5.87 2.16)" style="fill-rule:evenodd;fill:#004f9f"/>
                    <path data-name="패스 10960" d="m21.074 39.378 2.994 8.227 2.994-8.227h3.151v11.549h-2.432v-7.185l-2.523 7.186h-2.38l-2.523-7.186v7.186h-2.432v-11.55z" transform="translate(.977 2.148)" style="fill-rule:evenodd;fill:#004f9f"/>
                    <path data-name="패스 10961" d="M95.579 39.379h8.471c1.274 0 1.967.983 1.967 2.387v3.38c-.013 1.362-.682 2.319-1.907 2.348l2.333 3.433h-2.7l-2.333-3.43h-3.4v3.43h-2.431V39.379zm2.432 1.992V45.5h5.289a.306.306 0 0 0 .289-.333V41.72c0-.213-.094-.349-.467-.349h-5.111" transform="translate(5.212 2.148)" style="fill-rule:evenodd;fill:#004f9f"/>
                    <path data-name="패스 10962" d="M66.367 39.379h8.471c1.274 0 1.967.983 1.967 2.387v3.38c-.014 1.362-.682 2.319-1.908 2.348l2.333 3.433h-2.7L72.2 47.5h-3.4v3.43h-2.433V39.379zm2.433 1.992V45.5h5.285a.306.306 0 0 0 .289-.333V41.72c0-.213-.094-.349-.467-.349H68.8" transform="translate(3.619 2.148)" style="fill-rule:evenodd;fill:#004f9f"/>
                    <path data-name="패스 10963" d="M86.159 39.378h8.023v2.431h-8.023v7.127h5.206c.242 0 .369-.255.369-.458v-2.2h-2.883V44.04h5.315v4.977c0 1.378-.948 1.91-2.617 1.91h-6.355c-1.105 0-1.467-1.044-1.467-2.054v-7.064a2.208 2.208 0 0 1 2.432-2.431" transform="translate(4.566 2.148)" style="fill-rule:evenodd;fill:#004f9f"/>
                    <path data-name="패스 10964" d="M47.083 39.378h6.494v2.431h-4.062v9.119h-2.432v-9.119h-4.062v-2.431z" transform="translate(2.346 2.148)" style="fill-rule:evenodd;fill:#004f9f"/>
                    <path data-name="패스 10965" d="M131.831 39.379h8.469c1.274 0 1.967.983 1.967 2.387v3.38c-.013 1.385-.7 2.351-1.966 2.351h-6.039v3.43h-2.432V39.379zm2.432 1.992V45.5h5.286a.306.306 0 0 0 .288-.333V41.72c0-.213-.094-.349-.467-.349h-5.107" transform="translate(7.189 2.148)" style="fill-rule:evenodd;fill:#004f9f"/>
                    <path data-name="패스 10966" d="M23.285 0h6.409l6.77 10.425L43.234 0h6.411L39.077 16.284v8.536h-5.225v-8.548z" transform="translate(1.27)" style="fill-rule:evenodd;fill:#004f9f"/>
                    <path data-name="패스 10967" d="M50.1 0h5.225v20.539h11.187c.52 0 .793-.548.793-.983V0h5.225v20.716c0 2.961-2.035 4.1-5.623 4.1H50.1z" transform="translate(2.732)" style="fill-rule:evenodd;fill:#004f9f"/>
                    <path data-name="패스 10968" d="M76.1 24.821h5.225V4.282h11.184c.521 0 .794.547.794.982v19.557h5.225V4.1c0-2.961-2.035-4.1-5.623-4.1H76.1z" transform="translate(4.15)" style="fill-rule:evenodd;fill:#004f9f"/>
                    <path data-name="패스 10969" d="M101.765 0h18.205c2.739 0 4.227 2.113 4.227 5.133v14.636c-.026 2.976-1.512 5.05-4.226 5.05h-18.206zm5.225 4.282v16.257h11.362a.658.658 0 0 0 .62-.717V5.035c0-.461-.2-.753-1-.753H106.99" transform="translate(5.549)" style="fill-rule:evenodd;fill:#004f9f"/>
                    <path data-name="사각형 2438" transform="translate(162.433 .001)" style="fill:#004f9f" d="M0 0h5.225v24.821H0z"/>
                    <path data-name="패스 10970" d="M127.357 4.66c0-2.7 1.5-4.66 4.432-4.66h17.921v24.822h-5.225v-8.277h-11.9v8.277h-5.225zm5.225 7.6h11.9V4.282h-11.9z" transform="translate(6.945)" style="fill-rule:evenodd;fill:#004f9f"/>
                    <path data-name="패스 10971" d="M.409 0h5.225v9.943h11.9V0h5.225v24.821h-5.222v-10.6H5.634v10.6H.409z" transform="translate(.022)" style="fill-rule:evenodd;fill:#004f9f"/>
                </g>
            </g>
        </g>
        <path data-name="사각형 2637" style="fill:none" d="M0 0h250v80H0z"/>
    </g>
</svg>
