<svg xmlns="http://www.w3.org/2000/svg" width="64.601" height="13.795" viewBox="0 0 64.601 13.795">
    <defs>
        <clipPath id="6fxwjy9vga">
            <path data-name="사각형 2440" style="fill:none" d="M0 0h64.601v13.795H0z"/>
        </clipPath>
    </defs>
    <g data-name="그룹 3386">
        <g data-name="그룹 3385" style="clip-path:url(#6fxwjy9vga)">
            <path data-name="패스 10972" d="M0 0h6.562v6.562H0z" style="fill:#f25022"/>
            <path data-name="패스 10973" d="M23.061 0h6.562v6.562h-6.562V0" transform="translate(-15.828)" style="fill:#80ba01"/>
            <path data-name="패스 10974" d="M184.572 7.2a2.576 2.576 0 0 1 2.068-.243c.006.405 0 .811 0 1.216a1.353 1.353 0 0 0-1.046-.1.83.83 0 0 0-.474.662 8.962 8.962 0 0 0-.02 1.065h2.077c.005-.449-.006-.9.006-1.349.47-.134.936-.284 1.4-.425 0 .592-.005 1.185.005 1.777.468-.007.936 0 1.4 0v1.152c-.47-.019-.94-.005-1.41-.007v1.988c.008.367-.019.736.024 1.1a.714.714 0 0 0 .306.566 1.057 1.057 0 0 0 1.079-.1v1.168a2.775 2.775 0 0 1-1.3.2 1.578 1.578 0 0 1-1.119-.513 2.118 2.118 0 0 1-.4-1.354v-3.051h-2.077v4.788h-1.419v-4.786c-.329-.006-.659 0-.988-.005V9.812c.327-.008.655 0 .984 0a6.04 6.04 0 0 1 .1-1.513 1.936 1.936 0 0 1 .8-1.093" transform="translate(-125.393 -4.702)" style="fill:#777"/>
            <path data-name="패스 10975" d="M90.223 8.214a.868.868 0 0 1 .786.278.81.81 0 0 1 .1.922.883.883 0 0 1-.945.4.8.8 0 0 1-.659-.791.821.821 0 0 1 .72-.805" transform="translate(-61.432 -5.631)" style="fill:#777"/>
            <path data-name="패스 10976" d="M57.117 8.8h2.064q.964 2.447 1.933 4.893c.165.408.318.82.491 1.225.826-2.039 1.665-4.072 2.485-6.113.662-.011 1.324 0 1.986 0v8.276h-1.432c.005-2.036 0-4.072 0-6.108 0-.092 0-.183-.008-.274a1.1 1.1 0 0 0-.075.133c-.82 2.084-1.656 4.162-2.472 6.247-.34.012-.68 0-1.02.006-.846-2.084-1.682-4.173-2.524-6.258a1.707 1.707 0 0 0-.071-.126c-.018.892 0 1.785-.008 2.677v3.706h-1.351V8.807" transform="translate(-39.203 -6.036)" style="fill:#777"/>
            <path data-name="패스 10977" d="M99.57 15.944a3.885 3.885 0 0 1 2.108.006 1.7 1.7 0 0 1 .4.169c-.008.452 0 .9 0 1.357a2.254 2.254 0 0 0-1.62-.5 1.666 1.666 0 0 0-1.179.655 2.29 2.29 0 0 0-.376 1.643 1.778 1.778 0 0 0 .574 1.179 1.8 1.8 0 0 0 1.328.4 2.706 2.706 0 0 0 1.273-.523v1.285a3.45 3.45 0 0 1-1.94.4 2.877 2.877 0 0 1-1.849-.771 2.956 2.956 0 0 1-.859-1.986 3.6 3.6 0 0 1 .561-2.2 2.855 2.855 0 0 1 1.575-1.112" transform="translate(-66.873 -10.846)" style="fill:#777"/>
            <path data-name="패스 10978" d="M150.027 15.856a3.756 3.756 0 0 1 1.965.2v1.3a2.5 2.5 0 0 0-1.491-.44.764.764 0 0 0-.678.375.613.613 0 0 0 .206.726c.4.269.883.384 1.3.625a1.867 1.867 0 0 1 .813.773 1.731 1.731 0 0 1-.369 2 2.716 2.716 0 0 1-1.975.6 4.216 4.216 0 0 1-1.443-.331v-1.372a3.1 3.1 0 0 0 1.288.556 1.657 1.657 0 0 0 .979-.09.567.567 0 0 0 .169-.807 1.705 1.705 0 0 0-.62-.406 5.938 5.938 0 0 1-1.225-.627 1.468 1.468 0 0 1-.53-.805 1.809 1.809 0 0 1 .2-1.416 2.113 2.113 0 0 1 1.412-.867" transform="translate(-101.826 -10.848)" style="fill:#777"/>
            <path data-name="패스 10979" d="M117.717 16.122a1.6 1.6 0 0 1 1.317-.111v1.42a1.508 1.508 0 0 0-.959-.226 1.179 1.179 0 0 0-.888.71 2.622 2.622 0 0 0-.2 1.211v2.837h-1.4v-5.929c.467-.006.934 0 1.4 0v1.018a1.818 1.818 0 0 1 .734-.929" transform="translate(-79.333 -10.927)" style="fill:#777"/>
            <path data-name="패스 10980" d="M89.916 16.274c.471 0 .942-.007 1.412 0-.006 1.976 0 3.952 0 5.928h-1.411v-5.93" transform="translate(-61.716 -11.168)" style="fill:#777"/>
            <path data-name="패스 10981" d="M131.4 16.08a3.768 3.768 0 0 0-2.032-.24 2.831 2.831 0 0 0-1.866 1 3.162 3.162 0 0 0-.655 1.812 3.405 3.405 0 0 0 .52 2.216 2.689 2.689 0 0 0 1.64 1.069 4.074 4.074 0 0 0 1.662 0 2.744 2.744 0 0 0 1.629-1.005 3.146 3.146 0 0 0 .624-1.727 3.891 3.891 0 0 0-.282-1.871 2.511 2.511 0 0 0-1.24-1.253m-.131 3.976a1.3 1.3 0 0 1-.7.685 1.913 1.913 0 0 1-1.157.051 1.417 1.417 0 0 1-.889-.734 2.74 2.74 0 0 1-.216-1.485 1.887 1.887 0 0 1 .549-1.238 1.483 1.483 0 0 1 .934-.369 1.528 1.528 0 0 1 1.187.4 1.914 1.914 0 0 1 .49 1.237 3.1 3.1 0 0 1-.2 1.45" transform="translate(-87.057 -10.845)" style="fill:#777"/>
            <path data-name="패스 10982" d="M168.733 17.505a2.533 2.533 0 0 0-1.219-1.38 3.678 3.678 0 0 0-2.107-.286 2.94 2.94 0 0 0-1.568.673 2.906 2.906 0 0 0-.936 1.822 3.928 3.928 0 0 0 .223 2.061 2.63 2.63 0 0 0 1.442 1.4 3.816 3.816 0 0 0 2 .169 2.772 2.772 0 0 0 1.745-1.02 3.247 3.247 0 0 0 .642-2.02 3.785 3.785 0 0 0-.221-1.417m-1.28 2.011a1.849 1.849 0 0 1-.367.871 1.329 1.329 0 0 1-.829.446 1.878 1.878 0 0 1-1.016-.11 1.439 1.439 0 0 1-.748-.783 2.819 2.819 0 0 1-.168-1.292 2.05 2.05 0 0 1 .43-1.181 1.451 1.451 0 0 1 1.036-.5 1.558 1.558 0 0 1 1.137.335 1.628 1.628 0 0 1 .513.944 3.6 3.6 0 0 1 .012 1.268" transform="translate(-111.782 -10.845)" style="fill:#777"/>
            <path data-name="패스 10983" d="M0 23.06h6.562v6.562H0z" transform="translate(0 -15.828)" style="fill:#02a4ef"/>
            <path data-name="패스 10984" d="M23.061 23.061h6.562v6.562h-6.562v-6.562" transform="translate(-15.828 -15.828)" style="fill:#ffb902"/>
        </g>
    </g>
</svg>
