<svg data-name="그룹 3423" xmlns="http://www.w3.org/2000/svg" xmlns:xlink="http://www.w3.org/1999/xlink" width="66.844" height="14.413" viewBox="0 0 66.844 14.413">
    <defs>
        <clipPath id="c1yzj27w2b">
            <path data-name="사각형 2459" style="fill:none" d="M0 0h66.844v14.413H0z"/>
        </clipPath>
        <clipPath id="ucwy6hvrac">
            <path data-name="패스 11197" d="M26.02 62.981a3.966 3.966 0 0 1-3.682-1.524 3.275 3.275 0 0 0 .978 3.643 6.793 6.793 0 0 0 4.867-.279c1.781-1.082 1.928-3.709 1.322-6.247-.2 1.148-1.356 4.035-3.485 4.408" transform="translate(-22.129 -58.573)" style="fill:none"/>
        </clipPath>
        <clipPath id="urk30ndogd">
            <path data-name="패스 11198" d="M67.288 0A6.923 6.923 0 0 1 65.2 2.933 13.373 13.373 0 0 1 67.142 7.4c.606 2.537.458 5.163-1.322 6.245C69.382 11.855 70.2 6.366 67.288 0z" transform="translate(-65.204)" style="fill:none"/>
        </clipPath>
        <clipPath id="rfozpbk2pf">
            <path data-name="사각형 2454" style="fill:none" d="M0 0h9.791v12.486H0z"/>
        </clipPath>
        <clipPath id="sqa4ldb3hg">
            <path data-name="패스 11199" d="M5.377 26.135c-.067-.007-.31-.04-.323-.243a5.9 5.9 0 0 1-1.9-1.572 10.389 10.389 0 0 1 2.876-1.965 9.779 9.779 0 0 1 1 3.444 9.863 9.863 0 0 0 2.576-1.42c.66-2.2-.425-6.412-3.723-10.729a25.886 25.886 0 0 0-3.546 1.729c.474 1.045 1.414 2.93 2.1 4.127a10.327 10.327 0 0 0-2.915 2.351 11.429 11.429 0 0 1-1.259-5 6.594 6.594 0 0 0-.206 1.06c-.372 3.1.989 6.553 3.306 7.683a6.172 6.172 0 0 0 .613.252 6.2 6.2 0 0 0 1.4.289" transform="translate(0 -13.649)" style="fill:none"/>
        </clipPath>
        <clipPath id="gmzhcbxqfi">
            <path data-name="사각형 2457" style="fill:none" d="M0 0h3.208v4.735H0z"/>
        </clipPath>
        <radialGradient id="se36ywv5ve" cx=".48" cy=".709" r=".344" gradientTransform="matrix(2.731 0 0 -1 2.852 2.113)" gradientUnits="objectBoundingBox">
            <stop offset="0" stop-color="#f8fbfe"/>
            <stop offset=".07" stop-color="#d7ebf7"/>
            <stop offset=".248" stop-color="#8cc6e7"/>
            <stop offset=".406" stop-color="#4fa9db"/>
            <stop offset=".54" stop-color="#2493d2"/>
            <stop offset=".644" stop-color="#0986cd"/>
            <stop offset=".706" stop-color="#0082cb"/>
            <stop offset="1" stop-color="#0082cb"/>
        </radialGradient>
        <radialGradient id="onj80yx9da" cx=".447" cy=".341" r=".653" gradientTransform="matrix(1.18 0 0 -1 -.005 2.033)" gradientUnits="objectBoundingBox">
            <stop offset="0" stop-color="#f5f6fb"/>
            <stop offset=".042" stop-color="#edeff6"/>
            <stop offset=".104" stop-color="#d9dbeb"/>
            <stop offset=".179" stop-color="#b7bcd9"/>
            <stop offset=".263" stop-color="#8991c0"/>
            <stop offset=".307" stop-color="#6f78b2"/>
            <stop offset=".392" stop-color="#4c5f9d"/>
            <stop offset=".491" stop-color="#2b4789"/>
            <stop offset=".586" stop-color="#13367b"/>
            <stop offset=".674" stop-color="#042c72"/>
            <stop offset=".748" stop-color="#002970"/>
            <stop offset="1" stop-color="#002970"/>
        </radialGradient>
        <radialGradient id="aj4ffgfi7h" cx="1.045" cy=".64" r=".507" xlink:href="#onj80yx9da"/>
    </defs>
    <g data-name="그룹 3422" style="clip-path:url(#c1yzj27w2b)">
        <g data-name="그룹 3402">
            <g data-name="그룹 3401" style="clip-path:url(#c1yzj27w2b)">
                <path data-name="패스 11034" d="M10.315 0a6.923 6.923 0 0 1-2.084 2.933 13.378 13.378 0 0 1 1.938 4.462 7.083 7.083 0 0 1-.6 1.741 19.5 19.5 0 0 0-3.685-7.413 25.877 25.877 0 0 0-3.546 1.729c.473 1.045 1.414 2.93 2.1 4.127A10.323 10.323 0 0 0 1.526 9.93a11.432 11.432 0 0 1-1.259-5 6.579 6.579 0 0 0-.205 1.06c-.372 3.1.989 6.553 3.306 7.683a6.171 6.171 0 0 0 .613.252 5.906 5.906 0 0 0 1.223.27 6.619 6.619 0 0 0 3.644-.549c3.561-1.791 4.378-7.28 1.467-13.646M4.346 11.4a13.37 13.37 0 0 1 1.682-.972c.2.434.392.917.555 1.388a3.892 3.892 0 0 1-2.237-.416" style="fill:#fff"/>
            </g>
        </g>
        <g data-name="그룹 3404">
            <g data-name="그룹 3403" style="clip-path:url(#ucwy6hvrac)" transform="translate(2.793 7.393)">
                <path data-name="사각형 2451" transform="translate(-.252)" style="fill:#2897d7" d="M0 0h8.233v7.02H0z"/>
                <path data-name="패스 11035" d="M23.555 59.382c-1.013-1.444-.181-3.775 1.859-5.205v.428h5.528v-.4c1.013 1.445.18 3.775-1.859 5.205s-4.515 1.419-5.528-.026" transform="translate(-22.998 -54.732)" style="fill:#2897d7"/>
                <path data-name="패스 11036" d="M23.756 59.476c-1.007-1.436-.18-3.752 1.847-5.174v.413H31.1v-.387c1.007 1.436.18 3.752-1.847 5.174s-4.486 1.41-5.493-.026" transform="translate(-23.176 -54.841)" style="fill:#2997d7"/>
                <path data-name="패스 11037" d="M23.953 59.573c-1-1.427-.178-3.729 1.836-5.142v.4h5.459v-.371c1 1.426.179 3.729-1.836 5.141s-4.459 1.4-5.459-.025" transform="translate(-23.35 -54.954)" style="fill:#2a98d7"/>
                <path data-name="패스 11038" d="M24.153 59.668c-.994-1.418-.177-3.705 1.824-5.109v.38H31.4v-.355c.995 1.418.177 3.705-1.824 5.109s-4.431 1.393-5.425-.025" transform="translate(-23.528 -55.066)" style="fill:#2b98d7"/>
                <path data-name="패스 11039" d="M24.35 59.765c-.988-1.409-.176-3.682 1.813-5.077v.364h5.391v-.339c.988 1.409.176 3.682-1.813 5.078s-4.4 1.384-5.391-.025" transform="translate(-23.702 -55.178)" style="fill:#2c98d8"/>
                <path data-name="패스 11040" d="M24.551 59.858c-.982-1.4-.176-3.659 1.8-5.045v.348h5.357v-.323c.982 1.4.176 3.659-1.8 5.045s-4.375 1.375-5.357-.025" transform="translate(-23.879 -55.288)" style="fill:#2e99d8"/>
                <path data-name="패스 11041" d="M24.75 59.955c-.976-1.391-.174-3.635 1.79-5.013v.332h5.323v-.307c.976 1.392.174 3.635-1.79 5.013s-4.347 1.366-5.323-.025" transform="translate(-24.056 -55.4)" style="fill:#2f99d8"/>
                <path data-name="패스 11042" d="M24.949 60.052c-.969-1.383-.173-3.612 1.779-4.981v.316h5.289V55.1c.969 1.382.173 3.612-1.779 4.98s-4.319 1.358-5.289-.024" transform="translate(-24.232 -55.513)" style="fill:#3199d8"/>
                <path data-name="패스 11043" d="M25.146 60.148c-.963-1.373-.172-3.589 1.767-4.948v.3h5.255v-.275c.963 1.373.172 3.589-1.767 4.949s-4.292 1.349-5.255-.025" transform="translate(-24.407 -55.626)" style="fill:#329ad8"/>
                <path data-name="패스 11044" d="M25.348 60.242c-.957-1.364-.171-3.566 1.755-4.917v.284h5.221v-.259c.957 1.364.171 3.565-1.756 4.916s-4.264 1.34-5.22-.024" transform="translate(-24.585 -55.735)" style="fill:#339ad9"/>
                <path data-name="패스 11045" d="M25.547 60.338c-.951-1.355-.17-3.542 1.744-4.884v.267h5.186v-.243c.951 1.355.17 3.542-1.744 4.884s-4.236 1.331-5.186-.024" transform="translate(-24.762 -55.848)" style="fill:#359bd9"/>
                <path data-name="패스 11046" d="M25.745 60.435c-.944-1.347-.169-3.519 1.733-4.852v.251h5.152v-.227c.944 1.346.169 3.519-1.733 4.852s-4.208 1.323-5.152-.024" transform="translate(-24.937 -55.96)" style="fill:#369bd9"/>
                <path data-name="패스 11047" d="M25.943 60.531c-.938-1.338-.168-3.5 1.721-4.82v.235h5.118v-.211c.938 1.338.167 3.5-1.721 4.82s-4.18 1.314-5.118-.024" transform="translate(-25.113 -56.072)" style="fill:#379bd9"/>
                <path data-name="패스 11048" d="M26.143 60.624c-.931-1.329-.166-3.472 1.71-4.788v.219h5.083v-.2c.932 1.329.167 3.473-1.709 4.788s-4.152 1.305-5.084-.024" transform="translate(-25.29 -56.181)" style="fill:#399cd9"/>
                <path data-name="패스 11049" d="M26.343 60.721c-.925-1.319-.165-3.448 1.7-4.756v.2h5.05v-.179c.926 1.319.166 3.449-1.7 4.756s-4.124 1.3-5.05-.024" transform="translate(-25.467 -56.294)" style="fill:#3a9cda"/>
                <path data-name="패스 11050" d="M26.54 60.818c-.92-1.311-.164-3.426 1.687-4.724v.186h5.016v-.163c.919 1.311.164 3.426-1.687 4.724s-4.1 1.288-5.015-.024" transform="translate(-25.641 -56.407)" style="fill:#3b9dda"/>
                <path data-name="패스 11051" d="M26.739 60.915c-.913-1.3-.163-3.4 1.675-4.692v.17H33.4v-.147c.913 1.3.163 3.4-1.675 4.692s-4.068 1.279-4.981-.023" transform="translate(-25.818 -56.52)" style="fill:#3d9dda"/>
                <path data-name="패스 11052" d="M26.937 61.007c-.907-1.293-.162-3.379 1.664-4.66v.153h4.947v-.131c.907 1.293.162 3.379-1.664 4.66s-4.041 1.27-4.948-.023" transform="translate(-25.993 -56.629)" style="fill:#3e9eda"/>
                <path data-name="패스 11053" d="M27.139 61.1c-.9-1.284-.161-3.356 1.652-4.627v.138H33.7V56.5c.9 1.284.161 3.356-1.652 4.627s-4.013 1.261-4.913-.023" transform="translate(-26.171 -56.742)" style="fill:#3f9eda"/>
                <path data-name="패스 11054" d="M27.337 61.2c-.894-1.275-.16-3.332 1.641-4.595v.122h4.879v-.1c.894 1.275.16 3.333-1.64 4.595s-3.985 1.252-4.879-.023" transform="translate(-26.347 -56.854)" style="fill:#419fdb"/>
                <path data-name="패스 11055" d="M27.535 61.3c-.888-1.266-.159-3.31 1.629-4.563v.105h4.846v-.083c.888 1.267.158 3.31-1.629 4.563s-3.957 1.243-4.845-.023" transform="translate(-26.522 -56.967)" style="fill:#429fdb"/>
                <path data-name="패스 11056" d="M27.735 61.391c-.882-1.257-.157-3.286 1.618-4.531v.09h4.811v-.067c.882 1.257.157 3.286-1.618 4.531s-3.929 1.235-4.811-.022" transform="translate(-26.699 -57.076)" style="fill:#439fdb"/>
                <path data-name="패스 11057" d="M27.936 61.487c-.876-1.248-.156-3.263 1.606-4.5v.073h4.777v-.05c.876 1.248.157 3.263-1.606 4.5s-3.9 1.226-4.777-.022" transform="translate(-26.877 -57.188)" style="fill:#45a0db"/>
                <path data-name="패스 11058" d="M28.134 61.584c-.869-1.24-.155-3.239 1.595-4.467v.057h4.743v-.035c.869 1.239.155 3.239-1.595 4.466s-3.877 1.218-4.743-.021" transform="translate(-27.052 -57.301)" style="fill:#46a0dc"/>
                <path data-name="패스 11059" d="M28.332 61.68c-.863-1.231-.154-3.216 1.583-4.434v.041h4.709v-.019c.863 1.231.154 3.216-1.583 4.435s-3.846 1.208-4.709-.022" transform="translate(-27.228 -57.413)" style="fill:#47a1dc"/>
                <path data-name="패스 11060" d="M28.532 61.774c-.856-1.222-.153-3.193 1.572-4.4v.026h4.675c.856 1.222.153 3.193-1.572 4.4s-3.818 1.2-4.675-.022" transform="translate(-27.405 -57.523)" style="fill:#49a1dc"/>
                <path data-name="패스 11061" d="M28.732 57.287c-.851-1.212-.152-3.169 1.56-4.37v.009h3.8v-.671a2.021 2.021 0 0 1 .843.684c.85 1.213.152 3.169-1.561 4.37s-3.79 1.191-4.64-.022" transform="translate(-27.582 -53.052)" style="fill:#4aa2dc"/>
                <path data-name="패스 11062" d="M28.931 55.821c-.844-1.2-.151-3.146 1.549-4.338a5.109 5.109 0 0 1 1.318-.669v.662H33.1V50.6a2.348 2.348 0 0 1 1.982.909c.845 1.2.151 3.146-1.549 4.338s-3.762 1.182-4.606-.021" transform="translate(-27.758 -51.602)" style="fill:#4ca2dc"/>
                <path data-name="패스 11063" d="M29.128 55.961c-.838-1.195-.15-3.123 1.537-4.305a4.6 4.6 0 0 1 2.6-.882 2.33 2.33 0 0 1 1.968.9c.838 1.195.149 3.123-1.537 4.306s-3.734 1.174-4.572-.022" transform="translate(-27.932 -51.758)" style="fill:#4da3dd"/>
                <path data-name="패스 11064" d="M29.326 56.106c-.832-1.186-.148-3.1 1.526-4.274a4.567 4.567 0 0 1 2.585-.874 2.312 2.312 0 0 1 1.953.9c.832 1.186.148 3.1-1.526 4.274s-3.706 1.165-4.538-.021" transform="translate(-28.108 -51.919)" style="fill:#4ea3dd"/>
                <path data-name="패스 11065" d="M29.526 56.247c-.825-1.177-.147-3.076 1.515-4.242a4.528 4.528 0 0 1 2.566-.868 2.293 2.293 0 0 1 1.938.889c.826 1.177.148 3.076-1.514 4.241s-3.678 1.156-4.5-.021" transform="translate(-28.285 -52.076)" style="fill:#50a4dd"/>
                <path data-name="패스 11066" d="M29.725 56.387c-.819-1.168-.146-3.053 1.5-4.209a4.5 4.5 0 0 1 2.546-.861 2.275 2.275 0 0 1 1.929.883c.82 1.168.147 3.053-1.5 4.21s-3.651 1.147-4.47-.021" transform="translate(-28.462 -52.233)" style="fill:#51a4dd"/>
                <path data-name="패스 11067" d="M29.924 56.529c-.813-1.159-.145-3.03 1.491-4.178a4.461 4.461 0 0 1 2.527-.854 2.261 2.261 0 0 1 1.909.875c.813 1.16.145 3.03-1.491 4.178s-3.623 1.139-4.436-.021" transform="translate(-28.638 -52.39)" style="fill:#52a5de"/>
                <path data-name="패스 11068" d="M30.123 56.669c-.807-1.15-.144-3.006 1.48-4.145a4.427 4.427 0 0 1 2.507-.848 2.242 2.242 0 0 1 1.894.869c.807 1.15.144 3.006-1.48 4.145s-3.595 1.13-4.4-.021" transform="translate(-28.814 -52.546)" style="fill:#54a5de"/>
                <path data-name="패스 11069" d="M30.323 56.811c-.8-1.141-.143-2.983 1.469-4.113a4.4 4.4 0 0 1 2.488-.842 2.227 2.227 0 0 1 1.88.862c.8 1.141.143 2.983-1.469 4.113s-3.567 1.121-4.368-.02" transform="translate(-28.991 -52.704)" style="fill:#55a6de"/>
                <path data-name="패스 11070" d="M30.522 56.952c-.794-1.133-.142-2.96 1.457-4.081a4.362 4.362 0 0 1 2.468-.835 2.206 2.206 0 0 1 1.865.855c.794 1.132.142 2.959-1.457 4.081s-3.539 1.112-4.333-.02" transform="translate(-29.167 -52.861)" style="fill:#56a6de"/>
                <path data-name="패스 11071" d="M30.721 57.092c-.788-1.124-.141-2.936 1.446-4.049a4.324 4.324 0 0 1 2.449-.829 2.192 2.192 0 0 1 1.85.849c.788 1.124.14 2.936-1.446 4.049s-3.511 1.1-4.3-.02" transform="translate(-29.343 -53.017)" style="fill:#58a7df"/>
                <path data-name="패스 11072" d="M30.921 57.234c-.781-1.115-.139-2.913 1.434-4.017a4.294 4.294 0 0 1 2.429-.822 2.173 2.173 0 0 1 1.836.842c.782 1.115.14 2.913-1.434 4.017s-3.483 1.1-4.265-.02" transform="translate(-29.52 -53.175)" style="fill:#59a7df"/>
                <path data-name="패스 11073" d="M31.119 57.375c-.775-1.105-.138-2.889 1.423-3.984a4.258 4.258 0 0 1 2.41-.816 2.158 2.158 0 0 1 1.821.835c.775 1.106.139 2.89-1.423 3.984s-3.455 1.086-4.231-.02" transform="translate(-29.696 -53.332)" style="fill:#5aa8df"/>
                <path data-name="패스 11074" d="M31.318 57.515c-.77-1.1-.138-2.867 1.411-3.952a4.22 4.22 0 0 1 2.39-.809 2.139 2.139 0 0 1 1.806.828c.769 1.1.138 2.867-1.411 3.953s-3.427 1.077-4.2-.02" transform="translate(-29.872 -53.488)" style="fill:#5ca9df"/>
                <path data-name="패스 11075" d="M31.516 57.658c-.763-1.088-.137-2.843 1.4-3.921s3.4-1.069 4.162.02.136 2.843-1.4 3.92-3.4 1.069-4.163-.019" transform="translate(-30.047 -53.647)" style="fill:#5da9e0"/>
                <path data-name="패스 11076" d="M31.715 57.8c-.757-1.079-.135-2.82 1.388-3.888s3.372-1.06 4.128.019.135 2.82-1.388 3.888-3.372 1.06-4.128-.019" transform="translate(-30.224 -53.804)" style="fill:#5eaae0"/>
                <path data-name="패스 11077" d="M31.915 57.941c-.75-1.07-.134-2.8 1.377-3.856s3.344-1.051 4.095.019.134 2.8-1.377 3.856-3.344 1.051-4.095-.019" transform="translate(-30.4 -53.961)" style="fill:#60aae0"/>
                <path data-name="패스 11078" d="M32.115 58.082c-.744-1.061-.133-2.773 1.365-3.824s3.316-1.042 4.061.019.133 2.774-1.366 3.824-3.316 1.042-4.06-.019" transform="translate(-30.578 -54.119)" style="fill:#61abe0"/>
                <path data-name="패스 11079" d="M32.313 58.223c-.738-1.052-.132-2.75 1.354-3.792s3.288-1.034 4.026.019.132 2.75-1.354 3.792-3.288 1.034-4.026-.019" transform="translate(-30.753 -54.276)" style="fill:#62abe1"/>
                <path data-name="패스 11080" d="M32.512 58.364c-.732-1.043-.131-2.726 1.342-3.76s3.261-1.025 3.992.019.131 2.727-1.343 3.76-3.26 1.025-3.992-.019" transform="translate(-30.929 -54.433)" style="fill:#63ace1"/>
                <path data-name="패스 11081" d="M32.712 58.505c-.725-1.034-.129-2.7 1.331-3.728s3.233-1.015 3.957.023.13 2.7-1.331 3.728-3.233 1.016-3.958-.018" transform="translate(-31.106 -54.59)" style="fill:#65ace1"/>
                <path data-name="패스 11082" d="M32.909 58.647c-.719-1.025-.128-2.68 1.319-3.7s3.2-1.007 3.924.018.129 2.68-1.319 3.7-3.2 1.007-3.924-.019" transform="translate(-31.281 -54.748)" style="fill:#66ade1"/>
                <path data-name="패스 11083" d="M33.11 58.789c-.713-1.017-.128-2.657 1.308-3.664s3.176-1 3.889.018.128 2.657-1.307 3.664-3.177 1-3.89-.018" transform="translate(-31.459 -54.905)" style="fill:#68aee2"/>
                <path data-name="패스 11084" d="M33.308 58.93c-.707-1.008-.126-2.633 1.3-3.632s3.149-.989 3.856.018.126 2.633-1.3 3.631-3.149.989-3.856-.018" transform="translate(-31.634 -55.063)" style="fill:#68aee2"/>
                <path data-name="패스 11085" d="M33.508 59.071c-.7-1-.125-2.61 1.285-3.6s3.121-.981 3.822.018.125 2.61-1.285 3.6-3.121.981-3.822-.018" transform="translate(-31.811 -55.219)" style="fill:#6aafe2"/>
                <path data-name="패스 11086" d="M33.706 59.213c-.694-.99-.124-2.587 1.274-3.567s3.094-.972 3.788.017.124 2.587-1.274 3.567-3.094.972-3.788-.017" transform="translate(-31.987 -55.378)" style="fill:#6bafe2"/>
                <path data-name="패스 11087" d="M33.905 59.356c-.688-.981-.123-2.564 1.262-3.534s3.065-.963 3.753.017.123 2.563-1.262 3.535-3.065.963-3.753-.018" transform="translate(-32.163 -55.537)" style="fill:#6cb0e3"/>
                <path data-name="패스 11088" d="M34.1 59.495c-.682-.972-.122-2.54 1.25-3.5s3.038-.955 3.719.017.122 2.54-1.25 3.5-3.038.955-3.719-.017" transform="translate(-32.339 -55.692)" style="fill:#6eb0e3"/>
                <path data-name="패스 11089" d="M34.3 59.637c-.676-.963-.12-2.517 1.239-3.471s3.01-.946 3.685.017.121 2.517-1.239 3.47-3.01.946-3.685-.017" transform="translate(-32.515 -55.849)" style="fill:#6fb1e3"/>
                <path data-name="패스 11090" d="M34.5 59.779c-.669-.954-.119-2.493 1.228-3.438s2.982-.937 3.651.017.119 2.493-1.228 3.439-2.982.937-3.651-.017" transform="translate(-32.691 -56.007)" style="fill:#70b1e3"/>
                <path data-name="패스 11091" d="M34.7 59.92c-.663-.945-.119-2.47 1.216-3.407s2.954-.928 3.617.017.118 2.47-1.216 3.406-2.954.928-3.617-.017" transform="translate(-32.868 -56.164)" style="fill:#71b2e4"/>
                <path data-name="패스 11092" d="M34.9 60.06c-.657-.936-.117-2.447 1.2-3.374s2.926-.92 3.583.017.117 2.447-1.2 3.374-2.925.923-3.583-.017" transform="translate(-33.044 -56.321)" style="fill:#72b3e4"/>
                <path data-name="패스 11093" d="M35.1 60.2c-.65-.928-.116-2.424 1.193-3.342s2.9-.911 3.549.017.116 2.423-1.193 3.342-2.9.911-3.549-.016" transform="translate(-33.22 -56.479)" style="fill:#74b3e4"/>
                <path data-name="패스 11094" d="M35.3 60.343c-.644-.918-.115-2.4 1.182-3.31s2.87-.9 3.515.016.115 2.4-1.182 3.31-2.87.9-3.515-.016" transform="translate(-33.396 -56.636)" style="fill:#75b4e4"/>
                <path data-name="패스 11095" d="M35.5 60.485c-.638-.91-.114-2.377 1.17-3.277s2.842-.893 3.481.016.113 2.377-1.171 3.278-2.842.893-3.48-.016" transform="translate(-33.574 -56.794)" style="fill:#76b4e5"/>
                <path data-name="패스 11096" d="M35.7 60.626c-.632-.9-.113-2.353 1.159-3.245s2.814-.885 3.446.016.113 2.353-1.159 3.245-2.814.885-3.446-.016" transform="translate(-33.75 -56.951)" style="fill:#78b5e5"/>
                <path data-name="패스 11097" d="M35.9 60.767c-.625-.892-.111-2.33 1.147-3.213s2.787-.876 3.412.016.112 2.331-1.147 3.213-2.787.876-3.412-.016" transform="translate(-33.926 -57.108)" style="fill:#79b5e5"/>
                <path data-name="패스 11098" d="M36.094 60.909c-.619-.883-.11-2.307 1.136-3.181s2.759-.867 3.378.016.11 2.307-1.136 3.181-2.759.867-3.378-.016" transform="translate(-34.101 -57.265)" style="fill:#7ab6e5"/>
                <path data-name="패스 11099" d="M36.294 61.05c-.612-.874-.109-2.284 1.125-3.149s2.731-.858 3.343.016.11 2.284-1.124 3.149-2.731.858-3.344-.016" transform="translate(-34.278 -57.423)" style="fill:#7bb7e6"/>
                <path data-name="패스 11100" d="M36.493 61.19c-.607-.865-.108-2.261 1.113-3.117s2.7-.85 3.31.015.109 2.261-1.113 3.117-2.7.85-3.31-.015" transform="translate(-34.454 -57.579)" style="fill:#7cb7e6"/>
                <path data-name="패스 11101" d="M36.692 61.333c-.6-.856-.107-2.237 1.1-3.085s2.675-.841 3.275.015.107 2.237-1.1 3.085-2.675.841-3.275-.015" transform="translate(-34.63 -57.738)" style="fill:#7eb8e6"/>
                <path data-name="패스 11102" d="M36.89 61.474c-.594-.847-.106-2.214 1.09-3.053s2.647-.832 3.241.015.106 2.214-1.09 3.053-2.647.832-3.241-.015" transform="translate(-34.806 -57.895)" style="fill:#7fb8e6"/>
                <path data-name="패스 11103" d="M37.089 61.615c-.588-.838-.105-2.191 1.079-3.021s2.619-.823 3.207.015.1 2.19-1.079 3.02-2.619.823-3.207-.015" transform="translate(-34.982 -58.051)" style="fill:#80b9e7"/>
                <path data-name="패스 11104" d="M37.29 61.756c-.582-.829-.1-2.167 1.067-2.989s2.592-.815 3.173.015.1 2.168-1.067 2.989-2.592.815-3.173-.015" transform="translate(-35.16 -58.208)" style="fill:#81bae7"/>
                <path data-name="패스 11105" d="M37.489 61.9c-.576-.82-.1-2.144 1.056-2.956s2.563-.806 3.139.014.1 2.144-1.056 2.956-2.563.806-3.139-.014" transform="translate(-35.336 -58.365)" style="fill:#83bae7"/>
                <path data-name="패스 11106" d="M37.687 62.038c-.569-.812-.1-2.121 1.044-2.924s2.536-.8 3.1.014.1 2.121-1.044 2.924-2.536.8-3.1-.015" transform="translate(-35.511 -58.523)" style="fill:#84bbe7"/>
                <path data-name="패스 11107" d="M37.886 62.18c-.563-.8-.1-2.1 1.033-2.892s2.508-.788 3.071.014.1 2.1-1.033 2.892-2.508.788-3.071-.014" transform="translate(-35.687 -58.681)" style="fill:#85bbe8"/>
                <path data-name="패스 11108" d="M38.087 62.32c-.557-.794-.1-2.074 1.021-2.86s2.48-.78 3.036.014.1 2.074-1.021 2.86-2.48.78-3.036-.014" transform="translate(-35.865 -58.837)" style="fill:#86bce8"/>
                <path data-name="패스 11109" d="M38.285 62.462c-.55-.784-.1-2.051 1.009-2.828s2.453-.771 3 .014.1 2.051-1.01 2.828-2.452.771-3-.014" transform="translate(-36.041 -58.995)" style="fill:#87bde8"/>
                <path data-name="패스 11110" d="M38.484 62.6c-.544-.776-.1-2.027 1-2.8s2.424-.762 2.968.014.1 2.027-1 2.8-2.425.762-2.969-.014" transform="translate(-36.217 -59.153)" style="fill:#89bde8"/>
                <path data-name="패스 11111" d="M38.68 62.745c-.538-.767-.1-2 .987-2.764s2.4-.753 2.935.014.1 2-.987 2.764-2.4.753-2.934-.014" transform="translate(-36.391 -59.31)" style="fill:#8abee9"/>
                <path data-name="패스 11112" d="M38.881 62.887c-.532-.758-.1-1.981.975-2.732s2.368-.744 2.9.014.095 1.981-.975 2.731-2.369.745-2.9-.013" transform="translate(-36.569 -59.467)" style="fill:#8bbee9"/>
                <path data-name="패스 11113" d="M39.081 63.029c-.526-.749-.094-1.958.963-2.7s2.341-.736 2.866.013.094 1.957-.963 2.7-2.341.736-2.866-.013" transform="translate(-36.746 -59.625)" style="fill:#8cbfe9"/>
                <path data-name="패스 11114" d="M39.279 63.169c-.519-.74-.093-1.934.952-2.667s2.313-.727 2.832.013.093 1.934-.952 2.667-2.313.727-2.832-.013" transform="translate(-36.921 -59.781)" style="fill:#8dc0e9"/>
                <path data-name="패스 11115" d="M39.477 63.311c-.513-.731-.092-1.911.941-2.635s2.285-.718 2.8.013.091 1.911-.941 2.635-2.285.718-2.8-.013" transform="translate(-37.097 -59.94)" style="fill:#8fc0ea"/>
                <path data-name="패스 11116" d="M39.677 63.452c-.506-.722-.09-1.887.929-2.6s2.257-.71 2.764.013.091 1.888-.929 2.6-2.257.71-2.764-.013" transform="translate(-37.273 -60.096)" style="fill:#90c1ea"/>
                <path data-name="패스 11117" d="M39.878 63.594c-.5-.713-.089-1.865.918-2.571s2.23-.7 2.73.013.09 1.864-.918 2.57-2.23.7-2.73-.012" transform="translate(-37.451 -60.254)" style="fill:#91c1ea"/>
                <path data-name="패스 11118" d="M40.076 63.734c-.494-.7-.088-1.841.906-2.538s2.2-.692 2.7.012.088 1.841-.906 2.539-2.2.692-2.7-.013" transform="translate(-37.627 -60.411)" style="fill:#92c2ea"/>
                <path data-name="패스 11119" d="M40.275 63.876c-.488-.7-.087-1.818.895-2.507s2.173-.683 2.662.012.087 1.818-.895 2.507-2.174.683-2.662-.012" transform="translate(-37.803 -60.569)" style="fill:#94c2eb"/>
                <path data-name="패스 11120" d="M40.473 64.016c-.481-.686-.086-1.794.884-2.474s2.146-.674 2.628.012.086 1.794-.884 2.474-2.146.674-2.628-.012" transform="translate(-37.978 -60.725)" style="fill:#95c3eb"/>
                <path data-name="패스 11121" d="M40.674 64.159c-.475-.678-.085-1.771.872-2.442a1.89 1.89 0 0 1 2.593.012c.475.678.085 1.771-.872 2.442a1.89 1.89 0 0 1-2.593-.012" transform="translate(-38.156 -60.883)" style="fill:#96c4eb"/>
                <path data-name="패스 11122" d="M40.873 64.3c-.469-.669-.084-1.748.86-2.41a1.864 1.864 0 0 1 2.559.012c.469.669.084 1.747-.86 2.41a1.865 1.865 0 0 1-2.559-.012" transform="translate(-38.332 -61.039)" style="fill:#98c4eb"/>
                <path data-name="패스 11123" d="M41.071 64.44c-.462-.66-.083-1.724.849-2.378a1.84 1.84 0 0 1 2.525.012c.463.66.082 1.725-.849 2.378a1.84 1.84 0 0 1-2.525-.012" transform="translate(-38.508 -61.197)" style="fill:#99c5ec"/>
                <path data-name="패스 11124" d="M41.268 64.582c-.457-.651-.081-1.7.838-2.346a1.815 1.815 0 0 1 2.491.012c.456.651.081 1.7-.838 2.346a1.816 1.816 0 0 1-2.491-.011" transform="translate(-38.683 -61.355)" style="fill:#9ac6ec"/>
                <path data-name="패스 11125" d="M41.47 64.723c-.451-.642-.08-1.678.826-2.313a1.79 1.79 0 0 1 2.456.011c.451.642.081 1.678-.826 2.313a1.79 1.79 0 0 1-2.456-.011" transform="translate(-38.861 -61.511)" style="fill:#9bc6ec"/>
                <path data-name="패스 11126" d="M41.668 64.865c-.444-.633-.08-1.655.815-2.281a1.764 1.764 0 0 1 2.422.011c.444.633.079 1.654-.815 2.281a1.765 1.765 0 0 1-2.422-.011" transform="translate(-39.036 -61.669)" style="fill:#9dc7ec"/>
                <path data-name="패스 11127" d="M41.866 65.006c-.438-.624-.078-1.631.8-2.249a1.74 1.74 0 0 1 2.388.011c.438.624.078 1.631-.8 2.249a1.74 1.74 0 0 1-2.388-.011" transform="translate(-39.212 -61.826)" style="fill:#9ec8ed"/>
                <path data-name="패스 11128" d="M42.066 65.146c-.431-.615-.077-1.608.792-2.217a1.715 1.715 0 0 1 2.354.011c.431.615.077 1.608-.792 2.217a1.715 1.715 0 0 1-2.354-.011" transform="translate(-39.389 -61.982)" style="fill:#9fc8ed"/>
                <path data-name="패스 11129" d="M42.266 65.288c-.426-.606-.076-1.584.78-2.185a1.691 1.691 0 0 1 2.32.011c.425.606.076 1.585-.78 2.185a1.69 1.69 0 0 1-2.32-.011" transform="translate(-39.566 -62.141)" style="fill:#a0c9ed"/>
                <path data-name="패스 11130" d="M42.465 65.43c-.419-.6-.075-1.562.769-2.153a1.665 1.665 0 0 1 2.286.01c.419.6.075 1.562-.769 2.153a1.665 1.665 0 0 1-2.286-.011" transform="translate(-39.742 -62.298)" style="fill:#a2caed"/>
                <path data-name="패스 11131" d="M42.663 65.571c-.413-.589-.074-1.538.757-2.121a1.641 1.641 0 0 1 2.252.011c.413.588.073 1.538-.757 2.121a1.641 1.641 0 0 1-2.252-.01" transform="translate(-39.917 -62.455)" style="fill:#a3caee"/>
                <path data-name="패스 11132" d="M42.862 65.711c-.406-.579-.072-1.515.746-2.089a1.616 1.616 0 0 1 2.218.01c.406.58.073 1.515-.746 2.089a1.616 1.616 0 0 1-2.218-.01" transform="translate(-40.094 -62.612)" style="fill:#a4cbee"/>
                <path data-name="패스 11133" d="M43.061 65.854c-.4-.571-.071-1.491.735-2.057a1.591 1.591 0 0 1 2.183.01c.4.571.072 1.492-.734 2.057a1.591 1.591 0 0 1-2.184-.01" transform="translate(-40.27 -62.77)" style="fill:#a5ccee"/>
                <path data-name="패스 11134" d="M43.262 66c-.394-.562-.071-1.468.723-2.024a1.566 1.566 0 0 1 2.149.01c.394.562.07 1.468-.723 2.025A1.566 1.566 0 0 1 43.262 66" transform="translate(-40.447 -62.928)" style="fill:#a7ccee"/>
                <path data-name="패스 11135" d="M43.458 66.136c-.388-.553-.07-1.445.711-1.992a1.542 1.542 0 0 1 2.115.01c.388.553.069 1.445-.711 1.992a1.541 1.541 0 0 1-2.115-.01" transform="translate(-40.622 -63.084)" style="fill:#a8cdef"/>
                <path data-name="패스 11136" d="M43.659 66.277c-.381-.544-.068-1.422.7-1.96a1.516 1.516 0 0 1 2.081.01c.382.544.068 1.422-.7 1.96a1.516 1.516 0 0 1-2.081-.009" transform="translate(-40.799 -63.241)" style="fill:#a9ceef"/>
                <path data-name="패스 11137" d="M43.857 66.419c-.375-.535-.067-1.4.689-1.928a1.492 1.492 0 0 1 2.047.009c.375.535.067 1.4-.689 1.928a1.492 1.492 0 0 1-2.047-.009" transform="translate(-40.974 -63.399)" style="fill:#abceef"/>
                <path data-name="패스 11138" d="M44.056 66.562c-.369-.526-.066-1.375.676-1.9a1.468 1.468 0 0 1 2.013.009c.369.527.066 1.375-.677 1.9a1.467 1.467 0 0 1-2.013-.009" transform="translate(-41.151 -63.558)" style="fill:#accfef"/>
                <path data-name="패스 11139" d="M44.255 66.7c-.363-.517-.065-1.351.666-1.864a1.442 1.442 0 0 1 1.979.009c.363.517.065 1.351-.665 1.864a1.442 1.442 0 0 1-1.979-.009" transform="translate(-41.327 -63.715)" style="fill:#add0f0"/>
                <path data-name="패스 11140" d="M44.454 66.842c-.356-.508-.064-1.328.654-1.832a1.417 1.417 0 0 1 1.945.009c.356.508.064 1.329-.654 1.832a1.417 1.417 0 0 1-1.945-.009" transform="translate(-41.504 -63.87)" style="fill:#aed0f0"/>
                <path data-name="패스 11141" d="M44.653 66.984c-.35-.5-.062-1.3.642-1.8a1.392 1.392 0 0 1 1.911.009c.35.5.063 1.305-.642 1.8a1.393 1.393 0 0 1-1.911-.009" transform="translate(-41.68 -64.029)" style="fill:#b0d1f0"/>
                <path data-name="패스 11142" d="M44.853 67.127c-.344-.491-.062-1.281.631-1.768a1.368 1.368 0 0 1 1.877.009c.344.491.062 1.282-.631 1.768a1.367 1.367 0 0 1-1.877-.009" transform="translate(-41.857 -64.187)" style="fill:#b1d2f1"/>
                <path data-name="패스 11143" d="M45.052 67.267c-.338-.482-.061-1.259.619-1.736a1.343 1.343 0 0 1 1.843.009c.338.481.06 1.258-.619 1.735a1.343 1.343 0 0 1-1.843-.008" transform="translate(-42.033 -64.343)" style="fill:#b2d2f1"/>
                <path data-name="패스 11144" d="M45.251 67.409c-.331-.472-.059-1.235.608-1.7a1.318 1.318 0 0 1 1.809.008c.331.473.059 1.235-.608 1.7a1.318 1.318 0 0 1-1.809-.008" transform="translate(-42.209 -64.501)" style="fill:#b3d3f1"/>
                <path data-name="패스 11145" d="M45.45 67.55c-.325-.464-.058-1.212.6-1.671a1.293 1.293 0 0 1 1.774.008c.325.464.058 1.212-.6 1.67a1.293 1.293 0 0 1-1.775-.008" transform="translate(-42.385 -64.658)" style="fill:#b5d4f1"/>
                <path data-name="패스 11146" d="M45.65 67.691c-.319-.455-.057-1.188.585-1.639a1.268 1.268 0 0 1 1.741.008c.318.455.057 1.188-.585 1.639a1.268 1.268 0 0 1-1.74-.008" transform="translate(-42.563 -64.815)" style="fill:#b6d4f1"/>
                <path data-name="패스 11147" d="M45.848 67.832c-.313-.446-.056-1.165.573-1.607a1.244 1.244 0 0 1 1.706.008c.313.446.056 1.166-.573 1.607a1.243 1.243 0 0 1-1.706-.008" transform="translate(-42.738 -64.972)" style="fill:#b7d5f2"/>
                <path data-name="패스 11148" d="M46.046 67.975c-.307-.437-.055-1.142.562-1.574a1.219 1.219 0 0 1 1.672.008c.306.437.055 1.142-.562 1.574a1.218 1.218 0 0 1-1.672-.008" transform="translate(-42.913 -65.131)" style="fill:#b8d6f2"/>
                <path data-name="패스 11149" d="M46.245 68.114c-.3-.428-.053-1.119.551-1.542a1.194 1.194 0 0 1 1.638.007c.3.428.054 1.119-.551 1.543a1.194 1.194 0 0 1-1.638-.008" transform="translate(-43.089 -65.286)" style="fill:#b9d6f2"/>
                <path data-name="패스 11150" d="M46.444 68.257c-.294-.419-.052-1.1.539-1.511a1.168 1.168 0 0 1 1.6.008c.294.419.053 1.1-.539 1.51a1.169 1.169 0 0 1-1.6-.007" transform="translate(-43.265 -65.444)" style="fill:#bbd7f2"/>
                <path data-name="패스 11151" d="M46.644 68.4c-.288-.41-.052-1.072.528-1.478a1.144 1.144 0 0 1 1.569.007c.288.41.051 1.072-.528 1.478a1.143 1.143 0 0 1-1.569-.007" transform="translate(-43.442 -65.602)" style="fill:#bcd8f3"/>
                <path data-name="패스 11152" d="M46.843 68.539c-.281-.4-.05-1.049.516-1.446a1.119 1.119 0 0 1 1.535.007c.281.4.05 1.049-.516 1.446a1.119 1.119 0 0 1-1.535-.007" transform="translate(-43.619 -65.759)" style="fill:#bdd9f3"/>
                <path data-name="패스 11153" d="M47.042 68.68c-.275-.392-.049-1.025.5-1.414a1.094 1.094 0 0 1 1.5.007c.275.393.049 1.025-.5 1.414a1.094 1.094 0 0 1-1.5-.007" transform="translate(-43.795 -65.916)" style="fill:#bed9f3"/>
                <path data-name="패스 11154" d="M47.24 68.822c-.269-.384-.048-1 .494-1.382a1.07 1.07 0 0 1 1.467.006c.269.384.048 1-.494 1.382a1.069 1.069 0 0 1-1.467-.007" transform="translate(-43.971 -66.074)" style="fill:#bfdaf3"/>
                <path data-name="패스 11155" d="M47.441 68.962c-.263-.375-.047-.979.482-1.35a1.044 1.044 0 0 1 1.433.007c.263.374.047.979-.482 1.35a1.044 1.044 0 0 1-1.433-.006" transform="translate(-44.148 -66.23)" style="fill:#c1daf4"/>
                <path data-name="패스 11156" d="M47.639 69.1c-.256-.365-.046-.956.47-1.318a1.02 1.02 0 0 1 1.4.006c.256.366.046.956-.47 1.318a1.02 1.02 0 0 1-1.4-.006" transform="translate(-44.324 -66.388)" style="fill:#c2dbf4"/>
                <path data-name="패스 11157" d="M47.839 69.246c-.25-.357-.044-.932.459-1.285a.994.994 0 0 1 1.365.006c.25.356.045.932-.459 1.285a1 1 0 0 1-1.365-.006" transform="translate(-44.5 -66.546)" style="fill:#c3dcf4"/>
                <path data-name="패스 11158" d="M48.037 69.386c-.244-.348-.043-.909.448-1.253a.97.97 0 0 1 1.331.006c.244.348.043.909-.448 1.253a.97.97 0 0 1-1.331-.006" transform="translate(-44.676 -66.702)" style="fill:#c4dcf4"/>
                <path data-name="패스 11159" d="M48.237 69.528c-.238-.339-.043-.886.436-1.221a.944.944 0 0 1 1.3.006c.238.339.042.886-.436 1.221a.945.945 0 0 1-1.3-.006" transform="translate(-44.853 -66.859)" style="fill:#c5ddf5"/>
                <path data-name="패스 11160" d="M48.436 69.669c-.231-.33-.041-.862.424-1.189a.919.919 0 0 1 1.262.006c.232.33.041.862-.424 1.189a.92.92 0 0 1-1.262-.006" transform="translate(-45.03 -67.017)" style="fill:#c7def5"/>
                <path data-name="패스 11161" d="M48.634 69.81c-.225-.321-.04-.839.413-1.157a.9.9 0 0 1 1.228.005c.225.321.04.839-.413 1.157a.9.9 0 0 1-1.228-.005" transform="translate(-45.205 -67.174)" style="fill:#c8dff5"/>
                <path data-name="패스 11162" d="M48.832 69.953c-.219-.312-.039-.816.4-1.124a.87.87 0 0 1 1.194.005c.219.312.039.816-.4 1.125a.87.87 0 0 1-1.194-.006" transform="translate(-45.38 -67.333)" style="fill:#c9dff5"/>
                <path data-name="패스 11163" d="M49.033 70.092c-.213-.3-.039-.792.39-1.093a.845.845 0 0 1 1.16.005c.213.3.037.792-.39 1.093a.845.845 0 0 1-1.16-.005" transform="translate(-45.557 -67.488)" style="fill:#cae0f6"/>
                <path data-name="패스 11164" d="M49.232 70.236c-.207-.294-.037-.769.379-1.061a.82.82 0 0 1 1.126.005c.207.294.037.769-.379 1.06a.82.82 0 0 1-1.126 0" transform="translate(-45.734 -67.647)" style="fill:#cbe1f6"/>
                <path data-name="패스 11165" d="M49.43 70.376c-.2-.286-.035-.745.367-1.028a.8.8 0 0 1 1.092.005c.2.285.036.745-.367 1.028a.8.8 0 0 1-1.092-.005" transform="translate(-45.91 -67.804)" style="fill:#cde2f6"/>
                <path data-name="패스 11166" d="M49.629 70.517c-.194-.277-.034-.722.356-1a.771.771 0 0 1 1.058.005c.194.277.035.723-.356 1a.771.771 0 0 1-1.058 0" transform="translate(-46.086 -67.96)" style="fill:#cee2f7"/>
                <path data-name="패스 11167" d="M49.828 70.658c-.187-.267-.034-.7.344-.964a.746.746 0 0 1 1.024 0c.188.268.034.7-.344.964a.746.746 0 0 1-1.024 0" transform="translate(-46.262 -68.118)" style="fill:#cfe3f7"/>
                <path data-name="패스 11168" d="M50.028 70.8c-.181-.258-.033-.676.333-.932a.721.721 0 0 1 .989 0c.181.259.032.676-.332.932a.721.721 0 0 1-.99 0" transform="translate(-46.439 -68.276)" style="fill:#d0e4f7"/>
                <path data-name="패스 11169" d="M50.227 70.941c-.175-.25-.031-.653.321-.9a.7.7 0 0 1 .956 0c.175.25.032.652-.321.9a.7.7 0 0 1-.955 0" transform="translate(-46.615 -68.432)" style="fill:#d2e4f7"/>
                <path data-name="패스 11170" d="M50.426 71.083c-.169-.241-.03-.629.31-.867a.672.672 0 0 1 .922 0c.169.241.03.629-.31.868a.672.672 0 0 1-.922 0" transform="translate(-46.792 -68.59)" style="fill:#d3e5f8"/>
                <path data-name="패스 11171" d="M50.624 71.224c-.162-.232-.029-.606.3-.836a.647.647 0 0 1 .888 0c.162.232.028.606-.3.835a.647.647 0 0 1-.887 0" transform="translate(-46.967 -68.747)" style="fill:#d4e6f8"/>
                <path data-name="패스 11172" d="M50.824 71.365c-.157-.223-.028-.582.287-.8a.621.621 0 0 1 .853 0c.156.223.028.583-.286.8a.621.621 0 0 1-.853 0" transform="translate(-47.143 -68.904)" style="fill:#d5e6f8"/>
                <path data-name="패스 11173" d="M51.025 71.506c-.15-.214-.027-.559.275-.771a.6.6 0 0 1 .819 0c.15.214.027.56-.275.772a.6.6 0 0 1-.819 0" transform="translate(-47.321 -69.062)" style="fill:#d7e7f8"/>
                <path data-name="패스 11174" d="M51.221 71.648c-.144-.205-.026-.536.264-.739a.572.572 0 0 1 .785 0c.144.205.026.536-.264.739a.572.572 0 0 1-.785 0" transform="translate(-47.495 -69.22)" style="fill:#d8e8f9"/>
                <path data-name="패스 11175" d="M51.419 71.788c-.138-.2-.025-.513.252-.707a.547.547 0 0 1 .751 0c.138.2.024.513-.252.707a.547.547 0 0 1-.751 0" transform="translate(-47.671 -69.375)" style="fill:#d9e9f9"/>
                <path data-name="패스 11176" d="M51.619 71.93c-.131-.187-.023-.489.241-.675a.522.522 0 0 1 .716 0c.132.187.024.489-.241.674a.523.523 0 0 1-.717 0" transform="translate(-47.848 -69.534)" style="fill:#dae9f9"/>
                <path data-name="패스 11177" d="M51.819 72.07c-.125-.178-.022-.466.229-.642a.5.5 0 0 1 .683 0c.125.178.023.466-.229.642a.5.5 0 0 1-.682 0" transform="translate(-48.025 -69.69)" style="fill:#dceaf9"/>
                <path data-name="패스 11178" d="M52.018 72.213c-.119-.17-.021-.443.218-.611a.472.472 0 0 1 .648 0c.119.169.021.443-.218.61a.473.473 0 0 1-.648 0" transform="translate(-48.201 -69.848)" style="fill:#ddebfa"/>
                <path data-name="패스 11179" d="M52.216 72.353c-.112-.16-.02-.42.207-.578a.448.448 0 0 1 .614 0c.112.161.02.42-.207.578a.448.448 0 0 1-.614 0" transform="translate(-48.377 -70.005)" style="fill:#deecfa"/>
                <path data-name="패스 11180" d="M52.417 72.494c-.107-.152-.019-.4.195-.546a.423.423 0 0 1 .58 0c.106.152.019.4-.2.546a.422.422 0 0 1-.58 0" transform="translate(-48.554 -70.162)" style="fill:#dfecfa"/>
                <path data-name="패스 11181" d="M52.616 72.637c-.1-.143-.018-.373.183-.514a.4.4 0 0 1 .546 0c.1.143.018.373-.183.514a.4.4 0 0 1-.546 0" transform="translate(-48.731 -70.321)" style="fill:#e0edfa"/>
                <path data-name="패스 11182" d="M52.815 72.778c-.094-.134-.017-.35.172-.482a.373.373 0 0 1 .512 0c.094.134.017.35-.172.482a.373.373 0 0 1-.512 0" transform="translate(-48.907 -70.477)" style="fill:#e2eefb"/>
                <path data-name="패스 11183" d="M53.013 72.918c-.087-.125-.016-.326.161-.45a.348.348 0 0 1 .478 0c.087.125.015.326-.161.45a.348.348 0 0 1-.478 0" transform="translate(-49.082 -70.633)" style="fill:#e3effb"/>
                <path data-name="패스 11184" d="M53.212 73.06c-.081-.116-.014-.3.149-.418a.323.323 0 0 1 .443 0c.082.116.015.3-.149.418a.324.324 0 0 1-.444 0" transform="translate(-49.258 -70.791)" style="fill:#e4f0fb"/>
                <path data-name="패스 11185" d="M53.412 73.2c-.075-.107-.013-.28.138-.386a.3.3 0 0 1 .409 0c.075.108.014.28-.138.386a.3.3 0 0 1-.409 0" transform="translate(-49.435 -70.95)" style="fill:#e5f0fb"/>
                <path data-name="패스 11186" d="M53.609 73.343c-.069-.1-.012-.256.126-.354a.273.273 0 0 1 .375 0c.069.1.012.256-.126.354a.273.273 0 0 1-.375 0" transform="translate(-49.61 -71.106)" style="fill:#e7f1fb"/>
                <path data-name="패스 11187" d="M53.808 73.484c-.063-.089-.011-.233.115-.321a.249.249 0 0 1 .341 0c.063.089.011.233-.115.321a.249.249 0 0 1-.341 0" transform="translate(-49.786 -71.263)" style="fill:#e8f2fc"/>
                <path data-name="패스 11188" d="M54.008 73.627c-.056-.08-.01-.21.1-.289a.224.224 0 0 1 .307 0c.056.08.01.21-.1.289a.224.224 0 0 1-.307 0" transform="translate(-49.963 -71.422)" style="fill:#e9f2fc"/>
                <path data-name="패스 11189" d="M54.208 73.767c-.05-.071-.009-.186.092-.257a.2.2 0 0 1 .273 0c.05.071.009.186-.092.257a.2.2 0 0 1-.273 0" transform="translate(-50.14 -71.579)" style="fill:#eaf3fc"/>
                <path data-name="패스 11190" d="M54.407 73.909c-.044-.063-.008-.163.08-.225a.174.174 0 0 1 .239 0c.044.062.008.163-.08.225a.174.174 0 0 1-.239 0" transform="translate(-50.316 -71.736)" style="fill:#ecf4fc"/>
                <path data-name="패스 11191" d="M54.605 74.051c-.037-.053-.007-.139.069-.193a.15.15 0 0 1 .2 0c.037.054.006.14-.069.193a.148.148 0 0 1-.2 0" transform="translate(-50.492 -71.894)" style="fill:#edf4fc"/>
                <path data-name="패스 11192" d="M54.8 74.191a.148.148 0 0 1 .228-.16c.031.044.005.116-.058.16a.124.124 0 0 1-.171 0" transform="translate(-50.668 -72.05)" style="fill:#eef5fd"/>
                <path data-name="패스 11193" d="M55 74.333c-.025-.035 0-.093.046-.128a.1.1 0 0 1 .136 0c.025.036 0 .093-.046.129a.1.1 0 0 1-.137 0" transform="translate(-50.845 -72.208)" style="fill:#eff6fd"/>
                <path data-name="패스 11194" d="M55.2 74.473c-.019-.027 0-.07.034-.1a.075.075 0 0 1 .1 0c.019.027 0 .07-.034.1a.074.074 0 0 1-.1 0" transform="translate(-51.022 -72.365)" style="fill:#f1f7fd"/>
                <path data-name="패스 11195" d="M55.4 74.614c-.012-.018 0-.046.023-.064a.049.049 0 0 1 .068 0c.012.018 0 .046-.023.064s-.056.018-.068 0" transform="translate(-51.197 -72.522)" style="fill:#f2f7fd"/>
                <path data-name="패스 11196" d="M55.6 74.756a.03.03 0 1 1 .034 0 .025.025 0 0 1-.034 0" transform="translate(-51.373 -72.68)" style="fill:#f3f8fd"/>
            </g>
        </g>
        <g data-name="그룹 3406">
            <g data-name="그룹 3405" style="clip-path:url(#urk30ndogd)" transform="translate(8.23)">
                <path data-name="사각형 2452" style="fill:url(#se36ywv5ve)" d="M0 0h4.995v13.641H0z"/>
            </g>
        </g>
        <g data-name="그룹 3421">
            <g data-name="그룹 3420" style="clip-path:url(#c1yzj27w2b)">
                <g data-name="그룹 3411" style="isolation:isolate;mix-blend-mode:multiply">
                    <g data-name="그룹 3410">
                        <g data-name="그룹 3409" style="clip-path:url(#rfozpbk2pf)" transform="translate(0 1.723)">
                            <g data-name="그룹 3408">
                                <g data-name="그룹 3407" style="clip-path:url(#sqa4ldb3hg)">
                                    <path data-name="사각형 2453" transform="translate(-.311)" style="fill:url(#onj80yx9da)" d="M0 0h10.578v12.486H0z"/>
                                </g>
                            </g>
                        </g>
                    </g>
                </g>
                <g data-name="그룹 3416" style="mix-blend-mode:screen;isolation:isolate">
                    <g data-name="그룹 3415">
                        <g data-name="그룹 3414" style="clip-path:url(#rfozpbk2pf)" transform="translate(0 1.723)">
                            <g data-name="그룹 3413">
                                <g data-name="그룹 3412" style="clip-path:url(#sqa4ldb3hg)">
                                    <path data-name="사각형 2455" transform="translate(-.311)" style="fill:url(#aj4ffgfi7h)" d="M0 0h10.578v12.486H0z"/>
                                </g>
                            </g>
                        </g>
                    </g>
                </g>
                <g data-name="그룹 3419" style="isolation:isolate;mix-blend-mode:multiply">
                    <g data-name="그룹 3418">
                        <g data-name="그룹 3417" style="clip-path:url(#gmzhcbxqfi)" transform="translate(6.583 9.136)">
                            <path data-name="패스 11201" d="M55.174 75.695a6.865 6.865 0 0 0-.038-3.316 4.443 4.443 0 0 1-2.884 2.665l-.1.015a6.2 6.2 0 0 1 .448 2.055 9.863 9.863 0 0 0 2.576-1.42" transform="translate(-52.15 -72.379)" style="fill:#0082cb"/>
                        </g>
                    </g>
                </g>
                <path data-name="패스 11202" d="M122.832 33.308v6.273c0 .672-1.1.771-1.753.771a2.923 2.923 0 0 1-.841-.112v-2.8l-1.4.089v2.053c0 .672-1.1.771-1.748.771a2.925 2.925 0 0 1-.841-.112v-6.274c0-.677 1.1-.771 1.748-.771a2.917 2.917 0 0 1 .841.112v2.559l1.4-.085v-1.815c0-.677 1.1-.771 1.753-.771a2.92 2.92 0 0 1 .841.112" transform="translate(-101.572 -29.006)" style="fill:#002970"/>
                <path data-name="패스 11203" d="M182.141 33.308v6.273c0 .672-1.1.771-1.748.771a2.924 2.924 0 0 1-.841-.112v-6.273c0-.677 1.1-.771 1.753-.771a2.908 2.908 0 0 1 .837.112" transform="translate(-156.887 -29.006)" style="fill:#002970"/>
                <path data-name="패스 11204" d="m208.038 35.142-1.546.143a5.273 5.273 0 0 1-.092-1.014c0-.8.4-1 1.365-1.019l4.5-.055a3.914 3.914 0 0 1 .084.821c0 .83-.295 1.084-1.044 1.084h-.674v4.481c0 .672-1.1.771-1.748.771a2.921 2.921 0 0 1-.841-.112z" transform="translate(-180.347 -29.006)" style="fill:#002970"/>
                <path data-name="패스 11205" d="M264.568 33.267a4.823 4.823 0 0 1 .061.726c0 .793-.383.968-1.4.968h-1.423v1.049l2.563-.112a3.376 3.376 0 0 1 .044.506c0 .847-.247 1.129-1.361 1.129h-1.246v1.1l2.841-.143a2.973 2.973 0 0 1 .035.475c0 .9-.273 1.322-1.242 1.322h-4.236v-6c0-.807.339-.941 1.33-.959z" transform="translate(-226.486 -29.068)" style="fill:#002970"/>
                <path data-name="패스 11206" d="M346.041 33.308v6.273c0 .672-1.1.771-1.749.771a2.925 2.925 0 0 1-.841-.112v-6.273c0-.677 1.1-.771 1.753-.771a2.909 2.909 0 0 1 .837.112" transform="translate(-300.099 -29.006)" style="fill:#0082cb"/>
                <path data-name="패스 11207" d="M381.671 34.589v5.026c0 .672-1.1.771-1.748.771a2.923 2.923 0 0 1-.841-.112V35.25c0-.428-.32-.546-.646-.546a1.718 1.718 0 0 0-.757.184v4.727c0 .672-1.1.771-1.748.771a2.923 2.923 0 0 1-.841-.112V34.04c0-.717 1-.8 1.687-.8a3.84 3.84 0 0 1 .656.041l.057.569a5.038 5.038 0 0 1 2.518-.614c.846 0 1.665.4 1.665 1.355" transform="translate(-327.742 -29.039)" style="fill:#0082cb"/>
                <path data-name="패스 11208" d="M440.948 35.427c0-.586.714-.66 1.615-.617.423.02.771-.963.812-1.618a3.86 3.86 0 0 0 0-.487 5.413 5.413 0 0 0-.609-.014 2.352 2.352 0 0 0-2.1 1.289l-.18-1.208a3.493 3.493 0 0 0-.371-.02c-.656 0-1.753.094-1.753.771V39.8a2.924 2.924 0 0 0 .841.112c.652 0 1.748-.1 1.748-.771z" transform="translate(-383.027 -28.563)" style="fill:#0082cb"/>
                <path data-name="패스 11209" d="M484.479 39.215a5.193 5.193 0 0 1-2.391.484 2.86 2.86 0 0 1-1.33-.273c-.986-.538-1.3-1.752-1.3-3.446 0-1.389.207-2.635 1.3-3.293a5.224 5.224 0 0 1 2.427-.484 2.621 2.621 0 0 1 1.295.273c1.017.524 1.3 1.73 1.3 3.446 0 1.385-.207 2.635-1.3 3.293m-1.828-5.408a1.065 1.065 0 0 0-.577.166 9.911 9.911 0 0 0-.128 2c0 1.649.075 2.124.643 2.124a1.031 1.031 0 0 0 .577-.17 10.024 10.024 0 0 0 .124-1.994c0-1.653-.066-2.124-.639-2.124" transform="translate(-418.938 -28.138)" style="fill:#0082cb"/>
                <path data-name="패스 11210" d="M302.088 33.857v6.331l-.046.029a3.41 3.41 0 0 0-.81.726 2.466 2.466 0 0 0-.513 1.607h.186a4.544 4.544 0 0 0 2.413-.591 2.767 2.767 0 0 0 1.381-2.719v-6.112a2.585 2.585 0 0 0-.833-.116c-.665 0-1.779.11-1.779.845" transform="translate(-262.758 -28.845)" style="fill:#0082cb"/>
            </g>
        </g>
    </g>
</svg>
