<svg xmlns="http://www.w3.org/2000/svg" width="250" height="80" viewBox="0 0 250 80">
    <defs>
        <clipPath id="rptuuimnta">
            <path data-name="사각형 2583" style="fill:none" d="M0 0h175.51v33.752H0z"/>
        </clipPath>
    </defs>
    <g data-name="그룹 3815">
        <path data-name="사각형 2638" style="fill:none" d="M0 0h250v80H0z"/>
        <g data-name="그룹 3814">
            <g data-name="그룹 3704">
                <g data-name="그룹 3703" transform="translate(37 23)" style="clip-path:url(#rptuuimnta)">
                    <path data-name="패스 19861" d="M141.312 23.609a6.53 6.53 0 0 0 .071-.688 7.425 7.425 0 0 0-.013-.943 40.721 40.721 0 0 1-5.988.945c-.321.027-.62.045-.9.045-1.792 0-2.589-.712-2.253-2.64.086-.489.269-1.518.483-2.753l.011-.071h5.552l.629-3.568h-5.556l.013-.071c.4-2.3.751-4.292.751-4.3l.013-.071h7.433l.627-3.567h-11.61l-2.663 15.1c-.8 4.589 2.254 5.386 5.115 5.395.318 0 .632-.009.94-.023a31.569 31.569 0 0 0 4.773-.569c1.755-.381 2.363-1.091 2.572-2.223" transform="translate(-7.766 -.36)" style="fill:#4aa335"/>
                    <path data-name="패스 19862" d="M105.937 23.29c-1.927 0-2.922-.815-2.531-3.048.176-1 .284-1.616.352-1.989s.087-.5.087-.5c.05-.291.067-.42.067-.42l.009-.075h5.507c3.7-.011 4.708-2.056 5.041-3.863l1.324-7.528h-13.861l-.632 3.58h9.635l-.629 3.573a.938.938 0 0 1-1.064.9h-8.919l-1.306 7.406c-.772 4.388 2.3 5.489 5.386 5.5h.337a50.977 50.977 0 0 0 9.342-.967 3.208 3.208 0 0 0 2.082-1.164l.129.031-.793 4.507c-.321 1.9.181 2.862 2 2.872h1.721L124 4.979h-4.232c-.157.9-1.774 10.079-2.98 16.917l-.011.055-.057.013a50.48 50.48 0 0 1-10.505 1.319c-.1 0-.193.007-.281.007" transform="translate(-6.01 -.303)" style="fill:#4aa335"/>
                    <path data-name="패스 19863" d="M141.129 17.407h3.345l-2.084 11.822c-.321 1.9.181 2.862 2 2.872h1.47l4.783-27.122h-3.981l-1.554 8.82-.012.071h-3.345z" transform="translate(-8.577 -.303)" style="fill:#4aa335"/>
                    <path data-name="패스 19864" d="M151.079 32.1h1.721l4.78-27.121h-4.232c-.241 1.383-3.948 22.394-4.275 24.25-.322 1.9.183 2.862 2.007 2.872" transform="translate(-9.055 -.303)" style="fill:#4aa335"/>
                    <path data-name="패스 19865" d="M167.074 18.742c5.185-.006 8.16-2.7 8.963-7.217s-1.236-7.209-6.418-7.22c-5.1.01-8.1 2.7-8.9 7.22-.784 4.512 1.266 7.211 6.359 7.217M169 7.841c2.541 0 3.5 1.421 3.1 3.684a4.089 4.089 0 0 1-4.394 3.652c-2.443 0-3.4-1.4-3.009-3.652A4.1 4.1 0 0 1 169 7.841" transform="translate(-9.758 -.262)" style="fill:#4aa335"/>
                    <path data-name="패스 19866" d="m166.964 30.278.113-.608h9.97c3.505-.013 4.439-1.384 4.817-3.446l.861-4.885h-18.364l-.591 3.368h14.193l-.013.073-.132.752c-.085.468-.258.926-.973.929h-13.4l-.541 3.065c-.742 4.269 1.364 5.511 5.085 5.523h10.246c1.9-.011 2.978-.687 3.31-2.51l.152-.864h-12.9c-1.367 0-1.988-.471-1.829-1.4" transform="translate(-9.891 -1.297)" style="fill:#4aa335"/>
                    <path data-name="패스 19867" d="M182.347 18.6h1.717l2.4-13.623h-4.231c-.147.846-1.575 8.939-1.894 10.751-.324 1.9.183 2.861 2.007 2.872" transform="translate(-10.955 -.303)" style="fill:#4aa335"/>
                    <path data-name="패스 19868" d="M28.722 1.717C27.089.713 25.135.245 21.836.245h-8.2c-5.741 0-8.54 3-9.6 8.376C2.421 16.81.333 27.234.112 28.368c-.535 2.7.885 3.624 3.47 3.624h11.06c4.922 0 7.836-.751 10.036-2.119a10.47 10.47 0 0 0 4.784-6.76c1.3-6.492-5.083-7.452-5.083-7.452a9.139 9.139 0 0 0 6.716-7.291s.986-4.58-2.372-6.653M20.537 21.8c-.175 1.063-1 2.421-3.822 2.421h-6.327l1-5.005h5.832c1.37 0 3.734.024 3.321 2.584m1.079-11.778c-.249 1.794-1.579 2.326-4.466 2.326h-4.422s.291-1.7.476-2.651a1.938 1.938 0 0 1 2.112-1.744h3.933c.368 0 2.67-.094 2.366 2.069m34.425 2.743h-4.638c-3.911 0-4.7 2.678-5.054 4.5-.133.7-.506 2.429-.506 2.429h5.914c-.928 4.067-3.761 4.782-5.643 4.782-1.366 0-5.06.452-4.9-4.452a23.209 23.209 0 0 1 1.847-7.547c1.618-3.076 3.767-4.5 8.212-4.687a33.688 33.688 0 0 1 4.712.183 4.06 4.06 0 0 0 3.97-1.7A19.246 19.246 0 0 0 61.944 1.9 20.3 20.3 0 0 0 59.033.842 30.328 30.328 0 0 0 52.185 0C43.5-.157 38.624 4.524 38.624 4.524c-4.753 4.131-5.909 11.047-5.909 11.047-2.556 10.105 2.7 13.925 2.7 13.925 3.553 3.112 9.715 2.774 9.715 2.774a15.959 15.959 0 0 0 10.83-3.791c3.909-3.68 4.636-8.682 4.872-10 .617-3.453-.838-5.716-4.783-5.716M80.181.2C71.787.2 66.548 3.4 64.68 12.76c0 0-3.19 16.03-3.207 16.137a2.858 2.858 0 0 0 .463 2.277 2.068 2.068 0 0 0 .2.2 3.176 3.176 0 0 0 2.1.6h5.834l2.178-10.5.078-.421h7.188c3.626 0 6.468-1.358 7.329-4.691a18.174 18.174 0 0 0 .538-3.226 56.5 56.5 0 0 0-9.243-.19c-2.194.224-3.72.659-4.664 2.168l.48-2.344c.876-3.785 3.546-4.86 6.421-4.86h4.808c2.884 0 4.7-1.009 5.236-3.6.438-2.1.788-4.1.788-4.1z" style="fill-rule:evenodd;fill:#4aa335"/>
                </g>
            </g>
        </g>
    </g>
</svg>
