<svg data-name="그룹 3400" xmlns="http://www.w3.org/2000/svg" width="48.87" height="22.919" viewBox="0 0 48.87 22.919">
    <defs>
        <clipPath id="0z3jnsnixa">
            <path data-name="사각형 2449" style="fill:none" d="M0 0h48.87v22.919H0z"/>
        </clipPath>
    </defs>
    <g data-name="그룹 3399" style="clip-path:url(#0z3jnsnixa)">
        <path data-name="패스 11022" d="M4.31 87.084c-.814-.381-1.484-.689-1.484-1.312 0-.476.381-.822 1.133-.822a3.908 3.908 0 0 1 .737.075 2.207 2.207 0 0 0 .361.039c.657 0 1.028-.392 1.274-1.135l.1-.3a6.865 6.865 0 0 0-2.578-.514c-2.226 0-3.4 1.428-3.4 2.91a2.509 2.509 0 0 0 .6 1.715 5.4 5.4 0 0 0 1.774 1.215c.917.45 1.745.783 1.745 1.45 0 .592-.611.928-1.429.928a4.473 4.473 0 0 1-2.223-.72L0 92.337a6.358 6.358 0 0 0 3.3.845c2.078 0 3.651-1.192 3.651-3.026s-1.458-2.5-2.64-3.072" transform="translate(0 -70.263)" style="fill:#ea002c"/>
        <path data-name="패스 11023" d="m57.586 89.039 3.77-4.621H58.67l-3.006 3.988h-.045v-3.988H53.4v9.79h.132a1.9 1.9 0 0 0 2.1-2.041v-2.248h.045l3.064 4.168h2.819z" transform="translate(-45.149 -71.367)" style="fill:#ea002c"/>
        <path data-name="패스 11024" d="M93.193 16.587a2.294 2.294 0 0 0-1.931 2.105c0 1.136.932 1.825.935 3.313a2.635 2.635 0 0 1-1.281 2.295c.269-.024.566-.039.89-.04a7.4 7.4 0 0 1 1.119.067l3.5-4.291a14.539 14.539 0 0 0-3.228-3.447" transform="translate(-76.86 -14.023)" style="fill:#ea002c"/>
        <path data-name="패스 11025" d="M116.038 47.024a6.1 6.1 0 0 0 .533-2.889c.042-1.037.258-1.818 1.646-1.823.307 0 .6.041 1.131.039a8.182 8.182 0 0 0 4.186-1.169 14.525 14.525 0 0 0-7.2-2.3c-.2.562-1.748 4.866-1.864 5.214a5.765 5.765 0 0 1 .628.917 10.213 10.213 0 0 1 .946 2.007" transform="translate(-96.769 -32.874)" style="fill:#ea002c"/>
        <path data-name="패스 11026" d="M69.329 10.634c-.177 0-.265-.117-.289-.32s-.9-8.2-1.027-9.413c-.019-.177-.063-.5-.064-.617A.259.259 0 0 1 68.214 0a12.2 12.2 0 0 1 5.068 2.207 2.558 2.558 0 0 0-1.933 2.4c0 1.316.946 2.04.952 3.361.007 2.147-2.461 2.666-2.971 2.667" transform="translate(-57.444)" style="fill:#ff7a00"/>
        <path data-name="패스 11027" d="M125.939 61.836a1.519 1.519 0 0 0 .109.242.238.238 0 0 0 .215.136.515.515 0 0 0 .2-.053c.185-.084 7.485-3.484 8.586-3.991.16-.077.462-.212.562-.27a.268.268 0 0 0 .15-.232.28.28 0 0 0-.042-.144 8.961 8.961 0 0 0-2.025-1.792 9.015 9.015 0 0 1-4.58 1.324c-.534 0-.654-.035-1.019-.034-1.064 0-1.329.459-1.368 1.391-.006.176-.009.413-.019.673a4.66 4.66 0 0 1-.769 2.751" transform="translate(-106.469 -47.115)" style="fill:#ff7a00"/>
        <path data-name="패스 11028" d="m271.571 98.161 1.932 2.675a.822.822 0 0 0 .659.341h.957l-2.925-4.046h-.854a.825.825 0 0 0-.658.342l-2.677 3.7h1.387z" transform="translate(-226.571 -82.114)" style="fill:#ff7a00"/>
        <path data-name="사각형 2447" transform="translate(41.091 20.99)" style="fill:#ff7a00" d="M0 0h7.779v.83H0z"/>
        <path data-name="패스 11029" d="M212.81 97.93h3.69v-.809h-4.006a.852.852 0 0 0-.85.85v3.667a.85.85 0 0 0 .85.85h4.151v-.809h-3.835z" transform="translate(-178.922 -82.106)" style="fill:#ff7a00"/>
        <path data-name="패스 11030" d="M233.683 99.143h-2.744v.8h2.744v4.923h.346a.84.84 0 0 0 .84-.84v-6.9h-1.186z" transform="translate(-195.236 -82.107)" style="fill:#ff7a00"/>
        <path data-name="패스 11031" d="M163.871 128.926h4.9v-1.138a.82.82 0 0 0-.82-.82h-5.279v.787h4.9v.387h-4.9v1.138a.82.82 0 0 0 .82.82h5.483v-.786h-5.108z" transform="translate(-137.526 -107.338)" style="fill:#ff7a00"/>
        <path data-name="패스 11032" d="M157.483 117.495h1.254v-.586h2.15v-.777h-5.559v.777h2.154z" transform="translate(-131.315 -98.178)" style="fill:#ff7a00"/>
        <path data-name="사각형 2448" transform="translate(30.052 15.015)" style="fill:#ff7a00" d="M0 0h1.196v4.392H0z"/>
        <path data-name="패스 11033" d="m159.115 98 1.249 1.535a.427.427 0 0 0 .331.158h1.015l-2.053-2.563h-.818a.555.555 0 0 0-.433.208l-1.887 2.355h1.218z" transform="translate(-132.322 -82.113)" style="fill:#ff7a00"/>
    </g>
</svg>
