<svg xmlns="http://www.w3.org/2000/svg" xmlns:xlink="http://www.w3.org/1999/xlink" width="525" height="300" viewBox="0 0 525 300">
  <defs>
    <clipPath id="clip-path">
      <rect id="사각형_2629" data-name="사각형 2629" width="311.474" height="74.369" fill="none"/>
    </clipPath>
  </defs>
  <g id="그룹_3883" data-name="그룹 3883" transform="translate(-661 -420)">
    <rect id="사각형_2674" data-name="사각형 2674" width="525" height="300" transform="translate(661 420)" fill="none"/>
    <g id="그룹_3862" data-name="그룹 3862" transform="translate(709.183 509.518)">
      <rect id="사각형_2664" data-name="사각형 2664" width="428" height="120" transform="translate(-0.183 0.482)" fill="none"/>
      <g id="그룹_3800" data-name="그룹 3800" transform="translate(48.171 22.987)">
        <g id="그룹_3798" data-name="그룹 3798" transform="translate(0 0)">
          <g id="그룹_3797" data-name="그룹 3797" clip-path="url(#clip-path)">
            <path id="패스_20104" data-name="패스 20104" d="M11.351.263V19.934h9.491q9.98,0,15.167,4.357T41.2,37.354V56.24q0,8.9-5.188,13.211t-15.167,4.3H0V.263Zm0,64.2h9.491a9.513,9.513,0,0,0,6.607-2.243q2.494-2.243,2.494-6.927V38.305q0-4.777-2.494-7.024a9.356,9.356,0,0,0-6.507-2.243H11.351Z" transform="translate(0 0.614)" fill="#18adbc"/>
            <path id="패스_20105" data-name="패스 20105" d="M15.007,0H26.752V13.11H22.445A8.264,8.264,0,0,1,17.21,11.4a5.889,5.889,0,0,1-2.2-4.944ZM26.555,20.549v53.82H21.467q-3.425,0-4.844-1.319T15.2,68.306V20.549Z" transform="translate(35.094 -0.001)" fill="#18adbc"/>
            <path id="패스_20106" data-name="패스 20106" d="M62.293,50.778v5.088q0,4.111-4.5,4.11H20.605v-8.61L48.2,15.256H21.877v-9.1H61.118v8.613L33.425,50.778Z" transform="translate(48.185 14.392)" fill="#18adbc"/>
            <path id="패스_20107" data-name="패스 20107" d="M46.773,46.6V73.41H41.682c-2.28,0-3.916-.437-4.894-1.319s-1.469-2.43-1.469-4.647V.41H62.331a38.584,38.584,0,0,1,9.1.982,17.54,17.54,0,0,1,6.8,3.178A14.03,14.03,0,0,1,82.486,10.3a22.349,22.349,0,0,1,1.469,8.61v9.2a32.008,32.008,0,0,1-.588,5.819,14.136,14.136,0,0,1-2.738,6.019,15.994,15.994,0,0,1-6.51,4.747Q69.767,46.6,62.331,46.6Zm0-36.694V37.3H62.331q10.171,0,10.176-9.131V18.939a9.234,9.234,0,0,0-2.3-6.58Q67.908,9.9,62.331,9.9Z" transform="translate(82.594 0.957)" fill="#185abc"/>
            <path id="패스_20108" data-name="패스 20108" d="M72.352,59.975A36,36,0,0,1,63.4,59a14.366,14.366,0,0,1-6.263-3.275A13.539,13.539,0,0,1,53.466,49.7a31.262,31.262,0,0,1-1.175-9.3V6.155H63.545V40.328a22.665,22.665,0,0,0,.491,5.228,7.4,7.4,0,0,0,1.516,3.172,4.987,4.987,0,0,0,2.691,1.562,18.3,18.3,0,0,0,4.11.391h10.47V6.155H94.176v53.82Z" transform="translate(122.283 14.392)" fill="#185abc"/>
            <path id="패스_20109" data-name="패스 20109" d="M102.321,6.155v3.916q0,2.834-1.663,4.01t-5.382,1.178H85.1q-3.621,0-5.138,1.709a5.8,5.8,0,0,0-1.516,3.966,6.136,6.136,0,0,0,1.075,3.472,6.488,6.488,0,0,0,3.719,2.4l9,2.935q6.946,2.153,9.735,5.872a14.556,14.556,0,0,1,2.791,9q0,7.336-5.041,11.351t-13.845,4.01h-18.5V56.316q0-5.639,6.654-5.635H85.882a9.142,9.142,0,0,0,5.432-1.5,5.291,5.291,0,0,0,2.1-4.61,6.311,6.311,0,0,0-1.028-3.642,6.4,6.4,0,0,0-3.572-2.284L80.2,35.808q-6.555-2.248-9.832-5.629t-3.278-9.244a14.249,14.249,0,0,1,1.028-5.188A13.086,13.086,0,0,1,71.35,11a17.594,17.594,0,0,1,5.579-3.475A21.769,21.769,0,0,1,85.1,6.155Z" transform="translate(156.898 14.392)" fill="#185abc"/>
            <path id="패스_20110" data-name="패스 20110" d="M91.928,29.035V73.755H86.74q-3.325,0-4.744-1.322t-1.419-4.744V.264H91.928V19.931h12.723q18.394,0,18.4,16.442V73.755h-5.088a7.109,7.109,0,0,1-4.747-1.322q-1.517-1.322-1.516-4.744V36.474c0-2.674-.638-4.587-1.91-5.726a7.4,7.4,0,0,0-5.135-1.713Z" transform="translate(188.431 0.616)" fill="#185abc"/>
          </g>
        </g>
        <g id="그룹_3799" data-name="그룹 3799" transform="translate(304.603)">
          <path id="패스_20111" data-name="패스 20111" d="M137.2,10.226h-3.728V20.9h-2.954V10.226h-3.711v-2.4H137.2Z" transform="translate(-126.805 -7.828)" fill="#185abc"/>
          <path id="패스_20112" data-name="패스 20112" d="M146.284,20.9h-2.908V13.081q0-1.268.108-2.8h-.073A13.7,13.7,0,0,1,143,12.013l-3.065,8.89h-2.406l-3.118-8.8A16.791,16.791,0,0,1,134,10.281h-.081q.118,1.933.118,3.39V20.9h-2.653V7.829H135.7l2.67,7.748a11.022,11.022,0,0,1,.465,1.869h.054a19.08,19.08,0,0,1,.519-1.886l2.673-7.731h4.2Z" transform="translate(-120.166 -7.827)" fill="#185abc"/>
        </g>
      </g>
    </g>
  </g>
</svg>
