<svg xmlns="http://www.w3.org/2000/svg" xmlns:xlink="http://www.w3.org/1999/xlink" width="1107.681" height="778" viewBox="0 0 1107.681 778">
  <defs>
    <clipPath id="clip-path">
      <rect id="사각형_2519" data-name="사각형 2519" width="8.638" height="13.439" fill="none" stroke="#6c757d" stroke-width="1"/>
    </clipPath>
  </defs>
  <g id="그룹_4020" data-name="그룹 4020" transform="translate(-406 -4432)">
    <text id="고객사_자체운영" data-name="고객사 자체운영" transform="translate(507 4487)" fill="#4d9dfa" font-size="26" font-family="SpoqaHanSans-Bold, SpoqaHanSans" font-weight="700"><tspan x="0" y="0">고객사 자체운영</tspan></text>
    <text id="운영서비스" transform="translate(507 4773)" fill="#7260fa" font-size="26" font-family="SpoqaHanSans-Bold, SpoqaHanSans" font-weight="700"><tspan x="0" y="0">운영서비스</tspan></text>
    <text id="전담운영팀_배정" data-name="전담운영팀 배정" transform="translate(507 5059)" fill="#8546ea" font-size="26" font-family="SpoqaHanSans-Bold, SpoqaHanSans" font-weight="700"><tspan x="0" y="0">전담운영팀 배정</tspan></text>
    <text id="Client_Role" data-name="Client Role" transform="translate(1339 4506)" fill="#6c757d" font-size="12" font-family="SpoqaHanSans-Regular, SpoqaHanSans"><tspan x="-30.804" y="0">Client Role</tspan></text>
    <text id="모빌씨앤씨Role" transform="translate(1412 4506)" fill="#6c757d" font-size="12" font-family="SpoqaHanSans-Regular, SpoqaHanSans"><tspan x="0" y="0">모빌씨앤씨Role</tspan></text>
    <g id="그룹_3974" data-name="그룹 3974" transform="translate(660.681 4581)">
      <g id="그룹_3519" data-name="그룹 3519" transform="translate(0 0)" clip-path="url(#clip-path)">
        <path id="패스_19764" data-name="패스 19764" d="M0,11.174,5.935,6.6a1.393,1.393,0,0,0,0-2.028L0,0" transform="translate(1.133 1.132)" fill="none" stroke="#6c757d" stroke-linecap="round" stroke-linejoin="round" stroke-width="2"/>
      </g>
    </g>
    <g id="그룹_3986" data-name="그룹 3986" transform="translate(941.681 4581)">
      <g id="그룹_3519-2" data-name="그룹 3519" transform="translate(0 0)" clip-path="url(#clip-path)">
        <path id="패스_19764-2" data-name="패스 19764" d="M0,11.174,5.935,6.6a1.393,1.393,0,0,0,0-2.028L0,0" transform="translate(1.133 1.132)" fill="none" stroke="#6c757d" stroke-linecap="round" stroke-linejoin="round" stroke-width="2"/>
      </g>
    </g>
    <g id="그룹_3993" data-name="그룹 3993" transform="translate(941.681 4867)">
      <g id="그룹_3519-3" data-name="그룹 3519" transform="translate(0 0)" clip-path="url(#clip-path)">
        <path id="패스_19764-3" data-name="패스 19764" d="M0,11.174,5.935,6.6a1.393,1.393,0,0,0,0-2.028L0,0" transform="translate(1.133 1.132)" fill="none" stroke="#6c757d" stroke-linecap="round" stroke-linejoin="round" stroke-width="2"/>
      </g>
    </g>
    <g id="그룹_3995" data-name="그룹 3995" transform="translate(941.681 5153)">
      <g id="그룹_3519-4" data-name="그룹 3519" transform="translate(0 0)" clip-path="url(#clip-path)">
        <path id="패스_19764-4" data-name="패스 19764" d="M0,11.174,5.935,6.6a1.393,1.393,0,0,0,0-2.028L0,0" transform="translate(1.133 1.132)" fill="none" stroke="#6c757d" stroke-linecap="round" stroke-linejoin="round" stroke-width="2"/>
      </g>
    </g>
    <g id="그룹_3987" data-name="그룹 3987" transform="translate(1222.681 4581)">
      <g id="그룹_3519-5" data-name="그룹 3519" transform="translate(0 0)" clip-path="url(#clip-path)">
        <path id="패스_19764-5" data-name="패스 19764" d="M0,11.174,5.935,6.6a1.393,1.393,0,0,0,0-2.028L0,0" transform="translate(1.133 1.132)" fill="none" stroke="#6c757d" stroke-linecap="round" stroke-linejoin="round" stroke-width="2"/>
      </g>
    </g>
    <g id="그룹_3568" data-name="그룹 3568" transform="translate(622.894 4445.894)">
      <circle id="타원_312" data-name="타원 312" cx="11" cy="11" r="11" transform="translate(762.106 44.106)" fill="#008ce3"/>
      <text id="M" transform="translate(773.106 59.106)" fill="#fff" font-size="12" font-family="Poppins-Bold, Poppins" font-weight="700"><tspan x="-5.508" y="0">M</tspan></text>
    </g>
    <g id="그룹_3567" data-name="그룹 3567" transform="translate(518.894 4445.894)">
      <circle id="타원_312-2" data-name="타원 312" cx="11" cy="11" r="11" transform="translate(762.106 44.106)" fill="#f7ab00"/>
      <text id="C" transform="translate(773.106 59.106)" fill="#fff" font-size="12" font-family="Poppins-Bold, Poppins" font-weight="700"><tspan x="-4.572" y="0">C</tspan></text>
    </g>
    <circle id="타원_317" data-name="타원 317" cx="44.5" cy="44.5" r="44.5" transform="translate(406 4432)" fill="#4d9dfa"/>
    <g id="그룹_3972" data-name="그룹 3972" transform="translate(-6 -84)">
      <text id="OPTION" transform="translate(428 4554)" fill="#fff" font-size="15" font-family="Poppins-Bold, Poppins" font-weight="700"><tspan x="0" y="0">OPTION</tspan></text>
      <text id="_01." data-name="01." transform="translate(444 4580)" fill="#fff" font-size="26" font-family="Poppins-Bold, Poppins" font-weight="700"><tspan x="0" y="0">01.</tspan></text>
    </g>
    <circle id="타원_317-2" data-name="타원 317" cx="44.5" cy="44.5" r="44.5" transform="translate(406 4718)" fill="#7260fa"/>
    <circle id="타원_332" data-name="타원 332" cx="44.5" cy="44.5" r="44.5" transform="translate(406 5004)" fill="#8546ea"/>
    <g id="그룹_3972-2" data-name="그룹 3972" transform="translate(-6 202)">
      <text id="OPTION-2" data-name="OPTION" transform="translate(428 4554)" fill="#fff" font-size="15" font-family="Poppins-Bold, Poppins" font-weight="700"><tspan x="0" y="0">OPTION</tspan></text>
      <text id="_02." data-name="02." transform="translate(437 4580)" fill="#fff" font-size="26" font-family="Poppins-Bold, Poppins" font-weight="700"><tspan x="0" y="0">02.</tspan></text>
    </g>
    <g id="그룹_3996" data-name="그룹 3996" transform="translate(-6 488)">
      <text id="OPTION-3" data-name="OPTION" transform="translate(428 4554)" fill="#fff" font-size="15" font-family="Poppins-Bold, Poppins" font-weight="700"><tspan x="0" y="0">OPTION</tspan></text>
      <text id="_03." data-name="03." transform="translate(437 4580)" fill="#fff" font-size="26" font-family="Poppins-Bold, Poppins" font-weight="700"><tspan x="0" y="0">03.</tspan></text>
    </g>
    <g id="그룹_3982" data-name="그룹 3982" transform="translate(0 -82)">
      <rect id="사각형_2735" data-name="사각형 2735" width="225" height="100" rx="20" transform="translate(406 4620)" fill="#f6f9fb"/>
      <g id="그룹_3558" data-name="그룹 3558" transform="translate(-346.106 4600.894)">
        <circle id="타원_312-3" data-name="타원 312" cx="11" cy="11" r="11" transform="translate(762.106 44.106)" fill="#008ce3"/>
        <text id="M-2" data-name="M" transform="translate(773.106 59.106)" fill="#fff" font-size="12" font-family="Poppins-Bold, Poppins" font-weight="700"><tspan x="-5.508" y="0">M</tspan></text>
      </g>
      <g id="그룹_3559" data-name="그룹 3559" transform="translate(-346.106 4628.894)">
        <circle id="타원_312-4" data-name="타원 312" cx="11" cy="11" r="11" transform="translate(762.106 44.106)" fill="#f7ab00"/>
        <text id="C-2" data-name="C" transform="translate(773.106 59.106)" fill="#fff" font-size="12" font-family="Poppins-Bold, Poppins" font-weight="700"><tspan x="-4.572" y="0">C</tspan></text>
      </g>
      <text id="기술이전_커리큘럼을_통한_교육_및_OJT_진행" data-name="기술이전 커리큘럼을 
통한 교육 및 OJT 진행" transform="translate(531 4667)" fill="#1f1f1f" font-size="15" font-family="SpoqaHanSans-Regular, SpoqaHanSans"><tspan x="-65.46" y="0">기술이전 커리큘럼을 </tspan><tspan x="-69.99" y="18">통한 교육 및 OJT 진행</tspan></text>
    </g>
    <rect id="사각형_2735-2" data-name="사각형 2735" width="506" height="100" rx="20" transform="translate(406 4824)" fill="#f6f9fb"/>
    <rect id="사각형_2742" data-name="사각형 2742" width="506" height="100" rx="20" transform="translate(406 5110)" fill="#f6f9fb"/>
    <g id="그룹_3559-2" data-name="그룹 3559" transform="translate(416 4863)">
      <circle id="타원_312-5" data-name="타원 312" cx="11" cy="11" r="11" transform="translate(0 0)" fill="#f7ab00"/>
      <text id="C-3" data-name="C" transform="translate(11 15)" fill="#fff" font-size="12" font-family="Poppins-Bold, Poppins" font-weight="700"><tspan x="-4.572" y="0">C</tspan></text>
    </g>
    <text id="고객사_담당자로부터_추가개발_요건_및_이슈_대응_요청" data-name="고객사 담당자로부터
추가개발 요건 및 이슈 대응 요청" transform="translate(659 4871)" fill="#1f1f1f" font-size="15" font-family="SpoqaHanSans-Regular, SpoqaHanSans"><tspan x="-63.78" y="0">고객사 담당자로부터</tspan><tspan x="-98.1" y="18">추가개발 요건 및 이슈 대응 요청</tspan></text>
    <text id="특정_고객만을_위한_전담_운영서비스_인력_팀_배정_및_투입_상주_비상주_" data-name="특정 고객만을 위한 
전담 운영서비스 인력/팀 배정 및 투입
(상주/비상주)" transform="translate(659 5148)" fill="#1f1f1f" font-size="15" font-family="SpoqaHanSans-Regular, SpoqaHanSans"><tspan x="-60.24" y="0">특정 고객만을 위한 </tspan><tspan x="-114.9" y="18">전담 운영서비스 인력/팀 배정 및 투입</tspan><tspan x="-42.57" y="36">(상주/비상주)</tspan></text>
    <g id="그룹_3983" data-name="그룹 3983" transform="translate(36 -82)">
      <g id="그룹_3981" data-name="그룹 3981">
        <rect id="사각형_2739" data-name="사각형 2739" width="214" height="100" rx="20" transform="translate(662 4620)" fill="#f6f9fb"/>
        <text id="추가_수정_개발_필요_건_발생" data-name="추가/수정 개발 
필요 건 발생" transform="translate(769 4667)" fill="#1f1f1f" font-size="15" font-family="SpoqaHanSans-Regular, SpoqaHanSans"><tspan x="-47.76" y="0">추가/수정 개발 </tspan><tspan x="-37.86" y="18">필요 건 발생</tspan></text>
      </g>
    </g>
    <g id="그룹_3984" data-name="그룹 3984" transform="translate(58 -82)">
      <rect id="사각형_2740" data-name="사각형 2740" width="214" height="100" rx="20" transform="translate(921 4620)" fill="#f6f9fb"/>
      <g id="그룹_3978" data-name="그룹 3978" transform="translate(168.894 4614.894)">
        <circle id="타원_312-6" data-name="타원 312" cx="11" cy="11" r="11" transform="translate(762.106 44.106)" fill="#f7ab00"/>
        <text id="C-4" data-name="C" transform="translate(773.106 59.106)" fill="#fff" font-size="12" font-family="Poppins-Bold, Poppins" font-weight="700"><tspan x="-4.572" y="0">C</tspan></text>
      </g>
      <text id="고객사_담당자_해결_1차_대응_" data-name="고객사 담당자 해결
(1차 대응)" transform="translate(1028 4667)" fill="#1f1f1f" font-size="15" font-family="SpoqaHanSans-Regular, SpoqaHanSans"><tspan x="-58.56" y="0">고객사 담당자 해결</tspan><tspan x="-31.575" y="18">(1차 대응)</tspan></text>
    </g>
    <g id="그룹_3985" data-name="그룹 3985" transform="translate(-0.319 -82)">
      <rect id="사각형_2741" data-name="사각형 2741" width="253.681" height="100" rx="20" transform="translate(1260.319 4620)" fill="#f6f9fb"/>
      <g id="그룹_3977" data-name="그룹 3977" transform="translate(507.894 4614.894)">
        <circle id="타원_312-7" data-name="타원 312" cx="11" cy="11" r="11" transform="translate(762.106 44.106)" fill="#008ce3"/>
        <text id="M-3" data-name="M" transform="translate(773.106 59.106)" fill="#fff" font-size="12" font-family="Poppins-Bold, Poppins" font-weight="700"><tspan x="-5.508" y="0">M</tspan></text>
      </g>
      <text id="플랫폼_유지보수_및_이슈대응_2차_대응_" data-name="플랫폼 유지보수 및 이슈대응
(2차 대응)" transform="translate(1394.681 4667)" fill="#1f1f1f" font-size="15" font-family="SpoqaHanSans-Regular, SpoqaHanSans"><tspan x="-87.84" y="0">플랫폼 유지보수 및 이슈대응</tspan><tspan x="-32.025" y="18">(2차 대응)</tspan></text>
    </g>
    <g id="그룹_3991" data-name="그룹 3991" transform="translate(-281.319 204)">
      <rect id="사각형_2741-2" data-name="사각형 2741" width="534.681" height="100" rx="20" transform="translate(1260.319 4620)" fill="#f6f9fb"/>
      <g id="그룹_3977-2" data-name="그룹 3977" transform="translate(1270 4659)">
        <circle id="타원_312-8" data-name="타원 312" cx="11" cy="11" r="11" fill="#008ce3"/>
        <text id="M-4" data-name="M" transform="translate(11 15)" fill="#fff" font-size="12" font-family="Poppins-Bold, Poppins" font-weight="700"><tspan x="-5.508" y="0">M</tspan></text>
      </g>
      <text id="전담_채널을_통한_요건_수령_이후_모빌씨앤씨_자체_운영_Pool을_활용한_개발_및_기술지원" data-name="전담 채널을 통한 요건 수령 이후
모빌씨앤씨 자체 운영 Pool을 활용한 개발 및 기술지원" transform="translate(1527.319 4667)" fill="#1f1f1f" font-size="15" font-family="SpoqaHanSans-Regular, SpoqaHanSans"><tspan x="-98.1" y="0">전담 채널을 통한 요건 수령 이후</tspan><tspan x="-165.9" y="18">모빌씨앤씨 자체 운영 Pool을 활용한 개발 및 기술지원</tspan></text>
    </g>
    <rect id="사각형_2741-3" data-name="사각형 2741" width="534.681" height="100" rx="20" transform="translate(979 5110)" fill="#f6f9fb"/>
    <g id="그룹_3977-3" data-name="그룹 3977" transform="translate(988.681 5149)">
      <circle id="타원_312-9" data-name="타원 312" cx="11" cy="11" r="11" fill="#008ce3"/>
      <text id="M-5" data-name="M" transform="translate(11 15)" fill="#fff" font-size="12" font-family="Poppins-Bold, Poppins" font-weight="700"><tspan x="-5.508" y="0">M</tspan></text>
    </g>
    <g id="그룹_3998" data-name="그룹 3998" transform="translate(416 5149)">
      <circle id="타원_312-10" data-name="타원 312" cx="11" cy="11" r="11" fill="#008ce3"/>
      <text id="M-6" data-name="M" transform="translate(11 15)" fill="#fff" font-size="12" font-family="Poppins-Bold, Poppins" font-weight="700"><tspan x="-5.508" y="0">M</tspan></text>
    </g>
    <text id="전담_운영인력이_항시_8H_5D_지속적인_컨텐츠_개선작업을_진행하며_모바일_환경_및_추가_요구사항에_대응" data-name="전담 운영인력이 항시 (8H/5D) 
지속적인 컨텐츠 개선작업을 진행하며 
모바일 환경 및 추가 요구사항에 대응" transform="translate(1246 5148)" fill="#1f1f1f" font-size="15" font-family="SpoqaHanSans-Regular, SpoqaHanSans"><tspan x="-97.11" y="0">전담 운영인력이 항시 (8H/5D) </tspan><tspan x="-117.12" y="18">지속적인 컨텐츠 개선작업을 진행하며 </tspan><tspan x="-111.9" y="36">모바일 환경 및 추가 요구사항에 대응</tspan></text>
    <line id="선_115" data-name="선 115" y2="50" transform="translate(450.5 4652.5)" fill="none" stroke="#dedede" stroke-linecap="round" stroke-width="3"/>
    <line id="선_116" data-name="선 116" y2="50" transform="translate(450.5 4939.5)" fill="none" stroke="#dedede" stroke-linecap="round" stroke-width="3"/>
  </g>
</svg>
