<svg xmlns="http://www.w3.org/2000/svg" width="250" height="80" viewBox="0 0 250 80">
    <defs>
        <clipPath id="dq8xf4k67a">
            <path data-name="사각형 2623" style="fill:none" d="M0 0h144.879v46.696H0z"/>
        </clipPath>
    </defs>
    <g data-name="그룹 3859">
        <path data-name="사각형 2661" style="fill:none" d="M0 0h250v80H0z"/>
        <g data-name="그룹 3858">
            <g data-name="그룹 3784" style="clip-path:url(#dq8xf4k67a)" transform="translate(53 17)">
                <path data-name="패스 20049" d="M217 26.4a3.923 3.923 0 0 0 7.846 0V15.558a3.923 3.923 0 0 0-7.846 0l.018 6.4a3 3 0 0 1-2.827 2.222c-2.334.089-8.661-3.187-10.975-9.242-.828-2.023-1.981-2.827-3.767-2.827a3.868 3.868 0 0 0-3.754 2.783c-2.192 7.22-7.353 9.453-8.968 9.565a2.118 2.118 0 0 0-2.109 2.053c0 1.11.851 1.84 2.155 1.84 2.826 0 8.481-1.75 12.745-6.328C204.047 26.463 213.37 30.5 217 26.4" transform="translate(-80.043 -5.045)" style="fill:#1a1818"/>
                <path data-name="패스 20050" d="M108.057 22.176a2.05 2.05 0 0 1-2.05-2.05l.012-5.52a3.9 3.9 0 1 1 7.8 0v3.5H136.3a9.2 9.2 0 0 0 4.094-.808 2.216 2.216 0 0 1 2.846.951 2.185 2.185 0 0 1-.991 2.724 12 12 0 0 1-5.949 1.171h-8.583V24.3l15.55.037a2.05 2.05 0 0 1 0 4.1h-37.9a2.05 2.05 0 1 1 0-4.1l14.673-.037v-2.154z" transform="translate(-44.794 -4.632)" style="fill:#1a1818"/>
                <path data-name="패스 20051" d="M106.646 51.376c0-4.446 8.482-8.051 18.944-8.051s18.943 3.605 18.943 8.051-8.481 8.051-18.943 8.051-18.944-3.6-18.944-8.051m18.944 4.189c6.1 0 11.043-1.875 11.043-4.189s-4.944-4.188-11.043-4.188-11.043 1.875-11.043 4.188 4.944 4.189 11.043 4.189" transform="translate(-46.238 -18.784)" style="fill:#1a1818"/>
                <path data-name="패스 20052" d="M191.257 47.057a2.049 2.049 0 0 1 2.05-2.049h32.445a2.049 2.049 0 0 1 2.049 2.049v9.088a2.049 2.049 0 0 1-2.049 2.049h-32.445a2.05 2.05 0 0 1-2.05-2.049zm7.771 7.069H219.9V49.01h-20.871z" transform="translate(-82.922 -19.514)" style="fill:#1a1818"/>
                <path data-name="패스 20053" d="M27.383 46.7c15.123 0 27.383-10.454 27.383-23.348S42.506 0 27.383 0 0 10.454 0 23.348 12.26 46.7 27.383 46.7" style="fill:#fff"/>
                <path data-name="패스 20054" d="M3.462 24.628c0-11.971 11.382-21.676 25.422-21.676s25.422 9.7 25.422 21.676S42.924 46.3 28.884 46.3 3.462 36.6 3.462 24.628M28.884 28.3c4.46 0 8.075-5.2 8.075-11.622S33.344 5.059 28.884 5.059s-8.075 5.2-8.075 11.622S24.425 28.3 28.884 28.3" transform="translate(-1.501 -1.28)" style="fill:#e50019"/>
            </g>
        </g>
    </g>
</svg>
