<svg xmlns="http://www.w3.org/2000/svg" width="250" height="80" viewBox="0 0 250 80">
    <defs>
        <clipPath id="r1s9wa0qwa">
            <path data-name="사각형 2588" style="fill:none" d="M0 0h169.397v35.575H0z"/>
        </clipPath>
    </defs>
    <g data-name="그룹 3821">
        <path data-name="사각형 2641" style="fill:none" d="M0 0h250v80H0z"/>
        <g data-name="그룹 3820">
            <g data-name="그룹 3717">
                <path data-name="사각형 2587" transform="translate(96.909 31.479)" style="fill:#006254" d="M0 0h5.469v23.73H0z"/>
                <g data-name="그룹 3716">
                    <g data-name="그룹 3715" style="clip-path:url(#r1s9wa0qwa)" transform="translate(40 22)">
                        <path data-name="패스 19884" d="M142.812 1.672a25.464 25.464 0 0 0-13.029 7.807h5.384l7.058 18.7 6.92-18.7h5.91L146.517 30.4c7.731-3.656 13.376-11.587 13.883-30.379 0 0-9.89-.332-17.583 1.651m-17.967 33.9s1.1-1.471 7.115-2.025c2.343-.195 4.672-.455 6.906-.863L129.46 9.873c-4.662 5.639-6.972 14.035-4.615 25.7" transform="translate(-57.502)" style="fill:#49ae3c"/>
                        <path data-name="패스 19885" d="M198.278 30.066v.379c0 3.961 2.021 7.475 6.361 7.475a5.228 5.228 0 0 0 5.54-4.895h5.279c-.9 5.868-5.559 8.324-11.014 8.324-7.575 0-11.521-4.738-11.521-11.986 0-7.437 3.9-12.8 11.806-12.8 8.472 0 10.824 6.129 10.824 13.5zm6.361-10.013c-3.913 0-5.877 3.092-6.219 6.669h11.8c0-3.524-1.679-6.669-5.583-6.669" transform="translate(-89.527 -7.686)" style="fill:#006254"/>
                        <path data-name="패스 19886" d="M53.438 41.094V24.038c0-1.75-.242-5.265-1.541-6.674h5.8s1.115.717 1.115 3.567c0 0 1.6-4.036 8.281-3.937 6.579.123 8 5.179 8 8.4v15.7H69.66V26.552c0-1.7-.337-5.721-5.089-5.721-4.036 0-5.606 3.031-5.606 10.431v9.832z" transform="translate(-24.083 -7.886)" style="fill:#006254"/>
                        <path data-name="패스 19887" d="M257.324 22.165c-5.891-.546-8.409.28-8.409 8.742v10.188H243.4V24.039c0-1.75-.242-5.265-1.551-6.674h5.815s1.11.716 1.11 3.567c0 0 1.864-4.037 8.552-3.937z" transform="translate(-112.231 -7.886)" style="fill:#006254"/>
                        <path data-name="패스 19888" d="M16.322 37.873s.3 2.789.882 3.543h5.758a16.948 16.948 0 0 1-1.243-6.516V17.686H16.17v13.247c0 1.637-.351 6.845-6.451 6.845-4.117 0-4.269-4.994-4.269-6.194v-13.9H0V33.9c0 2.137 1.082 7.8 9.126 7.8a8.266 8.266 0 0 0 7.2-3.823" transform="translate(0 -8.207)" style="fill:#006254"/>
                        <path data-name="패스 19889" d="M280.447 41.138a7.13 7.13 0 0 1-5.592-10.8c2.964-5.208 14.917-4.368 14.917-4.368 0-3.154-.394-6.251-4.615-6.251a4.063 4.063 0 0 0-4.25 4.031h-5.27c0-3.277 1.992-7.347 9.074-7.347s10.231 3.562 10.231 8.9c0 .9.071 6.891.19 9.827a20.043 20.043 0 0 0 1.338 5.687h-5.355c-.683-.607-1.048-3.3-1.048-3.3-1.48 2.466-4.5 4.022-9.619 3.614m-1.091-7.561c0 1.186.327 4.345 4.871 4.307 6.247-.052 5.573-8.808 5.573-8.808-9.634-.479-10.444 3.306-10.444 4.5" transform="translate(-127.072 -7.612)" style="fill:#006254"/>
                    </g>
                </g>
            </g>
        </g>
    </g>
</svg>
