<svg xmlns="http://www.w3.org/2000/svg" width="250" height="80" viewBox="0 0 250 80">
    <defs>
        <clipPath id="pk4m3jzk0a">
            <path data-name="사각형 2445" style="fill:none" d="M0 0h74.874v76.372H0z"/>
        </clipPath>
    </defs>
    <g data-name="그룹 3827">
        <g data-name="그룹 3826">
            <g data-name="그룹 3395" transform="translate(88 2)" style="clip-path:url(#pk4m3jzk0a)">
                <path data-name="패스 11009" d="M56.011 33.268a10.315 10.315 0 0 0-6.255-1.732c-5.15 0-10.166 3.265-10.166 10.863 0 7.264 5.016 10.663 9.968 10.663 5.193 0 8.487-3.222 8.487-7.931 0-2.976-1.857-5.042-5.592-5.042H51.37c-1.945 0-3.448.91-3.448 2.91a2.767 2.767 0 0 0 2.851 2.688c1.039 0 1.459.177 1.459.644 0 .578-.552.955-1.9.955-2.5 0-4.2-1.711-4.2-4.887 0-3.532 2.32-4.82 4.11-4.82 2.188 0 2.542 1.11 4.067 1.11a2.94 2.94 0 0 0 2.962-2.91 3.027 3.027 0 0 0-1.26-2.51" transform="translate(10.803 8.605)" style="fill:#d72300"/>
                <path data-name="패스 11010" d="M42.163 35.29v13.84c0 2.2-1.282 3.954-3.6 3.954-1.348 0-2.608-.533-3.78-2.821l-3.071-5.976c-.221-.421-.375-.533-.6-.533-.309 0-.463.223-.463.733l.022 4.843c0 2.087-1.194 3.754-3.425 3.754-2.211 0-3.4-1.666-3.4-3.754V35.49c0-2.2 1.283-3.954 3.6-3.954 1.393 0 2.608.532 3.779 2.821l3.075 5.976c.22.421.375.532.6.532.311 0 .465-.221.465-.732l-.022-4.843c0-2.089 1.193-3.754 3.425-3.754 2.211 0 3.4 1.665 3.4 3.754" transform="translate(6.505 8.605)" style="fill:#d72300"/>
                <path data-name="패스 11011" d="M7.241 49.151v-3.532c0-.311.132-.533.442-.533.4 0 .509.423.619.622.686 1.377 1.835 4.2 3.205 5.709a4.546 4.546 0 0 0 3.293 1.666 3.863 3.863 0 0 0 3.779-3.732A4.48 4.48 0 0 0 17.1 46.2a40.694 40.694 0 0 1-3.227-3.955 1.138 1.138 0 0 1-.221-.6c0-.244.134-.421.4-.666a20.363 20.363 0 0 0 2.984-3.332 5.034 5.034 0 0 0 .906-2.665 3.6 3.6 0 0 0-3.647-3.443 3.719 3.719 0 0 0-3.139 1.954c-1.039 1.689-2.1 4.066-2.984 4.954-.22.223-.331.267-.508.267-.288 0-.42-.2-.42-.512v-2.734c0-2.178-1.282-3.932-3.6-3.932-2.343 0-3.6 1.754-3.6 3.932v13.683c0 2.177 1.26 3.932 3.6 3.932 2.32 0 3.6-1.755 3.6-3.932" transform="translate(.01 8.605)" style="fill:#d72300"/>
                <path data-name="패스 11012" d="M67.013 50.227c1.282 0 1.857.622 1.857 1.711 0 1.911-1.746 4.576-5.195 6.531-5.746 3.265-15.6 4.2-29.24 4.2s-23.495-.933-29.24-4.2C1.746 56.514 0 53.848 0 51.938c0-1.088.575-1.711 1.857-1.711z" transform="translate(0 13.705)" style="fill:#ff8732"/>
                <path data-name="패스 11013" d="M67.013 21.525H1.857A1.646 1.646 0 0 1 0 19.659C0 12.55 10.631 0 34.435 0 58.017 0 68.87 12.55 68.87 19.659a1.646 1.646 0 0 1-1.857 1.866" style="fill:#ff8732"/>
                <path data-name="패스 11014" d="M16.93 33.705c-3.581 0-5.459-2.155-5.459-4.865v-7.487a2.207 2.207 0 1 1 4.4 0V28.6a1.041 1.041 0 0 0 1.059 1.15 1.075 1.075 0 0 0 1.1-1.154v-7.243a2.2 2.2 0 1 1 4.376 0v7.487c0 2.71-1.9 4.865-5.481 4.865m41.176-2.4a2.2 2.2 0 1 0 4.376 0v-2.2c0-.333.132-.578.486-.578.309 0 .442.267.508.578a8.741 8.741 0 0 0 1.083 3.288 2.662 2.662 0 0 0 2.165 1.311 2.116 2.116 0 0 0 2.145-2.044 2.851 2.851 0 0 0-.708-1.821 9.91 9.91 0 0 1-1.48-2.289.464.464 0 0 1 .16-.55 4.4 4.4 0 0 0 1.482-3.42C68.317 20.532 66 19 63.189 19h-2.5a2.293 2.293 0 0 0-2.585 2.4zm-12.35-11.351a7.183 7.183 0 0 0-4.178-1.088c-3.425 0-6.763 2.266-6.763 7.507 0 5.021 3.337 7.353 6.63 7.353a5.258 5.258 0 0 0 5.66-5.553c0-2.066-1.238-3.488-3.714-3.488h-.706c-1.3 0-2.322.622-2.322 2.021a1.888 1.888 0 0 0 1.989 1.844c.575 0 .906.266.906.666 0 .533-.463.888-1.3.888-1.725 0-2.785-1.333-2.785-3.732 0-2.443 1.547-3.331 2.74-3.331 1.459 0 1.7.555 2.719.555a1.98 1.98 0 0 0 1.967-2 1.96 1.96 0 0 0-.84-1.643m17.35 5.62h-.534a.49.49 0 0 1-.552-.51v-1.91c0-.289.177-.467.552-.467h.53a1.3 1.3 0 0 1 1.414 1.422 1.349 1.349 0 0 1-1.414 1.466m-10.741 3.687a.491.491 0 0 0 .552.512h2.145a1.915 1.915 0 1 1 0 3.82h-4.222a2.293 2.293 0 0 1-2.586-2.4V21.4a2.294 2.294 0 0 1 2.586-2.4h4.222a1.916 1.916 0 1 1 0 3.821h-2.144a.491.491 0 0 0-.552.512v.644a.49.49 0 0 0 .552.51h1.525a1.781 1.781 0 1 1 0 3.554h-1.525a.491.491 0 0 0-.552.512zm-23.538-3.687h-.531a.49.49 0 0 1-.552-.51v-1.911c0-.289.177-.467.552-.467h.531a1.3 1.3 0 0 1 1.414 1.422 1.349 1.349 0 0 1-1.414 1.466M2.586 33.593H5.7a4.392 4.392 0 0 0 4.73-4.442 3.638 3.638 0 0 0-1.437-3c-.109-.089-.22-.178-.22-.266 0-.112.043-.157.177-.289a3.513 3.513 0 0 0 .95-2.51C9.9 20.42 8 19 5.216 19h-2.63A2.294 2.294 0 0 0 0 21.4v9.8a2.293 2.293 0 0 0 2.586 2.4m1.856-8.752a.49.49 0 0 1-.552-.51V22.82a.49.49 0 0 1 .552-.51h.509c.883 0 1.149.644 1.149 1.266a1.117 1.117 0 0 1-1.149 1.265zm0 2.622h.62a1.233 1.233 0 0 1 1.282 1.4 1.233 1.233 0 0 1-1.282 1.4h-.62a.491.491 0 0 1-.552-.512v-1.785a.49.49 0 0 1 .552-.51m29.44 2.376a9.868 9.868 0 0 1-1.48-2.289.462.462 0 0 1 .154-.55 4.4 4.4 0 0 0 1.48-3.42c0-3.043-2.32-4.577-5.127-4.577h-2.5a2.294 2.294 0 0 0-2.586 2.4v9.908a2.2 2.2 0 1 0 4.376 0v-2.2c0-.333.134-.578.486-.578.311 0 .443.267.509.578a9.14 9.14 0 0 0 1.083 3.288 2.662 2.662 0 0 0 2.165 1.311 2.116 2.116 0 0 0 2.145-2.044 2.858 2.858 0 0 0-.708-1.821" transform="translate(0 5.148)" style="fill:#d72300"/>
                <path data-name="패스 11015" d="M23.465 35.734c0-2.332-1.348-4.2-3.824-4.2s-3.824 1.866-3.824 4.2v13.151c0 2.332 1.348 4.2 3.824 4.2s3.824-1.866 3.824-4.2z" transform="translate(4.316 8.605)" style="fill:#d72300"/>
                <path data-name="패스 11016" d="M57.338 56.657c.326 0 .508-.164.508-.383 0-.235-.163-.363-.453-.363h-.453v.746zm-.96 1.292v-2.274a.3.3 0 0 1 .272-.291h.76a.91.91 0 0 1 1.014.855.845.845 0 0 1-.779.873l.6.673a.294.294 0 0 1 .09.182.258.258 0 0 1-.272.274.282.282 0 0 1-.235-.129l-.8-.946h-.088v.783a.282.282 0 0 1-.289.272.28.28 0 0 1-.272-.272m3.006-1.149a2.083 2.083 0 1 0-2.085 2.15 2.071 2.071 0 0 0 2.085-2.15m-4.744 0a2.662 2.662 0 1 1 5.323 0 2.662 2.662 0 1 1-5.323 0" transform="translate(14.91 14.77)" style="fill:#d72300"/>
            </g>
        </g>
        <path data-name="사각형 2644" style="fill:none" d="M0 0h250v80H0z"/>
    </g>
</svg>
