<svg xmlns="http://www.w3.org/2000/svg" width="250" height="80" viewBox="0 0 250 80">
    <defs>
        <clipPath id="o5dplwlroa">
            <path data-name="사각형 2460" style="fill:none" d="M0 0h207.49v49.29H0z"/>
        </clipPath>
    </defs>
    <g data-name="그룹 3825">
        <g data-name="그룹 3824">
            <g data-name="그룹 3424" transform="translate(21 15)" style="clip-path:url(#o5dplwlroa)">
                <path data-name="패스 11211" d="M107.194 15.346a9.907 9.907 0 0 0 5.489 6.508l-1.113 1.319a13.05 13.05 0 0 1-6.276-4.692 13.255 13.255 0 0 1-6.311 4.82l-1.083-1.32a9.77 9.77 0 0 0 5.451-6.635h-4.772v-1.681h4.938v-2.71h3.489v2.71h5.017v1.682zm8.148 13.32v-2.53h-13.087v-1.7h16.392v5.854h-13.108v1.932c0 .388.161.575.586.575H119v1.678h-14.673a1.877 1.877 0 0 1-2.047-2.057v-3.752zm3.3-5.646h-3.332V11.585h3.332z" transform="translate(14.165 1.585)" style="fill:#dc000c"/>
                <path data-name="패스 11212" d="M128.132 14.157c0 4.025 2.534 6.557 5.65 8.155l-1.117 1.338a12.64 12.64 0 0 1-6.278-4.538 13.117 13.117 0 0 1-6.31 4.793l-1.1-1.326a9.416 9.416 0 0 0 5.579-8.357v-2.081h3.57zm10.482 15.8c0 3.109-2.731 5.163-6.31 5.163s-6.3-2.054-6.3-5.163c0-3.075 2.742-5.148 6.3-5.148 3.578 0 6.31 2.073 6.31 5.148m-9.262 0c0 1.817 1.011 3.44 2.952 3.44 2.012 0 2.975-1.623 2.975-3.44s-1.021-3.444-2.975-3.444-2.952 1.679-2.952 3.444m10.281-18.454v13.165h-3.326V17.6H131.7v-1.7h4.605v-4.4z" transform="translate(17.216 1.665)" style="fill:#dc000c"/>
                <path data-name="패스 11213" d="M162.637 24.6h-22.316v-1.691h22.316zm-3.04 1.981v7.88h-14.564a1.885 1.885 0 0 1-2.056-2.057v-5.825zm-1.413-10.46c0 3.491-3.553 5.038-6.795 5.038s-6.792-1.571-6.792-5.038c0-3.527 3.523-5.062 6.792-5.062s6.795 1.535 6.795 5.062M146.24 32.206c0 .388.159.575.583.575h9.559v-4.524H146.24zm1.6-16.088a3.554 3.554 0 1 0 3.549-3.376 3.374 3.374 0 0 0-3.549 3.376" transform="translate(20.304 1.6)" style="fill:#dc000c"/>
                <path data-name="패스 11214" d="M178.58 25.5v3.981h5.5v1.706h-22.272v-1.706h5.579V25.5h-1.274a1.66 1.66 0 0 1-1.7-1.666v-5.309h13.429V15h-13.424v-1.678h16.65v6.9h-13.361v2.882c0 .5.179.683.631.683h13.019V25.5zm-7.88 3.981h4.558V25.5H170.7z" transform="translate(23.413 1.928)" style="fill:#dc000c"/>
                <path data-name="패스 11215" d="M93.527 34.428h3.423v-22.9h-3.423zm-5.481-14.637h-4.281v2.031h4.281v4.827a6.8 6.8 0 0 1-2.7.509h-4.871a.833.833 0 0 1-.825-.82V14.927h6.259v-1.646h-9.8v13.884a1.64 1.64 0 0 0 1.635 1.644h7.606a5.263 5.263 0 0 0 2.7-.579v6.2h3.417v-22.9h-3.421z" transform="translate(11.012 1.668)" style="fill:#dc000c"/>
                <path data-name="패스 11216" d="M65.76 23.564v-2.257h7.54v-1.636H59.1a.827.827 0 0 1-.833-.829v-1.431h14.72v-5.54h-18.25V13.5h14.707v2.249H54.737v3.917a1.636 1.636 0 0 0 1.641 1.636h5.835v2.257h-9.385v1.652h22.378v-1.647zm.1 2.716h-3.966c-1.05 4.353-6.217 6.536-8.108 6.81l.992 1.463a17.108 17.108 0 0 0 9.106-4.832 17.042 17.042 0 0 0 9.09 4.832l.991-1.463c-1.9-.274-7.058-2.457-8.109-6.81" transform="translate(7.644 1.718)" style="fill:#dc000c"/>
                <path data-name="패스 11217" d="M34.792 45.1a14.4 14.4 0 0 1-20.3 0L4.187 34.789a14.387 14.387 0 0 1 0-20.291L14.5 4.186a14.393 14.393 0 0 1 20.3 0L45.1 14.5a14.385 14.385 0 0 1 0 20.291z" style="fill:#dc000c"/>
                <path data-name="패스 11218" d="M16.376 35.148a1.615 1.615 0 1 1 .063 0 .276.276 0 0 1-.063 0" transform="translate(2.149 4.644)" style="fill:#fff"/>
                <path data-name="패스 11219" d="M21.855 10.519a2.76 2.76 0 0 0-2.049.8c-1.17 1.162-1.781 3.559-1.728 6.751.068 3.937 1 11.656 4.1 15.638a6.91 6.91 0 0 0 1.6 1.532 3.6 3.6 0 0 0 2.113.711 4.878 4.878 0 0 0 .83-.079c1.777-.43 4-2.4 5.65-5.033a1.372 1.372 0 0 1 1.16-.639 1.365 1.365 0 0 1 1.335 1.065 1.362 1.362 0 0 1-.176 1.033c-2.091 3.324-4.855 5.658-7.387 6.245a.231.231 0 0 1-.065.011 7.4 7.4 0 0 1-1.358.132 6.347 6.347 0 0 1-3.607-1.161 9.473 9.473 0 0 1-2.254-2.138c-4.356-5.593-4.654-16.087-4.674-17.267-.047-2.8.354-6.579 2.537-8.742a5.419 5.419 0 0 1 3.962-1.591h.256a5.422 5.422 0 0 1 3.97 1.591c2.183 2.163 2.585 5.947 2.536 8.742a28.194 28.194 0 0 1-3.6 13.6 1.384 1.384 0 0 1-1.177.662 1.423 1.423 0 0 1-.7-.19 1.376 1.376 0 0 1-.473-1.878 23.665 23.665 0 0 0 3.211-12.243c.056-3.193-.557-5.59-1.73-6.751a2.742 2.742 0 0 0-2.042-.8z" transform="translate(2.22 1.127)" style="fill:#fff"/>
            </g>
        </g>
        <path data-name="사각형 2643" style="fill:none" d="M0 0h250v80H0z"/>
    </g>
</svg>
