<svg xmlns="http://www.w3.org/2000/svg" width="250" height="80" viewBox="0 0 250 80">
    <defs>
        <clipPath id="1moeh21mha">
            <path data-name="사각형 2665" style="fill:none" d="M0 0h211.887v31.12H0z"/>
        </clipPath>
    </defs>
    <g data-name="그룹 3870">
        <path data-name="사각형 2662" style="fill:none" d="M0 0h250v80H0z"/>
        <g data-name="그룹 3869">
            <path data-name="패스 20125" d="M12.178 3.083 6.042 0l6.136 11.668L18.315 0z" transform="translate(20.418 24)" style="fill:#ffaa1a"/>
            <g data-name="그룹 3868">
                <g data-name="그룹 3867" style="clip-path:url(#1moeh21mha)" transform="translate(20 24)">
                    <path data-name="패스 20126" d="m20.88 8.957-.094-.079 4.377-1.844V.879l-7.607 3.244-4.215 7.982a6.4 6.4 0 1 1-1.5 0L7.633 4.123.037.879v6.154l4.375 1.844-.094.079a12.595 12.595 0 1 0 16.561 0" transform="translate(0 .06)" style="fill:#ffaa1a"/>
                    <path data-name="패스 20127" d="M172.705 15.223a.343.343 0 0 1 .334.3 3.867 3.867 0 0 1 0 1.1.357.357 0 0 1-.336.355h-12.976l.057.009c-4.36 0-7.8 1.474-7.8 4.717s3.49 4.721 7.8 4.721 7.8-1.48 7.8-4.721a3.837 3.837 0 0 0-1.923-3.361h4.945a5.01 5.01 0 0 1 1.05 3.153c0 4.619-5.318 6.722-11.875 6.722s-11.873-2.1-11.873-6.722a5.294 5.294 0 0 1 2.52-4.517h-3.585l-1.165-1.762z" transform="translate(10.076 1.052)" style="fill:#0067b6"/>
                    <path data-name="패스 20128" d="m172.994 12.434-1.045 1.614c-6.461 0-11.021-1.9-12.572-4.338-1.553 2.439-6.112 4.338-12.573 4.338l-1.047-1.614c5.7 0 11.085-2.6 11.085-6.112h-9.311l-1.141-1.773h24.99c.284 0 .349.349.349.885s-.064.887-.349.887h-9.47c0 3.516 5.383 6.112 11.084 6.112" transform="translate(10.081 .314)" style="fill:#0067b6"/>
                    <path data-name="패스 20129" d="M186.5 6.42h-10.519l-1.14-1.775h15.519a.975.975 0 0 1 .95.952v8.044h4.433V3.695h3.166a.975.975 0 0 1 .95.95v23.121h-21.533a1.908 1.908 0 0 1-1.9-1.9v-5.384h3.168a.973.973 0 0 1 .95.95v3.611a.971.971 0 0 0 .949.948h14.252v-5.636h-6.461l-1.14-1.773h7.6v-3.168H184.5v4.436h-4.116v-4.436h-5.354l-1.14-1.773h13.3V7.074c0-.607-.7-.653-.7-.653" transform="translate(12.027 .255)" style="fill:#0067b6"/>
                    <path data-name="패스 20130" d="M85.286 3.955H81.61v9.493H66.576V3.955H62.9a1.746 1.746 0 0 0-1.58 1.871v20.068a1.749 1.749 0 0 0 1.58 1.874h3.677v-10.2H81.61v10.2h3.677a1.749 1.749 0 0 0 1.582-1.874V5.826a1.738 1.738 0 0 0-1.582-1.871" transform="translate(4.241 .273)" style="fill:#0067b6"/>
                    <path data-name="패스 20131" d="M57.172 3.955h-3.679V22.19L42.438 7.622C40.6 5.5 39.336 3.955 36.4 3.955h-3.748v21.939a1.747 1.747 0 0 0 1.588 1.874h3.673V9.449l11.126 14.467c1.879 2.176 3.552 3.852 6.277 3.852h3.435V5.826a1.743 1.743 0 0 0-1.579-1.871" transform="translate(2.258 .273)" style="fill:#0067b6"/>
                    <path data-name="패스 20132" d="M115.927 20.76H104.7v6.977h-4.122V20.76H89.509l-1.142-1.776h27.56c.287 0 .349.349.349.888s-.062.887-.349.887m-25.34-6.311V4.427h23.755c.285 0 .35.349.35.887s-.064.888-.35.888H94.71v3.077h19.473c.285 0 .349.349.349.888s-.063.887-.349.887H94.71v2.57a.974.974 0 0 0 .95.95h19c.284 0 .349.349.349.887s-.064.888-.349.888H92.49a1.909 1.909 0 0 1-1.9-1.9" transform="translate(6.112 .306)" style="fill:#0067b6"/>
                    <path data-name="패스 20133" d="M134.814 25.886c-3.3-1.047-7.073-3.775-8.435-6.977-1.365 3.2-5.138 5.931-8.437 6.977l-1.4-1.3a12.114 12.114 0 0 0 7.769-11.514V6.413h-5.995l-1.136-1.775h17.729c.285 0 .35.349.35.887s-.064.888-.35.888h-6.471v6.659a12.112 12.112 0 0 0 7.772 11.514zm3.933 1.9v-24.1h3.171a.976.976 0 0 1 .952.952v6.342h3.14c.284 0 .347.349.347.887s-.063.888-.347.888h-3.14v15.033z" transform="translate(8.061 .255)" style="fill:#0067b6"/>
                </g>
            </g>
        </g>
    </g>
</svg>
