<svg xmlns="http://www.w3.org/2000/svg" xmlns:xlink="http://www.w3.org/1999/xlink" width="250" height="80" viewBox="0 0 250 80">
    <defs>
        <clipPath id="w97154eujb">
            <path data-name="패스 19869" d="m53.289 3.916-5.624 6.7c2.275-2.687 6.956-5.2 11.272-4.433 5.719 1.017 6.449 6.835 4.247 10.1-2.651 3.927-9.383 4.817-14 4.817H38.871l-9.188 10.95h14.574c8.253 0 21.686.936 28.745-9.33 4.027-5.86 4.72-15.6-2.278-20.294A14.345 14.345 0 0 0 62.707 0a12.366 12.366 0 0 0-9.418 3.916" transform="translate(-29.683)" style="fill:none"/>
        </clipPath>
        <clipPath id="poc6f9a14c">
            <path data-name="패스 19870" d="M3.018 20.107C-1.011 25.967-1.7 35.7 5.294 40.4c6.115 4.106 14.035 2.589 17.434-1.491l5.625-6.7c-2.276 2.687-6.957 5.2-11.273 4.431-5.718-1.016-6.447-6.834-4.247-10.1 2.652-3.926 9.381-4.818 14-4.818h10.316l9.186-10.947H31.762c-1.274 0-2.671-.023-4.149-.023-8.1 0-18.626.67-24.595 9.352" transform="translate(0 -10.755)" style="fill:none"/>
        </clipPath>
        <clipPath id="4613xhja3e">
            <path data-name="사각형 2586" style="fill:none" d="M0 0h107.825v78H0z"/>
        </clipPath>
        <linearGradient id="5c1x6bmwma" x1="-.439" y1="1.558" x2="-.422" y2="1.558" gradientUnits="objectBoundingBox">
            <stop offset="0" stop-color="#a22b00"/>
            <stop offset=".048" stop-color="#b33e00"/>
            <stop offset=".158" stop-color="#d76500"/>
            <stop offset=".246" stop-color="#ed7e00"/>
            <stop offset=".3" stop-color="#f68700"/>
            <stop offset="1" stop-color="#f68700"/>
        </linearGradient>
        <linearGradient id="jexyfo8vfd" x1=".101" y1="1.371" x2=".118" y2="1.371" xlink:href="#5c1x6bmwma"/>
    </defs>
    <g data-name="그룹 3819">
        <g data-name="그룹 3818">
            <g data-name="그룹 3713">
                <g data-name="그룹 3708">
                    <g data-name="그룹 3707" style="clip-path:url(#w97154eujb)" transform="translate(86.961 1)">
                        <path data-name="사각형 2584" transform="rotate(-52.55 13.115 26.523)" style="fill:url(#5c1x6bmwma)" d="M0 0h55.386v58.197H0z"/>
                    </g>
                </g>
                <g data-name="그룹 3710">
                    <g data-name="그룹 3709" style="clip-path:url(#poc6f9a14c)" transform="translate(59 11.131)">
                        <path data-name="사각형 2585" transform="rotate(-52.55 12.569 28.863)" style="fill:url(#jexyfo8vfd)" d="M0 0h55.994v58.662H0z"/>
                    </g>
                </g>
                <g data-name="그룹 3712">
                    <g data-name="그룹 3711" style="clip-path:url(#4613xhja3e)" transform="translate(59 1)">
                        <path data-name="패스 19871" d="M65.121 61.606V41.314h-6.2v22.9h3.386a2.618 2.618 0 0 0 2.813-2.6" transform="translate(-3.418 -2.396)" style="fill:#161615"/>
                        <path data-name="패스 19872" d="M80.871 45.736a12.265 12.265 0 0 1 8.578.576v-4.54a24.423 24.423 0 0 0-7.7-.846c-3.156.2-11.832 1.79-11.832 11.782s8.677 11.581 11.832 11.784a24.392 24.392 0 0 0 7.7-.848v-4.539a12.262 12.262 0 0 1-8.578.577c-4.88-1.65-4.583-6.974-4.583-6.974s-.3-5.322 4.583-6.972" transform="translate(-4.055 -2.371)" style="fill:#161615"/>
                        <path data-name="패스 19873" d="M113.154 41.313H93.54v4.094h6.706v18.8h3.387a2.618 2.618 0 0 0 2.813-2.6v-16.2h6.708z" transform="translate(-5.426 -2.396)" style="fill:#161615"/>
                        <path data-name="패스 19874" d="M54.318 64.208 44.309 51.782l9-10.469h-6.9l-8.088 9.641v-9.641h-6.2v22.9H35.5a2.619 2.619 0 0 0 2.816-2.6v-8.377l8.621 10.972z" transform="translate(-1.863 -2.396)" style="fill:#161615"/>
                        <path data-name="패스 19875" d="M75.231 74.126V82.3h.788a.584.584 0 0 0 .572-.6v-7.574zm-5.582.822h2.71v.03c0 .154-.035 3.747-2.973 4.06v.785a4.508 4.508 0 0 0 4.375-4.845v-.76h-4.112z" transform="translate(-4.025 -4.299)" style="fill:#75746f"/>
                        <path data-name="패스 19876" d="M86.35 77.907v-.725h-7.917v.725H81.7v.755h-2.754v.727h5.462v.706h-5.462v1.525a.662.662 0 0 0 .647.674h6.169v-.725H80.3v-.749h5.465v-2.159h-2.718v-.755zm-4.007-2.22.02.019a5.225 5.225 0 0 0 3.437 1.026v-.7c-.27-.008-2.569-.132-2.7-1.994h-1.516v.009c-.141 1.854-2.43 1.976-2.7 1.985v.7a5.226 5.226 0 0 0 3.442-1.027z" transform="translate(-4.549 -4.294)" style="fill:#75746f"/>
                        <path data-name="패스 19877" d="M104.059 78.165a.619.619 0 0 0 .4-.6v-3.338h-6.721v.731h5.372v3.207H97.2v.735h3.208v3.409h.782a.588.588 0 0 0 .573-.6V78.9h3.352v-.731z" transform="translate(-5.638 -4.305)" style="fill:#75746f"/>
                        <path data-name="패스 19878" d="m92.608 77.672.009-.013h1.531v2.33h.788a.584.584 0 0 0 .574-.594V74.12h-1.362v1.05h-1.495l-.008-.013a2.433 2.433 0 0 0-2.116-1.131 2.36 2.36 0 1 0 0 4.717 2.419 2.419 0 0 0 2.079-1.07m.324-.781a2.335 2.335 0 0 0 .056-.508 2.5 2.5 0 0 0-.042-.447l-.007-.036h1.21v1.027h-1.224zm-3.5-.508c0-.908.473-1.593 1.1-1.593s1.1.685 1.1 1.593-.471 1.594-1.1 1.594-1.1-.686-1.1-1.594m.876 5.184V79.36h-1.354v2.26a.662.662 0 0 0 .649.673h5.987v-.724z" transform="translate(-5.108 -4.294)" style="fill:#75746f"/>
                        <path data-name="패스 19879" d="M109.269 80.5h1.3v-1.791h2.009v.61h-1.351v.725h1.351v.674h.78a.584.584 0 0 0 .572-.594v-6h-1.352v3.862h-5.948v.726h2.639zm.122-2.936c1.384 0 2.386-.737 2.386-1.752s-1-1.755-2.386-1.755S107 74.8 107 75.814s1 1.752 2.386 1.752m0-2.776a1.024 1.024 0 1 1-1.031 1.024.994.994 0 0 1 1.031-1.024m-.788 6.78v-2.079h-1.354v2.131a.661.661 0 0 0 .647.673h6.114v-.725z" transform="translate(-6.185 -4.295)" style="fill:#75746f"/>
                        <path data-name="패스 19880" d="M66.012 74.116V75.3h-1.678v.731h1.678v2.106h.788a.583.583 0 0 0 .573-.594v-3.427zm-3.637 2.554.022-.027.023.027a3.872 3.872 0 0 0 2.56 1.259l.123.01v-.7l-.128-.017c-.019 0-1.868-.278-1.868-2.755v-.341h-1.421v.274c0 2.538-1.847 2.817-1.865 2.82l-.129.017v.7l.122-.01a3.868 3.868 0 0 0 2.561-1.259M60.68 78.6v.726h5.339v.739H60.68v1.556a.662.662 0 0 0 .647.674h6.045v-.725h-5.339v-.779h5.339V78.6z" transform="translate(-3.462 -4.299)" style="fill:#75746f"/>
                        <path data-name="패스 19881" d="M38.617 75.757V74.1h-1.361v5.87h.789a.585.585 0 0 0 .572-.594v-2.887h1.115v-.732zm-5.2 3.582h-1.355V81.6a.662.662 0 0 0 .647.674H38.7v-.724h-5.286zm2.93-5h-1.83v-.67h-1.449v.67h-1.83v.731h5.106zm-.061 2.681c0-.966-1.045-1.747-2.533-1.747s-2.533.782-2.533 1.747 1.037 1.746 2.533 1.746c1.481 0 2.533-.783 2.533-1.746m-3.633 0a1.1 1.1 0 1 1 1.1 1.015 1.035 1.035 0 0 1-1.1-1.015" transform="translate(-1.811 -4.273)" style="fill:#75746f"/>
                        <path data-name="패스 19882" d="M48.813 77.96v-.73h-1.055a.609.609 0 0 0 .4-.6v-2.5h-6.721v.731h5.372v2.369H40.9v.73h3.2v1.321h-2.663v.731h5.372V82.3h.78a.584.584 0 0 0 .573-.594v-2.425h-2.7V77.96z" transform="translate(-2.372 -4.3)" style="fill:#75746f"/>
                        <path data-name="패스 19883" d="M52.721 81.574v-2.208h-1.354v2.259a.661.661 0 0 0 .647.674h6.046v-.724zm2.163-5.635v.589h1.677V80h.788a.586.586 0 0 0 .575-.6v-5.274h-1.363V75.8h-1.64a4.15 4.15 0 0 0 .1-.941v-.731H50.8v.731h2.824a3 3 0 0 1-3.094 3.015v.688s3.595.1 4.356-2.621" transform="translate(-2.931 -4.299)" style="fill:#75746f"/>
                    </g>
                </g>
            </g>
        </g>
        <path data-name="사각형 2640" style="fill:none" d="M0 0h250v80H0z"/>
    </g>
</svg>
