<svg xmlns="http://www.w3.org/2000/svg" xmlns:xlink="http://www.w3.org/1999/xlink" width="157.202" height="27.49" viewBox="0 0 157.202 27.49">
  <defs>
    <clipPath id="clip-path">
      <rect id="사각형_2671" data-name="사각형 2671" width="157.202" height="27.49" transform="translate(0 0)" fill="#fff"/>
    </clipPath>
  </defs>
  <g id="그룹_3878" data-name="그룹 3878" transform="translate(0 0)">
    <g id="그룹_3877" data-name="그룹 3877" clip-path="url(#clip-path)">
      <path id="패스_20151" data-name="패스 20151" d="M26.944,27h-5l2.782-13.087q.4-1.9-.452-2.552a3.408,3.408,0,0,0-1.995-.421,9.384,9.384,0,0,0-3.3.55,7.062,7.062,0,0,1-.195,2.164L15.954,27h-5l2.76-12.989q.405-1.906-.41-2.586a3,3,0,0,0-1.983-.485A8.924,8.924,0,0,0,8.25,11.4L4.932,27H0L4.091,7.755H8.262l0,1.228a13.2,13.2,0,0,1,6.032-1.6q3.178,0,4.283,1.812a13.922,13.922,0,0,1,6.476-1.812q6.057,0,4.715,6.313Z" fill="#fff"/>
      <path id="패스_20152" data-name="패스 20152" d="M48.8,17.291q-1.3,6.12-5.413,8.645a11.451,11.451,0,0,1-6.024,1.555q-9.135,0-7-10.07,1.3-6.12,5.372-8.613a11.2,11.2,0,0,1,6.031-1.587q9.168,0,7.029,10.07m-4.979.065q1.41-6.638-2.859-6.637-4.206,0-5.615,6.637t2.793,6.638q4.272,0,5.681-6.638" fill="#fff"/>
      <path id="패스_20153" data-name="패스 20153" d="M67.9,16.805a12.091,12.091,0,0,1-6.187,8.709,15,15,0,0,1-7.21,1.684,23.718,23.718,0,0,1-6.086-.647L54.066,0h4.966L57.2,8.624a10.949,10.949,0,0,1,4.943-1.143q7.745,0,5.763,9.324m-5.177.373q.783-3.681-.464-5.135a3.62,3.62,0,0,0-2.9-1,9.7,9.7,0,0,0-2.742.291L53.98,23.767h1.457a7.414,7.414,0,0,0,4.051-1q2.382-1.549,3.24-5.587" fill="#fff"/>
      <path id="패스_20154" data-name="패스 20154" d="M72.225,27H67.26L71.354,7.739h4.967Zm5-22.924H71.966L72.778.26h5.263Z" fill="#fff"/>
      <path id="패스_20155" data-name="패스 20155" d="M79.672,27H74.707L80.445,0h4.967Z" fill="#fff"/>
      <path id="패스_20156" data-name="패스 20156" d="M100.409,18.359H87.8q-.729,3.432,1.194,4.662a8.526,8.526,0,0,0,4.211.746h5.529l-.545,2.557a21.76,21.76,0,0,1-7.51,1.068q-9.565,0-7.513-9.648,1.318-6.217,5.34-8.774a11.19,11.19,0,0,1,6.15-1.684q8.109,0,6.135,9.292Zm-3.842-2.946q1.03-4.857-2.809-4.856-4.1,0-5.367,4.856Z" fill="#fff"/>
      <path id="패스_20157" data-name="패스 20157" d="M121.555,26.643a19.125,19.125,0,0,1-5.668.653q-9,0-6.937-9.714,1.3-6.119,5.96-8.58a14.147,14.147,0,0,1,6.711-1.521,21.119,21.119,0,0,1,3.594.226l-.689,3.238h-2.184a9.229,9.229,0,0,0-4.617,1q-2.7,1.516-3.543,5.458t.973,5.394a6.035,6.035,0,0,0,3.773.937h3.244Z" fill="#fff"/>
      <path id="패스_20158" data-name="패스 20158" d="M139.723,26.914a9.713,9.713,0,0,1-2.25.207,4.718,4.718,0,0,1-2.712-.727,6.928,6.928,0,0,1-1.8-2.025q-1.911-3.012-3.518-5.819-2.663,1.535-3.033,3.273-.534,2.519,2.439,2.52h2.735l-.541,2.545a21.985,21.985,0,0,1-3.58.233q-6.319,0-5.25-5.038.711-3.351,5.715-5.9a15.658,15.658,0,0,1-1.077-2.052,4.917,4.917,0,0,1-.228-2.805A4.986,4.986,0,0,1,129.7,7.72a10.257,10.257,0,0,1,4.1-.778,7.619,7.619,0,0,1,3.59.726q2.152,1.117,1.578,3.818a6.775,6.775,0,0,1-3.332,4.181q-.681.443-2.4,1.326,1.315,2.415,3.059,5.09a4.3,4.3,0,0,0,3.635,2.26h.318ZM134.907,11.72q.434-2.051-1.689-2.052a2.32,2.32,0,0,0-2.586,1.922,2.894,2.894,0,0,0,.24,1.74,12.518,12.518,0,0,0,.744,1.376c.736-.379,1.275-.674,1.623-.883a3.187,3.187,0,0,0,1.668-2.1" fill="#fff"/>
      <path id="패스_20159" data-name="패스 20159" d="M153.543,26.643a19.134,19.134,0,0,1-5.668.653q-9,0-6.939-9.714,1.3-6.119,5.962-8.58a14.139,14.139,0,0,1,6.709-1.521,21.1,21.1,0,0,1,3.594.226l-.687,3.238H154.33a9.224,9.224,0,0,0-4.617,1q-2.707,1.516-3.543,5.458t.973,5.394a6.025,6.025,0,0,0,3.771.937h3.244Z" fill="#fff"/>
    </g>
  </g>
</svg>
