<svg id="레이어_1" data-name="레이어 1" xmlns="http://www.w3.org/2000/svg" viewBox="0 0 157.2 27.49">
  <defs>
    <style>
      .cls-1 {
        fill: none;
        stroke: #000;
        stroke-miterlimit: 10;
      }
    </style>
  </defs>
  <path class="cls-1" d="M28.25,3a32.73,32.73,0,0,1-6.1-.06,13.1,13.1,0,0,0-6,.82,5.56,5.56,0,0,0-3.44,4.66A2.2,2.2,0,0,0,13,9.62a2.51,2.51,0,0,0,1.05.82,9.1,9.1,0,0,0,6.05.67c1.84-.43,3.48-1.43,5.27-2A13,13,0,0,1,30,8.4,3.85,3.85,0,0,1,32.22,9a3.49,3.49,0,0,1,1.15,2.57,9.64,9.64,0,0,1-2,6.38,21.66,21.66,0,0,1-5,4.63c-1.41,1-3.09,2-4.78,1.6a5.93,5.93,0,0,1-2.69-1.77,33.41,33.41,0,0,1-4.29-5.26"/>
  <path class="cls-1" d="M39,7.07a5.46,5.46,0,0,1,.49,2.78l0,12.18c1.12-4.49,3.34-8.61,5.58-12.66A3.6,3.6,0,0,1,46,8.17a3.62,3.62,0,0,1,2.56-.38,30,30,0,0,1-1.09,8.55L46.15,22"/>
  <path class="cls-1" d="M62.78,16.52a7.45,7.45,0,0,0,1.36-4.15,6.61,6.61,0,0,0-.26-3A4.76,4.76,0,0,0,60,6.61c-4.25-.44-10.19,3.69-8.27,8.31,1.07,2.55,2.52,3.53,5.24,3.58C59,18.55,61.37,18.22,62.78,16.52Z"/>
  <path class="cls-1" d="M67,7.93A35.82,35.82,0,0,0,66.58,19c.08.58.33,1.32.92,1.31a1.26,1.26,0,0,0,.82-.51,36.16,36.16,0,0,0,5.23-7.62l0,7.47c1.15.24,2.15-.77,2.86-1.71a56.22,56.22,0,0,0,4.11-6.26"/>
  <path class="cls-1" d="M96.69,6.06a.37.37,0,0,1-.47-.27C94,7,91.75,8.3,90.53,10.47a11.73,11.73,0,0,0-1,2.76A39.41,39.41,0,0,0,88.2,24"/>
  <path class="cls-1" d="M84.6,15.64A54.08,54.08,0,0,0,98.53,14"/>
  <path class="cls-1" d="M107.09,5.81,106,5.56c-.34-.07-.83,0-.85.31s.22.37.43.47a9,9,0,0,0,2.64.77,1,1,0,0,0-.48-1.2"/>
  <path class="cls-1" d="M106.15,9.84c-1.6,3.74,0,8.35-1.92,12"/>
  <path class="cls-1" d="M112,14.24a13.24,13.24,0,0,0,7-.26,2.44,2.44,0,0,0,1.65-1.17,2.13,2.13,0,0,0-.93-2.33,4.73,4.73,0,0,0-4.11-.82,7.94,7.94,0,0,0-2.85,1.65,8,8,0,0,0-3.09,4.38,1.62,1.62,0,0,0,0,.9,1.75,1.75,0,0,0,.56.68c2.1,1.72,5,2,7.72,2"/>
  <path class="cls-1" d="M130.55,5.73c-.72-.16-1.26.64-1.52,1.33a30.64,30.64,0,0,0-1.33,5.44l-1.48,8.2"/>
  <path class="cls-1" d="M145.39,4.9c-.93,3.8-.42,7.78-.56,11.69a12.66,12.66,0,0,1-1.28,5.74,5.59,5.59,0,0,1-4.75,3.05,2.26,2.26,0,0,1-1.49-.52,2.77,2.77,0,0,1-.66-1.45,23.83,23.83,0,0,1-.44-2.64,7.87,7.87,0,0,1,.61-4.71,6.08,6.08,0,0,1,3.38-2.62,13.91,13.91,0,0,1,4.31-.61"/>
</svg>
