<?xml version="1.0" encoding="utf-8"?>
<!-- Generator: Adobe Illustrator 26.3.1, SVG Export Plug-In . SVG Version: 6.00 Build 0)  -->
<svg version="1.1" id="레이어_1" xmlns="http://www.w3.org/2000/svg" xmlns:xlink="http://www.w3.org/1999/xlink" x="0px"
	 y="0px" viewBox="0 0 729.07 205.48" style="enable-background:new 0 0 729.07 205.48;" xml:space="preserve">
<style type="text/css">
	.st0{fill:none;stroke:#000000;stroke-miterlimit:10;}
</style>
<path class="st0" d="M632.98,60.39c-40.62,15-83.57,22.74-126.55,28.05c-44.19,5.46-88.9,8.44-133.24,4.39
	c-44.34-4.05-88.44-15.31-127.34-36.98c-8.57-4.77-16.96-10.08-26.28-13.14c-16.65-5.47-36.33-2.77-49.4,8.91
	s-17.72,32.6-8.88,47.73c8.47,14.49,25.96,20.69,42.2,24.93c34.23,8.92,71.53,13.79,104.23,0.32
	c28.54-11.76,49.85-35.89,75.15-53.57c21.37-14.94,46.42-25.46,72.47-26.48c31.79-1.24,62.41,11.53,90.62,26.23
	c11.13,5.8,23.85,15.58,20.98,27.8c-2.05,8.76-11.35,13.58-19.88,16.45c-46.17,15.55-96.78,7.51-144.09-4.13
	s-94.74-26.84-143.43-25.19c-14.41,0.49-28.97,2.52-42.18,8.28c-23.88,10.42-41.83,33.4-46.16,59.09
	c38.2,16.34,81.71,11.47,122.94,6.31c56.52-7.08,113.04-14.15,169.56-21.23c44.64-5.59,92.77-10.55,132.1,11.28"/>
<path class="st0" d="M36.64,5.16C16.53,38.44-3.58,71.71-23.7,104.99C44.35,62,113.85,21.33,184.67-16.94
	C140.64,41.95,96.17,101.57,67.52,169.28c9.63,2.78,18.96-4.57,26.4-11.28C164.46,94.39,244.61,41.46,330.8,1.54
	c-41.71,87.42-84.67,174.25-128.87,260.44c65.42-108.5,177.86-180.34,293.56-231.97c-31.58,89.96-66.81,178.64-105.57,265.75
	C493.03,194.15,596.15,92.53,699.26-9.09c-21.99,83.98-39.97,169.01-53.84,254.7c25.52-50.67,55.23-99.22,88.75-144.99
	c-12.06,41.73-24.11,83.47-36.17,125.2"/>
</svg>
