<svg xmlns="http://www.w3.org/2000/svg" width="14" height="14" viewBox="0 0 14 14"><defs><style>.a{fill:#fff;}</style></defs><path class="a" d="M7,0a7,7,0,1,0,7,7A7.008,7.008,0,0,0,7,0ZM6.59,3.436a9.57,9.57,0,0,1-1.831-.257c.094-.223.2-.438.307-.641A3.542,3.542,0,0,1,6.59.908Zm0,.821V6.59H4.028a10.308,10.308,0,0,1,.448-2.637A10.386,10.386,0,0,0,6.59,4.257Zm0,3.153V9.743a10.386,10.386,0,0,0-2.114.3A10.308,10.308,0,0,1,4.028,7.41Zm0,3.154v2.528a3.542,3.542,0,0,1-1.525-1.63c-.11-.2-.212-.418-.307-.641A9.569,9.569,0,0,1,6.59,10.564Zm.82,0a9.57,9.57,0,0,1,1.831.257c-.094.223-.2.438-.307.641a3.542,3.542,0,0,1-1.525,1.63Zm0-.821V7.41H9.972a10.308,10.308,0,0,1-.448,2.637A10.386,10.386,0,0,0,7.41,9.743Zm0-3.153V4.257a10.386,10.386,0,0,0,2.114-.3A10.308,10.308,0,0,1,9.972,6.59Zm0-3.154V.908a3.542,3.542,0,0,1,1.525,1.63c.11.2.212.418.307.641A9.57,9.57,0,0,1,7.41,3.436ZM9.656,2.147a6.227,6.227,0,0,0-.664-1,6.187,6.187,0,0,1,2.188,1.3,7.751,7.751,0,0,1-1.144.5A8.311,8.311,0,0,0,9.656,2.147Zm-5.312,0a8.31,8.31,0,0,0-.38.8,7.762,7.762,0,0,1-1.144-.5,6.187,6.187,0,0,1,2.188-1.3A6.23,6.23,0,0,0,4.344,2.147ZM3.687,3.719a10.984,10.984,0,0,0-.48,2.871H.834a6.151,6.151,0,0,1,1.4-3.523A8.437,8.437,0,0,0,3.687,3.719ZM3.207,7.41a10.984,10.984,0,0,0,.48,2.871,8.437,8.437,0,0,0-1.45.652A6.151,6.151,0,0,1,.834,7.41Zm.758,3.642a8.311,8.311,0,0,0,.38.8,6.234,6.234,0,0,0,.664,1,6.186,6.186,0,0,1-2.188-1.3A7.751,7.751,0,0,1,3.964,11.052Zm5.692.8a8.311,8.311,0,0,0,.38-.8,7.762,7.762,0,0,1,1.144.5,6.187,6.187,0,0,1-2.188,1.3A6.23,6.23,0,0,0,9.656,11.853Zm.657-1.572a10.984,10.984,0,0,0,.48-2.871h2.372a6.151,6.151,0,0,1-1.4,3.523A8.437,8.437,0,0,0,10.313,10.281Zm.48-3.691a10.984,10.984,0,0,0-.48-2.871,8.437,8.437,0,0,0,1.45-.652,6.151,6.151,0,0,1,1.4,3.523Zm0,0"/></svg>