<svg xmlns="http://www.w3.org/2000/svg" xmlns:xlink="http://www.w3.org/1999/xlink" width="525" height="300" viewBox="0 0 525 300">
  <defs>
    <clipPath id="clip-path">
      <rect id="사각형_2626" data-name="사각형 2626" width="368.935" height="82.06" fill="none"/>
    </clipPath>
  </defs>
  <g id="그룹_3882" data-name="그룹 3882" transform="translate(-62 -848)">
    <rect id="사각형_2675" data-name="사각형 2675" width="525" height="300" transform="translate(62 848)" fill="none"/>
    <g id="그룹_3863" data-name="그룹 3863" transform="translate(124.52 944.402)">
      <rect id="사각형_2635" data-name="사각형 2635" width="380" height="108" transform="translate(0.48 -0.402)" fill="none"/>
      <g id="그룹_3790" data-name="그룹 3790" transform="translate(5.709 12.392)">
        <g id="그룹_3789" data-name="그룹 3789" transform="translate(0 0)" clip-path="url(#clip-path)">
          <path id="패스_20070" data-name="패스 20070" d="M87.074,21.753V58.7H72.317V24.707C72.317,8.2,80.625,0,97.132,0c7.432,0,13.118,1.639,17.27,4.922,4.155-3.174,9.84-4.7,17.273-4.7,16.507,0,24.705,8.2,24.6,24.707v34H148.73c-4.812-.328-7.217-2.626-7.217-7.216V21.971c-.326-6.009-3.6-8.963-10.056-8.963s-9.73,2.954-9.838,8.963V58.7H106.97V21.753c-.33-6.011-3.607-8.965-10.058-8.965s-9.728,2.954-9.838,8.965" transform="translate(62.552 0)" fill="#4f007d"/>
          <path id="패스_20071" data-name="패스 20071" d="M137.438,15.962H122.9C124.646,5.25,132.19,0,145.526,0c15.962,0,24.051,5.25,24.379,15.962V35.639c0,15.958-9.62,23.064-25.253,24.157-13.883,1.095-23.5-5.356-23.5-18.144.328-13.885,10.384-17.6,25.033-19.021,6.233-.768,9.4-2.626,9.4-5.8-.328-3.277-3.391-4.92-9.4-4.92-5.136,0-7.982,1.315-8.745,4.047M155.8,34.983V29.625a62.922,62.922,0,0,1-11.587,3.5c-5.793,1.093-8.745,3.825-8.745,8.086.328,4.592,2.73,6.777,7.324,6.777,8.088,0,13.008-4.808,13.008-13.006" transform="translate(104.789 0)" fill="#4f007d"/>
          <path id="패스_20072" data-name="패스 20072" d="M151.045,28.455C151.481,9.762,161.429.469,180.78.469h2.076V15.557h-4.92c-8.088,0-12.133,4.261-12.133,12.68V58.3H151.045Z" transform="translate(130.648 0.406)" fill="#4f007d"/>
          <path id="패스_20073" data-name="패스 20073" d="M220.386,35.233c0,9.946-2.516,16.507-7.654,19.675a33.649,33.649,0,0,1-17.053,4.482,29.167,29.167,0,0,1-16.4-4.92c-5.028-3.169-7.542-9.509-7.542-19.237V.468h14.537V38.183c0,6.449,3.28,9.618,9.84,9.618s9.84-3.169,9.84-9.618V7.685c-.11-4.813,2.186-7.217,7-7.217h7.434Z" transform="translate(148.549 0.405)" fill="#4f007d"/>
          <path id="패스_20074" data-name="패스 20074" d="M72.317,36.126h11v2.866h-7.82v3.114h6.891v2.868H75.493v5.589H72.317Z" transform="translate(62.551 31.248)" fill="#65af0e"/>
          <path id="패스_20075" data-name="패스 20075" d="M86.8,36.126h6.6a5.7,5.7,0,0,1,4.207,1.464,4.454,4.454,0,0,1,1.238,3.3v.039a4.541,4.541,0,0,1-.856,2.861,4.957,4.957,0,0,1-2.238,1.617l3.529,5.158H95.563l-3.094-4.621h-2.5v4.621H86.8Zm6.393,7.014A2.647,2.647,0,0,0,95,42.583a1.891,1.891,0,0,0,.628-1.485v-.041a1.841,1.841,0,0,0-.66-1.546,2.909,2.909,0,0,0-1.837-.518H89.974V43.14Z" transform="translate(75.077 31.248)" fill="#65af0e"/>
          <path id="패스_20076" data-name="패스 20076" d="M107.109,36.07h2.928l6.19,14.543H112.9l-1.319-3.238h-6.106l-1.32,3.238h-3.238Zm3.342,8.5-1.917-4.683-1.921,4.683Z" transform="translate(87.293 31.199)" fill="#65af0e"/>
          <path id="패스_20077" data-name="패스 20077" d="M116.033,36.126h3.424l3.8,6.1,3.8-6.1h3.424V50.565h-3.133V41.139L123.272,47.3h-.082l-4.023-6.1v9.364h-3.135Z" transform="translate(100.364 31.248)" fill="#65af0e"/>
          <path id="패스_20078" data-name="패스 20078" d="M131.841,36.126h10.871v2.827h-7.734v2.928h6.805v2.827h-6.805v3.031h7.837v2.825H131.841Z" transform="translate(114.038 31.248)" fill="#65af0e"/>
          <path id="패스_20079" data-name="패스 20079" d="M143.79,36.144h3.4l2.991,9.776,3.238-9.815h2.721l3.239,9.815,2.991-9.776h3.32l-4.929,14.543H158l-3.26-9.448-3.258,9.448h-2.764Z" transform="translate(124.373 31.229)" fill="#65af0e"/>
          <path id="패스_20080" data-name="패스 20080" d="M168.08,50.927a7.883,7.883,0,0,1-3.073-.587,7.6,7.6,0,0,1-2.423-1.589A7.1,7.1,0,0,1,161,46.4a7.406,7.406,0,0,1-.569-2.9v-.041a7.291,7.291,0,0,1,.578-2.9,7.382,7.382,0,0,1,4.034-3.982,8.378,8.378,0,0,1,6.154,0,7.651,7.651,0,0,1,2.424,1.589,7.127,7.127,0,0,1,1.587,2.352,7.405,7.405,0,0,1,.567,2.9v.039a7.342,7.342,0,0,1-.574,2.9,7.383,7.383,0,0,1-4.034,3.982,7.953,7.953,0,0,1-3.085.587M168.123,48a4.293,4.293,0,0,0,1.753-.352,4.011,4.011,0,0,0,1.371-.968,4.573,4.573,0,0,0,.886-1.434,4.709,4.709,0,0,0,.321-1.744v-.041a4.77,4.77,0,0,0-.321-1.751,4.354,4.354,0,0,0-.906-1.445,4.4,4.4,0,0,0-1.391-.981,4.245,4.245,0,0,0-1.755-.36,4.292,4.292,0,0,0-1.762.351,4.058,4.058,0,0,0-1.361.97,4.513,4.513,0,0,0-.886,1.432,4.714,4.714,0,0,0-.321,1.746v.039a4.774,4.774,0,0,0,.321,1.753,4.288,4.288,0,0,0,.906,1.443,4.372,4.372,0,0,0,1.382.983,4.215,4.215,0,0,0,1.764.36" transform="translate(138.764 31.133)" fill="#65af0e"/>
          <path id="패스_20081" data-name="패스 20081" d="M176.075,36.126h6.6a5.7,5.7,0,0,1,4.209,1.464,4.46,4.46,0,0,1,1.236,3.3v.039a4.529,4.529,0,0,1-.856,2.861,4.942,4.942,0,0,1-2.236,1.617l3.527,5.158h-3.711l-3.1-4.621h-2.5v4.621h-3.176Zm6.395,7.014a2.638,2.638,0,0,0,1.805-.558A1.891,1.891,0,0,0,184.9,41.1v-.041a1.836,1.836,0,0,0-.66-1.546,2.9,2.9,0,0,0-1.837-.518h-3.156V43.14Z" transform="translate(152.298 31.248)" fill="#65af0e"/>
          <path id="패스_20082" data-name="패스 20082" d="M190.779,36.126h3.174v6.313l5.862-6.313h3.834l-5.878,6.126,6.147,8.312H200.1l-4.476-6.147-1.673,1.733v4.414h-3.174Z" transform="translate(165.017 31.248)" fill="#65af0e"/>
          <path id="패스_20083" data-name="패스 20083" d="M62.148,43.981,15.237,26.141,0,31.152,62.148,54.606,124.3,31.152,109.06,26.141Z" transform="translate(0 22.611)" fill="#8dce11"/>
          <path id="패스_20084" data-name="패스 20084" d="M33.324,54.607,95.472,31.153,80.235,26.14,33.324,43.982" transform="translate(28.824 22.61)" fill="#65af0e"/>
          <path id="패스_20085" data-name="패스 20085" d="M55.081,50.837,8.17,33,55.081,18.215,101.993,33Z" transform="translate(7.067 15.755)" fill="#a9d841"/>
          <path id="패스_20086" data-name="패스 20086" d="M62.148,46.505,0,22.845,62.148,2.6,124.3,22.845Z" transform="translate(0 2.246)" fill="#7830b7"/>
          <path id="패스_20087" data-name="패스 20087" d="M33.324,2.6,95.472,22.845,33.324,46.505" transform="translate(28.824 2.246)" fill="#4f007d"/>
        </g>
      </g>
    </g>
  </g>
</svg>
