<svg data-name="그룹 3398" xmlns="http://www.w3.org/2000/svg" width="54.158" height="12.421" viewBox="0 0 54.158 12.421">
    <defs>
        <clipPath id="xddg9v1zfa">
            <path data-name="사각형 2446" style="fill:none" d="M0 0h54.158v12.421H0z"/>
        </clipPath>
    </defs>
    <g data-name="그룹 3397" style="clip-path:url(#xddg9v1zfa)">
        <path data-name="패스 11017" d="M374.613 6.329V5.086A4.191 4.191 0 0 0 370.331.61a4.794 4.794 0 0 0-4.815 4.962c0 2.89 1.855 4.671 4.17 4.671a4.4 4.4 0 0 0 3.278-1.279 5.389 5.389 0 0 0 .473.7 1.024 1.024 0 0 0 .813.422 1.373 1.373 0 0 0 .541-.123 1.107 1.107 0 0 0 .692-.7.946.946 0 0 0-.14-.77 4.387 4.387 0 0 1-.731-2.171m-2.521-.994c-.089 1.549-.947 2.885-2.427 2.747-1.152-.1-1.829-1.333-1.618-2.849s1.159-2.577 2.374-2.477c1.19.062 1.75 1.061 1.67 2.579" transform="translate(-330.599 -.552)" style="fill:#0099dc"/>
        <path data-name="패스 11018" d="M477.433 10.626c-.456 1.172-.289 1.5.17 1.68a1.791 1.791 0 0 0 2.295-1.028l3.69-9.485c.455-1.17.289-1.5-.171-1.679a1.789 1.789 0 0 0-2.293 1.028l-1.335 3.437-1.938-3.636a1.794 1.794 0 0 0-2.394-.748c-.437.233-.565.571.02 1.668l3.1 5.826z" transform="translate(-429.698)" style="fill:#0099dc"/>
        <path data-name="패스 11019" d="M237.821.632a1.25 1.25 0 0 0-1.411 1.047l-.955 5.365a.03.03 0 0 1-.059 0l-1.239-5.125c-.231-.891-.5-1.29-1.254-1.29s-1.024.4-1.256 1.29l-1.239 5.125a.03.03 0 0 1-.059 0l-.955-5.365a1.248 1.248 0 0 0-1.411-1.047c-.586 0-1.119.314-1 .821l1.717 7.576a1.538 1.538 0 0 0 1.6 1.153 1.633 1.633 0 0 0 1.662-1.153l.951-4.011.949 4.011a1.634 1.634 0 0 0 1.662 1.153 1.539 1.539 0 0 0 1.595-1.153l1.717-7.576c.113-.506-.419-.821-1.005-.821" transform="translate(-205.281 -.572)" style="fill:#0099dc"/>
        <path data-name="패스 11020" d="M114.769.61a4.563 4.563 0 0 0-4.9 4.816 4.9 4.9 0 0 0 9.8 0 4.563 4.563 0 0 0-4.9-4.816m0 7.489a2.391 2.391 0 0 1-2.384-2.673 2.4 2.4 0 1 1 4.767 0 2.391 2.391 0 0 1-2.383 2.674" transform="translate(-99.372 -.552)" style="fill:#0099dc"/>
        <path data-name="패스 11021" d="M8.2 7.324a4.277 4.277 0 0 1-3.248.926 2.62 2.62 0 0 1-2.435-2.825A2.393 2.393 0 0 1 4.9 2.752a3.2 3.2 0 0 1 2.159.815 1.12 1.12 0 0 0 1.77-.988C8.692 1.7 7.1.609 4.9.609A4.563 4.563 0 0 0 0 5.425c0 2.508 1.485 4.818 5.134 4.818 1.926 0 3.311-.8 3.511-1.875A1.064 1.064 0 0 0 8.2 7.324" transform="translate(0 -.551)" style="fill:#0099dc"/>
    </g>
</svg>
