<svg xmlns="http://www.w3.org/2000/svg" width="60.02" height="14.258" viewBox="0 0 60.02 14.258">
    <defs>
        <clipPath id="s7q6xkn4ca">
            <path data-name="사각형 2460" style="fill:none" d="M0 0h60.02v14.258H0z"/>
        </clipPath>
    </defs>
    <g data-name="그룹 3425">
        <g data-name="그룹 3424" style="clip-path:url(#s7q6xkn4ca)">
            <path data-name="패스 11211" d="M100.586 12.225a2.866 2.866 0 0 0 1.588 1.882l-.322.381a3.775 3.775 0 0 1-1.816-1.357 3.834 3.834 0 0 1-1.825 1.394l-.314-.382a2.826 2.826 0 0 0 1.577-1.919h-1.38v-.486h1.428v-.784h1.009v.784h1.451v.486zm2.357 3.853v-.732h-3.785v-.492h4.742v1.693h-3.792v.559c0 .112.047.166.17.166H104v.485h-4.243a.543.543 0 0 1-.592-.6v-1.079zm.956-1.633h-.964v-3.308h.964z" transform="translate(-65.481 -7.327)" style="fill:#dc000c"/>
            <path data-name="패스 11212" d="M121.629 12.272a2.62 2.62 0 0 0 1.634 2.359l-.323.387a3.656 3.656 0 0 1-1.816-1.313 3.794 3.794 0 0 1-1.825 1.386l-.317-.383a2.724 2.724 0 0 0 1.614-2.418v-.6h1.033zm3.032 4.571c0 .9-.79 1.493-1.825 1.493s-1.823-.594-1.823-1.493a1.862 1.862 0 0 1 3.648 0m-2.679 0a.867.867 0 1 0 1.715 0 .867.867 0 1 0-1.715 0m2.974-5.338v3.808h-.962v-2.044h-1.332v-.49h1.332v-1.274z" transform="translate(-79.584 -7.695)" style="fill:#dc000c"/>
            <path data-name="패스 11213" d="M146.776 14.974h-6.455v-.488h6.455zm-.879.573v2.279h-4.213a.545.545 0 0 1-.595-.6v-1.679zm-.409-3.026c0 1.01-1.028 1.457-1.966 1.457s-1.965-.454-1.965-1.457c0-1.02 1.019-1.464 1.965-1.464s1.966.444 1.966 1.464m-3.455 4.654c0 .112.046.166.169.166h2.765v-1.309h-2.934zm.463-4.654a1.028 1.028 0 1 0 1.026-.976.976.976 0 0 0-1.026.976" transform="translate(-93.858 -7.396)" style="fill:#dc000c"/>
            <path data-name="패스 11214" d="M166.66 16.844V18h1.59v.493h-6.442V18h1.614v-1.156h-.369a.48.48 0 0 1-.49-.482v-1.535h3.884v-1.02h-3.884v-.485h4.816v2h-3.865v.834c0 .143.052.2.182.2h3.766v.494zM164.379 18h1.321v-1.155h-1.319z" transform="translate(-108.23 -8.911)" style="fill:#dc000c"/>
            <path data-name="패스 11215" d="M81.145 18.151h.99v-6.624h-.99zm-1.585-4.234h-1.238v.583h1.238v1.4a1.967 1.967 0 0 1-.781.147H77.37a.241.241 0 0 1-.239-.237v-3.3h1.811v-.476h-2.836v4.016a.475.475 0 0 0 .473.475h2.2a1.523 1.523 0 0 0 .781-.168v1.793h.988v-6.623h-.988z" transform="translate(-50.906 -7.71)" style="fill:#dc000c"/>
            <path data-name="패스 11216" d="M56.569 15.253V14.6h2.181v-.473h-4.107a.239.239 0 0 1-.241-.24v-.414h4.257v-1.6H53.38v.473h4.254v.651H53.38v1.133a.473.473 0 0 0 .475.473h1.688v.653h-2.715v.478H59.3v-.478zm.028.786H55.45a3.1 3.1 0 0 1-2.345 1.97l.287.423a4.949 4.949 0 0 0 2.634-1.4 4.93 4.93 0 0 0 2.629 1.4l.287-.423a3.1 3.1 0 0 1-2.346-1.97" transform="translate(-35.336 -7.94)" style="fill:#dc000c"/>
            <path data-name="패스 11217" d="M10.064 13.047a4.164 4.164 0 0 1-5.871 0l-2.982-2.984a4.162 4.162 0 0 1 0-5.869l2.982-2.983a4.163 4.163 0 0 1 5.871 0l2.982 2.983a4.161 4.161 0 0 1 0 5.869z" style="fill:#dc000c"/>
            <path data-name="패스 11218" d="M15.295 32.979a.467.467 0 1 1 .018 0h-.018" transform="translate(-9.936 -21.468)" style="fill:#fff"/>
            <path data-name="패스 11219" d="M17.226 8.577a.8.8 0 0 0-.593.231 2.783 2.783 0 0 0-.5 1.953 8.777 8.777 0 0 0 1.186 4.523 2 2 0 0 0 .464.443 1.04 1.04 0 0 0 .611.206 1.411 1.411 0 0 0 .24-.023 3.238 3.238 0 0 0 1.634-1.456.4.4 0 0 1 .335-.185.395.395 0 0 1 .386.308.394.394 0 0 1-.051.3 3.885 3.885 0 0 1-2.138 1.807h-.019a2.141 2.141 0 0 1-.393.038 1.836 1.836 0 0 1-1.043-.336 2.74 2.74 0 0 1-.652-.619c-1.261-1.618-1.347-4.654-1.352-4.995a3.573 3.573 0 0 1 .734-2.529 1.567 1.567 0 0 1 1.146-.46h.079a1.568 1.568 0 0 1 1.148.46 3.57 3.57 0 0 1 .733 2.529 8.156 8.156 0 0 1-1.04 3.934.4.4 0 0 1-.34.191.412.412 0 0 1-.2-.055.4.4 0 0 1-.137-.543 6.845 6.845 0 0 0 .929-3.541 2.774 2.774 0 0 0-.5-1.953.793.793 0 0 0-.591-.231z" transform="translate(-10.262 -5.208)" style="fill:#fff"/>
        </g>
    </g>
</svg>
