<svg xmlns="http://www.w3.org/2000/svg" width="45.339" height="10.777" viewBox="0 0 45.339 10.777">
    <defs>
        <clipPath id="iwd8evf3aa">
            <path data-name="사각형 2444" style="fill:none" d="M0 0h45.339v10.777H0z"/>
        </clipPath>
    </defs>
    <g data-name="그룹 3394">
        <g data-name="그룹 3393" style="clip-path:url(#iwd8evf3aa)">
            <path data-name="패스 11005" d="M10.49 6.1v.764H0V6.1h4.463V5.049h-2.47a.789.789 0 0 1-.8-.788V2.435h6.4V1.373h-6.4V.609h7.913v2.6H2.733v.728c0 .239.084.322.3.322h6.216v.788H6.015V6.1zm-.525 4.44-.442.668a7.638 7.638 0 0 1-4.284-2.149 7.535 7.535 0 0 1-4.285 2.148l-.442-.668c.9-.131 3.377-1.253 3.891-2.972h1.671c.513 1.718 3 2.852 3.891 2.972" transform="translate(0 -.43)" style="fill:#e50019"/>
            <path data-name="패스 11006" d="M44.131 6.743c.6 0 .931.012 1.193-.215V4.153h-2.183v-.787h2.184V0h1.515v10.67h-1.515V7.352a2.634 2.634 0 0 1-1.193.191h-3.115a.994.994 0 0 1-1.027-1.014V.418h4.344v.8h-2.816V6.35c0 .239.083.394.37.394zM47.9 0h1.516v10.67H47.9z" transform="translate(-28.235)" style="fill:#e50019"/>
            <path data-name="패스 11007" d="M80.034 1.378v1.4A4.653 4.653 0 0 0 82.4 7.19l-.573.573a4.922 4.922 0 0 1-2.497-2.256 5.151 5.151 0 0 1-2.459 2.315l-.584-.573c1.348-.764 2.172-2.136 2.172-4.344V1.378h-1.743V.6h5.263v.776zm2.626 2.757h-1.647v-.788h1.647L82.6.041h1.516l.06 10.67H82.66zM85.107.041h1.516v10.67h-1.516z" transform="translate(-53.862 -.029)" style="fill:#e50019"/>
            <path data-name="패스 11008" d="M120.024 3.76v3.878h2.59a7.8 7.8 0 0 0 1.91-.167V0h1.552v3.736h1.647v.776h-1.647v6.158h-1.552V8.259a6.261 6.261 0 0 1-1.91.191h-5.932v-.812h1.874V3.76zM117.171.43h6.039V3.5a8.864 8.864 0 0 1-.621 3.234h-1.349a11.417 11.417 0 0 0 .43-3.246v-2.27h-4.5z" transform="translate(-82.382)" style="fill:#e50019"/>
        </g>
    </g>
</svg>
