<svg xmlns="http://www.w3.org/2000/svg" xmlns:xlink="http://www.w3.org/1999/xlink" width="250" height="80" viewBox="0 0 250 80">
    <defs>
        <clipPath id="p2gvu011zb">
            <path data-name="패스 20019" d="M24.489 56.1a95.741 95.741 0 0 1-3.439 1.711.13.13 0 0 0-.006.232 64.256 64.256 0 0 0 8.4 3.594.134.134 0 0 0 .094 0c1.13-.468 2.2-.932 3.194-1.382a.134.134 0 0 0 .075-.119.129.129 0 0 0-.078-.118 145.468 145.468 0 0 1-8.122-3.916.126.126 0 0 0-.06-.015.13.13 0 0 0-.06.015" transform="translate(-20.976 -56.083)" style="fill:none"/>
        </clipPath>
        <clipPath id="s9qqyfvajc">
            <path data-name="패스 20020" d="M32.985 67.194a97.22 97.22 0 0 1-3.042 1.281.13.13 0 0 0 .015.247c3.25.864 6.125 1.539 7.965 1.952a.122.122 0 0 0 .029 0 .182.182 0 0 0 .032 0c1.1-.277 2.193-.574 3.24-.882a.13.13 0 0 0-.007-.251c-2.045-.474-4.784-1.264-8.14-2.35a.112.112 0 0 0-.04-.007.134.134 0 0 0-.052.01" transform="translate(-29.862 -67.184)" style="fill:none"/>
        </clipPath>
        <clipPath id="9x3lqnpvce">
            <path data-name="패스 20021" d="M14.451 60.863a88.77 88.77 0 0 1-3.562 1.457.133.133 0 0 0-.084.12.131.131 0 0 0 .082.121 94.884 94.884 0 0 0 9.219 3.039.109.109 0 0 0 .035 0 .145.145 0 0 0 .046-.008c1.172-.434 2.32-.873 3.41-1.3a.13.13 0 0 0 .082-.124.129.129 0 0 0-.089-.12 333.34 333.34 0 0 1-9.041-3.182.129.129 0 0 0-.046-.008.133.133 0 0 0-.051.01" transform="translate(-10.805 -60.853)" style="fill:none"/>
        </clipPath>
        <clipPath id="ge893rnoug">
            <path data-name="패스 20022" d="M89.166 39.465a.134.134 0 0 0-.111.089 113.179 113.179 0 0 1-2.555 7.053.13.13 0 0 0 .009.116 21.324 21.324 0 0 0 2.048 2.81.137.137 0 0 0 .1.044.128.128 0 0 0 .094-.041 37.474 37.474 0 0 0 3.706-4.682.132.132 0 0 0 0-.145c-1.346-2.009-2.657-4.292-3.166-5.179a.13.13 0 0 0-.112-.066h-.014" transform="translate(-86.49 -39.464)" style="fill:none"/>
        </clipPath>
        <clipPath id="vct4dw02bi">
            <path data-name="패스 20023" d="M109.352 53.01c-3.41 2.23-10.125 5.023-12.1 5.825a.129.129 0 0 0-.032.221c.842.671 1.729 1.33 2.636 1.956a.125.125 0 0 0 .072.023.1.1 0 0 0 .024 0 49.016 49.016 0 0 0 12.513-4.316.128.128 0 0 0 .068-.092.136.136 0 0 0-.033-.112 55.274 55.274 0 0 1-2.974-3.475.131.131 0 0 0-.174-.028" transform="translate(-97.169 -52.989)" style="fill:none"/>
        </clipPath>
        <clipPath id="8npv8g0ksk">
            <path data-name="패스 20024" d="M116.408 61.469c-3.68 1.963-10.281 2.993-12.949 3.345a.129.129 0 0 0-.11.1.131.131 0 0 0 .055.137c.931.608 1.9 1.2 2.876 1.763a.13.13 0 0 0 .064.017h.016a85.3 85.3 0 0 0 12.984-2.588.131.131 0 0 0 .045-.226 43.63 43.63 0 0 1-2.829-2.525.132.132 0 0 0-.091-.036.137.137 0 0 0-.062.015" transform="translate(-103.346 -61.454)" style="fill:none"/>
        </clipPath>
        <clipPath id="vh3huza9gm">
            <path data-name="패스 20025" d="M40.749 63.624c-.969.478-1.93.937-2.851 1.361a.133.133 0 0 0-.076.125.13.13 0 0 0 .089.116 174.501 174.501 0 0 0 8.249 2.59.106.106 0 0 0 .036.006.13.13 0 0 0 .041-.006c1-.325 1.984-.67 2.936-1.026a.132.132 0 0 0 .084-.129.129.129 0 0 0-.1-.119 58.34 58.34 0 0 1-8.3-2.922.126.126 0 0 0-.108 0" transform="translate(-37.822 -63.61)" style="fill:none"/>
        </clipPath>
        <clipPath id="wwwn0cqa5o">
            <path data-name="패스 20026" d="M94.587 15.1a.129.129 0 0 0-.113.115 70.167 70.167 0 0 1-2.928 13.249.137.137 0 0 0 .01.1 54.938 54.938 0 0 0 3.571 5.491.128.128 0 0 0 .1.052h.006a.128.128 0 0 0 .1-.06 60.9 60.9 0 0 0 4.166-7.909.129.129 0 0 0 0-.111 107.761 107.761 0 0 1-4.78-10.848.132.132 0 0 0-.119-.079h-.01" transform="translate(-91.541 -15.102)" style="fill:none"/>
        </clipPath>
        <clipPath id="oxdhkeh4vq">
            <path data-name="패스 20027" d="M34.59 50.2a96.992 96.992 0 0 1-3.776 2.235.129.129 0 0 0-.065.1.132.132 0 0 0 .05.113 42.606 42.606 0 0 0 7.576 4.385.133.133 0 0 0 .056.013.126.126 0 0 0 .057-.014 35.831 35.831 0 0 0 3.449-1.915.133.133 0 0 0 .06-.112.127.127 0 0 0-.062-.109 143.286 143.286 0 0 1-7.2-4.7.127.127 0 0 0-.075-.024.124.124 0 0 0-.068.02" transform="translate(-30.749 -50.18)" style="fill:none"/>
        </clipPath>
        <clipPath id="n1as837fzs">
            <path data-name="패스 20028" d="M101.365 39.563c-5.495 6.771-8.811 9.571-10.3 10.637a.131.131 0 0 0-.054.093.136.136 0 0 0 .033.1 33.21 33.21 0 0 0 2.393 2.307.129.129 0 0 0 .087.032.119.119 0 0 0 .045-.009 33.849 33.849 0 0 0 11.611-7.33.133.133 0 0 0 .014-.168 75.475 75.475 0 0 1-3.615-5.647.127.127 0 0 0-.1-.064h-.017a.125.125 0 0 0-.094.048" transform="translate(-91.011 -39.515)" style="fill:none"/>
        </clipPath>
        <clipPath id="mwrpoqbz1u">
            <path data-name="패스 20029" d="M81.118 0H81.1c-.135 0-.381.135-.789.777-.058.091-5.9 9.133-9.161 12.324a.128.128 0 0 0-.036.122c1.165 4.877 3.773 17.561 4.546 21.332a.126.126 0 0 0 .084.1.113.113 0 0 0 .042.007.134.134 0 0 0 .084-.03 22.8 22.8 0 0 0 3.879-4.02.108.108 0 0 0 .02-.047c1.841-8.209 1.9-24.981 1.876-29.924a.777.777 0 0 0-.181-.51.43.43 0 0 0-.3-.128z" transform="translate(-71.107)" style="fill:none"/>
        </clipPath>
        <clipPath id="wk0w1fy6iw">
            <path data-name="패스 20030" d="M24.293 70.64c-1.167.43-2.305.817-3.383 1.151a.13.13 0 0 0 .012.251c3.968.825 7.13 1.311 7.161 1.316h.043a98.138 98.138 0 0 0 4.332-.871.129.129 0 0 0 .1-.132.131.131 0 0 0-.111-.123c-2.171-.314-4.888-.851-8.08-1.6a.127.127 0 0 0-.03 0 .121.121 0 0 0-.044.009" transform="translate(-20.818 -70.631)" style="fill:none"/>
        </clipPath>
        <clipPath id="e3snfqjl2y">
            <path data-name="패스 20031" d="M123.643 67.551c-2.687 1.157-9.209 1.918-12.858 2.269a.13.13 0 0 0-.047.245 45.583 45.583 0 0 0 2.665 1.332.115.115 0 0 0 .053.012c8.639-.152 12.471-2.1 12.509-2.116a.127.127 0 0 0 .069-.109.125.125 0 0 0-.06-.116 36.598 36.598 0 0 1-2.2-1.5.131.131 0 0 0-.077-.025.145.145 0 0 0-.053.01" transform="translate(-110.668 -67.541)" style="fill:none"/>
        </clipPath>
        <clipPath id="8m43y96bcA">
            <path data-name="패스 20032" d="M3.479 65.129A59.808 59.808 0 0 1 .1 66.157a.131.131 0 0 0-.1.116v.015a.133.133 0 0 0 .08.115 65.967 65.967 0 0 0 10.021 2.9.105.105 0 0 0 .031 0 .147.147 0 0 0 .039-.007c.772-.259 2-.678 3.465-1.2a.13.13 0 0 0 .086-.129.127.127 0 0 0-.1-.12 253.507 253.507 0 0 1-10.067-2.72.148.148 0 0 0-.036 0 .112.112 0 0 0-.04.007" transform="translate(0 -65.122)" style="fill:none"/>
        </clipPath>
        <clipPath id="kufgrzph7C">
            <path data-name="패스 20033" d="M46.625 41.293a97.47 97.47 0 0 1-5.049 3.64.135.135 0 0 0-.056.094.131.131 0 0 0 .034.1c4.221 4.538 12.119 9.335 14.438 10.7a.13.13 0 0 0 .066.017.127.127 0 0 0 .057-.013 49.432 49.432 0 0 0 3.261-1.767.132.132 0 0 0 .014-.215c-3.685-2.88-10.032-9.73-12.59-12.54a.129.129 0 0 0-.1-.043.135.135 0 0 0-.08.027" transform="translate(-41.519 -41.266)" style="fill:none"/>
        </clipPath>
        <clipPath id="5bhuarl9yE">
            <path data-name="패스 20034" d="M69.095 44.352a61.026 61.026 0 0 1-4.748 4.141.131.131 0 0 0-.027.181 149.356 149.356 0 0 0 4.629 5.921.132.132 0 0 0 .1.047.129.129 0 0 0 .069-.02 39.275 39.275 0 0 0 3.317-2.322.13.13 0 0 0 .039-.153c-.539-1.261-1.607-3.867-3.169-7.745a.13.13 0 0 0-.093-.078.134.134 0 0 0-.027 0 .129.129 0 0 0-.09.036" transform="translate(-64.295 -44.316)" style="fill:none"/>
        </clipPath>
        <clipPath id="x3y74f6qcG">
            <path data-name="패스 20035" d="M48.908 59.219c-.7.388-1.842 1.009-3.311 1.763a.129.129 0 0 0 .006.234 111.551 111.551 0 0 0 8.106 3.234.168.168 0 0 0 .043.006.154.154 0 0 0 .049-.009c.9-.365 1.785-.752 2.64-1.149a.131.131 0 0 0 .075-.121.127.127 0 0 0-.079-.116 65.111 65.111 0 0 1-7.4-3.838.132.132 0 0 0-.066-.018.137.137 0 0 0-.063.016" transform="translate(-45.527 -59.203)" style="fill:none"/>
        </clipPath>
        <clipPath id="d10z8z31zI">
            <path data-name="패스 20036" d="M61.381 27.528a92.95 92.95 0 0 1-6.307 5.843.129.129 0 0 0-.03.162 71.935 71.935 0 0 0 4.578 7.117.13.13 0 0 0 .179.031 37.22 37.22 0 0 0 5.277-4.2.131.131 0 0 0 .027-.138 3454.526 3454.526 0 0 1-3.511-8.77.132.132 0 0 0-.094-.079h-.024a.129.129 0 0 0-.094.038" transform="translate(-55.028 -27.49)" style="fill:none"/>
        </clipPath>
        <clipPath id="l0t5fofdyK">
            <path data-name="사각형 2622" style="fill:none" d="M0 0h142.386v77.283H0z"/>
        </clipPath>
        <radialGradient id="1whfq6z74a" cx="3.08" cy="2.877" r="5.723" gradientTransform="matrix(.47 0 0 -1 -.579 15.371)" gradientUnits="objectBoundingBox">
            <stop offset="0" stop-color="#003b90"/>
            <stop offset=".459" stop-color="#003b90"/>
            <stop offset=".948" stop-color="#0086b4"/>
            <stop offset="1" stop-color="#008fb9"/>
        </radialGradient>
        <radialGradient id="9xp4i778wd" cx="2.703" cy="2.62" r="9.105" gradientTransform="matrix(.305 0 0 -1 -1.116 20.536)" xlink:href="#1whfq6z74a"/>
        <radialGradient id="jy3xlapp5f" cx="3.318" cy="2.75" r="6.702" gradientTransform="matrix(.369 0 0 -1 -.327 16.76)" xlink:href="#1whfq6z74a"/>
        <radialGradient id="gc8qrfct6h" cx="-.654" cy="2.594" r="3.146" gradientTransform="matrix(1.685 0 0 -1 6.082 10.475)" xlink:href="#1whfq6z74a"/>
        <radialGradient id="1qykym4etj" cx="-.683" cy="2.225" r="3.954" gradientTransform="matrix(.523 0 0 -1 -1.856 11.093)" xlink:href="#1whfq6z74a"/>
        <radialGradient id="0n69ps1c0l" cx="-.888" cy="2.359" r="5.917" gradientTransform="matrix(.334 0 0 -1 -2.634 14.659)" xlink:href="#1whfq6z74a"/>
        <radialGradient id="s5sfi04bkn" cx="2.278" cy="2.696" r="7.553" gradientTransform="matrix(.368 0 0 -1 -1.287 18.082)" xlink:href="#1whfq6z74a"/>
        <radialGradient id="e7ssrnphkp" cx="-.881" cy="2.17" r="1.673" gradientTransform="matrix(2.38 0 0 -1 9.747 7.151)" xlink:href="#1whfq6z74a"/>
        <radialGradient id="0hamnd7fir" cx="2.704" cy="2.858" r="4.632" gradientTransform="matrix(.611 0 0 -1 -.656 13.498)" xlink:href="#1whfq6z74a"/>
        <radialGradient id="hpom3cx4ft" cx="-.472" cy="1.982" r="2.407" gradientTransform="matrix(.93 0 0 -1 -.278 8.008)" xlink:href="#1whfq6z74a"/>
        <radialGradient id="28y0a5v0vv" cx=".526" cy="1.459" r=".918" gradientTransform="matrix(3.28 0 0 -1 9.454 4.46)" xlink:href="#1whfq6z74a"/>
        <radialGradient id="dmuxt5j7wx" cx="3.111" cy="2.576" r="11.664" gradientTransform="matrix(.232 0 0 -1 -.838 24.751)" xlink:href="#1whfq6z74a"/>
        <radialGradient id="ek5085hc3z" cx="-1.224" cy="2.309" r="8.222" gradientTransform="matrix(.252 0 0 -1 -3.319 18.434)" xlink:href="#1whfq6z74a"/>
        <radialGradient id="xd8vu8iqbB" cx="3.597" cy="2.488" r="7.594" gradientTransform="matrix(.305 0 0 -1 0 17.736)" xlink:href="#1whfq6z74a"/>
        <radialGradient id="d6ozi37blD" cx="1.327" cy="1.724" r="2.182" gradientTransform="matrix(.813 0 0 -1 -.267 7.114)" xlink:href="#1whfq6z74a"/>
        <radialGradient id="uqdt5qk0rF" cx="1.188" cy="2.251" r="3.081" gradientTransform="matrix(1.256 0 0 -1 1.235 9.68)" xlink:href="#1whfq6z74a"/>
        <radialGradient id="zjhl0wcbbH" cx="1.939" cy="2.679" r="6.057" gradientTransform="matrix(.478 0 0 -1 -1.333 15.537)" xlink:href="#1whfq6z74a"/>
        <radialGradient id="567xi9envJ" cx="1.53" cy="2.544" r="2.408" gradientTransform="matrix(1.307 0 0 -1 1.03 9.133)" xlink:href="#1whfq6z74a"/>
    </defs>
    <g data-name="그룹 3817">
        <g data-name="그룹 3816">
            <g data-name="그룹 3782">
                <g data-name="그룹 3745">
                    <g data-name="그룹 3744" style="clip-path:url(#p2gvu011zb)" transform="translate(66.927 35.562)">
                        <path data-name="사각형 2600" transform="translate(-.001)" style="fill:url(#1whfq6z74a)" d="M0 0h11.834v5.559H0z"/>
                    </g>
                </g>
                <g data-name="그룹 3747">
                    <g data-name="그룹 3746" style="clip-path:url(#s9qqyfvajc)" transform="translate(72.403 42.403)">
                        <path data-name="사각형 2601" transform="translate(-.003)" style="fill:url(#9xp4i778wd)" d="M0 0h11.46v3.494H0z"/>
                    </g>
                </g>
                <g data-name="그룹 3749">
                    <g data-name="그룹 3748" style="clip-path:url(#9x3lqnpvce)" transform="translate(60.659 38.502)">
                        <path data-name="사각형 2602" style="fill:url(#jy3xlapp5f)" d="M0 0h12.874v4.747H0z"/>
                    </g>
                </g>
                <g data-name="그룹 3751">
                    <g data-name="그룹 3750" style="clip-path:url(#ge893rnoug)" transform="translate(107.301 25.32)">
                        <path data-name="사각형 2603" transform="translate(-.006)" style="fill:url(#gc8qrfct6h)" d="M0 0h6.002v10.112H0z"/>
                    </g>
                </g>
                <g data-name="그룹 3753">
                    <g data-name="그룹 3752" style="clip-path:url(#vct4dw02bi)" transform="translate(113.883 33.656)">
                        <path data-name="사각형 2604" transform="translate(-.006)" style="fill:url(#1qykym4etj)" d="M0 0h15.374v8.046H0z"/>
                    </g>
                </g>
                <g data-name="그룹 3755">
                    <g data-name="그룹 3754" style="clip-path:url(#8npv8g0ksk)" transform="translate(117.689 38.872)">
                        <path data-name="사각형 2605" transform="translate(-.009)" style="fill:url(#0n69ps1c0l)" d="M0 0h16.108v5.377H0z"/>
                    </g>
                </g>
                <g data-name="그룹 3757">
                    <g data-name="그룹 3756" style="clip-path:url(#vh3huza9gm)" transform="translate(77.308 40.201)">
                        <path data-name="사각형 2606" transform="translate(-.002)" style="fill:url(#s5sfi04bkn)" d="M0 0h11.44v4.212H0z"/>
                    </g>
                </g>
                <g data-name="그룹 3759">
                    <g data-name="그룹 3758" style="clip-path:url(#wwwn0cqa5o)" transform="translate(110.414 10.307)">
                        <path data-name="사각형 2607" transform="translate(-.005)" style="fill:url(#e7ssrnphkp)" d="M0 0h7.987v19.011H0z"/>
                    </g>
                </g>
                <g data-name="그룹 3761">
                    <g data-name="그룹 3760" style="clip-path:url(#oxdhkeh4vq)" transform="translate(72.949 31.924)">
                        <path data-name="사각형 2608" transform="translate(-.002)" style="fill:url(#0hamnd7fir)" d="M0 0h11.249v6.869H0z"/>
                    </g>
                </g>
                <g data-name="그룹 3763">
                    <g data-name="그룹 3762" style="clip-path:url(#n1as837fzs)" transform="translate(110.087 25.352)">
                        <path data-name="사각형 2609" transform="translate(-.003)" style="fill:url(#hpom3cx4ft)" d="M0 0h14.221v13.22H0z"/>
                    </g>
                </g>
                <g data-name="그룹 3765">
                    <g data-name="그룹 3764" style="clip-path:url(#mwrpoqbz1u)" transform="translate(97.821 1)">
                        <path data-name="사각형 2610" transform="translate(-.007)" style="fill:url(#28y0a5v0vv)" d="M0 0h10.567v34.658H0z"/>
                    </g>
                </g>
                <g data-name="그룹 3767">
                    <g data-name="그룹 3766" style="clip-path:url(#wk0w1fy6iw)" transform="translate(66.83 44.528)">
                        <path data-name="사각형 2611" transform="translate(-.004)" style="fill:url(#dmuxt5j7wx)" d="M0 0h11.747v2.728H0z"/>
                    </g>
                </g>
                <g data-name="그룹 3769">
                    <g data-name="그룹 3768" style="clip-path:url(#e3snfqjl2y)" transform="translate(122.201 42.624)">
                        <path data-name="사각형 2612" transform="translate(-.009)" style="fill:url(#ek5085hc3z)" d="M0 0h15.378v3.869H0z"/>
                    </g>
                </g>
                <g data-name="그룹 3771">
                    <g data-name="그룹 3770" style="clip-path:url(#8m43y96bcA)" transform="translate(54 41.133)">
                        <path data-name="사각형 2613" style="fill:url(#xd8vu8iqbB)" d="M0 0h13.725v4.189H0z"/>
                    </g>
                </g>
                <g data-name="그룹 3773">
                    <g data-name="그룹 3772" style="clip-path:url(#kufgrzph7C)" transform="translate(79.587 26.431)">
                        <path data-name="사각형 2614" transform="translate(-.003)" style="fill:url(#d6ozi37blD)" d="M0 0h17.927v14.578H0z"/>
                    </g>
                </g>
                <g data-name="그룹 3775">
                    <g data-name="그룹 3774" style="clip-path:url(#5bhuarl9yE)" transform="translate(93.623 28.311)">
                        <path data-name="사각형 2615" transform="translate(-.017)" style="fill:url(#uqdt5qk0rF)" d="M0 0h8.219v10.325H0z"/>
                    </g>
                </g>
                <g data-name="그룹 3777">
                    <g data-name="그룹 3776" style="clip-path:url(#x3y74f6qcG)" transform="translate(82.057 37.485)">
                        <path data-name="사각형 2616" transform="translate(-.001)" style="fill:url(#zjhl0wcbbH)" d="M0 0h10.992v5.252H0z"/>
                    </g>
                </g>
                <g data-name="그룹 3779">
                    <g data-name="그룹 3778" style="clip-path:url(#d10z8z31zI)" transform="translate(87.912 17.941)">
                        <path data-name="사각형 2617" transform="translate(-.014)" style="fill:url(#567xi9envJ)" d="M0 0h10.11v13.215H0z"/>
                    </g>
                </g>
                <g data-name="그룹 3781">
                    <g data-name="그룹 3780" style="clip-path:url(#l0t5fofdyK)" transform="translate(54 1)">
                        <path data-name="패스 20037" d="m19.975 83.833-5.754 15.058h3.416L21.412 89l3.911 9.889H28.6l-5.749-15.056z" transform="translate(-5.457 -32.169)" style="fill:#1a1818"/>
                        <path data-name="패스 20038" d="m67.17 93.437 6.513-6.275 6.47 6.275H84.8l-6.28-6.458h5.124v-3.146H63.722v3.146h5.215l-6.366 6.458z" transform="translate(-24.011 -32.169)" style="fill:#1a1818"/>
                        <path data-name="패스 20039" d="M38.247 88.369a2.039 2.039 0 1 0 0 2.345v8.177h3.147V83.833h-3.147z" transform="translate(-13.257 -32.169)" style="fill:#1a1818"/>
                        <path data-name="사각형 2618" transform="translate(30.879 51.663)" style="fill:#1a1818" d="M0 0h3.146v15.058H0z"/>
                        <path data-name="패스 20040" d="M85.017 99.528H75.01a2.3 2.3 0 1 0-3.391 0H61.612v3.147h7.238a6.546 6.546 0 1 0 8.93 0h7.237zm-11.7 11.246a3.413 3.413 0 1 1 3.414-3.414 3.413 3.413 0 0 1-3.414 3.414" transform="translate(-23.642 -36.716)" style="fill:#1a1818"/>
                        <path data-name="패스 20041" d="M119.737 90.014v-1.357H111V87.49h8.405v-1.259H111v-1.139h8.735v-1.259H108.8v6.181h10.938z" transform="translate(-41.75 -32.169)" style="fill:#1a1818"/>
                        <path data-name="사각형 2619" transform="translate(65.147 58.793)" style="fill:#1a1818" d="M0 0h14.908v1.356H0z"/>
                        <path data-name="패스 20042" d="M136.286 97.3v1.356h7.753v1.033h-7.753v4.413h9.888v-1.357h-7.687v-1.7h7.687V97.3h-9.888z" transform="translate(-52.297 -37.338)" style="fill:#1a1818"/>
                        <path data-name="패스 20043" d="M108.8 98.932v1.655h8.9v4.181h2.037v-5.836H108.8z" transform="translate(-41.75 -37.963)" style="fill:#1a1818"/>
                        <path data-name="패스 20044" d="M142.822 85.009h-2.48v-1.393h-2.135v1.854h-3.251v-1.854h-2.137v7.041h7.523v-1.4h2.48v1.854h2.134v-7.495h-2.134zm-7.867 1.817h3.251V89.3h-3.251zm5.386 1.07v-1.531h2.48V87.9z" transform="translate(-50.967 -32.086)" style="fill:#1a1818"/>
                        <path data-name="패스 20045" d="M177.143 83.707h-2.381v15.182h2.381v-9h2.091v-1.61h-2.091z" transform="translate(-67.061 -32.121)" style="fill:#1a1818"/>
                        <path data-name="사각형 2620" transform="translate(124.286 51.586)" style="fill:#1a1818" d="M0 0h2.337v15.046H0z"/>
                        <path data-name="사각형 2621" transform="translate(140.049 51.586)" style="fill:#1a1818" d="M0 0h2.337v15.046H0z"/>
                        <path data-name="패스 20046" d="M162.615 87.942v-2.235h3.169v-1.474h-8.637v1.474h3.176v2.235a4.974 4.974 0 0 1-3.507 4.72v1.752s3.394-.64 4.653-3.539c1.258 2.9 4.652 3.539 4.652 3.539v-1.752a4.973 4.973 0 0 1-3.506-4.72" transform="translate(-60.175 -32.323)" style="fill:#1a1818"/>
                        <path data-name="패스 20047" d="M189.348 87.59v-1.6h3.573V84.5h-3.573v-1.226h-2.114V84.5h-3.573v1.49h3.573v1.6a5.148 5.148 0 0 1-3.685 4.708v1.747s3.459-.638 4.742-3.529c1.284 2.891 4.742 3.529 4.742 3.529V92.3a5.147 5.147 0 0 1-3.685-4.708" transform="translate(-70.433 -31.955)" style="fill:#1a1818"/>
                        <path data-name="패스 20048" d="M215.121 87.833v-3.927h-2.113v3.927a5.149 5.149 0 0 1-3.685 4.708v1.747s3.459-.638 4.742-3.529c1.283 2.891 4.742 3.529 4.742 3.529v-1.747a5.149 5.149 0 0 1-3.686-4.708" transform="translate(-80.323 -32.197)" style="fill:#1a1818"/>
                    </g>
                </g>
            </g>
        </g>
        <path data-name="사각형 2639" style="fill:none" d="M0 0h250v80H0z"/>
    </g>
</svg>
