<svg xmlns="http://www.w3.org/2000/svg" xmlns:xlink="http://www.w3.org/1999/xlink" width="250" height="80" viewBox="0 0 250 80">
    <defs>
        <clipPath id="7hmc7ecp5b">
            <path data-name="사각형 2459" style="fill:none" d="M0 0h194.975v42.041H0z"/>
        </clipPath>
        <clipPath id="42kxbn61wc">
            <path data-name="패스 11197" d="M33.479 71.43c-4.639.812-9.47-2.2-10.741-4.446-1.345 2.762-.489 8.287 2.852 10.626a19.815 19.815 0 0 0 14.2-.814c5.194-3.157 5.624-10.82 3.857-18.223-.581 3.348-3.955 11.768-10.164 12.857" transform="translate(-22.129 -58.573)" style="fill:none"/>
        </clipPath>
        <clipPath id="jhlz3abrjd">
            <path data-name="패스 11198" d="M71.283 0A20.193 20.193 0 0 1 65.2 8.555a39.008 39.008 0 0 1 5.654 13.017c1.771 7.4 1.346 15.059-3.854 18.217C77.391 34.581 79.774 18.568 71.283 0z" transform="translate(-65.204)" style="fill:none"/>
        </clipPath>
        <clipPath id="wj73gwavuf">
            <path data-name="사각형 2454" style="fill:none" d="M0 0h28.558v36.42H0z"/>
        </clipPath>
        <clipPath id="inp8j878kg">
            <path data-name="패스 11199" d="M15.684 50.069c-.194-.02-.9-.117-.943-.71-1.726-.662-4.03-2.783-5.547-4.584a30.3 30.3 0 0 1 8.388-5.733c1.6 3.508 3.1 8.128 2.927 10.045a28.769 28.769 0 0 0 7.512-4.141c1.926-6.416-1.241-18.7-10.858-31.3a75.506 75.506 0 0 0-10.344 5.045c1.381 3.048 4.126 8.546 6.133 12.038a30.124 30.124 0 0 0-8.5 6.858A33.338 33.338 0 0 1 .777 22.99a19.235 19.235 0 0 0-.6 3.091c-1.085 9.055 2.885 19.114 9.643 22.41a18 18 0 0 0 1.788.735 18.084 18.084 0 0 0 4.076.843" transform="translate(0 -13.649)" style="fill:none"/>
        </clipPath>
        <clipPath id="48gsnkss7i">
            <path data-name="사각형 2457" style="fill:none" d="M0 0h9.357v13.813H0z"/>
        </clipPath>
        <radialGradient id="2fjdgnjqle" cx=".48" cy=".709" r=".344" gradientTransform="matrix(2.731 0 0 -1 2.852 2.113)" gradientUnits="objectBoundingBox">
            <stop offset="0" stop-color="#f8fbfe"/>
            <stop offset=".07" stop-color="#d7ebf7"/>
            <stop offset=".248" stop-color="#8cc6e7"/>
            <stop offset=".406" stop-color="#4fa9db"/>
            <stop offset=".54" stop-color="#2493d2"/>
            <stop offset=".644" stop-color="#0986cd"/>
            <stop offset=".706" stop-color="#0082cb"/>
            <stop offset="1" stop-color="#0082cb"/>
        </radialGradient>
        <radialGradient id="ehwouo2aha" cx=".447" cy=".341" r=".653" gradientTransform="matrix(1.18 0 0 -1 -.005 2.033)" gradientUnits="objectBoundingBox">
            <stop offset="0" stop-color="#f5f6fb"/>
            <stop offset=".042" stop-color="#edeff6"/>
            <stop offset=".104" stop-color="#d9dbeb"/>
            <stop offset=".179" stop-color="#b7bcd9"/>
            <stop offset=".263" stop-color="#8991c0"/>
            <stop offset=".307" stop-color="#6f78b2"/>
            <stop offset=".392" stop-color="#4c5f9d"/>
            <stop offset=".491" stop-color="#2b4789"/>
            <stop offset=".586" stop-color="#13367b"/>
            <stop offset=".674" stop-color="#042c72"/>
            <stop offset=".748" stop-color="#002970"/>
            <stop offset="1" stop-color="#002970"/>
        </radialGradient>
        <radialGradient id="pyd3bs85vh" cx="1.045" cy=".64" r=".507" xlink:href="#ehwouo2aha"/>
    </defs>
    <g data-name="그룹 3829">
        <path data-name="사각형 2645" style="fill:none" d="M0 0h250v80H0z"/>
        <g data-name="그룹 3828">
            <g data-name="그룹 3422" style="clip-path:url(#7hmc7ecp5b)" transform="translate(28 19)">
                <g data-name="그룹 3402">
                    <g data-name="그룹 3401" style="clip-path:url(#7hmc7ecp5b)">
                        <path data-name="패스 11034" d="M30.087 0a20.194 20.194 0 0 1-6.079 8.555 39.022 39.022 0 0 1 5.653 13.015 20.66 20.66 0 0 1-1.751 5.079c-1.346-6.224-4.822-13.866-10.747-21.623A75.479 75.479 0 0 0 6.82 10.068c1.381 3.048 4.126 8.546 6.132 12.038a30.111 30.111 0 0 0-8.5 6.858 33.345 33.345 0 0 1-3.672-14.6 19.191 19.191 0 0 0-.6 3.091c-1.087 9.057 2.883 19.116 9.641 22.413a18 18 0 0 0 1.788.735 17.226 17.226 0 0 0 3.567.788 19.305 19.305 0 0 0 10.628-1.6C36.195 34.581 38.578 18.568 30.087 0M12.675 33.253a39 39 0 0 1 4.906-2.836 47 47 0 0 1 1.62 4.05 11.353 11.353 0 0 1-6.526-1.214" style="fill:#fff"/>
                    </g>
                </g>
                <g data-name="그룹 3404">
                    <g data-name="그룹 3403" style="clip-path:url(#42kxbn61wc)" transform="translate(8.148 21.566)">
                        <path data-name="사각형 2451" transform="translate(-.736 -.001)" style="fill:#2897d7" d="M0 0h24.016v20.476H0z"/>
                        <path data-name="패스 11035" d="M24.381 69.36c-2.954-4.212-.528-11.011 5.422-15.183v1.25h16.125v-1.175c2.954 4.214.526 11.012-5.422 15.183s-13.168 4.139-16.124-.075" transform="translate(-22.757 -55.796)" style="fill:#2897d7"/>
                        <path data-name="패스 11036" d="M24.578 69.393c-2.937-4.188-.525-10.945 5.388-15.091v1.2h16.022v-1.125c2.937 4.188.525 10.945-5.387 15.091s-13.086 4.113-16.023-.075" transform="translate(-22.886 -55.875)" style="fill:#2997d7"/>
                        <path data-name="패스 11037" d="M24.77 69.429c-2.92-4.162-.521-10.877 5.354-15v1.156h15.924v-1.079c2.918 4.161.522 10.876-5.354 15s-13.006 4.088-15.924-.073" transform="translate(-23.012 -55.956)" style="fill:#2a98d7"/>
                        <path data-name="패스 11038" d="M24.964 69.462c-2.9-4.135-.518-10.808 5.321-14.9v1.109h15.826v-1.038c2.9 4.136.518 10.808-5.322 14.9s-12.924 4.067-15.825-.071" transform="translate(-23.14 -56.037)" style="fill:#2b98d7"/>
                        <path data-name="패스 11039" d="M25.157 69.5c-2.882-4.11-.515-10.741 5.288-14.809v1.061h15.726v-.992c2.882 4.11.514 10.741-5.288 14.811s-12.844 4.035-15.726-.071" transform="translate(-23.267 -56.118)" style="fill:#2c98d8"/>
                        <path data-name="패스 11040" d="M25.352 69.529c-2.865-4.083-.512-10.671 5.254-14.716v1.015h15.625v-.942c2.865 4.083.512 10.672-5.254 14.716s-12.762 4.011-15.625-.073" transform="translate(-23.395 -56.197)" style="fill:#2e99d8"/>
                        <path data-name="패스 11041" d="M25.546 69.564c-2.846-4.059-.508-10.6 5.221-14.622v.968h15.526v-.9c2.846 4.059.509 10.6-5.221 14.622s-12.681 3.986-15.526-.072" transform="translate(-23.523 -56.279)" style="fill:#2f99d8"/>
                        <path data-name="패스 11042" d="M25.74 69.6c-2.828-4.033-.5-10.536 5.188-14.529v.92h15.426v-.849c2.828 4.032.5 10.537-5.188 14.527s-12.6 3.961-15.426-.07" transform="translate(-23.65 -56.36)" style="fill:#3199d8"/>
                        <path data-name="패스 11043" d="M25.932 69.634c-2.809-4.005-.5-10.469 5.155-14.434v.873h15.327v-.8c2.809 4.005.5 10.469-5.155 14.435s-12.518 3.934-15.327-.072" transform="translate(-23.776 -56.442)" style="fill:#329ad8"/>
                        <path data-name="패스 11044" d="M26.129 69.667c-2.792-3.98-.5-10.4 5.12-14.342v.827h15.228V55.4c2.79 3.98.5 10.4-5.122 14.34s-12.436 3.909-15.226-.07" transform="translate(-23.905 -56.521)" style="fill:#339ad9"/>
                        <path data-name="패스 11045" d="M26.323 69.7c-2.773-3.954-.495-10.332 5.087-14.247v.779h15.127v-.709c2.773 3.954.5 10.332-5.087 14.247s-12.35 3.884-15.127-.07" transform="translate(-24.033 -56.602)" style="fill:#359bd9"/>
                        <path data-name="패스 11046" d="M26.516 69.736c-2.754-3.928-.492-10.265 5.054-14.153v.732H46.6v-.662c2.754 3.926.492 10.263-5.054 14.152s-12.274 3.859-15.028-.069" transform="translate(-24.16 -56.684)" style="fill:#369bd9"/>
                        <path data-name="패스 11047" d="M26.709 69.77c-2.736-3.9-.489-10.2 5.021-14.059v.689h14.929v-.62c2.735 3.9.487 10.2-5.021 14.06s-12.192 3.832-14.929-.07" transform="translate(-24.287 -56.765)" style="fill:#379bd9"/>
                        <path data-name="패스 11048" d="M26.9 69.8c-2.717-3.876-.485-10.128 4.988-13.967v.639h14.831v-.57c2.718 3.876.486 10.129-4.986 13.966S29.621 73.679 26.9 69.8" transform="translate(-24.415 -56.844)" style="fill:#399cd9"/>
                        <path data-name="패스 11049" d="M27.1 69.837c-2.7-3.849-.482-10.059 4.953-13.872v.591H46.78v-.522c2.7 3.849.483 10.06-4.953 13.871S29.8 73.687 27.1 69.837" transform="translate(-24.543 -56.925)" style="fill:#3a9cda"/>
                        <path data-name="패스 11050" d="M27.291 69.872c-2.682-3.823-.479-9.993 4.92-13.778v.544h14.63v-.476c2.681 3.824.479 9.993-4.92 13.779s-11.949 3.759-14.63-.069" transform="translate(-24.669 -57.007)" style="fill:#3b9dda"/>
                        <path data-name="패스 11051" d="M27.485 69.908c-2.663-3.8-.476-9.925 4.886-13.685v.5H46.9v-.429c2.664 3.8.475 9.924-4.887 13.685s-11.867 3.729-14.53-.068" transform="translate(-24.796 -57.088)" style="fill:#3d9dda"/>
                        <path data-name="패스 11052" d="M27.678 69.939c-2.645-3.771-.472-9.856 4.854-13.591v.45h14.431v-.383c2.645 3.771.472 9.856-4.853 13.591s-11.787 3.7-14.432-.068" transform="translate(-24.923 -57.167)" style="fill:#3e9eda"/>
                        <path data-name="패스 11053" d="M27.874 69.975c-2.628-3.747-.469-9.789 4.818-13.5v.4h14.332v-.337c2.627 3.746.47 9.788-4.82 13.5s-11.7 3.679-14.33-.066" transform="translate(-25.052 -57.249)" style="fill:#3f9eda"/>
                        <path data-name="패스 11054" d="M28.068 70.009c-2.609-3.719-.466-9.719 4.786-13.4v.355h14.231v-.289c2.609 3.719.466 9.721-4.785 13.4s-11.624 3.653-14.233-.066" transform="translate(-25.179 -57.33)" style="fill:#419fdb"/>
                        <path data-name="패스 11055" d="M28.26 70.044c-2.59-3.693-.463-9.653 4.752-13.309v.307h14.133V56.8c2.59 3.7.462 9.653-4.752 13.311s-11.543 3.626-14.133-.067" transform="translate(-25.306 -57.412)" style="fill:#429fdb"/>
                        <path data-name="패스 11056" d="M28.454 70.077C25.883 66.41 28 60.491 33.173 56.86v.261h14.034v-.2c2.571 3.667.459 9.584-4.719 13.216s-11.461 3.6-14.034-.065" transform="translate(-25.434 -57.491)" style="fill:#439fdb"/>
                        <path data-name="패스 11057" d="M28.651 70.11c-2.554-3.642-.456-9.517 4.684-13.122v.212h13.933v-.149c2.555 3.642.458 9.517-4.684 13.122S31.2 73.752 28.651 70.11" transform="translate(-25.562 -57.572)" style="fill:#45a0db"/>
                        <path data-name="패스 11058" d="M28.843 70.146c-2.536-3.616-.453-9.449 4.651-13.029v.167h13.834v-.1c2.536 3.614.453 9.448-4.651 13.027s-11.3 3.551-13.834-.063" transform="translate(-25.689 -57.653)" style="fill:#46a0dc"/>
                        <path data-name="패스 11059" d="M29.037 70.18c-2.517-3.59-.45-9.38 4.618-12.934v.119H47.39v-.056c2.517 3.59.448 9.38-4.618 12.935s-11.218 3.526-13.735-.064" transform="translate(-25.816 -57.735)" style="fill:#47a1dc"/>
                        <path data-name="패스 11060" d="M29.231 70.213c-2.5-3.564-.446-9.312 4.585-12.842v.073h13.635v-.01c2.5 3.564.446 9.314-4.585 12.842s-11.136 3.5-13.636-.063" transform="translate(-25.944 -57.814)" style="fill:#49a1dc"/>
                        <path data-name="패스 11061" d="M29.426 66.933c-2.481-3.536-.443-9.243 4.55-12.747v.026h11.078v-1.957a5.9 5.9 0 0 1 2.459 1.995c2.479 3.538.443 9.245-4.552 12.747s-11.056 3.475-13.535-.063" transform="translate(-26.072 -54.581)" style="fill:#4aa2dc"/>
                        <path data-name="패스 11062" d="M29.62 65.839c-2.462-3.512-.44-9.177 4.518-12.653a14.9 14.9 0 0 1 3.844-1.952v1.93h3.81v-2.569a6.848 6.848 0 0 1 5.782 2.652c2.464 3.512.44 9.177-4.518 12.653s-10.974 3.449-13.436-.062" transform="translate(-26.199 -53.532)" style="fill:#4ca2dc"/>
                        <path data-name="패스 11063" d="M29.812 65.9c-2.445-3.485-.437-9.108 4.484-12.558a13.426 13.426 0 0 1 7.6-2.572 6.8 6.8 0 0 1 5.74 2.634c2.445 3.484.436 9.108-4.484 12.56s-10.895 3.426-13.34-.064" transform="translate(-26.325 -53.645)" style="fill:#4da3dd"/>
                        <path data-name="패스 11064" d="M30.005 65.974c-2.426-3.459-.433-9.041 4.451-12.466A13.321 13.321 0 0 1 42 50.958a6.743 6.743 0 0 1 5.7 2.612c2.426 3.459.433 9.04-4.451 12.466s-10.811 3.4-13.237-.062" transform="translate(-26.453 -53.762)" style="fill:#4ea3dd"/>
                        <path data-name="패스 11065" d="M30.2 66.042c-2.408-3.434-.429-8.973 4.418-12.373a13.207 13.207 0 0 1 7.482-2.531 6.688 6.688 0 0 1 5.652 2.593c2.409 3.433.432 8.972-4.417 12.372s-10.729 3.373-13.138-.06" transform="translate(-26.58 -53.875)" style="fill:#50a4dd"/>
                        <path data-name="패스 11066" d="M30.394 66.107C28 62.7 29.967 57.2 34.778 53.829a13.114 13.114 0 0 1 7.422-2.512 6.636 6.636 0 0 1 5.61 2.573c2.391 3.407.427 8.906-4.384 12.28s-10.649 3.345-13.037-.062" transform="translate(-26.708 -53.988)" style="fill:#51a4dd"/>
                        <path data-name="패스 11067" d="M30.588 66.175c-2.371-3.381-.424-8.838 4.35-12.186a13.011 13.011 0 0 1 7.37-2.492 6.594 6.594 0 0 1 5.569 2.553c2.371 3.383.423 8.838-4.35 12.186s-10.567 3.321-12.938-.06" transform="translate(-26.835 -54.102)" style="fill:#52a5de"/>
                        <path data-name="패스 11068" d="M30.782 66.241c-2.353-3.355-.42-8.769 4.318-12.091a12.912 12.912 0 0 1 7.313-2.474 6.541 6.541 0 0 1 5.526 2.534c2.353 3.356.42 8.769-4.318 12.091s-10.486 3.3-12.839-.06" transform="translate(-26.963 -54.215)" style="fill:#54a5de"/>
                        <path data-name="패스 11069" d="M30.976 66.309c-2.334-3.329-.416-8.7 4.285-12a12.823 12.823 0 0 1 7.257-2.455A6.494 6.494 0 0 1 48 54.37c2.334 3.329.417 8.7-4.284 12s-10.4 3.271-12.74-.059" transform="translate(-27.091 -54.329)" style="fill:#55a6de"/>
                        <path data-name="패스 11070" d="M31.171 66.376c-2.317-3.3-.414-8.634 4.25-11.9a12.722 12.722 0 0 1 7.2-2.436 6.435 6.435 0 0 1 5.439 2.5c2.317 3.3.414 8.632-4.25 11.9s-10.324 3.245-12.639-.057" transform="translate(-27.218 -54.443)" style="fill:#56a6de"/>
                        <path data-name="패스 11071" d="M31.364 66.442c-2.3-3.278-.411-8.565 4.217-11.809a12.613 12.613 0 0 1 7.144-2.418 6.392 6.392 0 0 1 5.4 2.475c2.3 3.278.41 8.565-4.217 11.811s-10.242 3.219-12.54-.059" transform="translate(-27.346 -54.556)" style="fill:#58a7df"/>
                        <path data-name="패스 11072" d="M31.559 66.51c-2.279-3.252-.407-8.5 4.184-11.717a12.524 12.524 0 0 1 7.086-2.4 6.339 6.339 0 0 1 5.354 2.455c2.28 3.252.407 8.5-4.184 11.717s-10.16 3.194-12.441-.057" transform="translate(-27.474 -54.669)" style="fill:#59a7df"/>
                        <path data-name="패스 11073" d="M31.751 66.576c-2.261-3.225-.4-8.428 4.151-11.622a12.421 12.421 0 0 1 7.03-2.379 6.3 6.3 0 0 1 5.311 2.436c2.261 3.226.4 8.429-4.151 11.622s-10.078 3.167-12.341-.057" transform="translate(-27.6 -54.783)" style="fill:#5aa8df"/>
                        <path data-name="패스 11074" d="M31.946 66.643c-2.245-3.2-.4-8.362 4.116-11.529a12.31 12.31 0 0 1 6.972-2.36A6.238 6.238 0 0 1 48.3 55.17c2.244 3.2.4 8.362-4.116 11.53s-10 3.141-12.241-.057" transform="translate(-27.728 -54.896)" style="fill:#5ca9df"/>
                        <path data-name="패스 11075" d="M32.139 66.712c-2.226-3.174-.4-8.294 4.083-11.437s9.916-3.117 12.141.057.4 8.293-4.083 11.435-9.917 3.117-12.142-.056" transform="translate(-27.854 -55.011)" style="fill:#5da9e0"/>
                        <path data-name="패스 11076" d="M32.333 66.777c-2.208-3.147-.394-8.225 4.05-11.342s9.835-3.091 12.042.056.394 8.225-4.05 11.342-9.835 3.092-12.042-.056" transform="translate(-27.982 -55.124)" style="fill:#5eaae0"/>
                        <path data-name="패스 11077" d="M32.527 66.845c-2.189-3.122-.39-8.157 4.017-11.248s9.754-3.066 11.943.056.391 8.156-4.017 11.247-9.754 3.067-11.943-.054" transform="translate(-28.11 -55.238)" style="fill:#60aae0"/>
                        <path data-name="패스 11078" d="M32.723 66.912c-2.172-3.095-.388-8.089 3.982-11.153s9.673-3.04 11.844.054.387 8.09-3.984 11.153-9.672 3.04-11.842-.055" transform="translate(-28.238 -55.353)" style="fill:#61abe0"/>
                        <path data-name="패스 11079" d="M32.915 66.979c-2.153-3.069-.385-8.021 3.95-11.06s9.591-3.016 11.743.055.384 8.021-3.949 11.06-9.592 3.015-11.743-.054" transform="translate(-28.365 -55.466)" style="fill:#62abe1"/>
                        <path data-name="패스 11080" d="M33.109 67.046c-2.134-3.043-.381-7.952 3.915-10.966s9.511-2.989 11.645.054.381 7.954-3.916 10.966-9.509 2.989-11.644-.054" transform="translate(-28.492 -55.58)" style="fill:#63ace1"/>
                        <path data-name="패스 11081" d="M33.3 67.113c-2.116-3.017-.377-7.886 3.883-10.873s9.429-2.964 11.544.053.378 7.886-3.882 10.873-9.424 2.964-11.545-.053" transform="translate(-28.62 -55.693)" style="fill:#65ace1"/>
                        <path data-name="패스 11082" d="M33.5 67.179c-2.1-2.99-.374-7.817 3.849-10.778s9.349-2.938 11.445.053.376 7.817-3.849 10.779-9.347 2.937-11.445-.054" transform="translate(-28.747 -55.807)" style="fill:#66ade1"/>
                        <path data-name="패스 11083" d="M33.692 67.247c-2.079-2.966-.373-7.749 3.815-10.686s9.265-2.911 11.345.053.371 7.749-3.814 10.686-9.266 2.912-11.346-.053" transform="translate(-28.875 -55.921)" style="fill:#68aee2"/>
                        <path data-name="패스 11084" d="M33.885 67.315c-2.061-2.94-.368-7.681 3.781-10.593s9.186-2.886 11.247.053.368 7.68-3.781 10.591-9.186 2.886-11.247-.052" transform="translate(-29.002 -56.035)" style="fill:#68aee2"/>
                        <path data-name="패스 11085" d="M34.079 67.381c-2.042-2.912-.364-7.613 3.748-10.5s9.1-2.862 11.147.052.365 7.614-3.748 10.5-9.1 2.862-11.147-.052" transform="translate(-29.13 -56.148)" style="fill:#6aafe2"/>
                        <path data-name="패스 11086" d="M34.273 67.45c-2.024-2.888-.361-7.546 3.715-10.4s9.023-2.836 11.048.05.361 7.546-3.715 10.4-9.023 2.836-11.048-.05" transform="translate(-29.257 -56.263)" style="fill:#6bafe2"/>
                        <path data-name="패스 11087" d="M34.467 67.517c-2.008-2.861-.36-7.477 3.68-10.309s8.941-2.81 10.947.05.358 7.477-3.68 10.311-8.941 2.81-10.947-.052" transform="translate(-29.384 -56.377)" style="fill:#6cb0e3"/>
                        <path data-name="패스 11088" d="M34.661 67.583c-1.989-2.835-.355-7.41 3.647-10.217s8.861-2.785 10.849.05.355 7.41-3.647 10.217-8.861 2.784-10.849-.05" transform="translate(-29.511 -56.49)" style="fill:#6eb0e3"/>
                        <path data-name="패스 11089" d="M34.854 67.651c-1.971-2.81-.351-7.342 3.614-10.124s8.779-2.76 10.749.05.353 7.342-3.617 10.123-8.779 2.76-10.749-.049" transform="translate(-29.639 -56.603)" style="fill:#6fb1e3"/>
                        <path data-name="패스 11090" d="M35.048 67.718c-1.952-2.783-.348-7.273 3.581-10.029s8.7-2.734 10.65.049.348 7.273-3.581 10.03-8.7 2.733-10.65-.05" transform="translate(-29.766 -56.718)" style="fill:#70b1e3"/>
                        <path data-name="패스 11091" d="M35.243 67.786c-1.934-2.757-.346-7.205 3.547-9.937s8.616-2.707 10.549.05.345 7.2-3.547 9.935-8.616 2.708-10.549-.049" transform="translate(-29.894 -56.831)" style="fill:#71b2e4"/>
                        <path data-name="패스 11092" d="M35.437 67.852c-1.916-2.731-.342-7.136 3.514-9.842s8.535-2.683 10.45.049.342 7.138-3.514 9.842-8.535 2.682-10.45-.049" transform="translate(-30.022 -56.945)" style="fill:#72b3e4"/>
                        <path data-name="패스 11093" d="M35.63 67.919c-1.9-2.705-.338-7.07 3.48-9.748s8.454-2.658 10.351.049.339 7.069-3.48 9.747-8.454 2.658-10.351-.048" transform="translate(-30.149 -57.059)" style="fill:#74b3e4"/>
                        <path data-name="패스 11094" d="M35.824 67.985c-1.878-2.678-.335-7 3.447-9.653s8.372-2.632 10.252.047.335 7-3.447 9.653-8.372 2.632-10.252-.048" transform="translate(-30.276 -57.172)" style="fill:#75b4e4"/>
                        <path data-name="패스 11095" d="M36.02 68.054c-1.861-2.654-.334-6.934 3.413-9.56s8.291-2.606 10.152.046.331 6.934-3.415 9.561-8.291 2.606-10.151-.048" transform="translate(-30.404 -57.286)" style="fill:#76b4e5"/>
                        <path data-name="패스 11096" d="M36.214 68.12c-1.842-2.626-.33-6.865 3.38-9.466s8.209-2.58 10.051.047.33 6.864-3.38 9.466-8.209 2.58-10.051-.047" transform="translate(-30.532 -57.4)" style="fill:#78b5e5"/>
                        <path data-name="패스 11097" d="M36.407 68.187c-1.824-2.6-.325-6.8 3.347-9.373s8.129-2.554 9.952.046.327 6.8-3.347 9.373-8.129 2.556-9.952-.046" transform="translate(-30.659 -57.514)" style="fill:#79b5e5"/>
                        <path data-name="패스 11098" d="M36.6 68.255c-1.806-2.576-.322-6.729 3.314-9.279s8.047-2.53 9.853.046.322 6.729-3.314 9.279-8.047 2.528-9.853-.046" transform="translate(-30.786 -57.628)" style="fill:#7ab6e5"/>
                        <path data-name="패스 11099" d="M36.794 68.322c-1.786-2.549-.319-6.662 3.281-9.186s7.966-2.5 9.752.046.32 6.662-3.279 9.186-7.966 2.5-9.754-.046" transform="translate(-30.914 -57.742)" style="fill:#7bb7e6"/>
                        <path data-name="패스 11100" d="M36.988 68.388c-1.771-2.524-.316-6.594 3.246-9.092s7.884-2.478 9.653.045.317 6.594-3.246 9.092-7.884 2.478-9.653-.045" transform="translate(-31.041 -57.854)" style="fill:#7cb7e6"/>
                        <path data-name="패스 11101" d="M37.182 68.456c-1.752-2.5-.312-6.525 3.213-9s7.8-2.452 9.554.045.313 6.525-3.213 9-7.8 2.452-9.554-.045" transform="translate(-31.169 -57.969)" style="fill:#7eb8e6"/>
                        <path data-name="패스 11102" d="M37.375 68.523c-1.733-2.471-.309-6.458 3.18-8.9s7.722-2.427 9.455.043.309 6.458-3.18 8.905-7.722 2.426-9.455-.045" transform="translate(-31.295 -58.082)" style="fill:#7fb8e6"/>
                        <path data-name="패스 11103" d="M37.568 68.59c-1.714-2.445-.306-6.39 3.147-8.812s7.64-2.4 9.356.045.3 6.388-3.147 8.81-7.64 2.4-9.356-.043" transform="translate(-31.423 -58.196)" style="fill:#80b9e7"/>
                        <path data-name="패스 11104" d="M37.765 68.656c-1.7-2.419-.3-6.321 3.112-8.717s7.559-2.376 9.255.043.3 6.322-3.112 8.717-7.56 2.376-9.255-.043" transform="translate(-31.551 -58.309)" style="fill:#81bae7"/>
                        <path data-name="패스 11105" d="M37.958 68.724c-1.679-2.393-.3-6.255 3.079-8.624s7.477-2.35 9.155.042.3 6.255-3.079 8.624-7.477 2.352-9.155-.042" transform="translate(-31.679 -58.423)" style="fill:#83bae7"/>
                        <path data-name="패스 11106" d="M38.151 68.79c-1.66-2.367-.3-6.186 3.046-8.529s7.4-2.325 9.057.042.3 6.186-3.046 8.53-7.4 2.324-9.057-.043" transform="translate(-31.806 -58.537)" style="fill:#84bbe7"/>
                        <path data-name="패스 11107" d="M38.345 68.858c-1.641-2.341-.293-6.118 3.013-8.437s7.315-2.3 8.957.042.292 6.118-3.013 8.437-7.315 2.3-8.957-.042" transform="translate(-31.933 -58.651)" style="fill:#85bbe8"/>
                        <path data-name="패스 11108" d="M38.541 68.925c-1.624-2.316-.291-6.051 2.979-8.343s7.234-2.274 8.856.042.29 6.049-2.978 8.342-7.235 2.274-8.857-.04" transform="translate(-32.062 -58.764)" style="fill:#86bce8"/>
                        <path data-name="패스 11109" d="M38.734 68.992c-1.6-2.288-.286-5.982 2.944-8.248s7.154-2.248 8.759.04.288 5.983-2.945 8.248-7.152 2.248-8.757-.04" transform="translate(-32.189 -58.878)" style="fill:#87bde8"/>
                        <path data-name="패스 11110" d="M38.928 69.06c-1.586-2.264-.283-5.914 2.912-8.155s7.07-2.223 8.658.04.283 5.914-2.911 8.155-7.073 2.222-8.66-.04" transform="translate(-32.316 -58.992)" style="fill:#89bde8"/>
                        <path data-name="패스 11111" d="M39.119 69.127c-1.569-2.237-.28-5.845 2.881-8.062s6.991-2.2 8.56.04.279 5.846-2.879 8.061-6.99 2.2-8.559-.04" transform="translate(-32.441 -59.106)" style="fill:#8abee9"/>
                        <path data-name="패스 11112" d="M39.316 69.194c-1.552-2.212-.278-5.779 2.845-7.968s6.907-2.172 8.459.041.276 5.777-2.845 7.966-6.909 2.172-8.46-.039" transform="translate(-32.57 -59.22)" style="fill:#8bbee9"/>
                        <path data-name="패스 11113" d="M39.51 69.261c-1.533-2.185-.273-5.71 2.81-7.873s6.829-2.146 8.36.039.275 5.709-2.81 7.872-6.829 2.146-8.36-.039" transform="translate(-32.698 -59.334)" style="fill:#8cbfe9"/>
                        <path data-name="패스 11114" d="M39.7 69.328c-1.515-2.159-.27-5.642 2.777-7.779s6.746-2.121 8.261.038.271 5.642-2.777 7.78-6.747 2.12-8.261-.039" transform="translate(-32.825 -59.447)" style="fill:#8dc0e9"/>
                        <path data-name="패스 11115" d="M39.9 69.4c-1.5-2.131-.268-5.573 2.744-7.686s6.666-2.094 8.162.039.266 5.573-2.744 7.686-6.666 2.1-8.162-.039" transform="translate(-32.952 -59.561)" style="fill:#8fc0ea"/>
                        <path data-name="패스 11116" d="M40.09 69.462c-1.477-2.107-.263-5.505 2.711-7.592s6.584-2.07 8.061.037.265 5.507-2.71 7.593-6.584 2.07-8.062-.038" transform="translate(-33.08 -59.675)" style="fill:#90c1ea"/>
                        <path data-name="패스 11117" d="M40.286 69.53c-1.46-2.081-.26-5.439 2.676-7.5s6.5-2.044 7.962.037.261 5.438-2.676 7.5-6.5 2.043-7.962-.036" transform="translate(-33.208 -59.788)" style="fill:#91c1ea"/>
                        <path data-name="패스 11118" d="M40.479 69.6c-1.441-2.055-.257-5.37 2.644-7.4s6.421-2.019 7.863.036.257 5.37-2.644 7.406-6.421 2.018-7.863-.038" transform="translate(-33.335 -59.902)" style="fill:#92c2ea"/>
                        <path data-name="패스 11119" d="M40.673 69.664c-1.422-2.029-.254-5.3 2.61-7.312s6.34-1.992 7.764.036.253 5.3-2.61 7.312-6.341 1.992-7.764-.036" transform="translate(-33.462 -60.016)" style="fill:#94c2eb"/>
                        <path data-name="패스 11120" d="M40.865 69.73c-1.4-2-.25-5.234 2.577-7.217s6.259-1.967 7.664.036.25 5.234-2.577 7.217-6.259 1.967-7.664-.036" transform="translate(-33.589 -60.129)" style="fill:#95c3eb"/>
                        <path data-name="패스 11121" d="M41.062 69.8c-1.387-1.978-.247-5.166 2.543-7.124s6.177-1.941 7.564.035.249 5.166-2.543 7.124-6.177 1.941-7.564-.035" transform="translate(-33.718 -60.243)" style="fill:#96c4eb"/>
                        <path data-name="패스 11122" d="M41.255 69.865c-1.368-1.952-.244-5.1 2.51-7.03s6.1-1.917 7.465.035.244 5.1-2.51 7.03-6.1 1.916-7.464-.035" transform="translate(-33.845 -60.356)" style="fill:#98c4eb"/>
                        <path data-name="패스 11123" d="M41.449 69.931c-1.349-1.924-.242-5.029 2.476-6.937s6.014-1.89 7.365.035.24 5.031-2.476 6.937-6.014 1.89-7.365-.035" transform="translate(-33.973 -60.47)" style="fill:#99c5ec"/>
                        <path data-name="패스 11124" d="M41.641 70c-1.332-1.9-.237-4.963 2.444-6.843s5.934-1.865 7.266.035.237 4.962-2.444 6.842S42.973 71.9 41.641 70" transform="translate(-34.099 -60.584)" style="fill:#9ac6ec"/>
                        <path data-name="패스 11125" d="M41.837 70.065c-1.314-1.873-.235-4.894 2.409-6.748s5.852-1.839 7.165.033.237 4.895-2.411 6.75-5.852 1.839-7.165-.033" transform="translate(-34.228 -60.698)" style="fill:#9bc6ec"/>
                        <path data-name="패스 11126" d="M42.031 70.133c-1.3-1.847-.232-4.827 2.376-6.655s5.771-1.815 7.066.033.231 4.825-2.376 6.655-5.771 1.814-7.065-.033" transform="translate(-34.354 -60.811)" style="fill:#9dc7ec"/>
                        <path data-name="패스 11127" d="M42.224 70.2c-1.277-1.821-.229-4.758 2.343-6.561s5.69-1.788 6.967.033.227 4.757-2.343 6.561-5.691 1.787-6.967-.033" transform="translate(-34.481 -60.926)" style="fill:#9ec8ed"/>
                        <path data-name="패스 11128" d="M42.418 70.266c-1.258-1.795-.224-4.69 2.31-6.468s5.609-1.763 6.868.032.224 4.691-2.31 6.468-5.609 1.763-6.867-.032" transform="translate(-34.609 -61.038)" style="fill:#9fc8ed"/>
                        <path data-name="패스 11129" d="M42.613 70.334c-1.241-1.768-.222-4.621 2.275-6.373s5.527-1.737 6.768.032.222 4.623-2.276 6.373-5.527 1.737-6.767-.032" transform="translate(-34.737 -61.153)" style="fill:#a0c9ed"/>
                        <path data-name="패스 11130" d="M42.807 70.4c-1.222-1.743-.219-4.555 2.242-6.279s5.447-1.713 6.667.03.219 4.555-2.242 6.281-5.445 1.711-6.667-.032" transform="translate(-34.865 -61.266)" style="fill:#a2caed"/>
                        <path data-name="패스 11131" d="M43 70.468c-1.2-1.717-.216-4.487 2.209-6.187s5.364-1.686 6.568.032.214 4.486-2.209 6.186S44.2 72.184 43 70.468" transform="translate(-34.992 -61.38)" style="fill:#a3caee"/>
                        <path data-name="패스 11132" d="M43.194 70.534c-1.186-1.69-.211-4.418 2.176-6.092s5.282-1.661 6.469.03.212 4.418-2.176 6.092-5.282 1.661-6.469-.03" transform="translate(-35.119 -61.493)" style="fill:#a4cbee"/>
                        <path data-name="패스 11133" d="M43.387 70.6c-1.166-1.665-.207-4.35 2.143-6s5.2-1.635 6.368.029.21 4.351-2.141 6-5.2 1.635-6.37-.029" transform="translate(-35.247 -61.608)" style="fill:#a5ccee"/>
                        <path data-name="패스 11134" d="M43.583 70.669c-1.149-1.638-.206-4.282 2.109-5.9s5.12-1.609 6.269.029.205 4.282-2.109 5.905-5.12 1.609-6.269-.03" transform="translate(-35.375 -61.722)" style="fill:#a7ccee"/>
                        <path data-name="패스 11135" d="M43.775 70.736c-1.132-1.612-.2-4.214 2.075-5.812s5.039-1.584 6.17.029.2 4.215-2.075 5.812-5.04 1.584-6.17-.029" transform="translate(-35.501 -61.835)" style="fill:#a8cdef"/>
                        <path data-name="패스 11136" d="M43.97 70.8c-1.112-1.588-.2-4.148 2.042-5.718s4.958-1.559 6.071.029.2 4.146-2.042 5.717-4.958 1.559-6.071-.027" transform="translate(-35.629 -61.949)" style="fill:#a9ceef"/>
                        <path data-name="패스 11137" d="M44.163 70.871c-1.095-1.56-.194-4.079 2.009-5.623s4.877-1.533 5.972.027.2 4.079-2.009 5.623-4.877 1.533-5.972-.027" transform="translate(-35.756 -62.063)" style="fill:#abceef"/>
                        <path data-name="패스 11138" d="M44.358 70.94c-1.077-1.535-.193-4.011 1.973-5.53s4.8-1.507 5.873.026.193 4.011-1.975 5.531-4.795 1.507-5.871-.027" transform="translate(-35.883 -62.177)" style="fill:#accfef"/>
                        <path data-name="패스 11139" d="M44.551 71.006c-1.059-1.509-.19-3.942 1.941-5.437s4.715-1.481 5.772.028.189 3.942-1.94 5.436-4.715 1.482-5.773-.027" transform="translate(-36.011 -62.291)" style="fill:#add0f0"/>
                        <path data-name="패스 11140" d="M44.745 71.072c-1.04-1.483-.186-3.874 1.907-5.343s4.634-1.457 5.674.026.186 3.876-1.909 5.343-4.632 1.457-5.672-.026" transform="translate(-36.139 -62.403)" style="fill:#aed0f0"/>
                        <path data-name="패스 11141" d="M44.939 71.139c-1.021-1.455-.181-3.806 1.874-5.248s4.552-1.431 5.574.026.183 3.807-1.873 5.25-4.553 1.43-5.575-.027" transform="translate(-36.266 -62.518)" style="fill:#b0d1f0"/>
                        <path data-name="패스 11142" d="M45.134 71.208c-1-1.431-.18-3.738 1.839-5.156s4.472-1.4 5.474.026.18 3.74-1.839 5.156-4.471 1.405-5.474-.026" transform="translate(-36.394 -62.632)" style="fill:#b1d2f1"/>
                        <path data-name="패스 11143" d="M45.328 71.275c-.985-1.4-.177-3.672 1.806-5.063s4.389-1.379 5.375.026.175 3.67-1.806 5.061-4.389 1.38-5.375-.024" transform="translate(-36.521 -62.745)" style="fill:#b2d2f1"/>
                        <path data-name="패스 11144" d="M45.522 71.341c-.966-1.378-.173-3.6 1.773-4.968s4.31-1.353 5.276.024.172 3.6-1.773 4.968-4.309 1.355-5.275-.024" transform="translate(-36.649 -62.86)" style="fill:#b3d3f1"/>
                        <path data-name="패스 11145" d="M45.715 71.409c-.948-1.353-.168-3.535 1.74-4.874s4.227-1.329 5.176.024.17 3.534-1.74 4.873-4.227 1.329-5.176-.023" transform="translate(-36.776 -62.973)" style="fill:#b5d4f1"/>
                        <path data-name="패스 11146" d="M45.911 71.475c-.93-1.326-.167-3.466 1.706-4.779s4.146-1.3 5.077.023.165 3.466-1.707 4.781-4.146 1.3-5.075-.024" transform="translate(-36.904 -63.087)" style="fill:#b6d4f1"/>
                        <path data-name="패스 11147" d="M46.1 71.542c-.912-1.3-.164-3.4 1.673-4.687s4.064-1.277 4.976.023.162 3.4-1.673 4.687-4.064 1.277-4.976-.023" transform="translate(-37.031 -63.2)" style="fill:#b7d5f2"/>
                        <path data-name="패스 11148" d="M46.3 71.61c-.895-1.274-.16-3.331 1.64-4.592s3.984-1.251 4.877.023.16 3.331-1.64 4.592-3.982 1.253-4.877-.023" transform="translate(-37.157 -63.315)" style="fill:#b8d6f2"/>
                        <path data-name="패스 11149" d="M46.49 71.676c-.876-1.249-.155-3.263 1.606-4.5s3.9-1.227 4.778.022.157 3.263-1.606 4.5-3.9 1.226-4.778-.023" transform="translate(-37.285 -63.427)" style="fill:#b9d6f2"/>
                        <path data-name="패스 11150" d="M46.684 71.744c-.858-1.222-.152-3.2 1.573-4.407s3.82-1.2 4.677.023.154 3.194-1.572 4.405-3.82 1.2-4.678-.022" transform="translate(-37.412 -63.542)" style="fill:#bbd7f2"/>
                        <path data-name="패스 11151" d="M46.879 71.811c-.84-1.2-.151-3.127 1.539-4.312s3.739-1.175 4.578.022.15 3.127-1.539 4.312-3.74 1.175-4.578-.022" transform="translate(-37.54 -63.655)" style="fill:#bcd8f3"/>
                        <path data-name="패스 11152" d="M47.073 71.878c-.821-1.171-.147-3.059 1.506-4.218s3.657-1.149 4.479.02.147 3.059-1.506 4.218-3.658 1.151-4.479-.02" transform="translate(-37.668 -63.769)" style="fill:#bdd9f3"/>
                        <path data-name="패스 11153" d="M47.267 71.944c-.8-1.145-.143-2.99 1.473-4.123s3.577-1.125 4.38.02.143 2.99-1.473 4.124-3.577 1.124-4.38-.02" transform="translate(-37.795 -63.883)" style="fill:#bed9f3"/>
                        <path data-name="패스 11154" d="M47.459 72.013c-.784-1.119-.14-2.922 1.44-4.03s3.495-1.1 4.28.018.14 2.924-1.44 4.032-3.495 1.1-4.28-.02" transform="translate(-37.922 -63.997)" style="fill:#bfdaf3"/>
                        <path data-name="패스 11155" d="M47.655 72.079c-.767-1.093-.138-2.856 1.4-3.938s3.415-1.073 4.18.02.137 2.855-1.405 3.937-3.415 1.073-4.18-.019" transform="translate(-38.051 -64.11)" style="fill:#c1daf4"/>
                        <path data-name="패스 11156" d="M47.849 72.146c-.748-1.066-.134-2.787 1.372-3.843s3.332-1.047 4.08.019.134 2.787-1.372 3.843-3.332 1.047-4.08-.019" transform="translate(-38.178 -64.224)" style="fill:#c2dbf4"/>
                        <path data-name="패스 11157" d="M48.043 72.214c-.729-1.041-.13-2.72 1.339-3.75s3.252-1.022 3.981.019.131 2.718-1.339 3.75-3.252 1.021-3.981-.019" transform="translate(-38.306 -64.338)" style="fill:#c3dcf4"/>
                        <path data-name="패스 11158" d="M48.236 72.28c-.711-1.014-.127-2.651 1.306-3.656s3.17-1 3.882.019.127 2.651-1.306 3.656-3.17 1-3.882-.019" transform="translate(-38.433 -64.451)" style="fill:#c4dcf4"/>
                        <path data-name="패스 11159" d="M48.431 72.347c-.693-.99-.125-2.583 1.271-3.563s3.088-.971 3.781.019.124 2.583-1.271 3.561-3.089.971-3.781-.017" transform="translate(-38.56 -64.565)" style="fill:#c5ddf5"/>
                        <path data-name="패스 11160" d="M48.625 72.415c-.675-.962-.121-2.514 1.238-3.468s3.007-.945 3.682.017.121 2.515-1.238 3.468-3.007.945-3.682-.017" transform="translate(-38.688 -64.679)" style="fill:#c7def5"/>
                        <path data-name="패스 11161" d="M48.818 72.482c-.657-.936-.116-2.448 1.205-3.374s2.926-.92 3.583.016.118 2.448-1.205 3.374-2.925.92-3.582-.016" transform="translate(-38.815 -64.792)" style="fill:#c8dff5"/>
                        <path data-name="패스 11162" d="M49.011 72.549c-.639-.909-.114-2.379 1.172-3.279s2.845-.895 3.484.016.113 2.379-1.173 3.28-2.845.895-3.483-.017" transform="translate(-38.942 -64.907)" style="fill:#c9dff5"/>
                        <path data-name="패스 11163" d="M49.207 72.616c-.621-.884-.112-2.311 1.138-3.187s2.763-.869 3.384.016.109 2.311-1.139 3.187-2.763.869-3.383-.016" transform="translate(-39.07 -65.02)" style="fill:#cae0f6"/>
                        <path data-name="패스 11164" d="M49.4 72.684c-.6-.859-.108-2.244 1.1-3.093s2.682-.843 3.283.016.108 2.242-1.1 3.092-2.683.843-3.283-.015" transform="translate(-39.197 -65.134)" style="fill:#cbe1f6"/>
                        <path data-name="패스 11165" d="M49.594 72.75c-.584-.833-.1-2.174 1.071-3s2.6-.818 3.184.015.1 2.174-1.072 3-2.6.817-3.184-.016" transform="translate(-39.325 -65.248)" style="fill:#cde2f6"/>
                        <path data-name="패스 11166" d="M49.787 72.817c-.565-.807-.1-2.107 1.038-2.907s2.52-.791 3.085.015.1 2.108-1.038 2.906-2.52.792-3.085-.014" transform="translate(-39.452 -65.361)" style="fill:#cee2f7"/>
                        <path data-name="패스 11167" d="M49.981 72.884c-.546-.779-.1-2.039 1-2.812s2.439-.767 2.986.014.1 2.039-1 2.812-2.438.767-2.986-.014" transform="translate(-39.579 -65.475)" style="fill:#cfe3f7"/>
                        <path data-name="패스 11168" d="M50.176 72.952c-.529-.754-.095-1.972.971-2.718s2.356-.741 2.885.013.095 1.972-.969 2.718-2.359.741-2.887-.013" transform="translate(-39.707 -65.589)" style="fill:#d0e4f7"/>
                        <path data-name="패스 11169" d="M50.37 73.019c-.511-.729-.091-1.9.936-2.625s2.277-.716 2.787.013.092 1.9-.938 2.623-2.275.716-2.786-.011" transform="translate(-39.835 -65.702)" style="fill:#d2e4f7"/>
                        <path data-name="패스 11170" d="M50.564 73.086c-.492-.7-.088-1.835.9-2.53s2.195-.69 2.688.011.088 1.835-.9 2.531-2.195.689-2.688-.013" transform="translate(-39.962 -65.817)" style="fill:#d3e5f8"/>
                        <path data-name="패스 11171" d="M50.757 73.153c-.473-.677-.085-1.768.87-2.438a1.887 1.887 0 0 1 2.589.013c.473.676.083 1.768-.871 2.436a1.886 1.886 0 0 1-2.588-.011" transform="translate(-40.089 -65.93)" style="fill:#d4e6f8"/>
                        <path data-name="패스 11172" d="M50.952 73.219c-.457-.65-.082-1.7.836-2.343a1.812 1.812 0 0 1 2.488.011c.456.65.082 1.7-.835 2.343a1.813 1.813 0 0 1-2.488-.011" transform="translate(-40.216 -66.044)" style="fill:#d5e6f8"/>
                        <path data-name="패스 11173" d="M51.147 73.287c-.437-.624-.078-1.631.8-2.249a1.741 1.741 0 0 1 2.389.01c.439.626.079 1.633-.8 2.251a1.742 1.742 0 0 1-2.389-.011" transform="translate(-40.345 -66.157)" style="fill:#d7e7f8"/>
                        <path data-name="패스 11174" d="M51.338 73.354c-.42-.6-.075-1.563.77-2.156a1.67 1.67 0 0 1 2.29.011c.42.6.075 1.563-.769 2.156a1.668 1.668 0 0 1-2.29-.011" transform="translate(-40.471 -66.272)" style="fill:#d8e8f9"/>
                        <path data-name="패스 11175" d="M51.532 73.42c-.4-.573-.072-1.5.736-2.063a1.6 1.6 0 0 1 2.19.01c.4.572.071 1.5-.736 2.062a1.6 1.6 0 0 1-2.19-.01" transform="translate(-40.598 -66.384)" style="fill:#d9e9f9"/>
                        <path data-name="패스 11176" d="M51.726 73.488c-.383-.545-.068-1.427.7-1.968a1.522 1.522 0 0 1 2.09.01c.384.545.069 1.427-.7 1.967a1.524 1.524 0 0 1-2.091-.01" transform="translate(-40.726 -66.499)" style="fill:#dae9f9"/>
                        <path data-name="패스 11177" d="M51.921 73.554c-.365-.521-.065-1.359.669-1.874a1.449 1.449 0 0 1 1.991.009c.365.521.066 1.359-.669 1.874a1.448 1.448 0 0 1-1.99-.008" transform="translate(-40.854 -66.612)" style="fill:#dceaf9"/>
                        <path data-name="패스 11178" d="M52.115 73.623c-.346-.495-.062-1.292.636-1.782a1.378 1.378 0 0 1 1.891.01c.347.493.062 1.291-.636 1.78a1.379 1.379 0 0 1-1.891-.008" transform="translate(-40.981 -66.726)" style="fill:#ddebfa"/>
                        <path data-name="패스 11179" d="M52.308 73.689c-.328-.468-.059-1.224.6-1.687a1.306 1.306 0 0 1 1.792.008c.328.469.057 1.224-.6 1.687a1.306 1.306 0 0 1-1.792-.008" transform="translate(-41.108 -66.839)" style="fill:#deecfa"/>
                        <path data-name="패스 11180" d="M52.5 73.756c-.311-.443-.056-1.156.568-1.593a1.234 1.234 0 0 1 1.693.007c.309.443.054 1.156-.57 1.594a1.232 1.232 0 0 1-1.691-.007" transform="translate(-41.237 -66.953)" style="fill:#dfecfa"/>
                        <path data-name="패스 11181" d="M52.7 73.823c-.292-.416-.052-1.087.535-1.5a1.16 1.16 0 0 1 1.592.007c.292.416.053 1.087-.535 1.5a1.159 1.159 0 0 1-1.592-.008" transform="translate(-41.364 -67.068)" style="fill:#e0edfa"/>
                        <path data-name="패스 11182" d="M52.891 73.891c-.273-.39-.049-1.02.5-1.406a1.089 1.089 0 0 1 1.493.007c.273.39.049 1.02-.5 1.407a1.088 1.088 0 0 1-1.493-.007" transform="translate(-41.492 -67.181)" style="fill:#e2eefb"/>
                        <path data-name="패스 11183" d="M53.084 73.957c-.254-.365-.046-.952.469-1.313a1.014 1.014 0 0 1 1.394.007c.254.364.045.951-.469 1.312a1.016 1.016 0 0 1-1.394-.006" transform="translate(-41.618 -67.294)" style="fill:#e3effb"/>
                        <path data-name="패스 11184" d="M53.278 74.024c-.236-.338-.042-.883.436-1.218a.941.941 0 0 1 1.293.006c.239.338.043.883-.434 1.218a.944.944 0 0 1-1.295-.006" transform="translate(-41.746 -67.408)" style="fill:#e4f0fb"/>
                        <path data-name="패스 11185" d="M53.473 74.093c-.22-.312-.039-.815.4-1.125a.871.871 0 0 1 1.194 0c.219.314.04.817-.4 1.126a.87.87 0 0 1-1.194-.006" transform="translate(-41.874 -67.522)" style="fill:#e5f0fb"/>
                        <path data-name="패스 11186" d="M53.666 74.159c-.2-.286-.036-.748.368-1.031a.8.8 0 0 1 1.095.006c.2.286.036.748-.368 1.031a.8.8 0 0 1-1.095-.006" transform="translate(-42 -67.636)" style="fill:#e7f1fb"/>
                        <path data-name="패스 11187" d="M53.859 74.226c-.183-.26-.033-.68.335-.938a.725.725 0 0 1 1 0c.183.26.032.68-.335.938a.725.725 0 0 1-1 0" transform="translate(-42.128 -67.749)" style="fill:#e8f2fc"/>
                        <path data-name="패스 11188" d="M54.054 74.3c-.164-.235-.029-.613.3-.844a.653.653 0 0 1 .9 0c.164.234.029.611-.3.843a.653.653 0 0 1-.9 0" transform="translate(-42.255 -67.864)" style="fill:#e9f2fc"/>
                        <path data-name="패스 11189" d="M54.249 74.361c-.147-.208-.026-.544.268-.749a.579.579 0 0 1 .8 0c.147.208.027.543-.268.751a.579.579 0 0 1-.8 0" transform="translate(-42.384 -67.977)" style="fill:#eaf3fc"/>
                        <path data-name="패스 11190" d="M54.442 74.429c-.128-.183-.023-.476.235-.657a.506.506 0 0 1 .7 0c.128.181.023.476-.234.656a.509.509 0 0 1-.7 0" transform="translate(-42.511 -68.091)" style="fill:#ecf4fc"/>
                        <path data-name="패스 11191" d="M54.636 74.5c-.109-.155-.02-.407.2-.562a.436.436 0 0 1 .6 0c.109.157.019.409-.2.563a.433.433 0 0 1-.6 0" transform="translate(-42.638 -68.206)" style="fill:#edf4fc"/>
                        <path data-name="패스 11192" d="M54.829 74.562a.431.431 0 0 1 .671-.462c.091.13.016.339-.168.468a.363.363 0 0 1-.5 0" transform="translate(-42.765 -68.318)" style="fill:#eef5fd"/>
                        <path data-name="패스 11193" d="M55.023 74.629c-.072-.1-.011-.272.135-.374a.289.289 0 0 1 .4 0c.074.1.014.272-.134.376a.291.291 0 0 1-.4 0" transform="translate(-42.893 -68.433)" style="fill:#eff6fd"/>
                        <path data-name="패스 11194" d="M55.219 74.7c-.054-.078-.01-.2.1-.282a.218.218 0 0 1 .3 0c.054.079.01.2-.1.282a.217.217 0 0 1-.3 0" transform="translate(-43.021 -68.546)" style="fill:#f1f7fd"/>
                        <path data-name="패스 11195" d="M55.411 74.762c-.036-.052-.007-.135.068-.187a.144.144 0 0 1 .2 0c.036.052.006.135-.068.187s-.162.052-.2 0" transform="translate(-43.148 -68.659)" style="fill:#f2f7fd"/>
                        <path data-name="패스 11196" d="M55.605 74.83a.087.087 0 1 1 .1 0 .073.073 0 0 1-.1 0" transform="translate(-43.275 -68.773)" style="fill:#f3f8fd"/>
                    </g>
                </g>
                <g data-name="그룹 3406">
                    <g data-name="그룹 3405" style="clip-path:url(#jhlz3abrjd)" transform="translate(24.007)">
                        <path data-name="사각형 2452" style="fill:url(#2fjdgnjqle)" d="M0 0h14.57v39.789H0z"/>
                    </g>
                </g>
                <g data-name="그룹 3421">
                    <g data-name="그룹 3420" style="clip-path:url(#7hmc7ecp5b)">
                        <g data-name="그룹 3411" style="isolation:isolate;mix-blend-mode:multiply">
                            <g data-name="그룹 3410">
                                <g data-name="그룹 3409" style="clip-path:url(#wj73gwavuf)" transform="translate(0 5.025)">
                                    <g data-name="그룹 3408">
                                        <g data-name="그룹 3407" style="clip-path:url(#inp8j878kg)">
                                            <path data-name="사각형 2453" transform="translate(-.907)" style="fill:url(#ehwouo2aha)" d="M0 0h30.855v36.42H0z"/>
                                        </g>
                                    </g>
                                </g>
                            </g>
                        </g>
                        <g data-name="그룹 3416" style="mix-blend-mode:screen;isolation:isolate">
                            <g data-name="그룹 3415">
                                <g data-name="그룹 3414" style="clip-path:url(#wj73gwavuf)" transform="translate(0 5.025)">
                                    <g data-name="그룹 3413">
                                        <g data-name="그룹 3412" style="clip-path:url(#inp8j878kg)">
                                            <path data-name="사각형 2455" transform="translate(-.907)" style="fill:url(#pyd3bs85vh)" d="M0 0h30.855v36.42H0z"/>
                                        </g>
                                    </g>
                                </g>
                            </g>
                        </g>
                        <g data-name="그룹 3419" style="isolation:isolate;mix-blend-mode:multiply">
                            <g data-name="그룹 3418">
                                <g data-name="그룹 3417" style="clip-path:url(#48gsnkss7i)" transform="translate(19.201 26.649)">
                                    <path data-name="패스 11201" d="M60.97 82.051a20.025 20.025 0 0 0-.112-9.672c-1.667 3.43-4.467 7.081-8.412 7.774-.1.017-.2.029-.3.044a18.1 18.1 0 0 1 1.307 6 28.77 28.77 0 0 0 7.512-4.141" transform="translate(-52.15 -72.379)" style="fill:#0082cb"/>
                                </g>
                            </g>
                        </g>
                        <path data-name="패스 11202" d="M135.459 33.523v18.3c0 1.96-3.211 2.248-5.113 2.248a8.527 8.527 0 0 1-2.454-.327v-8.17l-4.095.261v5.987c0 1.96-3.2 2.248-5.1 2.248a8.532 8.532 0 0 1-2.454-.327v-18.3c0-1.974 3.2-2.249 5.1-2.249a8.51 8.51 0 0 1 2.453.327v7.464l4.095-.249v-5.291c0-1.974 3.2-2.249 5.113-2.249a8.518 8.518 0 0 1 2.454.327" transform="translate(-73.445 -20.974)" style="fill:#002970"/>
                        <path data-name="패스 11203" d="M187.1 33.523v18.3c0 1.96-3.2 2.248-5.1 2.248a8.529 8.529 0 0 1-2.454-.327v-18.3c0-1.974 3.2-2.249 5.113-2.249a8.482 8.482 0 0 1 2.44.327" transform="translate(-113.443 -20.974)" style="fill:#002970"/>
                        <path data-name="패스 11204" d="m211.178 38.873-4.509.417a15.383 15.383 0 0 1-.269-2.959c0-2.327 1.168-2.919 3.982-2.973L223.5 33.2a11.416 11.416 0 0 1 .244 2.395c0 2.421-.86 3.161-3.045 3.161h-1.965v13.07c0 1.961-3.2 2.249-5.1 2.249a8.52 8.52 0 0 1-2.454-.327z" transform="translate(-130.407 -20.974)" style="fill:#002970"/>
                        <path data-name="패스 11205" d="M274.85 33.267a14.075 14.075 0 0 1 .179 2.118c0 2.314-1.118 2.824-4.085 2.824H266.8v3.058l7.476-.327a9.849 9.849 0 0 1 .129 1.477c0 2.47-.719 3.293-3.969 3.293H266.8v3.216l8.286-.418a8.67 8.67 0 0 1 .1 1.384c0 2.614-.8 3.856-3.622 3.856l-12.364-.013V36.248c0-2.353.989-2.745 3.879-2.8z" transform="translate(-163.769 -21.019)" style="fill:#002970"/>
                        <path data-name="패스 11206" d="M351 33.523v18.3c0 1.96-3.2 2.248-5.1 2.248a8.532 8.532 0 0 1-2.454-.327v-18.3c0-1.974 3.2-2.249 5.113-2.249a8.484 8.484 0 0 1 2.441.327" transform="translate(-216.998 -20.974)" style="fill:#0082cb"/>
                        <path data-name="패스 11207" d="M394.289 37.186v14.66c0 1.96-3.2 2.248-5.1 2.248a8.527 8.527 0 0 1-2.454-.327V39.113c0-1.248-.935-1.593-1.885-1.593a5.01 5.01 0 0 0-2.209.536v13.79c0 1.96-3.2 2.248-5.1 2.248a8.525 8.525 0 0 1-2.454-.327V35.586c0-2.091 2.916-2.34 4.92-2.34a11.2 11.2 0 0 1 1.914.119l.167 1.659a14.7 14.7 0 0 1 7.344-1.79c2.467 0 4.856 1.18 4.856 3.952" transform="translate(-236.987 -20.998)" style="fill:#0082cb"/>
                        <path data-name="패스 11208" d="M445.912 40.677c0-1.71 2.083-1.924 4.711-1.8 1.234.059 2.25-2.81 2.37-4.721a11.276 11.276 0 0 0 0-1.42 15.789 15.789 0 0 0-1.776-.04 6.86 6.86 0 0 0-6.14 3.761l-.524-3.524a10.187 10.187 0 0 0-1.082-.057c-1.914 0-5.113.275-5.113 2.249v18.3a8.528 8.528 0 0 0 2.454.327c1.9 0 5.1-.288 5.1-2.249z" transform="translate(-276.962 -20.653)" style="fill:#0082cb"/>
                        <path data-name="패스 11209" d="M494.1 52.657a15.147 15.147 0 0 1-6.975 1.412 8.343 8.343 0 0 1-3.88-.8c-2.877-1.568-3.789-5.111-3.789-10.051 0-4.051.6-7.685 3.8-9.606a15.238 15.238 0 0 1 7.078-1.412 7.645 7.645 0 0 1 3.777.8c2.967 1.529 3.789 5.045 3.789 10.051 0 4.039-.6 7.686-3.8 9.606m-5.331-15.775a3.106 3.106 0 0 0-1.682.484 28.905 28.905 0 0 0-.373 5.828c0 4.81.218 6.2 1.876 6.2a3.008 3.008 0 0 0 1.682-.5 29.229 29.229 0 0 0 .361-5.816c0-4.822-.193-6.2-1.863-6.2" transform="translate(-302.929 -20.346)" style="fill:#0082cb"/>
                        <path data-name="패스 11210" d="M304.718 35.476v18.466l-.135.085a9.948 9.948 0 0 0-2.362 2.118 7.193 7.193 0 0 0-1.5 4.687c.18 0 .361.008.544.008a13.253 13.253 0 0 0 7.039-1.724c2.9-1.781 4.028-4.006 4.028-7.932V33.351a7.54 7.54 0 0 0-2.429-.339c-1.938 0-5.188.32-5.188 2.464" transform="translate(-189.997 -20.858)" style="fill:#0082cb"/>
                    </g>
                </g>
            </g>
        </g>
    </g>
</svg>
