<svg id="레이어_1" data-name="레이어 1" xmlns="http://www.w3.org/2000/svg" viewBox="0 0 134.6 60.68">
  <defs>
    <style>
      .cls-1 {
        fill: #fff;
      }
    </style>
  </defs>
  <path class="cls-1" d="M.12,28.64a56.47,56.47,0,0,0,.07,8.43c.16,1.86,0,5.35,2,6.38,2.42,1.25,4.19-2.12,5.38-3.64L13,32.92l-2.35-.31c1.43,2.74,2.69,5.69,4.34,8.3S19.35,42,21,40.29c3.42-3.55,5.88-8.13,10.12-10.84,1.62-1,.12-3.63-1.52-2.59-3.59,2.3-6,5.73-8.67,9-.66.8-1.33,1.59-2.05,2.33a4.29,4.29,0,0,1-1.13,1c-.38.16,0,.19-.34,0s-.34-.65-.43-.82L13.19,31.1a1.51,1.51,0,0,0-2.36-.3l-3.91,5L4.81,38.46l-.9,1.15-.6.76c-.36.25-.33.37.07.39.57.2.17-.56.11-1s-.13-1-.18-1.52c-.11-1-.19-2.08-.25-3.12a58.91,58.91,0,0,1,.06-6.51c.13-1.92-2.87-1.92-3,0Z"/>
  <path class="cls-1" d="M53.65,32.37c1.9-2.73,5.31-4,8.52-4.17a29.74,29.74,0,0,1,5.74.28c1.55.21,3.51.28,4.9,1.05.25.13.63.3.74.59s.11.17.1,0a4.2,4.2,0,0,1-.37.49,16.47,16.47,0,0,1-2.08,2c-1.41,1.2-2.86,2.35-4.33,3.48-3.09,2.4-6.27,4.67-9.52,6.84-1.12.74-.85,3,.75,2.79q15.13-1.64,30.1-4.37c1.9-.34,1.09-3.24-.8-2.89q-14.57,2.65-29.3,4.26l.76,2.8q6.17-4.12,12-8.75a28.21,28.21,0,0,0,5-4.57c1.37-1.79.77-3.8-1-5s-4-1.33-6.06-1.61a30.49,30.49,0,0,0-7-.35c-4.2.37-8.18,2.09-10.64,5.62-1.11,1.58,1.49,3.08,2.59,1.51Z"/>
  <path class="cls-1" d="M95.44,24.55c-2.81,3.89-3.79,9-3.73,13.7a8.68,8.68,0,0,0,1.94,6A6.76,6.76,0,0,0,100,45.82c4.2-.82,7.77-4.26,9.42-8.1a12.41,12.41,0,0,0,1.11-6.43c-.31-2.28-2.14-4.29-4.6-3.35s-3.44,4.61-3.33,7.05,2,5.25,4.81,4.91a1.55,1.55,0,0,0,1.5-1.5,1.51,1.51,0,0,0-1.5-1.5c-1.59.19-1.93-1.63-1.77-2.86.05-.46.67-3.83,1.61-3.29.3.17.33.94.35,1.23a9.05,9.05,0,0,1-.19,2.26,11.82,11.82,0,0,1-1.72,4.11c-1.55,2.35-4.31,4.53-7.22,4.66a3.13,3.13,0,0,1-3.24-1.76A9.45,9.45,0,0,1,94.73,37,19.77,19.77,0,0,1,98,26.06a1.5,1.5,0,0,0-2.59-1.51Z"/>
  <path class="cls-1" d="M32.1,28.88a16.33,16.33,0,0,0,.8,7.38A10.53,10.53,0,0,0,37,41.08c4.14,2.59,9,1.54,12.61-1.44a8.7,8.7,0,0,1,2.82-2,2.14,2.14,0,0,1,2,.64c1.32,1.05,2.35,2.43,4,3.07,2.11.84,4.05-.15,5.66-1.52,1.9-1.63,3.55-3.53,5.42-5.19.7-.62,2-2.07,3-1.89a9.84,9.84,0,0,1,3.14,1.79C77.77,36,79.84,37.5,82.39,38c1.89.37,2.7-2.52.8-2.9a15.14,15.14,0,0,1-5.54-2.81c-1.56-1.08-3.6-2.69-5.61-2.59s-3.91,2.15-5.27,3.41c-1.71,1.59-3.25,3.44-5.1,4.86-1.67,1.27-2.7.41-4-.82a8.23,8.23,0,0,0-3.86-2.5c-2.22-.42-4.07,1-5.66,2.33-1.78,1.5-3.55,2.62-6,2.58a7.23,7.23,0,0,1-5.73-3c-1.6-2.25-1.51-5-1.35-7.64.12-1.92-2.88-1.92-3,0Z"/>
  <path class="cls-1" d="M3.39,32.14c1,2.69,2.19,5.46,4.6,7.21s6.07,2.55,9.07,3.21a44.17,44.17,0,0,0,20.42-.14C44,40.78,50.14,38,56.65,36.3c6.76-1.72,13.73-1.54,20.62-2.27,8-.86,16.16-3.46,24.31-2.27l-1-1.85a24.16,24.16,0,0,1-1.88,5.92,11.91,11.91,0,0,1-3.16,4.5c-1.76,1.3-3.93.53-5.86.06l-6.79-1.66L55.68,32.09c-1.88-.46-2.68,2.43-.8,2.89L85,42.33c4.2,1,9.22,3.19,12.93-.1,3.12-2.78,4.78-7.54,5.54-11.52a1.52,1.52,0,0,0-1-1.85c-6.93-1-13.7.42-20.52,1.53s-13.75,1-20.59,2c-6.45.9-12.47,3.3-18.61,5.37s-12.54,3.46-19.2,2.84a49.14,49.14,0,0,1-11-2.36,8,8,0,0,1-4-2.5,16.64,16.64,0,0,1-2.2-4.35c-.7-1.78-3.6-1-2.89.79Z"/>
  <path class="cls-1" d="M50.32,34.82a1.5,1.5,0,0,0,0-3,1.5,1.5,0,0,0,0,3Z"/>
  <path class="cls-1" d="M33.91,34.6a1.5,1.5,0,0,0,0-3,1.5,1.5,0,0,0,0,3Z"/>
  <path class="cls-1" d="M19.27,30.38h-.44a1.06,1.06,0,0,0-.58.13,1.14,1.14,0,0,0-.48.31,1,1,0,0,0-.31.48,1.15,1.15,0,0,0-.13.58l.05.4a1.59,1.59,0,0,0,.39.66l.3.23a1.48,1.48,0,0,0,.76.21h.44a1.15,1.15,0,0,0,.58-.13,1.11,1.11,0,0,0,.48-.31,1.14,1.14,0,0,0,.31-.48,1.08,1.08,0,0,0,.13-.58l-.05-.4a1.39,1.39,0,0,0-.39-.66l-.3-.24a1.54,1.54,0,0,0-.76-.2Z"/>
  <path class="cls-1" d="M8.57,30.82l-.33.33a1.14,1.14,0,0,0-.31.48,1.36,1.36,0,0,0,0,1.16,1.08,1.08,0,0,0,.31.48l.3.24a1.54,1.54,0,0,0,.76.2l.39-.05a1.47,1.47,0,0,0,.67-.39l.33-.33a1.14,1.14,0,0,0,.31-.48,1.17,1.17,0,0,0,.13-.58A1.15,1.15,0,0,0,11,31.3a1,1,0,0,0-.31-.48l-.3-.24a1.57,1.57,0,0,0-.76-.2l-.4.05a1.49,1.49,0,0,0-.66.39Z"/>
  <path class="cls-1" d="M6.3,36.15a1.5,1.5,0,0,0,0-3,1.5,1.5,0,0,0,0,3Z"/>
  <path class="cls-1" d="M6.19,38.26a1.5,1.5,0,0,0,0-3,1.5,1.5,0,0,0,0,3Z"/>
  <path class="cls-1" d="M42.4,36.64l.77-.22a1.14,1.14,0,0,0,.51-.27,1.34,1.34,0,0,0,.57-1,1.22,1.22,0,0,0,0-.6l-.15-.35a1.4,1.4,0,0,0-.54-.54l-.36-.15a1.33,1.33,0,0,0-.79,0l-.78.22a1.26,1.26,0,0,0-.51.27,1.31,1.31,0,0,0-.39.42,1.82,1.82,0,0,0-.15,1.16l.15.35a1.55,1.55,0,0,0,.54.54l.36.15a1.36,1.36,0,0,0,.8,0Z"/>
  <path class="cls-1" d="M79.7,32.6a1.5,1.5,0,0,0,0-3,1.5,1.5,0,0,0,0,3Z"/>
  <path class="cls-1" d="M88,39.59a1.5,1.5,0,0,0,0-3,1.5,1.5,0,0,0,0,3Z"/>
  <path class="cls-1" d="M88,39.59a1.5,1.5,0,0,0,0-3,1.5,1.5,0,0,0,0,3Z"/>
  <path class="cls-1" d="M92.89,13.31a1.5,1.5,0,0,0,0-3,1.5,1.5,0,0,0,0,3Z"/>
  <path class="cls-1" d="M95.77,7.73l-1-.1a1.06,1.06,0,0,0-.58.13,1.11,1.11,0,0,0-.49.31,1.21,1.21,0,0,0-.31.48,1.14,1.14,0,0,0-.12.58l0,.4a1.57,1.57,0,0,0,.38.66l.31.23a1.43,1.43,0,0,0,.76.21l1,.1a1.06,1.06,0,0,0,.58-.13,1,1,0,0,0,.48-.31,1,1,0,0,0,.31-.48,1.06,1.06,0,0,0,.13-.58l0-.4a1.49,1.49,0,0,0-.39-.66l-.3-.23a1.45,1.45,0,0,0-.76-.21Z"/>
  <path class="cls-1" d="M72.27,1h-.11a1.06,1.06,0,0,0-.58.13,1,1,0,0,0-.48.31,1,1,0,0,0-.31.48,1.06,1.06,0,0,0-.13.58l0,.4a1.49,1.49,0,0,0,.39.66l.3.23a1.45,1.45,0,0,0,.76.21h.11a1.17,1.17,0,0,0,.58-.13,1.14,1.14,0,0,0,.48-.31,1.24,1.24,0,0,0,.31-.48,1.15,1.15,0,0,0,.13-.58l-.06-.4a1.57,1.57,0,0,0-.38-.66L73,1.2a1.5,1.5,0,0,0-.75-.2Z"/>
  <path class="cls-1" d="M63.51,0H63.4a1.15,1.15,0,0,0-.58.13,1,1,0,0,0-.48.31A1.14,1.14,0,0,0,62,.92a1.06,1.06,0,0,0-.13.58l.05.4a1.49,1.49,0,0,0,.39.66l.3.24a1.57,1.57,0,0,0,.76.2h.11a1.06,1.06,0,0,0,.58-.13,1.14,1.14,0,0,0,.48-.31,1.08,1.08,0,0,0,.31-.48A1.15,1.15,0,0,0,65,1.5L65,1.1a1.59,1.59,0,0,0-.39-.66l-.3-.23A1.48,1.48,0,0,0,63.51,0Z"/>
  <path class="cls-1" d="M43.67,4.67l-.89.11a1.15,1.15,0,0,0-.58.13,1.08,1.08,0,0,0-.48.31,1.14,1.14,0,0,0-.31.48,1.08,1.08,0,0,0-.13.58l0,.4a1.44,1.44,0,0,0,.39.66l.3.24a1.57,1.57,0,0,0,.76.2l.89-.11a1.14,1.14,0,0,0,.57-.13,1.11,1.11,0,0,0,.49-.31A1.24,1.24,0,0,0,45,6.75a1.27,1.27,0,0,0,.13-.58l-.06-.4a1.57,1.57,0,0,0-.38-.66l-.31-.24a1.5,1.5,0,0,0-.75-.2Z"/>
  <path class="cls-1" d="M34,7c-1.7,7.16-3.35,15.36,1.12,21.91,4.12,6.06,11.24,8.62,18.25,9.4,4.25.47,8.73.55,12.83-.84,1.82-.62,1-3.51-.8-2.89-4.13,1.4-8.73,1.21-13,.61a24.1,24.1,0,0,1-11.36-4.33,14.57,14.57,0,0,1-5.67-9.67c-.61-4.51.49-9,1.53-13.39.44-1.88-2.45-2.68-2.9-.8Z"/>
  <path class="cls-1" d="M61,6.92a31.93,31.93,0,0,1-5.67,21A21.64,21.64,0,0,1,47,35.46c-3.73,1.67-8.24,1.44-12.22,1a43.7,43.7,0,0,1-11.94-3.1c-3.5-1.45-7.44-3.32-9-7-.73-1.72-1-3.84.36-5.32A14.58,14.58,0,0,1,19.08,18a35,35,0,0,1,11.33-2.48A72.9,72.9,0,0,1,55,17.58c3.73,1,8,2.29,10.9,4.9s3.93,6.59,3.82,10.41A40.63,40.63,0,0,1,67,45.18a36.7,36.7,0,0,1-5.51,10.33c-1.25,1.58-2.6,2.47-4.68,2.07a17.17,17.17,0,0,1-5.52-2.22A49.74,49.74,0,0,1,42,47.88a82.88,82.88,0,0,1-8-9.09c-2.42-3.19-4.86-6.59-5.73-10.57a10.29,10.29,0,0,1,3-9.95c2.75-2.61,6.41-3.82,10.07-4.47,2.06-.37,4.14-.56,6.22-.75,1.91-.18,1.93-3.18,0-3C39.52,10.8,29.45,12.3,26,20.91c-3.62,8.94,4.05,18,9.48,24.3a74,74,0,0,0,9.89,9.58c3.41,2.71,7.35,5.36,11.79,5.85,4.7.51,7.38-3.74,9.45-7.32a49.38,49.38,0,0,0,4.91-12.46c1.17-4.57,1.93-9.5.53-14.1a15,15,0,0,0-8.45-9.29c-8.62-4-18.48-5.27-27.91-5.18a55.63,55.63,0,0,0-13.37,1.45,29.15,29.15,0,0,0-6,2.27,12.55,12.55,0,0,0-5.05,4C8.8,23.7,11,28.8,13.86,31.55c3.25,3.08,8,4.86,12.18,6.15a46.46,46.46,0,0,0,13.86,2A19.33,19.33,0,0,0,52.46,35.5C59.1,30.1,63.07,21.58,64,13.17a32.62,32.62,0,0,0,0-6.25C63.86,5,60.86,5,61,6.92Z"/>
  <path class="cls-1" d="M91.83,12.85A52.64,52.64,0,0,1,61.09,45a53.19,53.19,0,0,1-25.58,2.94A52.76,52.76,0,0,1,23,44.69c-3.77-1.5-7.78-3.48-10.15-6.92-2.54-3.69-3.18-8.3-3.49-12.67-.36-5-.81-10.19.52-15.06l-2.5.66c15.69,14.81,31.7,29.87,50.87,40.11C68,56,79,60.79,90.23,58.69c9.51-1.79,18.13-7.79,24.1-15.27a52.17,52.17,0,0,0,11.34-31.76c0-2.12.14-4.76-2.51-5.21a10.9,10.9,0,0,0-3.5.29c-1.41.24-2.82.54-4.22.9a57.9,57.9,0,0,0-7.76,2.59C86.75,18.78,71.79,36.8,51.62,46.65c-9.53,4.66-20.8,7.62-31.36,5.12A23.84,23.84,0,0,1,8.36,45.4c-3.58-3.73-4.83-8.73-4.65-13.79a41.83,41.83,0,0,1,1.13-7.87l-.69.89c4.08-2.31,9.13,1.45,12.49,3.57,4,2.54,7.87,5.26,11.71,8C36,41.75,43.54,47.49,51.65,52.34a97.55,97.55,0,0,0,14.26,7.08c1.8.7,2.58-2.2.8-2.9C54.75,51.82,44.3,44.14,34,36.63,28.73,32.8,23.47,29,18,25.5c-2.66-1.68-5.43-3.48-8.53-4.22-2.36-.57-7-.75-7.63,2.28-1.38,6.23-1.85,13,.9,18.88C5.08,47.55,9.77,51.1,14.87,53.2c12,4.94,25.92,1.86,37.26-3.47,12.5-5.89,23-15.08,34-23.25A123.38,123.38,0,0,1,102.93,15.7c5.82-3,12.27-5.53,18.82-6.26a3.13,3.13,0,0,1,.68-.06c.46.08.07-.26.22.27a8,8,0,0,1,0,2c0,1.41-.09,2.82-.22,4.21a48.16,48.16,0,0,1-1.57,8.26,49.13,49.13,0,0,1-7.16,15.15C107,48.88,95.66,56.66,83.54,56.2c-6.84-.26-13.41-2.88-19.5-5.82a131.92,131.92,0,0,1-17.11-10C36,32.9,26.15,24.1,16.51,15.12c-2.34-2.17-4.65-4.35-7-6.54A1.52,1.52,0,0,0,7,9.24C5.74,14,6,18.88,6.31,23.71,6.56,28,7,32.3,8.67,36.25c3.6,8.44,13.43,12,21.78,13.82A55.41,55.41,0,0,0,79.9,36.65a55.87,55.87,0,0,0,14.82-23c.61-1.84-2.28-2.63-2.89-.8Z"/>
  <path class="cls-1" d="M129.46,12.69a122.12,122.12,0,0,1,2,28.56c-.09,2-.2,4.17-1.29,6a8,8,0,0,1-3.8,3c-3.36,1.41-7.23,1.62-10.82,1.81a82.59,82.59,0,0,1-47.3-11.88C61,35.71,53.49,29.85,51.17,21.28a1.5,1.5,0,0,0-2.89.8c2.18,8.08,8.53,14,15.25,18.59A84,84,0,0,0,87.76,51.88a85.32,85.32,0,0,0,26.31,3.2c7.16-.26,17.88-.75,19.89-9.38a38.41,38.41,0,0,0,.62-7.87q.07-4.28-.13-8.55a128.25,128.25,0,0,0-2.1-17.38c-.36-1.9-3.25-1.09-2.89.79Z"/>
</svg>
